<?xml version="1.0" encoding="UTF-8"?>
<svg width="82.733mm" height="77.158mm" version="1.1" viewBox="0 0 82.733 77.158" xmlns="http://www.w3.org/2000/svg" xmlns:ns3="http://www.iki.fi/pav/software/textext/">
 <defs>
  <marker id="marker1781" overflow="visible" orient="auto">
   <path transform="scale(.4)" d="m0 5.65v-11.3" fill="none" stroke="#000" stroke-width="1pt"/>
  </marker>
  <marker id="StopM" overflow="visible" orient="auto">
   <path transform="scale(.4)" d="m0 5.65v-11.3" fill="none" stroke="#000" stroke-width="1pt"/>
  </marker>
  <marker id="marker1587" overflow="visible" orient="auto">
   <path transform="scale(.4)" d="m5.77 0-8.65 5v-10z" fill-rule="evenodd" stroke="#000" stroke-width="1pt"/>
  </marker>
  <marker id="marker1457" overflow="visible" orient="auto">
   <path transform="scale(-.4)" d="m5.77 0-8.65 5v-10z" fill-rule="evenodd" stroke="#000" stroke-width="1pt"/>
  </marker>
  <marker id="TriangleOutM" overflow="visible" orient="auto">
   <path transform="scale(.4)" d="m5.77 0-8.65 5v-10z" fill-rule="evenodd" stroke="#000" stroke-width="1pt"/>
  </marker>
  <marker id="TriangleInM" overflow="visible" orient="auto">
   <path transform="scale(-.4)" d="m5.77 0-8.65 5v-10z" fill-rule="evenodd" stroke="#000" stroke-width="1pt"/>
  </marker>
 </defs>
 <g transform="translate(-58.612 -59.468)">
  <g fill="none" stroke="#000">
   <rect x="63.5" y="63.5" width="74.083" height="68.792" stop-color="#000000" stroke-dasharray="0.53, 1.06" stroke-width=".265" style="font-variation-settings:normal"/>
   <path d="m100.54 63.5v3.8696 5.2443 6.4546 5.2443 4.8409 10.838 5.6333 5.1639 5.1639 4.6944 7.0417 4.6025" marker-end="url(#TriangleOutM)" marker-mid="url(#marker1781)" marker-start="url(#TriangleInM)" stroke-width=".26458px"/>
   <path d="m63.5 95.25h3.8696 6.0512 5.2443 5.2443 5.2443 6.0512 10.489 5.6478 4.8409 5.6477 4.4375 6.0512 5.2646" marker-end="url(#marker1587)" marker-mid="url(#StopM)" marker-start="url(#marker1457)" stroke-width=".265"/>
  </g>
  <g stroke-width=".26458">
   <text x="140.13162" y="96.153931" font-family="'CMU Serif'" font-size="4.2333px" letter-spacing="0px" text-align="center" text-anchor="middle" word-spacing="0px" style="line-height:1.25" xml:space="preserve"><tspan x="140.13162" y="96.153931" font-style="italic" stroke-width=".26458">x</tspan></text>
   <text x="100.38094" y="61.339108" font-family="'CMU Serif'" font-size="4.2333px" letter-spacing="0px" text-align="center" text-anchor="middle" word-spacing="0px" style="line-height:1.25" xml:space="preserve"><tspan x="100.38094" y="61.339108" font-style="italic" stroke-width=".26458">y</tspan></text>
   <circle cx="100.54" cy="95.25" r="1.3229" fill-rule="evenodd" stop-color="#000000" stroke="#000" style="font-variation-settings:normal"/>
  </g>
  <g font-family="'CMU Serif'" letter-spacing="0px" text-anchor="middle" word-spacing="0px">
   <text x="100.54311" y="96.212807" font-size="2.9899px" stroke-width=".18687" text-align="center" style="line-height:1.25" xml:space="preserve"><tspan x="100.54311" y="96.212807" fill="#ffffff" stroke-width=".18687">0</tspan></text>
   <text x="60.253597" y="96.072723" font-size="4.2333px" stroke-width=".26458" text-align="center" style="line-height:1.25" xml:space="preserve"><tspan x="60.253597" y="96.072723" stroke-width=".26458">-<tspan font-style="italic">x</tspan></tspan></text>
   <text x="99.919662" y="135.75854" font-size="4.2333px" stroke-width=".26458" text-align="center" style="line-height:1.25" xml:space="preserve"><tspan x="99.919662" y="135.75854" font-style="italic" stroke-width=".26458"><tspan font-style="normal">-</tspan>y</tspan></text>
  </g>
  <g transform="matrix(.35278 0 0 .35278 114.35 77.278)" ns3:alignment="middle center" ns3:jacobian_sqrt="0.352778" ns3:pdfconverter="inkscape" ns3:preamble="/Users/ketiboldiais/Library/Application Support/org.inkscape.Inkscape/config/inkscape/extensions/inkscapeMadeEasy/basicLatexPackages.tex" ns3:scale="1.0" ns3:texconverter="pdflatex" ns3:text="$\\mathbb{R}^+ \\times \\mathbb{R}^+$\n" ns3:version="1.3.1">
   <defs></defs>
   <g id="id-eba75a71-f332-4947-916c-d05f1374e84f" transform="translate(-148.87 -126.84)">
    <g transform="translate(148.71 134.76)">
     <path d="m2.6719-3.125h0.35938l1.5 2.3125c0.09375 0.15625 0.32812 0.54688 0.4375 0.6875 0.078125 0.125 0.10938 0.125 0.32812 0.125h1.375c0.1875 0 0.34375 0 0.34375-0.17188 0-0.09375-0.0625-0.15625-0.15625-0.17188-0.375-0.078125-0.85938-0.75-1.0938-1.0625-0.078125-0.09375-0.57812-0.75-1.2344-1.8281 0.875-0.17188 1.7344-0.54688 1.7344-1.7344 0-1.375-1.4531-1.8594-2.6406-1.8594h-3.125c-0.1875 0-0.34375 0-0.34375 0.17188s0.1875 0.17188 0.26562 0.17188c0.57812 0 0.625 0.078125 0.625 0.57812v4.9844c0 0.5-0.046875 0.57812-0.625 0.57812-0.078125 0-0.26562 0-0.26562 0.17188s0.15625 0.17188 0.34375 0.17188h2.7344c0.17188 0 0.32812 0 0.32812-0.17188s-0.17188-0.17188-0.28125-0.17188c-0.5625 0-0.60938-0.078125-0.60938-0.57812zm1.9219-0.5c0.28125-0.35938 0.3125-0.89062 0.3125-1.3281 0-0.48438-0.0625-1.0156-0.375-1.4219 0.40625 0.09375 1.3906 0.40625 1.3906 1.4062 0 0.65625-0.29688 1.1562-1.3281 1.3438zm-1.9219-2.3125c0-0.21875 0-0.54688 0.625-0.54688 0.84375 0 1.2656 0.35938 1.2656 1.5312 0 1.2812-0.3125 1.4688-1.8906 1.4688zm-1.3594 5.5938c0.078125-0.1875 0.078125-0.46875 0.078125-0.54688v-5.0469c0-0.09375 0-0.35938-0.078125-0.54688h1.1406c-0.125 0.17188-0.125 0.35938-0.125 0.51562v5.0781c0 0.09375 0 0.35938 0.078125 0.54688zm2.125-2.7812c0.078125-0.015625 0.10938-0.03125 0.1875-0.03125 0.15625 0 0.375-0.015625 0.51562-0.03125 0.15625 0.23438 1.2344 2.0156 2.0625 2.8438h-0.96875z"/>
    </g>
    <g transform="translate(155.91 131.15)">
     <path d="m3.2188-1.5781h2.1406c0.09375 0 0.25 0 0.25-0.15625 0-0.1875-0.15625-0.1875-0.25-0.1875h-2.1406v-2.1406c0-0.078125 0-0.25-0.15625-0.25-0.17188 0-0.17188 0.15625-0.17188 0.25v2.1406h-2.1406c-0.09375 0-0.26562 0-0.26562 0.17188s0.15625 0.17188 0.26562 0.17188h2.1406v2.1406c0 0.09375 0 0.26562 0.15625 0.26562 0.17188 0 0.17188-0.17188 0.17188-0.26562z"/>
    </g>
    <g transform="translate(164.74 134.76)">
     <path d="m3.875-2.7656-1.9844-1.9844c-0.125-0.125-0.14062-0.14062-0.21875-0.14062-0.10938 0-0.20312 0.078125-0.20312 0.20312 0 0.0625 0.015625 0.078125 0.125 0.1875l2 2-2 2.0156c-0.10938 0.10938-0.125 0.125-0.125 0.1875 0 0.125 0.09375 0.20312 0.20312 0.20312 0.078125 0 0.09375-0.015625 0.21875-0.14062l1.9844-1.9844 2.0625 2.0625c0.015625 0.015625 0.078125 0.0625 0.14062 0.0625 0.125 0 0.20312-0.078125 0.20312-0.20312 0-0.015625 0-0.046875-0.03125-0.10938-0.015625-0.015625-1.5938-1.5781-2.0938-2.0938l1.8281-1.8125c0.046875-0.0625 0.20312-0.1875 0.25-0.25 0-0.015625 0.046875-0.0625 0.046875-0.125 0-0.125-0.078125-0.20312-0.20312-0.20312-0.078125 0-0.10938 0.03125-0.21875 0.14062z"/>
    </g>
    <g transform="translate(174.7 134.76)">
     <path d="m2.6719-3.125h0.35938l1.5 2.3125c0.09375 0.15625 0.32812 0.54688 0.4375 0.6875 0.078125 0.125 0.10938 0.125 0.32812 0.125h1.375c0.1875 0 0.34375 0 0.34375-0.17188 0-0.09375-0.0625-0.15625-0.15625-0.17188-0.375-0.078125-0.85938-0.75-1.0938-1.0625-0.078125-0.09375-0.57812-0.75-1.2344-1.8281 0.875-0.17188 1.7344-0.54688 1.7344-1.7344 0-1.375-1.4531-1.8594-2.6406-1.8594h-3.125c-0.1875 0-0.34375 0-0.34375 0.17188s0.1875 0.17188 0.26562 0.17188c0.57812 0 0.625 0.078125 0.625 0.57812v4.9844c0 0.5-0.046875 0.57812-0.625 0.57812-0.078125 0-0.26562 0-0.26562 0.17188s0.15625 0.17188 0.34375 0.17188h2.7344c0.17188 0 0.32812 0 0.32812-0.17188s-0.17188-0.17188-0.28125-0.17188c-0.5625 0-0.60938-0.078125-0.60938-0.57812zm1.9219-0.5c0.28125-0.35938 0.3125-0.89062 0.3125-1.3281 0-0.48438-0.0625-1.0156-0.375-1.4219 0.40625 0.09375 1.3906 0.40625 1.3906 1.4062 0 0.65625-0.29688 1.1562-1.3281 1.3438zm-1.9219-2.3125c0-0.21875 0-0.54688 0.625-0.54688 0.84375 0 1.2656 0.35938 1.2656 1.5312 0 1.2812-0.3125 1.4688-1.8906 1.4688zm-1.3594 5.5938c0.078125-0.1875 0.078125-0.46875 0.078125-0.54688v-5.0469c0-0.09375 0-0.35938-0.078125-0.54688h1.1406c-0.125 0.17188-0.125 0.35938-0.125 0.51562v5.0781c0 0.09375 0 0.35938 0.078125 0.54688zm2.125-2.7812c0.078125-0.015625 0.10938-0.03125 0.1875-0.03125 0.15625 0 0.375-0.015625 0.51562-0.03125 0.15625 0.23438 1.2344 2.0156 2.0625 2.8438h-0.96875z"/>
    </g>
    <g transform="translate(181.89 131.15)">
     <path d="m3.2188-1.5781h2.1406c0.09375 0 0.25 0 0.25-0.15625 0-0.1875-0.15625-0.1875-0.25-0.1875h-2.1406v-2.1406c0-0.078125 0-0.25-0.15625-0.25-0.17188 0-0.17188 0.15625-0.17188 0.25v2.1406h-2.1406c-0.09375 0-0.26562 0-0.26562 0.17188s0.15625 0.17188 0.26562 0.17188h2.1406v2.1406c0 0.09375 0 0.26562 0.15625 0.26562 0.17188 0 0.17188-0.17188 0.17188-0.26562z"/>
    </g>
   </g>
  </g>
  <g transform="matrix(.35278 0 0 .35278 74.942 77.278)" ns3:alignment="middle center" ns3:jacobian_sqrt="0.352778" ns3:pdfconverter="inkscape" ns3:preamble="/Users/ketiboldiais/Library/Application Support/org.inkscape.Inkscape/config/inkscape/extensions/inkscapeMadeEasy/basicLatexPackages.tex" ns3:scale="1.0" ns3:texconverter="pdflatex" ns3:text="$\\mathbb{R}^- \\times \\mathbb{R}^+$\n" ns3:version="1.3.1">
   <defs id="id-75c00e66-d735-4be9-be35-33feb7d8bcbb"></defs>
   <g transform="translate(-148.87 -126.84)">
    <g id="id-cf296496-bbce-4036-ab3c-f3c4e5d21a0c">
     <g transform="translate(148.71 134.76)">
      <path d="m2.6719-3.125h0.35938l1.5 2.3125c0.09375 0.15625 0.32812 0.54688 0.4375 0.6875 0.078125 0.125 0.10938 0.125 0.32812 0.125h1.375c0.1875 0 0.34375 0 0.34375-0.17188 0-0.09375-0.0625-0.15625-0.15625-0.17188-0.375-0.078125-0.85938-0.75-1.0938-1.0625-0.078125-0.09375-0.57812-0.75-1.2344-1.8281 0.875-0.17188 1.7344-0.54688 1.7344-1.7344 0-1.375-1.4531-1.8594-2.6406-1.8594h-3.125c-0.1875 0-0.34375 0-0.34375 0.17188s0.1875 0.17188 0.26562 0.17188c0.57812 0 0.625 0.078125 0.625 0.57812v4.9844c0 0.5-0.046875 0.57812-0.625 0.57812-0.078125 0-0.26562 0-0.26562 0.17188s0.15625 0.17188 0.34375 0.17188h2.7344c0.17188 0 0.32812 0 0.32812-0.17188s-0.17188-0.17188-0.28125-0.17188c-0.5625 0-0.60938-0.078125-0.60938-0.57812zm1.9219-0.5c0.28125-0.35938 0.3125-0.89062 0.3125-1.3281 0-0.48438-0.0625-1.0156-0.375-1.4219 0.40625 0.09375 1.3906 0.40625 1.3906 1.4062 0 0.65625-0.29688 1.1562-1.3281 1.3438zm-1.9219-2.3125c0-0.21875 0-0.54688 0.625-0.54688 0.84375 0 1.2656 0.35938 1.2656 1.5312 0 1.2812-0.3125 1.4688-1.8906 1.4688zm-1.3594 5.5938c0.078125-0.1875 0.078125-0.46875 0.078125-0.54688v-5.0469c0-0.09375 0-0.35938-0.078125-0.54688h1.1406c-0.125 0.17188-0.125 0.35938-0.125 0.51562v5.0781c0 0.09375 0 0.35938 0.078125 0.54688zm2.125-2.7812c0.078125-0.015625 0.10938-0.03125 0.1875-0.03125 0.15625 0 0.375-0.015625 0.51562-0.03125 0.15625 0.23438 1.2344 2.0156 2.0625 2.8438h-0.96875z"/>
     </g>
    </g>
    <g id="id-dc83c9bb-ee1b-4d39-843d-9162a3245b5f">
     <g transform="translate(155.91 131.15)">
      <path id="id-abf66ad1-eb3e-4c9c-9fa0-1141b90a28ca" d="m5.1875-1.5781c0.10938 0 0.28125 0 0.28125-0.15625 0-0.1875-0.17188-0.1875-0.28125-0.1875h-4.1562c-0.10938 0-0.28125 0-0.28125 0.17188s0.15625 0.17188 0.28125 0.17188z"/>
     </g>
    </g>
    <g transform="translate(164.85 134.76)">
     <path d="m3.875-2.7656-1.9844-1.9844c-0.125-0.125-0.14062-0.14062-0.21875-0.14062-0.10938 0-0.20312 0.078125-0.20312 0.20312 0 0.0625 0.015625 0.078125 0.125 0.1875l2 2-2 2.0156c-0.10938 0.10938-0.125 0.125-0.125 0.1875 0 0.125 0.09375 0.20312 0.20312 0.20312 0.078125 0 0.09375-0.015625 0.21875-0.14062l1.9844-1.9844 2.0625 2.0625c0.015625 0.015625 0.078125 0.0625 0.14062 0.0625 0.125 0 0.20312-0.078125 0.20312-0.20312 0-0.015625 0-0.046875-0.03125-0.10938-0.015625-0.015625-1.5938-1.5781-2.0938-2.0938l1.8281-1.8125c0.046875-0.0625 0.20312-0.1875 0.25-0.25 0-0.015625 0.046875-0.0625 0.046875-0.125 0-0.125-0.078125-0.20312-0.20312-0.20312-0.078125 0-0.10938 0.03125-0.21875 0.14062z"/>
    </g>
    <g id="id-510d8fb4-7c67-4b1c-b120-aa3cbd19d8ce">
     <g transform="translate(174.81 134.76)">
      <path d="m2.6719-3.125h0.35938l1.5 2.3125c0.09375 0.15625 0.32812 0.54688 0.4375 0.6875 0.078125 0.125 0.10938 0.125 0.32812 0.125h1.375c0.1875 0 0.34375 0 0.34375-0.17188 0-0.09375-0.0625-0.15625-0.15625-0.17188-0.375-0.078125-0.85938-0.75-1.0938-1.0625-0.078125-0.09375-0.57812-0.75-1.2344-1.8281 0.875-0.17188 1.7344-0.54688 1.7344-1.7344 0-1.375-1.4531-1.8594-2.6406-1.8594h-3.125c-0.1875 0-0.34375 0-0.34375 0.17188s0.1875 0.17188 0.26562 0.17188c0.57812 0 0.625 0.078125 0.625 0.57812v4.9844c0 0.5-0.046875 0.57812-0.625 0.57812-0.078125 0-0.26562 0-0.26562 0.17188s0.15625 0.17188 0.34375 0.17188h2.7344c0.17188 0 0.32812 0 0.32812-0.17188s-0.17188-0.17188-0.28125-0.17188c-0.5625 0-0.60938-0.078125-0.60938-0.57812zm1.9219-0.5c0.28125-0.35938 0.3125-0.89062 0.3125-1.3281 0-0.48438-0.0625-1.0156-0.375-1.4219 0.40625 0.09375 1.3906 0.40625 1.3906 1.4062 0 0.65625-0.29688 1.1562-1.3281 1.3438zm-1.9219-2.3125c0-0.21875 0-0.54688 0.625-0.54688 0.84375 0 1.2656 0.35938 1.2656 1.5312 0 1.2812-0.3125 1.4688-1.8906 1.4688zm-1.3594 5.5938c0.078125-0.1875 0.078125-0.46875 0.078125-0.54688v-5.0469c0-0.09375 0-0.35938-0.078125-0.54688h1.1406c-0.125 0.17188-0.125 0.35938-0.125 0.51562v5.0781c0 0.09375 0 0.35938 0.078125 0.54688zm2.125-2.7812c0.078125-0.015625 0.10938-0.03125 0.1875-0.03125 0.15625 0 0.375-0.015625 0.51562-0.03125 0.15625 0.23438 1.2344 2.0156 2.0625 2.8438h-0.96875z"/>
     </g>
    </g>
    <g transform="translate(182 131.15)">
     <path id="id-2e182cd2-5d7e-411e-96a5-15050e45150a" d="m3.2188-1.5781h2.1406c0.09375 0 0.25 0 0.25-0.15625 0-0.1875-0.15625-0.1875-0.25-0.1875h-2.1406v-2.1406c0-0.078125 0-0.25-0.15625-0.25-0.17188 0-0.17188 0.15625-0.17188 0.25v2.1406h-2.1406c-0.09375 0-0.26562 0-0.26562 0.17188s0.15625 0.17188 0.26562 0.17188h2.1406v2.1406c0 0.09375 0 0.26562 0.15625 0.26562 0.17188 0 0.17188-0.17188 0.17188-0.26562z"/>
    </g>
   </g>
  </g>
  <g transform="matrix(.35278 0 0 .35278 74.967 110.95)" ns3:alignment="middle center" ns3:jacobian_sqrt="0.352778" ns3:pdfconverter="inkscape" ns3:preamble="/Users/ketiboldiais/Library/Application Support/org.inkscape.Inkscape/config/inkscape/extensions/inkscapeMadeEasy/basicLatexPackages.tex" ns3:scale="1.0" ns3:texconverter="pdflatex" ns3:text="$\\mathbb{R}^- \\times \\mathbb{R}^-$\n" ns3:version="1.3.1">
   <defs></defs>
   <g transform="translate(-148.87 -127.94)">
    <g id="id-9dea7331-3971-4e61-9e39-725e9a8823da">
     <g transform="translate(148.71 134.76)">
      <path d="m2.6719-3.125h0.35938l1.5 2.3125c0.09375 0.15625 0.32812 0.54688 0.4375 0.6875 0.078125 0.125 0.10938 0.125 0.32812 0.125h1.375c0.1875 0 0.34375 0 0.34375-0.17188 0-0.09375-0.0625-0.15625-0.15625-0.17188-0.375-0.078125-0.85938-0.75-1.0938-1.0625-0.078125-0.09375-0.57812-0.75-1.2344-1.8281 0.875-0.17188 1.7344-0.54688 1.7344-1.7344 0-1.375-1.4531-1.8594-2.6406-1.8594h-3.125c-0.1875 0-0.34375 0-0.34375 0.17188s0.1875 0.17188 0.26562 0.17188c0.57812 0 0.625 0.078125 0.625 0.57812v4.9844c0 0.5-0.046875 0.57812-0.625 0.57812-0.078125 0-0.26562 0-0.26562 0.17188s0.15625 0.17188 0.34375 0.17188h2.7344c0.17188 0 0.32812 0 0.32812-0.17188s-0.17188-0.17188-0.28125-0.17188c-0.5625 0-0.60938-0.078125-0.60938-0.57812zm1.9219-0.5c0.28125-0.35938 0.3125-0.89062 0.3125-1.3281 0-0.48438-0.0625-1.0156-0.375-1.4219 0.40625 0.09375 1.3906 0.40625 1.3906 1.4062 0 0.65625-0.29688 1.1562-1.3281 1.3438zm-1.9219-2.3125c0-0.21875 0-0.54688 0.625-0.54688 0.84375 0 1.2656 0.35938 1.2656 1.5312 0 1.2812-0.3125 1.4688-1.8906 1.4688zm-1.3594 5.5938c0.078125-0.1875 0.078125-0.46875 0.078125-0.54688v-5.0469c0-0.09375 0-0.35938-0.078125-0.54688h1.1406c-0.125 0.17188-0.125 0.35938-0.125 0.51562v5.0781c0 0.09375 0 0.35938 0.078125 0.54688zm2.125-2.7812c0.078125-0.015625 0.10938-0.03125 0.1875-0.03125 0.15625 0 0.375-0.015625 0.51562-0.03125 0.15625 0.23438 1.2344 2.0156 2.0625 2.8438h-0.96875z"/>
     </g>
    </g>
    <g transform="translate(155.91 131.15)">
     <path d="m5.1875-1.5781c0.10938 0 0.28125 0 0.28125-0.15625 0-0.1875-0.17188-0.1875-0.28125-0.1875h-4.1562c-0.10938 0-0.28125 0-0.28125 0.17188s0.15625 0.17188 0.28125 0.17188z"/>
    </g>
    <g transform="translate(164.85 134.76)">
     <path d="m3.875-2.7656-1.9844-1.9844c-0.125-0.125-0.14062-0.14062-0.21875-0.14062-0.10938 0-0.20312 0.078125-0.20312 0.20312 0 0.0625 0.015625 0.078125 0.125 0.1875l2 2-2 2.0156c-0.10938 0.10938-0.125 0.125-0.125 0.1875 0 0.125 0.09375 0.20312 0.20312 0.20312 0.078125 0 0.09375-0.015625 0.21875-0.14062l1.9844-1.9844 2.0625 2.0625c0.015625 0.015625 0.078125 0.0625 0.14062 0.0625 0.125 0 0.20312-0.078125 0.20312-0.20312 0-0.015625 0-0.046875-0.03125-0.10938-0.015625-0.015625-1.5938-1.5781-2.0938-2.0938l1.8281-1.8125c0.046875-0.0625 0.20312-0.1875 0.25-0.25 0-0.015625 0.046875-0.0625 0.046875-0.125 0-0.125-0.078125-0.20312-0.20312-0.20312-0.078125 0-0.10938 0.03125-0.21875 0.14062z"/>
    </g>
    <g transform="translate(174.81 134.76)">
     <path d="m2.6719-3.125h0.35938l1.5 2.3125c0.09375 0.15625 0.32812 0.54688 0.4375 0.6875 0.078125 0.125 0.10938 0.125 0.32812 0.125h1.375c0.1875 0 0.34375 0 0.34375-0.17188 0-0.09375-0.0625-0.15625-0.15625-0.17188-0.375-0.078125-0.85938-0.75-1.0938-1.0625-0.078125-0.09375-0.57812-0.75-1.2344-1.8281 0.875-0.17188 1.7344-0.54688 1.7344-1.7344 0-1.375-1.4531-1.8594-2.6406-1.8594h-3.125c-0.1875 0-0.34375 0-0.34375 0.17188s0.1875 0.17188 0.26562 0.17188c0.57812 0 0.625 0.078125 0.625 0.57812v4.9844c0 0.5-0.046875 0.57812-0.625 0.57812-0.078125 0-0.26562 0-0.26562 0.17188s0.15625 0.17188 0.34375 0.17188h2.7344c0.17188 0 0.32812 0 0.32812-0.17188s-0.17188-0.17188-0.28125-0.17188c-0.5625 0-0.60938-0.078125-0.60938-0.57812zm1.9219-0.5c0.28125-0.35938 0.3125-0.89062 0.3125-1.3281 0-0.48438-0.0625-1.0156-0.375-1.4219 0.40625 0.09375 1.3906 0.40625 1.3906 1.4062 0 0.65625-0.29688 1.1562-1.3281 1.3438zm-1.9219-2.3125c0-0.21875 0-0.54688 0.625-0.54688 0.84375 0 1.2656 0.35938 1.2656 1.5312 0 1.2812-0.3125 1.4688-1.8906 1.4688zm-1.3594 5.5938c0.078125-0.1875 0.078125-0.46875 0.078125-0.54688v-5.0469c0-0.09375 0-0.35938-0.078125-0.54688h1.1406c-0.125 0.17188-0.125 0.35938-0.125 0.51562v5.0781c0 0.09375 0 0.35938 0.078125 0.54688zm2.125-2.7812c0.078125-0.015625 0.10938-0.03125 0.1875-0.03125 0.15625 0 0.375-0.015625 0.51562-0.03125 0.15625 0.23438 1.2344 2.0156 2.0625 2.8438h-0.96875z"/>
    </g>
    <g id="id-d616b6a7-192e-4cc6-9a1e-12ffc1bfb97d">
     <g transform="translate(182 131.15)">
      <path id="id-4168fd89-d335-42a4-82db-3a3867b994fc" d="m5.1875-1.5781c0.10938 0 0.28125 0 0.28125-0.15625 0-0.1875-0.17188-0.1875-0.28125-0.1875h-4.1562c-0.10938 0-0.28125 0-0.28125 0.17188s0.15625 0.17188 0.28125 0.17188z"/>
     </g>
    </g>
   </g>
  </g>
  <g transform="matrix(.35278 0 0 .35278 114.37 110.76)" ns3:alignment="middle center" ns3:jacobian_sqrt="0.352778" ns3:pdfconverter="inkscape" ns3:preamble="/Users/ketiboldiais/Library/Application Support/org.inkscape.Inkscape/config/inkscape/extensions/inkscapeMadeEasy/basicLatexPackages.tex" ns3:scale="1.0" ns3:texconverter="pdflatex" ns3:text="$\\mathbb{R}^+ \\times \\mathbb{R}^-$\n" ns3:version="1.3.1">
   <defs id="id-70c6378f-cde6-4384-8685-6c37fddf448b"></defs>
   <g transform="translate(-148.87 -126.84)">
    <g id="id-6ed1c85c-8880-4fa2-9eec-0de88fefacae">
     <g transform="translate(148.71 134.76)">
      <path d="m2.6719-3.125h0.35938l1.5 2.3125c0.09375 0.15625 0.32812 0.54688 0.4375 0.6875 0.078125 0.125 0.10938 0.125 0.32812 0.125h1.375c0.1875 0 0.34375 0 0.34375-0.17188 0-0.09375-0.0625-0.15625-0.15625-0.17188-0.375-0.078125-0.85938-0.75-1.0938-1.0625-0.078125-0.09375-0.57812-0.75-1.2344-1.8281 0.875-0.17188 1.7344-0.54688 1.7344-1.7344 0-1.375-1.4531-1.8594-2.6406-1.8594h-3.125c-0.1875 0-0.34375 0-0.34375 0.17188s0.1875 0.17188 0.26562 0.17188c0.57812 0 0.625 0.078125 0.625 0.57812v4.9844c0 0.5-0.046875 0.57812-0.625 0.57812-0.078125 0-0.26562 0-0.26562 0.17188s0.15625 0.17188 0.34375 0.17188h2.7344c0.17188 0 0.32812 0 0.32812-0.17188s-0.17188-0.17188-0.28125-0.17188c-0.5625 0-0.60938-0.078125-0.60938-0.57812zm1.9219-0.5c0.28125-0.35938 0.3125-0.89062 0.3125-1.3281 0-0.48438-0.0625-1.0156-0.375-1.4219 0.40625 0.09375 1.3906 0.40625 1.3906 1.4062 0 0.65625-0.29688 1.1562-1.3281 1.3438zm-1.9219-2.3125c0-0.21875 0-0.54688 0.625-0.54688 0.84375 0 1.2656 0.35938 1.2656 1.5312 0 1.2812-0.3125 1.4688-1.8906 1.4688zm-1.3594 5.5938c0.078125-0.1875 0.078125-0.46875 0.078125-0.54688v-5.0469c0-0.09375 0-0.35938-0.078125-0.54688h1.1406c-0.125 0.17188-0.125 0.35938-0.125 0.51562v5.0781c0 0.09375 0 0.35938 0.078125 0.54688zm2.125-2.7812c0.078125-0.015625 0.10938-0.03125 0.1875-0.03125 0.15625 0 0.375-0.015625 0.51562-0.03125 0.15625 0.23438 1.2344 2.0156 2.0625 2.8438h-0.96875z"/>
     </g>
    </g>
    <g transform="translate(155.91 131.15)">
     <path d="m3.2188-1.5781h2.1406c0.09375 0 0.25 0 0.25-0.15625 0-0.1875-0.15625-0.1875-0.25-0.1875h-2.1406v-2.1406c0-0.078125 0-0.25-0.15625-0.25-0.17188 0-0.17188 0.15625-0.17188 0.25v2.1406h-2.1406c-0.09375 0-0.26562 0-0.26562 0.17188s0.15625 0.17188 0.26562 0.17188h2.1406v2.1406c0 0.09375 0 0.26562 0.15625 0.26562 0.17188 0 0.17188-0.17188 0.17188-0.26562z"/>
    </g>
    <g transform="translate(164.74 134.76)">
     <path id="id-d6e716ac-faa1-4f32-a2d6-cf4c9d2fdd9c" d="m3.875-2.7656-1.9844-1.9844c-0.125-0.125-0.14062-0.14062-0.21875-0.14062-0.10938 0-0.20312 0.078125-0.20312 0.20312 0 0.0625 0.015625 0.078125 0.125 0.1875l2 2-2 2.0156c-0.10938 0.10938-0.125 0.125-0.125 0.1875 0 0.125 0.09375 0.20312 0.20312 0.20312 0.078125 0 0.09375-0.015625 0.21875-0.14062l1.9844-1.9844 2.0625 2.0625c0.015625 0.015625 0.078125 0.0625 0.14062 0.0625 0.125 0 0.20312-0.078125 0.20312-0.20312 0-0.015625 0-0.046875-0.03125-0.10938-0.015625-0.015625-1.5938-1.5781-2.0938-2.0938l1.8281-1.8125c0.046875-0.0625 0.20312-0.1875 0.25-0.25 0-0.015625 0.046875-0.0625 0.046875-0.125 0-0.125-0.078125-0.20312-0.20312-0.20312-0.078125 0-0.10938 0.03125-0.21875 0.14062z"/>
    </g>
    <g id="id-7183104d-7d01-448b-85ad-88884a238e8f">
     <g transform="translate(174.7 134.76)">
      <path d="m2.6719-3.125h0.35938l1.5 2.3125c0.09375 0.15625 0.32812 0.54688 0.4375 0.6875 0.078125 0.125 0.10938 0.125 0.32812 0.125h1.375c0.1875 0 0.34375 0 0.34375-0.17188 0-0.09375-0.0625-0.15625-0.15625-0.17188-0.375-0.078125-0.85938-0.75-1.0938-1.0625-0.078125-0.09375-0.57812-0.75-1.2344-1.8281 0.875-0.17188 1.7344-0.54688 1.7344-1.7344 0-1.375-1.4531-1.8594-2.6406-1.8594h-3.125c-0.1875 0-0.34375 0-0.34375 0.17188s0.1875 0.17188 0.26562 0.17188c0.57812 0 0.625 0.078125 0.625 0.57812v4.9844c0 0.5-0.046875 0.57812-0.625 0.57812-0.078125 0-0.26562 0-0.26562 0.17188s0.15625 0.17188 0.34375 0.17188h2.7344c0.17188 0 0.32812 0 0.32812-0.17188s-0.17188-0.17188-0.28125-0.17188c-0.5625 0-0.60938-0.078125-0.60938-0.57812zm1.9219-0.5c0.28125-0.35938 0.3125-0.89062 0.3125-1.3281 0-0.48438-0.0625-1.0156-0.375-1.4219 0.40625 0.09375 1.3906 0.40625 1.3906 1.4062 0 0.65625-0.29688 1.1562-1.3281 1.3438zm-1.9219-2.3125c0-0.21875 0-0.54688 0.625-0.54688 0.84375 0 1.2656 0.35938 1.2656 1.5312 0 1.2812-0.3125 1.4688-1.8906 1.4688zm-1.3594 5.5938c0.078125-0.1875 0.078125-0.46875 0.078125-0.54688v-5.0469c0-0.09375 0-0.35938-0.078125-0.54688h1.1406c-0.125 0.17188-0.125 0.35938-0.125 0.51562v5.0781c0 0.09375 0 0.35938 0.078125 0.54688zm2.125-2.7812c0.078125-0.015625 0.10938-0.03125 0.1875-0.03125 0.15625 0 0.375-0.015625 0.51562-0.03125 0.15625 0.23438 1.2344 2.0156 2.0625 2.8438h-0.96875z"/>
     </g>
    </g>
    <g transform="translate(181.89 131.15)">
     <path d="m5.1875-1.5781c0.10938 0 0.28125 0 0.28125-0.15625 0-0.1875-0.17188-0.1875-0.28125-0.1875h-4.1562c-0.10938 0-0.28125 0-0.28125 0.17188s0.15625 0.17188 0.28125 0.17188z"/>
    </g>
   </g>
  </g>
 </g>
</svg>
