<?xml version="1.0" encoding="UTF-8" standalone="no"?>
<!-- Created with Inkscape (http://www.inkscape.org/) -->

<svg
   width="45.66481mm"
   height="42.700432mm"
   viewBox="0 0 45.66481 42.700432"
   version="1.1"
   id="svg1470"
   sodipodi:docname="circle_r_subtends.svg"
   inkscape:version="1.1 (c4e8f9e, 2021-05-24)"
   xmlns:inkscape="http://www.inkscape.org/namespaces/inkscape"
   xmlns:sodipodi="http://sodipodi.sourceforge.net/DTD/sodipodi-0.dtd"
   xmlns="http://www.w3.org/2000/svg"
   xmlns:svg="http://www.w3.org/2000/svg"
   xmlns:ns1="http://www.iki.fi/pav/software/textext/">
  <sodipodi:namedview
     id="namedview1472"
     pagecolor="#ffffff"
     bordercolor="#666666"
     borderopacity="1.0"
     inkscape:pageshadow="2"
     inkscape:pageopacity="0.0"
     inkscape:pagecheckerboard="0"
     inkscape:document-units="mm"
     showgrid="false"
     inkscape:zoom="1.5748204"
     inkscape:cx="112.71126"
     inkscape:cy="60.006841"
     inkscape:window-width="1440"
     inkscape:window-height="847"
     inkscape:window-x="2264"
     inkscape:window-y="26"
     inkscape:window-maximized="0"
     inkscape:current-layer="layer1"
     inkscape:snap-global="true">
    <inkscape:grid
       type="xygrid"
       id="grid1531"
       originx="-76.544543"
       originy="-137.4007" />
  </sodipodi:namedview>
  <defs
     id="defs1467">
    <marker
       style="overflow:visible"
       id="Arrow1Send"
       refX="0"
       refY="0"
       orient="auto"
       inkscape:stockid="Arrow1Send"
       inkscape:isstock="true">
      <path
         transform="matrix(-0.2,0,0,-0.2,-1.2,0)"
         style="fill:context-stroke;fill-rule:evenodd;stroke:context-stroke;stroke-width:1pt"
         d="M 0,0 5,-5 -12.5,0 5,5 Z"
         id="path944" />
    </marker>
    <marker
       style="overflow:visible"
       id="TriangleOutM"
       refX="0"
       refY="0"
       orient="auto"
       inkscape:stockid="TriangleOutM"
       inkscape:isstock="true">
      <path
         transform="scale(0.4)"
         style="fill:context-stroke;fill-rule:evenodd;stroke:context-stroke;stroke-width:1pt"
         d="M 5.77,0 -2.88,5 V -5 Z"
         id="path1074" />
    </marker>
    <g
       id="id-9a0c8358-b9f0-4fb5-bedd-12d5de5766c1">
      <symbol
         overflow="visible"
         id="id-b804773c-f3d5-4522-b835-19550220cb4f">
        <path
           style="stroke:none;stroke-width:0"
           d=""
           id="id-5cdade91-5d91-4975-be88-8ce46aed0640" />
      </symbol>
      <symbol
         overflow="visible"
         id="id-23866478-8b3b-4748-ae9a-7a9865b73dca">
        <path
           style="stroke:none;stroke-width:0"
           d="m 0.875,-0.59375 c -0.03125,0.15625 -0.09375,0.390625 -0.09375,0.4375 0,0.171875 0.140625,0.265625 0.296875,0.265625 0.125,0 0.296875,-0.078125 0.375,-0.28125 C 1.46875,-0.203125 1.796875,-1.5625 1.84375,-1.75 c 0.078125,-0.328125 0.265625,-1.015625 0.3125,-1.296875 0.046875,-0.125 0.328125,-0.59375 0.5625,-0.8125 0.078125,-0.0625 0.375,-0.328125 0.796875,-0.328125 0.265625,0 0.40625,0.125 0.421875,0.125 -0.296875,0.046875 -0.515625,0.28125 -0.515625,0.546875 0,0.15625 0.109375,0.34375 0.375,0.34375 0.265625,0 0.546875,-0.234375 0.546875,-0.59375 0,-0.34375 -0.3125,-0.640625 -0.828125,-0.640625 C 2.875,-4.40625 2.4375,-3.921875 2.25,-3.640625 2.15625,-4.09375 1.796875,-4.40625 1.328125,-4.40625 0.875,-4.40625 0.6875,-4.015625 0.59375,-3.84375 0.421875,-3.5 0.296875,-2.90625 0.296875,-2.875 c 0,0.109375 0.09375,0.109375 0.109375,0.109375 0.109375,0 0.109375,-0.015625 0.171875,-0.234375 0.171875,-0.703125 0.375,-1.1875 0.734375,-1.1875 0.15625,0 0.296875,0.078125 0.296875,0.453125 0,0.21875 -0.03125,0.328125 -0.15625,0.84375 z m 0,0"
           id="id-5df5a045-cd8b-4661-aa5e-204462e58c8c" />
      </symbol>
    </g>
  </defs>
  <g
     inkscape:label="Layer 1"
     inkscape:groupmode="layer"
     id="layer1"
     transform="translate(-76.544546,-137.4007)">
    <g
       id="g3932">
      <circle
         style="font-variation-settings:normal;fill:none;fill-opacity:1;fill-rule:evenodd;stroke:#cccccc;stroke-width:0.165;stroke-linecap:butt;stroke-linejoin:miter;stroke-miterlimit:4;stroke-dasharray:0.66, 0.165;stroke-dashoffset:0;stroke-opacity:1;stop-color:#000000"
         id="path2007"
         cx="97.895836"
         cy="158.75"
         r="2.6458333" />
      <circle
         style="font-variation-settings:normal;vector-effect:none;fill:none;fill-opacity:1;fill-rule:evenodd;stroke:#ff0000;stroke-width:0.264583;stroke-linecap:butt;stroke-linejoin:miter;stroke-miterlimit:4;stroke-dasharray:none;stroke-dashoffset:0;stroke-opacity:1;stop-color:#000000"
         id="path848"
         r="21.166666"
         cy="158.75"
         cx="97.895828" />
      <circle
         style="font-variation-settings:normal;vector-effect:none;fill:none;fill-opacity:1;fill-rule:evenodd;stroke:#000000;stroke-width:0.264583;stroke-linecap:butt;stroke-linejoin:miter;stroke-miterlimit:4;stroke-dasharray:none;stroke-dashoffset:0;stroke-opacity:1;stop-color:#000000"
         id="path850"
         cx="97.895828"
         cy="158.75"
         r="0.13229166" />
      <g
         transform="matrix(0.352778,0,0,0.352778,108.94774,155.91133)"
         ns1:version="1.3.1"
         ns1:texconverter="pdflatex"
         ns1:pdfconverter="inkscape"
         ns1:text="$r$\n"
         ns1:preamble="/Users/ketiboldiais/Library/Application Support/org.inkscape.Inkscape/config/inkscape/extensions/circuitSymbols/circuitSymbolsPreamble.tex"
         ns1:scale="1.0"
         ns1:alignment="middle center"
         ns1:jacobian_sqrt="0.352778"
         id="g1358">
        <defs
           id="id-651c88da-3efe-4a18-a53c-1553107fa408">
          <g
             id="g1587">
            <symbol
               overflow="visible"
               id="symbol1581">
              <path
                 style="stroke:none;stroke-width:0"
                 d=""
                 id="path1579" />
            </symbol>
            <symbol
               overflow="visible"
               id="symbol1585">
              <path
                 style="stroke:none;stroke-width:0"
                 d="m 0.875,-0.59375 c -0.03125,0.15625 -0.09375,0.390625 -0.09375,0.4375 0,0.171875 0.140625,0.265625 0.296875,0.265625 0.125,0 0.296875,-0.078125 0.375,-0.28125 C 1.46875,-0.203125 1.796875,-1.5625 1.84375,-1.75 c 0.078125,-0.328125 0.265625,-1.015625 0.3125,-1.296875 0.046875,-0.125 0.328125,-0.59375 0.5625,-0.8125 0.078125,-0.0625 0.375,-0.328125 0.796875,-0.328125 0.265625,0 0.40625,0.125 0.421875,0.125 -0.296875,0.046875 -0.515625,0.28125 -0.515625,0.546875 0,0.15625 0.109375,0.34375 0.375,0.34375 0.265625,0 0.546875,-0.234375 0.546875,-0.59375 0,-0.34375 -0.3125,-0.640625 -0.828125,-0.640625 C 2.875,-4.40625 2.4375,-3.921875 2.25,-3.640625 2.15625,-4.09375 1.796875,-4.40625 1.328125,-4.40625 0.875,-4.40625 0.6875,-4.015625 0.59375,-3.84375 0.421875,-3.5 0.296875,-2.90625 0.296875,-2.875 c 0,0.109375 0.09375,0.109375 0.109375,0.109375 0.109375,0 0.109375,-0.015625 0.171875,-0.234375 0.171875,-0.703125 0.375,-1.1875 0.734375,-1.1875 0.15625,0 0.296875,0.078125 0.296875,0.453125 0,0.21875 -0.03125,0.328125 -0.15625,0.84375 z m 0,0"
                 id="path1583" />
            </symbol>
          </g>
        </defs>
        <g
           id="id-bdaa8725-f477-42ae-909c-784d542fbf6b"
           transform="translate(-149.009,-130.359)">
          <g
             style="fill:#000000;fill-opacity:1"
             id="id-ca54cdc1-0b89-4544-9e1a-303c917e865d">
            <g
               transform="translate(148.712,134.765)"
               id="g1354">
              <path
                 style="stroke:none;stroke-width:0"
                 d="m 0.875,-0.59375 c -0.03125,0.15625 -0.09375,0.390625 -0.09375,0.4375 0,0.171875 0.140625,0.265625 0.296875,0.265625 0.125,0 0.296875,-0.078125 0.375,-0.28125 C 1.46875,-0.203125 1.796875,-1.5625 1.84375,-1.75 c 0.078125,-0.328125 0.265625,-1.015625 0.3125,-1.296875 0.046875,-0.125 0.328125,-0.59375 0.5625,-0.8125 0.078125,-0.0625 0.375,-0.328125 0.796875,-0.328125 0.265625,0 0.40625,0.125 0.421875,0.125 -0.296875,0.046875 -0.515625,0.28125 -0.515625,0.546875 0,0.15625 0.109375,0.34375 0.375,0.34375 0.265625,0 0.546875,-0.234375 0.546875,-0.59375 0,-0.34375 -0.3125,-0.640625 -0.828125,-0.640625 C 2.875,-4.40625 2.4375,-3.921875 2.25,-3.640625 2.15625,-4.09375 1.796875,-4.40625 1.328125,-4.40625 0.875,-4.40625 0.6875,-4.015625 0.59375,-3.84375 0.421875,-3.5 0.296875,-2.90625 0.296875,-2.875 c 0,0.109375 0.09375,0.109375 0.109375,0.109375 0.109375,0 0.109375,-0.015625 0.171875,-0.234375 0.171875,-0.703125 0.375,-1.1875 0.734375,-1.1875 0.15625,0 0.296875,0.078125 0.296875,0.453125 0,0.21875 -0.03125,0.328125 -0.15625,0.84375 z m 0,0"
                 id="id-f570fc24-8378-49fc-9d18-5bf3fb1f1d40" />
            </g>
          </g>
        </g>
      </g>
      <path
         style="fill:none;stroke:#000000;stroke-width:0.280633px;stroke-linecap:butt;stroke-linejoin:miter;stroke-opacity:1;marker-end:url(#Arrow1Send)"
         d="M 97.895829,158.75 H 121.70833"
         id="path965" />
      <path
         style="fill:none;stroke:#000000;stroke-width:0.310678px;stroke-linecap:butt;stroke-linejoin:miter;stroke-opacity:1;marker-end:url(#Arrow1Send)"
         d="M 97.895833,158.75 116.41667,141.55208"
         id="path1645"
         sodipodi:nodetypes="cc" />
      <g
         transform="matrix(0.352778,0,0,0.352778,101.05368,155.7936)"
         ns1:version="1.3.1"
         ns1:texconverter="pdflatex"
         ns1:pdfconverter="inkscape"
         ns1:text="$\\theta$\n"
         ns1:preamble="/Users/ketiboldiais/Library/Application Support/org.inkscape.Inkscape/config/inkscape/extensions/circuitSymbols/circuitSymbolsPreamble.tex"
         ns1:scale="1.0"
         ns1:alignment="middle center"
         ns1:jacobian_sqrt="0.352778"
         id="g2176">
        <defs
           id="id-690bf3da-d09d-4d0c-8a7d-0ceb84bb8e2a">
          <g
             id="id-012f557b-01a6-4664-9535-0164f0731e18">
            <symbol
               overflow="visible"
               id="id-ef118161-75e4-43a7-94d8-e4613bea90a8">
              <path
                 style="stroke:none;stroke-width:0"
                 d=""
                 id="id-9057c84c-19b2-4b37-b7d8-1d70c17a7e10" />
            </symbol>
            <symbol
               overflow="visible"
               id="id-9390886e-e588-4b16-b8ac-e2ff779dafed">
              <path
                 style="stroke:none;stroke-width:0"
                 d="m 4.53125,-4.984375 c 0,-0.65625 -0.171875,-2.046875 -1.1875,-2.046875 -1.390625,0 -2.921875,2.8125 -2.921875,5.09375 0,0.9375 0.28125,2.046875 1.1875,2.046875 1.40625,0 2.921875,-2.859375 2.921875,-5.09375 z M 1.46875,-3.625 C 1.640625,-4.25 1.84375,-5.046875 2.25,-5.765625 2.515625,-6.25 2.875,-6.8125 3.328125,-6.8125 c 0.484375,0 0.546875,0.640625 0.546875,1.203125 0,0.5 -0.078125,1 -0.3125,1.984375 z m 2,0.328125 C 3.359375,-2.84375 3.15625,-2 2.765625,-1.28125 c -0.34375,0.6875 -0.71875,1.171875 -1.15625,1.171875 -0.328125,0 -0.53125,-0.296875 -0.53125,-1.21875 0,-0.421875 0.0625,-1 0.3125,-1.96875 z m 0,0"
                 id="id-1281ddae-0a09-4001-b51f-5c7108af98d4" />
            </symbol>
          </g>
        </defs>
        <g
           id="id-82e367ba-4765-41d2-8408-f626e1c42f99"
           transform="translate(-149.134,-127.734)">
          <g
             style="fill:#000000;fill-opacity:1"
             id="id-04cd900a-24bc-4e13-9cf5-4708f671dc14">
            <g
               transform="translate(148.712,134.765)"
               id="g2172">
              <path
                 style="stroke:none;stroke-width:0"
                 d="m 4.53125,-4.984375 c 0,-0.65625 -0.171875,-2.046875 -1.1875,-2.046875 -1.390625,0 -2.921875,2.8125 -2.921875,5.09375 0,0.9375 0.28125,2.046875 1.1875,2.046875 1.40625,0 2.921875,-2.859375 2.921875,-5.09375 z M 1.46875,-3.625 C 1.640625,-4.25 1.84375,-5.046875 2.25,-5.765625 2.515625,-6.25 2.875,-6.8125 3.328125,-6.8125 c 0.484375,0 0.546875,0.640625 0.546875,1.203125 0,0.5 -0.078125,1 -0.3125,1.984375 z m 2,0.328125 C 3.359375,-2.84375 3.15625,-2 2.765625,-1.28125 c -0.34375,0.6875 -0.71875,1.171875 -1.15625,1.171875 -0.328125,0 -0.53125,-0.296875 -0.53125,-1.21875 0,-0.421875 0.0625,-1 0.3125,-1.96875 z m 0,0"
                 id="id-3d09f208-6366-4e1f-baf2-b0c0d5deeb4b" />
            </g>
          </g>
        </g>
      </g>
      <path
         style="font-variation-settings:normal;fill:none;fill-opacity:1;fill-rule:evenodd;stroke:#000000;stroke-width:0.365;stroke-linecap:butt;stroke-linejoin:miter;stroke-miterlimit:4;stroke-dasharray:none;stroke-dashoffset:0;stroke-opacity:1;stop-color:#000000"
         id="circle3158"
         sodipodi:type="arc"
         sodipodi:cx="97.895828"
         sodipodi:cy="158.75"
         sodipodi:rx="21.166666"
         sodipodi:ry="21.166666"
         sodipodi:start="0"
         sodipodi:end="5.5370284"
         sodipodi:open="true"
         sodipodi:arc-type="arc"
         d="m 119.06249,158.75 a 21.166666,21.166666 0 0 1 -17.24111,20.79947 21.166666,21.166666 0 0 1 -23.636157,-13.08456 21.166666,21.166666 0 0 1 8.474022,-25.65277 21.166666,21.166666 0 0 1 26.779335,3.56947" />
      <g
         transform="matrix(0.352778,0,0,0.352778,119.38757,149.1334)"
         ns1:version="1.3.1"
         ns1:texconverter="pdflatex"
         ns1:pdfconverter="inkscape"
         ns1:text="$r$\n"
         ns1:preamble="/Users/ketiboldiais/Library/Application Support/org.inkscape.Inkscape/config/inkscape/extensions/circuitSymbols/circuitSymbolsPreamble.tex"
         ns1:scale="1.0"
         ns1:alignment="middle center"
         ns1:inkscapeversion="1.1"
         ns1:jacobian_sqrt="0.352778"
         id="g3806">
        <defs
           id="id-a7bc8237-3a6b-4cf1-89fe-bcdefa49c7b0">
          <g
             id="id-0ddcf49b-b9ab-4aad-9c00-82b44a66539f">
            <symbol
               overflow="visible"
               id="id-b831ca46-416a-4988-acf0-462f4b2192fe">
              <path
                 style="stroke:none;stroke-width:0"
                 d=""
                 id="id-13a52675-fa6b-44b4-9e02-4592c3dbf39f" />
            </symbol>
            <symbol
               overflow="visible"
               id="id-1be884d4-d8c9-4a5e-b19e-6b62ad51e9bd">
              <path
                 style="stroke:none;stroke-width:0"
                 d="m 0.875,-0.59375 c -0.03125,0.15625 -0.09375,0.390625 -0.09375,0.4375 0,0.171875 0.140625,0.265625 0.296875,0.265625 0.125,0 0.296875,-0.078125 0.375,-0.28125 C 1.46875,-0.203125 1.796875,-1.5625 1.84375,-1.75 c 0.078125,-0.328125 0.265625,-1.015625 0.3125,-1.296875 0.046875,-0.125 0.328125,-0.59375 0.5625,-0.8125 0.078125,-0.0625 0.375,-0.328125 0.796875,-0.328125 0.265625,0 0.40625,0.125 0.421875,0.125 -0.296875,0.046875 -0.515625,0.28125 -0.515625,0.546875 0,0.15625 0.109375,0.34375 0.375,0.34375 0.265625,0 0.546875,-0.234375 0.546875,-0.59375 0,-0.34375 -0.3125,-0.640625 -0.828125,-0.640625 C 2.875,-4.40625 2.4375,-3.921875 2.25,-3.640625 2.15625,-4.09375 1.796875,-4.40625 1.328125,-4.40625 0.875,-4.40625 0.6875,-4.015625 0.59375,-3.84375 0.421875,-3.5 0.296875,-2.90625 0.296875,-2.875 c 0,0.109375 0.09375,0.109375 0.109375,0.109375 0.109375,0 0.109375,-0.015625 0.171875,-0.234375 0.171875,-0.703125 0.375,-1.1875 0.734375,-1.1875 0.15625,0 0.296875,0.078125 0.296875,0.453125 0,0.21875 -0.03125,0.328125 -0.15625,0.84375 z m 0,0"
                 id="id-3fa948da-358d-469e-915b-4f319003524a" />
            </symbol>
          </g>
        </defs>
        <g
           id="id-4ad16eec-22f5-4ee7-ac2f-c3b49424a8d6"
           transform="translate(-149.009,-130.359)">
          <g
             style="fill:#000000;fill-opacity:1"
             id="id-bb554925-8c7e-402b-926a-6dbd5ce3ab91">
            <g
               transform="translate(148.712,134.765)"
               id="g3802">
              <path
                 style="stroke:none;stroke-width:0"
                 d="m 0.875,-0.59375 c -0.03125,0.15625 -0.09375,0.390625 -0.09375,0.4375 0,0.171875 0.140625,0.265625 0.296875,0.265625 0.125,0 0.296875,-0.078125 0.375,-0.28125 C 1.46875,-0.203125 1.796875,-1.5625 1.84375,-1.75 c 0.078125,-0.328125 0.265625,-1.015625 0.3125,-1.296875 0.046875,-0.125 0.328125,-0.59375 0.5625,-0.8125 0.078125,-0.0625 0.375,-0.328125 0.796875,-0.328125 0.265625,0 0.40625,0.125 0.421875,0.125 -0.296875,0.046875 -0.515625,0.28125 -0.515625,0.546875 0,0.15625 0.109375,0.34375 0.375,0.34375 0.265625,0 0.546875,-0.234375 0.546875,-0.59375 0,-0.34375 -0.3125,-0.640625 -0.828125,-0.640625 C 2.875,-4.40625 2.4375,-3.921875 2.25,-3.640625 2.15625,-4.09375 1.796875,-4.40625 1.328125,-4.40625 0.875,-4.40625 0.6875,-4.015625 0.59375,-3.84375 0.421875,-3.5 0.296875,-2.90625 0.296875,-2.875 c 0,0.109375 0.09375,0.109375 0.109375,0.109375 0.109375,0 0.109375,-0.015625 0.171875,-0.234375 0.171875,-0.703125 0.375,-1.1875 0.734375,-1.1875 0.15625,0 0.296875,0.078125 0.296875,0.453125 0,0.21875 -0.03125,0.328125 -0.15625,0.84375 z m 0,0"
                 id="id-7ba56ff1-699f-4908-96a3-2fb2c03edc6a" />
            </g>
          </g>
        </g>
      </g>
    </g>
  </g>
</svg>
