<?xml version="1.0" encoding="UTF-8" standalone="no"?>
<!-- Created with Inkscape (http://www.inkscape.org/) -->

<svg
   width="48.627048mm"
   height="48.640781mm"
   viewBox="0 0 48.627049 48.640782"
   version="1.1"
   id="svg5"
   sodipodi:docname="coterminal_angles.svg"
   inkscape:version="1.1 (c4e8f9e, 2021-05-24)"
   xmlns:inkscape="http://www.inkscape.org/namespaces/inkscape"
   xmlns:sodipodi="http://sodipodi.sourceforge.net/DTD/sodipodi-0.dtd"
   xmlns="http://www.w3.org/2000/svg"
   xmlns:svg="http://www.w3.org/2000/svg"
   xmlns:ns1="http://www.iki.fi/pav/software/textext/">
  <sodipodi:namedview
     id="namedview7"
     pagecolor="#ffffff"
     bordercolor="#666666"
     borderopacity="1.0"
     inkscape:pageshadow="2"
     inkscape:pageopacity="0.0"
     inkscape:pagecheckerboard="0"
     inkscape:document-units="mm"
     showgrid="false"
     inkscape:zoom="1.5748204"
     inkscape:cx="99.37641"
     inkscape:cy="92.391487"
     inkscape:window-width="1312"
     inkscape:window-height="847"
     inkscape:window-x="2255"
     inkscape:window-y="25"
     inkscape:window-maximized="0"
     inkscape:current-layer="layer1"
     inkscape:snap-global="true">
    <inkscape:grid
       type="xygrid"
       id="grid824"
       originx="-70.93647"
       originy="-113.26982" />
  </sodipodi:namedview>
  <defs
     id="defs2">
    <marker
       style="overflow:visible"
       id="Arrow2Mstart"
       refX="0"
       refY="0"
       orient="auto"
       inkscape:stockid="Arrow2Mstart"
       inkscape:isstock="true">
      <path
         transform="scale(0.6)"
         d="M 8.7185878,4.0337352 -2.2072895,0.01601326 8.7185884,-4.0017078 c -1.7454984,2.3720609 -1.7354408,5.6174519 -6e-7,8.035443 z"
         style="fill:context-stroke;fill-rule:evenodd;stroke-width:0.625;stroke-linejoin:round"
         id="path1837" />
    </marker>
    <marker
       style="overflow:visible"
       id="TriangleInS"
       refX="0"
       refY="0"
       orient="auto"
       inkscape:stockid="TriangleInS"
       inkscape:isstock="true">
      <path
         transform="scale(-0.2)"
         style="fill:context-stroke;fill-rule:evenodd;stroke:context-stroke;stroke-width:1pt"
         d="M 5.77,0 -2.88,5 V -5 Z"
         id="path1952" />
    </marker>
    <marker
       style="overflow:visible"
       id="marker2559"
       refX="0"
       refY="0"
       orient="auto"
       inkscape:stockid="Arrow1Sstart"
       inkscape:isstock="true">
      <path
         transform="matrix(0.2,0,0,0.2,1.2,0)"
         style="fill:context-stroke;fill-rule:evenodd;stroke:context-stroke;stroke-width:1pt"
         d="M 0,0 5,-5 -12.5,0 5,5 Z"
         id="path1825" />
    </marker>
    <marker
       style="overflow:visible"
       id="Arrow2Mend"
       refX="0"
       refY="0"
       orient="auto"
       inkscape:stockid="Arrow2Mend"
       inkscape:isstock="true">
      <path
         transform="scale(-0.6)"
         d="M 8.7185878,4.0337352 -2.2072895,0.01601326 8.7185884,-4.0017078 c -1.7454984,2.3720609 -1.7354408,5.6174519 -6e-7,8.035443 z"
         style="fill:context-stroke;fill-rule:evenodd;stroke-width:0.625;stroke-linejoin:round"
         id="path1840" />
    </marker>
    <marker
       style="overflow:visible"
       id="TriangleOutS"
       refX="0"
       refY="0"
       orient="auto"
       inkscape:stockid="TriangleOutS"
       inkscape:isstock="true">
      <path
         transform="scale(0.2)"
         style="fill:context-stroke;fill-rule:evenodd;stroke:context-stroke;stroke-width:1pt"
         d="M 5.77,0 -2.88,5 V -5 Z"
         id="path1961" />
    </marker>
    <marker
       style="overflow:visible"
       id="TriangleInM"
       refX="0"
       refY="0"
       orient="auto"
       inkscape:stockid="TriangleInM"
       inkscape:isstock="true">
      <path
         transform="scale(-0.4)"
         style="fill:context-stroke;fill-rule:evenodd;stroke:context-stroke;stroke-width:1pt"
         d="M 5.77,0 -2.88,5 V -5 Z"
         id="path1635" />
    </marker>
    <marker
       style="overflow:visible"
       id="Arrow1Sstart"
       refX="0"
       refY="0"
       orient="auto"
       inkscape:stockid="Arrow1Sstart"
       inkscape:isstock="true">
      <path
         transform="matrix(0.2,0,0,0.2,1.2,0)"
         style="fill:context-stroke;fill-rule:evenodd;stroke:context-stroke;stroke-width:1pt"
         d="M 0,0 5,-5 -12.5,0 5,5 Z"
         id="path1511" />
    </marker>
    <marker
       style="overflow:visible"
       id="Arrow1Send"
       refX="0"
       refY="0"
       orient="auto"
       inkscape:stockid="Arrow1Send"
       inkscape:isstock="true">
      <path
         transform="matrix(-0.2,0,0,-0.2,-1.2,0)"
         style="fill:context-stroke;fill-rule:evenodd;stroke:context-stroke;stroke-width:1pt"
         d="M 0,0 5,-5 -12.5,0 5,5 Z"
         id="path1514" />
    </marker>
  </defs>
  <g
     inkscape:label="Layer 1"
     inkscape:groupmode="layer"
     id="layer1"
     transform="translate(-70.936475,-113.2698)">
    <g
       id="g3401">
      <path
         style="font-variation-settings:normal;opacity:1;fill:none;fill-opacity:1;fill-rule:evenodd;stroke:#dc0000;stroke-width:0.165;stroke-linecap:butt;stroke-linejoin:miter;stroke-miterlimit:4;stroke-dasharray:none;stroke-dashoffset:0;stroke-opacity:1;marker-start:url(#Arrow2Mstart);stop-color:#000000;stop-opacity:1"
         id="path2782"
         sodipodi:type="arc"
         sodipodi:cx="95.25"
         sodipodi:cy="137.58333"
         sodipodi:rx="2.6458333"
         sodipodi:ry="2.6458333"
         sodipodi:start="5.5318839"
         sodipodi:end="3.9606745"
         sodipodi:arc-type="slice"
         d="m 97.183578,135.77731 a 2.6458333,2.6458333 0 0 1 -0.127291,3.73935 2.6458333,2.6458333 0 0 1 -3.739368,-0.12678 2.6458333,2.6458333 0 0 1 0.126262,-3.73938 L 95.25,137.58333 Z" />
      <circle
         style="font-variation-settings:normal;fill:none;fill-opacity:1;fill-rule:evenodd;stroke:#999999;stroke-width:0.264583;stroke-linecap:butt;stroke-linejoin:miter;stroke-miterlimit:4;stroke-dasharray:1.05833, 1.05833;stroke-dashoffset:0;stroke-opacity:1;stop-color:#000000"
         id="path848"
         cx="95.25"
         cy="137.58333"
         r="21.166666" />
      <circle
         style="font-variation-settings:normal;vector-effect:none;fill:none;fill-opacity:1;fill-rule:evenodd;stroke:#000000;stroke-width:0.264583;stroke-linecap:butt;stroke-linejoin:miter;stroke-miterlimit:4;stroke-dasharray:none;stroke-dashoffset:0;stroke-opacity:1;stop-color:#000000"
         id="path850"
         cx="95.25"
         cy="137.58333"
         r="0.13229166" />
      <path
         style="fill:none;stroke:#000000;stroke-width:0.280633px;stroke-linecap:butt;stroke-linejoin:miter;stroke-opacity:1;marker-end:url(#Arrow1Send)"
         d="M 95.249999,137.58333 H 119.0625"
         id="path965" />
      <g
         transform="matrix(0.352778,0,0,0.352778,106.30191,134.74466)"
         ns1:version="1.3.1"
         ns1:texconverter="pdflatex"
         ns1:pdfconverter="inkscape"
         ns1:text="$r$\n"
         ns1:preamble="/Users/ketiboldiais/Library/Application Support/org.inkscape.Inkscape/config/inkscape/extensions/circuitSymbols/circuitSymbolsPreamble.tex"
         ns1:scale="1.0"
         ns1:alignment="middle center"
         ns1:jacobian_sqrt="0.352778"
         id="g1358">
        <defs
           id="id-651c88da-3efe-4a18-a53c-1553107fa408">
          <g
             id="id-9a0c8358-b9f0-4fb5-bedd-12d5de5766c1">
            <symbol
               overflow="visible"
               id="id-b804773c-f3d5-4522-b835-19550220cb4f">
              <path
                 style="stroke:none;stroke-width:0"
                 d=""
                 id="id-5cdade91-5d91-4975-be88-8ce46aed0640" />
            </symbol>
            <symbol
               overflow="visible"
               id="id-23866478-8b3b-4748-ae9a-7a9865b73dca">
              <path
                 style="stroke:none;stroke-width:0"
                 d="m 0.875,-0.59375 c -0.03125,0.15625 -0.09375,0.390625 -0.09375,0.4375 0,0.171875 0.140625,0.265625 0.296875,0.265625 0.125,0 0.296875,-0.078125 0.375,-0.28125 C 1.46875,-0.203125 1.796875,-1.5625 1.84375,-1.75 c 0.078125,-0.328125 0.265625,-1.015625 0.3125,-1.296875 0.046875,-0.125 0.328125,-0.59375 0.5625,-0.8125 0.078125,-0.0625 0.375,-0.328125 0.796875,-0.328125 0.265625,0 0.40625,0.125 0.421875,0.125 -0.296875,0.046875 -0.515625,0.28125 -0.515625,0.546875 0,0.15625 0.109375,0.34375 0.375,0.34375 0.265625,0 0.546875,-0.234375 0.546875,-0.59375 0,-0.34375 -0.3125,-0.640625 -0.828125,-0.640625 C 2.875,-4.40625 2.4375,-3.921875 2.25,-3.640625 2.15625,-4.09375 1.796875,-4.40625 1.328125,-4.40625 0.875,-4.40625 0.6875,-4.015625 0.59375,-3.84375 0.421875,-3.5 0.296875,-2.90625 0.296875,-2.875 c 0,0.109375 0.09375,0.109375 0.109375,0.109375 0.109375,0 0.109375,-0.015625 0.171875,-0.234375 0.171875,-0.703125 0.375,-1.1875 0.734375,-1.1875 0.15625,0 0.296875,0.078125 0.296875,0.453125 0,0.21875 -0.03125,0.328125 -0.15625,0.84375 z m 0,0"
                 id="id-5df5a045-cd8b-4661-aa5e-204462e58c8c" />
            </symbol>
          </g>
        </defs>
        <g
           id="id-bdaa8725-f477-42ae-909c-784d542fbf6b"
           transform="translate(-149.009,-130.359)">
          <g
             style="fill:#000000;fill-opacity:1"
             id="id-ca54cdc1-0b89-4544-9e1a-303c917e865d">
            <g
               transform="translate(148.712,134.765)"
               id="g1354">
              <path
                 style="stroke:none;stroke-width:0"
                 d="m 0.875,-0.59375 c -0.03125,0.15625 -0.09375,0.390625 -0.09375,0.4375 0,0.171875 0.140625,0.265625 0.296875,0.265625 0.125,0 0.296875,-0.078125 0.375,-0.28125 C 1.46875,-0.203125 1.796875,-1.5625 1.84375,-1.75 c 0.078125,-0.328125 0.265625,-1.015625 0.3125,-1.296875 0.046875,-0.125 0.328125,-0.59375 0.5625,-0.8125 0.078125,-0.0625 0.375,-0.328125 0.796875,-0.328125 0.265625,0 0.40625,0.125 0.421875,0.125 -0.296875,0.046875 -0.515625,0.28125 -0.515625,0.546875 0,0.15625 0.109375,0.34375 0.375,0.34375 0.265625,0 0.546875,-0.234375 0.546875,-0.59375 0,-0.34375 -0.3125,-0.640625 -0.828125,-0.640625 C 2.875,-4.40625 2.4375,-3.921875 2.25,-3.640625 2.15625,-4.09375 1.796875,-4.40625 1.328125,-4.40625 0.875,-4.40625 0.6875,-4.015625 0.59375,-3.84375 0.421875,-3.5 0.296875,-2.90625 0.296875,-2.875 c 0,0.109375 0.09375,0.109375 0.109375,0.109375 0.109375,0 0.109375,-0.015625 0.171875,-0.234375 0.171875,-0.703125 0.375,-1.1875 0.734375,-1.1875 0.15625,0 0.296875,0.078125 0.296875,0.453125 0,0.21875 -0.03125,0.328125 -0.15625,0.84375 z m 0,0"
                 id="id-f570fc24-8378-49fc-9d18-5bf3fb1f1d40" />
            </g>
          </g>
        </g>
      </g>
      <path
         style="fill:none;stroke:#000000;stroke-width:0.280633px;stroke-linecap:butt;stroke-linejoin:miter;stroke-opacity:1;marker-end:url(#Arrow1Send)"
         d="m 95.249999,137.58333 2e-6,-23.8125"
         id="path1120"
         sodipodi:nodetypes="cc" />
      <path
         style="fill:none;stroke:#000000;stroke-width:0.280633px;stroke-linecap:butt;stroke-linejoin:miter;stroke-opacity:1;marker-end:url(#Arrow1Send)"
         d="M 95.249999,137.58333 H 71.437501"
         id="path1141"
         sodipodi:nodetypes="cc" />
      <path
         style="fill:none;stroke:#000000;stroke-width:0.288323px;stroke-linecap:butt;stroke-linejoin:miter;stroke-opacity:1;marker-end:url(#Arrow1Send)"
         d="m 95.249999,137.58333 2e-6,23.8125"
         id="path1219"
         sodipodi:nodetypes="cc" />
      <path
         style="fill:none;stroke:#000000;stroke-width:0.264583px;stroke-linecap:butt;stroke-linejoin:miter;stroke-opacity:1;marker-end:url(#Arrow2Mend)"
         d="M 95.250003,137.58332 113.77084,120.38541"
         id="path1811" />
      <path
         style="fill:none;stroke:#000000;stroke-width:0.264583px;stroke-linecap:butt;stroke-linejoin:miter;stroke-opacity:1;marker-end:url(#Arrow2Mend)"
         d="M 95.250003,137.58332 78.052086,119.06249"
         id="path2169" />
      <path
         style="font-variation-settings:normal;opacity:1;fill:none;fill-opacity:1;fill-rule:evenodd;stroke:#0084c8;stroke-width:0.165;stroke-linecap:butt;stroke-linejoin:miter;stroke-miterlimit:4;stroke-dasharray:none;stroke-dashoffset:0;stroke-opacity:1;marker-start:url(#Arrow2Mstart);stop-color:#000000;stop-opacity:1"
         id="path2377"
         sodipodi:type="arc"
         sodipodi:cx="95.25"
         sodipodi:cy="137.58333"
         sodipodi:rx="2.6458333"
         sodipodi:ry="2.6458333"
         sodipodi:start="4.0532179"
         sodipodi:end="5.50675"
         sodipodi:arc-type="arc"
         d="m 93.629528,135.4918 a 2.6458333,2.6458333 0 0 1 3.508052,0.23749"
         sodipodi:open="true" />
      <g
         transform="matrix(0.352778,0,0,0.352778,96.761018,126.48288)"
         ns1:version="1.3.1"
         ns1:texconverter="pdflatex"
         ns1:pdfconverter="inkscape"
         ns1:text="$\\dfrac{\\pi}{2}$\n"
         ns1:preamble="/Users/ketiboldiais/Library/Application Support/org.inkscape.Inkscape/config/inkscape/extensions/circuitSymbols/circuitSymbolsPreamble.tex"
         ns1:scale="1.0"
         ns1:alignment="middle center"
         ns1:inkscapeversion="1.1"
         ns1:jacobian_sqrt="0.352778"
         id="g2659"
         style="fill:#005c94">
        <defs
           id="id-27fc1f4a-4d7f-4a16-9ba4-63f3cce75efb">
          <g
             id="id-aabad9df-4eac-4640-9195-ee3e66216928">
            <symbol
               overflow="visible"
               id="id-7abba92d-ab4e-497c-9790-f09a17e8b413">
              <path
                 style="stroke:none;stroke-width:0"
                 d=""
                 id="id-9d9f79cb-32d6-4ebb-894e-41a94f3de3d1" />
            </symbol>
            <symbol
               overflow="visible"
               id="id-e72a3b8b-61a2-40f7-86fa-62836ade1c45">
              <path
                 style="stroke:none;stroke-width:0"
                 d="m 2.640625,-3.71875 h 1.125 C 3.4375,-2.25 3.34375,-1.8125 3.34375,-1.140625 c 0,0.140625 0,0.40625 0.078125,0.75 0.109375,0.4375 0.21875,0.5 0.359375,0.5 0.203125,0 0.421875,-0.171875 0.421875,-0.375 0,-0.0625 0,-0.078125 -0.0625,-0.21875 -0.296875,-0.71875 -0.296875,-1.375 -0.296875,-1.65625 0,-0.515625 0.078125,-1.0625 0.1875,-1.578125 h 1.125 c 0.140625,0 0.5,0 0.5,-0.34375 0,-0.234375 -0.21875,-0.234375 -0.40625,-0.234375 H 1.90625 c -0.21875,0 -0.59375,0 -1.03125,0.46875 -0.34375,0.390625 -0.609375,0.84375 -0.609375,0.890625 0,0.015625 0,0.109375 0.125,0.109375 0.078125,0 0.09375,-0.046875 0.15625,-0.125 C 1.03125,-3.71875 1.609375,-3.71875 1.8125,-3.71875 H 2.375 C 2.0625,-2.515625 1.53125,-1.3125 1.109375,-0.40625 1.03125,-0.25 1.03125,-0.234375 1.03125,-0.15625 c 0,0.1875 0.15625,0.265625 0.28125,0.265625 0.296875,0 0.375,-0.28125 0.5,-0.640625 C 1.953125,-1 1.953125,-1.015625 2.078125,-1.515625 Z m 0,0"
                 id="id-305ce22e-e828-413a-b89c-1742165fe998" />
            </symbol>
            <symbol
               overflow="visible"
               id="id-63763834-712b-460c-bf2f-0b39cba6ebe8">
              <path
                 style="stroke:none;stroke-width:0"
                 d=""
                 id="id-6715671b-c944-4cf0-8f11-6295fc12efd4" />
            </symbol>
            <symbol
               overflow="visible"
               id="id-0028d081-0f3b-4cf7-8a89-ef26f6dfac58">
              <path
                 style="stroke:none;stroke-width:0"
                 d="m 1.265625,-0.765625 1.0625,-1.03125 c 1.546875,-1.375 2.140625,-1.90625 2.140625,-2.90625 0,-1.140625 -0.890625,-1.9375 -2.109375,-1.9375 -1.125,0 -1.859375,0.921875 -1.859375,1.8125 0,0.546875 0.5,0.546875 0.53125,0.546875 0.171875,0 0.515625,-0.109375 0.515625,-0.53125 0,-0.25 -0.1875,-0.515625 -0.53125,-0.515625 -0.078125,0 -0.09375,0 -0.125,0.015625 0.21875,-0.65625 0.765625,-1.015625 1.34375,-1.015625 0.90625,0 1.328125,0.8125 1.328125,1.625 C 3.5625,-3.90625 3.078125,-3.125 2.515625,-2.5 l -1.90625,2.125 C 0.5,-0.265625 0.5,-0.234375 0.5,0 H 4.203125 L 4.46875,-1.734375 H 4.234375 C 4.171875,-1.4375 4.109375,-1 4,-0.84375 3.9375,-0.765625 3.28125,-0.765625 3.0625,-0.765625 Z m 0,0"
                 id="id-dab2b8b2-539c-4576-87d2-0480ae2eee32" />
            </symbol>
          </g>
        </defs>
        <g
           id="id-5a04c33c-e16e-4c1e-af23-65dc01bcab6f"
           transform="translate(-149.906,-124.794)"
           style="fill:#005c94;stroke:#005c94">
          <g
             style="fill:#005c94;fill-opacity:1;stroke:#005c94"
             id="id-c22bb77a-96a7-44be-8e46-fa77f47c19e2">
            <g
               transform="translate(149.908,129.091)"
               id="g2650"
               style="fill:#005c94;stroke:#005c94">
              <path
                 style="fill:#005c94;stroke:#005c94;stroke-width:0"
                 d="m 2.640625,-3.71875 h 1.125 C 3.4375,-2.25 3.34375,-1.8125 3.34375,-1.140625 c 0,0.140625 0,0.40625 0.078125,0.75 0.109375,0.4375 0.21875,0.5 0.359375,0.5 0.203125,0 0.421875,-0.171875 0.421875,-0.375 0,-0.0625 0,-0.078125 -0.0625,-0.21875 -0.296875,-0.71875 -0.296875,-1.375 -0.296875,-1.65625 0,-0.515625 0.078125,-1.0625 0.1875,-1.578125 h 1.125 c 0.140625,0 0.5,0 0.5,-0.34375 0,-0.234375 -0.21875,-0.234375 -0.40625,-0.234375 H 1.90625 c -0.21875,0 -0.59375,0 -1.03125,0.46875 -0.34375,0.390625 -0.609375,0.84375 -0.609375,0.890625 0,0.015625 0,0.109375 0.125,0.109375 0.078125,0 0.09375,-0.046875 0.15625,-0.125 C 1.03125,-3.71875 1.609375,-3.71875 1.8125,-3.71875 H 2.375 C 2.0625,-2.515625 1.53125,-1.3125 1.109375,-0.40625 1.03125,-0.25 1.03125,-0.234375 1.03125,-0.15625 c 0,0.1875 0.15625,0.265625 0.28125,0.265625 0.296875,0 0.375,-0.28125 0.5,-0.640625 C 1.953125,-1 1.953125,-1.015625 2.078125,-1.515625 Z m 0,0"
                 id="id-c2f903ac-a0e8-49a9-80d8-6f600021aa2b" />
            </g>
          </g>
          <path
             style="fill:#005c94;stroke:#005c94;stroke-width:0.398;stroke-linecap:butt;stroke-linejoin:miter;stroke-miterlimit:10;stroke-opacity:1"
             d="M -0.00175,0.00115625 H 6.037312"
             transform="matrix(1,0,0,-1,149.908,133.341)"
             id="id-9283e8d4-36eb-4d3a-af3b-b25ca8eef0db" />
          <g
             style="fill:#005c94;fill-opacity:1;stroke:#005c94"
             id="id-cb6b936b-c3e9-4346-a232-2f01886c5e6f">
            <g
               transform="translate(150.435,142.665)"
               id="g2655"
               style="fill:#005c94;stroke:#005c94">
              <path
                 style="fill:#005c94;stroke:#005c94;stroke-width:0"
                 d="m 1.265625,-0.765625 1.0625,-1.03125 c 1.546875,-1.375 2.140625,-1.90625 2.140625,-2.90625 0,-1.140625 -0.890625,-1.9375 -2.109375,-1.9375 -1.125,0 -1.859375,0.921875 -1.859375,1.8125 0,0.546875 0.5,0.546875 0.53125,0.546875 0.171875,0 0.515625,-0.109375 0.515625,-0.53125 0,-0.25 -0.1875,-0.515625 -0.53125,-0.515625 -0.078125,0 -0.09375,0 -0.125,0.015625 0.21875,-0.65625 0.765625,-1.015625 1.34375,-1.015625 0.90625,0 1.328125,0.8125 1.328125,1.625 C 3.5625,-3.90625 3.078125,-3.125 2.515625,-2.5 l -1.90625,2.125 C 0.5,-0.265625 0.5,-0.234375 0.5,0 H 4.203125 L 4.46875,-1.734375 H 4.234375 C 4.171875,-1.4375 4.109375,-1 4,-0.84375 3.9375,-0.765625 3.28125,-0.765625 3.0625,-0.765625 Z m 0,0"
                 id="id-daa6fef4-7b4e-4bb1-9f3f-52cc19290868" />
            </g>
          </g>
        </g>
      </g>
      <g
         transform="matrix(0.352778,0,0,0.352778,97.945929,140.52117)"
         ns1:version="1.3.1"
         ns1:texconverter="pdflatex"
         ns1:pdfconverter="inkscape"
         ns1:text="$\\dfrac{3\\pi}{2}$\n"
         ns1:preamble="/Users/ketiboldiais/Library/Application Support/org.inkscape.Inkscape/config/inkscape/extensions/circuitSymbols/circuitSymbolsPreamble.tex"
         ns1:scale="1.0"
         ns1:alignment="middle center"
         ns1:inkscapeversion="1.1"
         ns1:jacobian_sqrt="0.352778"
         id="g3236"
         style="fill:#b50000;stroke:#b50000">
        <defs
           id="id-28deb77d-b1d9-4673-8d3e-5c43cdcae673">
          <g
             id="id-6cdebb9d-0e89-4f55-8fec-58ea5f35c1f6">
            <symbol
               overflow="visible"
               id="id-690d7084-1804-4e7e-89fb-615089052bed">
              <path
                 style="stroke:none;stroke-width:0"
                 d=""
                 id="id-81b85cec-5d9b-49d2-ab0e-396548ed5b89" />
            </symbol>
            <symbol
               overflow="visible"
               id="id-ed2fb538-4e25-47e8-adb5-bdfc1207d94b">
              <path
                 style="stroke:none;stroke-width:0"
                 d="m 2.890625,-3.515625 c 0.8125,-0.265625 1.390625,-0.953125 1.390625,-1.75 0,-0.8125 -0.875,-1.375 -1.828125,-1.375 -1,0 -1.765625,0.59375 -1.765625,1.359375 0,0.328125 0.21875,0.515625 0.515625,0.515625 0.296875,0 0.5,-0.21875 0.5,-0.515625 0,-0.484375 -0.46875,-0.484375 -0.609375,-0.484375 0.296875,-0.5 0.953125,-0.625 1.3125,-0.625 0.421875,0 0.96875,0.21875 0.96875,1.109375 0,0.125 -0.03125,0.703125 -0.28125,1.140625 C 2.796875,-3.65625 2.453125,-3.625 2.203125,-3.625 2.125,-3.609375 1.890625,-3.59375 1.8125,-3.59375 c -0.078125,0.015625 -0.140625,0.03125 -0.140625,0.125 0,0.109375 0.0625,0.109375 0.234375,0.109375 h 0.4375 c 0.8125,0 1.1875,0.671875 1.1875,1.65625 0,1.359375 -0.6875,1.640625 -1.125,1.640625 -0.4375,0 -1.1875,-0.171875 -1.53125,-0.75 0.34375,0.046875 0.65625,-0.171875 0.65625,-0.546875 0,-0.359375 -0.265625,-0.5625 -0.546875,-0.5625 -0.25,0 -0.5625,0.140625 -0.5625,0.578125 0,0.90625 0.921875,1.5625 2.015625,1.5625 1.21875,0 2.125,-0.90625 2.125,-1.921875 0,-0.8125 -0.640625,-1.59375 -1.671875,-1.8125 z m 0,0"
                 id="id-18b1b89e-a092-4238-82b6-a9c626a0877b" />
            </symbol>
            <symbol
               overflow="visible"
               id="id-c5e7f9f0-7a53-4385-b2e2-e0791f1580bc">
              <path
                 style="stroke:none;stroke-width:0"
                 d="m 1.265625,-0.765625 1.0625,-1.03125 c 1.546875,-1.375 2.140625,-1.90625 2.140625,-2.90625 0,-1.140625 -0.890625,-1.9375 -2.109375,-1.9375 -1.125,0 -1.859375,0.921875 -1.859375,1.8125 0,0.546875 0.5,0.546875 0.53125,0.546875 0.171875,0 0.515625,-0.109375 0.515625,-0.53125 0,-0.25 -0.1875,-0.515625 -0.53125,-0.515625 -0.078125,0 -0.09375,0 -0.125,0.015625 0.21875,-0.65625 0.765625,-1.015625 1.34375,-1.015625 0.90625,0 1.328125,0.8125 1.328125,1.625 C 3.5625,-3.90625 3.078125,-3.125 2.515625,-2.5 l -1.90625,2.125 C 0.5,-0.265625 0.5,-0.234375 0.5,0 H 4.203125 L 4.46875,-1.734375 H 4.234375 C 4.171875,-1.4375 4.109375,-1 4,-0.84375 3.9375,-0.765625 3.28125,-0.765625 3.0625,-0.765625 Z m 0,0"
                 id="id-a22ac5d4-7c8f-4810-9870-723f9b566e62" />
            </symbol>
            <symbol
               overflow="visible"
               id="id-5fd1a242-3b9d-4dc6-b20f-47d1049e5d4d">
              <path
                 style="stroke:none;stroke-width:0"
                 d=""
                 id="id-efc0da84-3081-4a89-a148-8888a14f4008" />
            </symbol>
            <symbol
               overflow="visible"
               id="id-96380eee-b5dc-4faa-b512-4339f3de4d3e">
              <path
                 style="stroke:none;stroke-width:0"
                 d="m 2.640625,-3.71875 h 1.125 C 3.4375,-2.25 3.34375,-1.8125 3.34375,-1.140625 c 0,0.140625 0,0.40625 0.078125,0.75 0.109375,0.4375 0.21875,0.5 0.359375,0.5 0.203125,0 0.421875,-0.171875 0.421875,-0.375 0,-0.0625 0,-0.078125 -0.0625,-0.21875 -0.296875,-0.71875 -0.296875,-1.375 -0.296875,-1.65625 0,-0.515625 0.078125,-1.0625 0.1875,-1.578125 h 1.125 c 0.140625,0 0.5,0 0.5,-0.34375 0,-0.234375 -0.21875,-0.234375 -0.40625,-0.234375 H 1.90625 c -0.21875,0 -0.59375,0 -1.03125,0.46875 -0.34375,0.390625 -0.609375,0.84375 -0.609375,0.890625 0,0.015625 0,0.109375 0.125,0.109375 0.078125,0 0.09375,-0.046875 0.15625,-0.125 C 1.03125,-3.71875 1.609375,-3.71875 1.8125,-3.71875 H 2.375 C 2.0625,-2.515625 1.53125,-1.3125 1.109375,-0.40625 1.03125,-0.25 1.03125,-0.234375 1.03125,-0.15625 c 0,0.1875 0.15625,0.265625 0.28125,0.265625 0.296875,0 0.375,-0.28125 0.5,-0.640625 C 1.953125,-1 1.953125,-1.015625 2.078125,-1.515625 Z m 0,0"
                 id="id-570faef3-c9d1-4e99-9eac-c3076bd85129" />
            </symbol>
          </g>
        </defs>
        <g
           id="id-0d3bf979-4e3c-4bab-b3fc-1de07159691b"
           transform="translate(-149.906,-124.581)"
           style="fill:#b50000;stroke:#b50000">
          <g
             style="fill:#b50000;fill-opacity:1;stroke:#b50000"
             id="id-8f70573d-6699-4577-afc8-a9c7fcd73ed8">
            <g
               transform="translate(149.908,131.222)"
               id="g3223"
               style="fill:#b50000;stroke:#b50000">
              <path
                 style="fill:#b50000;stroke:#b50000;stroke-width:0"
                 d="m 2.890625,-3.515625 c 0.8125,-0.265625 1.390625,-0.953125 1.390625,-1.75 0,-0.8125 -0.875,-1.375 -1.828125,-1.375 -1,0 -1.765625,0.59375 -1.765625,1.359375 0,0.328125 0.21875,0.515625 0.515625,0.515625 0.296875,0 0.5,-0.21875 0.5,-0.515625 0,-0.484375 -0.46875,-0.484375 -0.609375,-0.484375 0.296875,-0.5 0.953125,-0.625 1.3125,-0.625 0.421875,0 0.96875,0.21875 0.96875,1.109375 0,0.125 -0.03125,0.703125 -0.28125,1.140625 C 2.796875,-3.65625 2.453125,-3.625 2.203125,-3.625 2.125,-3.609375 1.890625,-3.59375 1.8125,-3.59375 c -0.078125,0.015625 -0.140625,0.03125 -0.140625,0.125 0,0.109375 0.0625,0.109375 0.234375,0.109375 h 0.4375 c 0.8125,0 1.1875,0.671875 1.1875,1.65625 0,1.359375 -0.6875,1.640625 -1.125,1.640625 -0.4375,0 -1.1875,-0.171875 -1.53125,-0.75 0.34375,0.046875 0.65625,-0.171875 0.65625,-0.546875 0,-0.359375 -0.265625,-0.5625 -0.546875,-0.5625 -0.25,0 -0.5625,0.140625 -0.5625,0.578125 0,0.90625 0.921875,1.5625 2.015625,1.5625 1.21875,0 2.125,-0.90625 2.125,-1.921875 0,-0.8125 -0.640625,-1.59375 -1.671875,-1.8125 z m 0,0"
                 id="id-cd7a83d4-150f-4ce7-91fd-392f21689ea5" />
            </g>
          </g>
          <g
             style="fill:#b50000;fill-opacity:1;stroke:#b50000"
             id="id-10c12064-0446-46a7-a85f-7aacf98c0dd5">
            <g
               transform="translate(154.889,131.222)"
               id="g3227"
               style="fill:#b50000;stroke:#b50000">
              <path
                 style="fill:#b50000;stroke:#b50000;stroke-width:0"
                 d="m 2.640625,-3.71875 h 1.125 C 3.4375,-2.25 3.34375,-1.8125 3.34375,-1.140625 c 0,0.140625 0,0.40625 0.078125,0.75 0.109375,0.4375 0.21875,0.5 0.359375,0.5 0.203125,0 0.421875,-0.171875 0.421875,-0.375 0,-0.0625 0,-0.078125 -0.0625,-0.21875 -0.296875,-0.71875 -0.296875,-1.375 -0.296875,-1.65625 0,-0.515625 0.078125,-1.0625 0.1875,-1.578125 h 1.125 c 0.140625,0 0.5,0 0.5,-0.34375 0,-0.234375 -0.21875,-0.234375 -0.40625,-0.234375 H 1.90625 c -0.21875,0 -0.59375,0 -1.03125,0.46875 -0.34375,0.390625 -0.609375,0.84375 -0.609375,0.890625 0,0.015625 0,0.109375 0.125,0.109375 0.078125,0 0.09375,-0.046875 0.15625,-0.125 C 1.03125,-3.71875 1.609375,-3.71875 1.8125,-3.71875 H 2.375 C 2.0625,-2.515625 1.53125,-1.3125 1.109375,-0.40625 1.03125,-0.25 1.03125,-0.234375 1.03125,-0.15625 c 0,0.1875 0.15625,0.265625 0.28125,0.265625 0.296875,0 0.375,-0.28125 0.5,-0.640625 C 1.953125,-1 1.953125,-1.015625 2.078125,-1.515625 Z m 0,0"
                 id="id-ba0b18bc-4ca9-4e3a-9f2a-3ae9520bc114" />
            </g>
          </g>
          <path
             style="fill:#b50000;stroke:#b50000;stroke-width:0.398;stroke-linecap:butt;stroke-linejoin:miter;stroke-miterlimit:10;stroke-opacity:1"
             d="M -0.00175,-0.00165625 H 11.017781"
             transform="matrix(1,0,0,-1,149.908,135.471)"
             id="id-709f375f-0a20-4f4a-91d1-e5d685774481" />
          <g
             style="fill:#b50000;fill-opacity:1;stroke:#b50000"
             id="id-48a91dfa-1ca0-4b81-81cf-e1e1e8dfe67b">
            <g
               transform="translate(152.926,144.796)"
               id="g3232"
               style="fill:#b50000;stroke:#b50000">
              <path
                 style="fill:#b50000;stroke:#b50000;stroke-width:0"
                 d="m 1.265625,-0.765625 1.0625,-1.03125 c 1.546875,-1.375 2.140625,-1.90625 2.140625,-2.90625 0,-1.140625 -0.890625,-1.9375 -2.109375,-1.9375 -1.125,0 -1.859375,0.921875 -1.859375,1.8125 0,0.546875 0.5,0.546875 0.53125,0.546875 0.171875,0 0.515625,-0.109375 0.515625,-0.53125 0,-0.25 -0.1875,-0.515625 -0.53125,-0.515625 -0.078125,0 -0.09375,0 -0.125,0.015625 0.21875,-0.65625 0.765625,-1.015625 1.34375,-1.015625 0.90625,0 1.328125,0.8125 1.328125,1.625 C 3.5625,-3.90625 3.078125,-3.125 2.515625,-2.5 l -1.90625,2.125 C 0.5,-0.265625 0.5,-0.234375 0.5,0 H 4.203125 L 4.46875,-1.734375 H 4.234375 C 4.171875,-1.4375 4.109375,-1 4,-0.84375 3.9375,-0.765625 3.28125,-0.765625 3.0625,-0.765625 Z m 0,0"
                 id="id-fc126ad0-74f7-402d-a684-a5e17f792cd2" />
            </g>
          </g>
        </g>
      </g>
    </g>
  </g>
</svg>
