<?xml version="1.0" encoding="UTF-8"?>
<svg width="96.295mm" height="81.692mm" version="1.1" viewBox="0 0 96.295 81.692" xmlns="http://www.w3.org/2000/svg" xmlns:xlink="http://www.w3.org/1999/xlink">
 <defs>
  <symbol id="symbol9116" overflow="visible">
   <path d="m3.3281-3.0156c0.0625-0.25 0.29688-1.1719 0.98438-1.1719 0.046875 0 0.29688 0 0.5 0.125-0.28125 0.0625-0.46875 0.29688-0.46875 0.54688 0 0.15625 0.10938 0.34375 0.375 0.34375 0.21875 0 0.53125-0.17188 0.53125-0.57812 0-0.51562-0.57812-0.65625-0.92188-0.65625-0.57812 0-0.92188 0.53125-1.0469 0.75-0.25-0.65625-0.78125-0.75-1.0781-0.75-1.0312 0-1.6094 1.2812-1.6094 1.5312 0 0.10938 0.10938 0.10938 0.125 0.10938 0.078125 0 0.10938-0.03125 0.125-0.10938 0.34375-1.0625 1-1.3125 1.3438-1.3125 0.1875 0 0.53125 0.09375 0.53125 0.67188 0 0.3125-0.17188 0.96875-0.53125 2.375-0.15625 0.60938-0.51562 1.0312-0.95312 1.0312-0.0625 0-0.28125 0-0.5-0.125 0.25-0.0625 0.46875-0.26562 0.46875-0.54688 0-0.26562-0.21875-0.34375-0.35938-0.34375-0.3125 0-0.54688 0.25-0.54688 0.57812 0 0.45312 0.48438 0.65625 0.92188 0.65625 0.67188 0 1.0312-0.70312 1.0469-0.75 0.125 0.35938 0.48438 0.75 1.0781 0.75 1.0312 0 1.5938-1.2812 1.5938-1.5312 0-0.10938-0.078125-0.10938-0.10938-0.10938-0.09375 0-0.10938 0.046875-0.14062 0.10938-0.32812 1.0781-1 1.3125-1.3125 1.3125-0.39062 0-0.54688-0.3125-0.54688-0.65625 0-0.21875 0.046875-0.4375 0.15625-0.875z"/>
  </symbol>
  <symbol id="symbol2670" overflow="visible">
   <path d="m3.3281-3.0156c0.0625-0.25 0.29688-1.1719 0.98438-1.1719 0.046875 0 0.29688 0 0.5 0.125-0.28125 0.0625-0.46875 0.29688-0.46875 0.54688 0 0.15625 0.10938 0.34375 0.375 0.34375 0.21875 0 0.53125-0.17188 0.53125-0.57812 0-0.51562-0.57812-0.65625-0.92188-0.65625-0.57812 0-0.92188 0.53125-1.0469 0.75-0.25-0.65625-0.78125-0.75-1.0781-0.75-1.0312 0-1.6094 1.2812-1.6094 1.5312 0 0.10938 0.10938 0.10938 0.125 0.10938 0.078125 0 0.10938-0.03125 0.125-0.10938 0.34375-1.0625 1-1.3125 1.3438-1.3125 0.1875 0 0.53125 0.09375 0.53125 0.67188 0 0.3125-0.17188 0.96875-0.53125 2.375-0.15625 0.60938-0.51562 1.0312-0.95312 1.0312-0.0625 0-0.28125 0-0.5-0.125 0.25-0.0625 0.46875-0.26562 0.46875-0.54688 0-0.26562-0.21875-0.34375-0.35938-0.34375-0.3125 0-0.54688 0.25-0.54688 0.57812 0 0.45312 0.48438 0.65625 0.92188 0.65625 0.67188 0 1.0312-0.70312 1.0469-0.75 0.125 0.35938 0.48438 0.75 1.0781 0.75 1.0312 0 1.5938-1.2812 1.5938-1.5312 0-0.10938-0.078125-0.10938-0.10938-0.10938-0.09375 0-0.10938 0.046875-0.14062 0.10938-0.32812 1.0781-1 1.3125-1.3125 1.3125-0.39062 0-0.54688-0.3125-0.54688-0.65625 0-0.21875 0.046875-0.4375 0.15625-0.875z"/>
  </symbol>
  <symbol id="symbol8138" overflow="visible">
   <path d="m2.8594-6.8125s0-0.10938-0.125-0.10938c-0.23438 0-0.95312 0.078125-1.2188 0.10938-0.078125 0-0.1875 0.015625-0.1875 0.1875 0 0.125 0.09375 0.125 0.23438 0.125 0.48438 0 0.5 0.0625 0.5 0.17188l-0.03125 0.20312-1.4375 5.7344c-0.046875 0.14062-0.046875 0.15625-0.046875 0.21875 0 0.23438 0.20312 0.28125 0.29688 0.28125 0.15625 0 0.3125-0.125 0.35938-0.26562l0.1875-0.75 0.21875-0.89062c0.0625-0.23438 0.125-0.45312 0.17188-0.67188 0.015625-0.0625 0.10938-0.39062 0.10938-0.45312 0.03125-0.09375 0.34375-0.64062 0.6875-0.92188 0.21875-0.15625 0.51562-0.34375 0.95312-0.34375 0.42188 0 0.53125 0.34375 0.53125 0.70312 0 0.53125-0.375 1.625-0.60938 2.2344-0.078125 0.21875-0.14062 0.34375-0.14062 0.54688 0 0.46875 0.35938 0.8125 0.82812 0.8125 0.9375 0 1.2969-1.4531 1.2969-1.5312 0-0.10938-0.078125-0.10938-0.10938-0.10938-0.10938 0-0.10938 0.03125-0.15625 0.1875-0.14062 0.53125-0.46875 1.2344-1.0156 1.2344-0.17188 0-0.23438-0.09375-0.23438-0.32812 0-0.25 0.078125-0.48438 0.17188-0.70312 0.15625-0.4375 0.60938-1.625 0.60938-2.2031 0-0.64062-0.39062-1.0625-1.1406-1.0625-0.625 0-1.1094 0.3125-1.4844 0.76562z"/>
  </symbol>
  <symbol id="symbol6654" overflow="visible">
   <path d="m4.0781-2.2969h2.7812c0.14062 0 0.32812 0 0.32812-0.20312 0-0.1875-0.1875-0.1875-0.32812-0.1875h-2.7812v-2.7969c0-0.14062 0-0.32812-0.20312-0.32812s-0.20312 0.1875-0.20312 0.32812v2.7969h-2.7812c-0.14062 0-0.32812 0-0.32812 0.1875 0 0.20312 0.1875 0.20312 0.32812 0.20312h2.7812v2.7969c0 0.14062 0 0.32812 0.20312 0.32812s0.20312-0.1875 0.20312-0.32812z"/>
  </symbol>
  <symbol id="symbol2551" overflow="visible">
   <path d="m3.6562-3.9844h0.85938c0.20312 0 0.29688 0 0.29688-0.20312 0-0.10938-0.09375-0.10938-0.26562-0.10938h-0.82812l0.20312-1.1406c0.046875-0.20312 0.1875-0.90625 0.25-1.0312 0.078125-0.1875 0.25-0.34375 0.46875-0.34375 0.03125 0 0.29688 0 0.48438 0.1875-0.4375 0.03125-0.54688 0.39062-0.54688 0.53125 0 0.23438 0.1875 0.35938 0.375 0.35938 0.26562 0 0.54688-0.23438 0.54688-0.60938 0-0.45312-0.45312-0.6875-0.85938-0.6875-0.34375 0-0.96875 0.1875-1.2656 1.1719-0.0625 0.20312-0.09375 0.3125-0.32812 1.5625h-0.6875c-0.20312 0-0.3125 0-0.3125 0.1875 0 0.125 0.09375 0.125 0.28125 0.125h0.65625l-0.73438 3.9375c-0.1875 0.96875-0.35938 1.875-0.875 1.875-0.046875 0-0.28125 0-0.48438-0.1875 0.46875-0.03125 0.5625-0.39062 0.5625-0.53125 0-0.23438-0.1875-0.35938-0.375-0.35938-0.26562 0-0.54688 0.23438-0.54688 0.60938 0 0.4375 0.4375 0.6875 0.84375 0.6875 0.54688 0 0.95312-0.59375 1.125-0.96875 0.32812-0.625 0.54688-1.8281 0.5625-1.9062z"/>
  </symbol>
  <symbol id="symbol6168" overflow="visible">
   <path d="m3.3281-3.0156c0.0625-0.25 0.29688-1.1719 0.98438-1.1719 0.046875 0 0.29688 0 0.5 0.125-0.28125 0.0625-0.46875 0.29688-0.46875 0.54688 0 0.15625 0.10938 0.34375 0.375 0.34375 0.21875 0 0.53125-0.17188 0.53125-0.57812 0-0.51562-0.57812-0.65625-0.92188-0.65625-0.57812 0-0.92188 0.53125-1.0469 0.75-0.25-0.65625-0.78125-0.75-1.0781-0.75-1.0312 0-1.6094 1.2812-1.6094 1.5312 0 0.10938 0.10938 0.10938 0.125 0.10938 0.078125 0 0.10938-0.03125 0.125-0.10938 0.34375-1.0625 1-1.3125 1.3438-1.3125 0.1875 0 0.53125 0.09375 0.53125 0.67188 0 0.3125-0.17188 0.96875-0.53125 2.375-0.15625 0.60938-0.51562 1.0312-0.95312 1.0312-0.0625 0-0.28125 0-0.5-0.125 0.25-0.0625 0.46875-0.26562 0.46875-0.54688 0-0.26562-0.21875-0.34375-0.35938-0.34375-0.3125 0-0.54688 0.25-0.54688 0.57812 0 0.45312 0.48438 0.65625 0.92188 0.65625 0.67188 0 1.0312-0.70312 1.0469-0.75 0.125 0.35938 0.48438 0.75 1.0781 0.75 1.0312 0 1.5938-1.2812 1.5938-1.5312 0-0.10938-0.078125-0.10938-0.10938-0.10938-0.09375 0-0.10938 0.046875-0.14062 0.10938-0.32812 1.0781-1 1.3125-1.3125 1.3125-0.39062 0-0.54688-0.3125-0.54688-0.65625 0-0.21875 0.046875-0.4375 0.15625-0.875z"/>
  </symbol>
  <symbol id="symbol9591" overflow="visible">
   <path d="m2.8594-6.8125s0-0.10938-0.125-0.10938c-0.23438 0-0.95312 0.078125-1.2188 0.10938-0.078125 0-0.1875 0.015625-0.1875 0.1875 0 0.125 0.09375 0.125 0.23438 0.125 0.48438 0 0.5 0.0625 0.5 0.17188l-0.03125 0.20312-1.4375 5.7344c-0.046875 0.14062-0.046875 0.15625-0.046875 0.21875 0 0.23438 0.20312 0.28125 0.29688 0.28125 0.15625 0 0.3125-0.125 0.35938-0.26562l0.1875-0.75 0.21875-0.89062c0.0625-0.23438 0.125-0.45312 0.17188-0.67188 0.015625-0.0625 0.10938-0.39062 0.10938-0.45312 0.03125-0.09375 0.34375-0.64062 0.6875-0.92188 0.21875-0.15625 0.51562-0.34375 0.95312-0.34375 0.42188 0 0.53125 0.34375 0.53125 0.70312 0 0.53125-0.375 1.625-0.60938 2.2344-0.078125 0.21875-0.14062 0.34375-0.14062 0.54688 0 0.46875 0.35938 0.8125 0.82812 0.8125 0.9375 0 1.2969-1.4531 1.2969-1.5312 0-0.10938-0.078125-0.10938-0.10938-0.10938-0.10938 0-0.10938 0.03125-0.15625 0.1875-0.14062 0.53125-0.46875 1.2344-1.0156 1.2344-0.17188 0-0.23438-0.09375-0.23438-0.32812 0-0.25 0.078125-0.48438 0.17188-0.70312 0.15625-0.4375 0.60938-1.625 0.60938-2.2031 0-0.64062-0.39062-1.0625-1.1406-1.0625-0.625 0-1.1094 0.3125-1.4844 0.76562z"/>
  </symbol>
  <symbol id="symbol250" overflow="visible">
   <path d="m3.2969 2.3906c0-0.03125 0-0.046875-0.17188-0.21875-1.2344-1.25-1.5625-3.1406-1.5625-4.6719 0-1.7344 0.375-3.4688 1.6094-4.7031 0.125-0.125 0.125-0.14062 0.125-0.17188 0-0.078125-0.03125-0.10938-0.09375-0.10938-0.10938 0-1 0.6875-1.5938 1.9531-0.5 1.0938-0.625 2.2031-0.625 3.0312 0 0.78125 0.10938 1.9844 0.65625 3.125 0.60938 1.2188 1.4531 1.875 1.5625 1.875 0.0625 0 0.09375-0.03125 0.09375-0.10938z"/>
  </symbol>
  <symbol id="symbol4722" overflow="visible">
   <path d="m4.0781-2.2969h2.7812c0.14062 0 0.32812 0 0.32812-0.20312 0-0.1875-0.1875-0.1875-0.32812-0.1875h-2.7812v-2.7969c0-0.14062 0-0.32812-0.20312-0.32812s-0.20312 0.1875-0.20312 0.32812v2.7969h-2.7812c-0.14062 0-0.32812 0-0.32812 0.1875 0 0.20312 0.1875 0.20312 0.32812 0.20312h2.7812v2.7969c0 0.14062 0 0.32812 0.20312 0.32812s0.20312-0.1875 0.20312-0.32812z"/>
  </symbol>
  <symbol id="symbol7079" overflow="visible">
   <path d="m2.875-2.5c0-0.76562-0.10938-1.9688-0.65625-3.1094-0.59375-1.2188-1.4531-1.875-1.5469-1.875-0.0625 0-0.10938 0.046875-0.10938 0.10938 0 0.03125 0 0.046875 0.1875 0.23438 0.98438 0.98438 1.5469 2.5625 1.5469 4.6406 0 1.7188-0.35938 3.4688-1.5938 4.7188-0.14062 0.125-0.14062 0.14062-0.14062 0.17188 0 0.0625 0.046875 0.10938 0.10938 0.10938 0.09375 0 1-0.6875 1.5781-1.9531 0.51562-1.0938 0.625-2.2031 0.625-3.0469z"/>
  </symbol>
  <symbol id="symbol9842" overflow="visible">
   <path d="m3.6562-3.9844h0.85938c0.20312 0 0.29688 0 0.29688-0.20312 0-0.10938-0.09375-0.10938-0.26562-0.10938h-0.82812l0.20312-1.1406c0.046875-0.20312 0.1875-0.90625 0.25-1.0312 0.078125-0.1875 0.25-0.34375 0.46875-0.34375 0.03125 0 0.29688 0 0.48438 0.1875-0.4375 0.03125-0.54688 0.39062-0.54688 0.53125 0 0.23438 0.1875 0.35938 0.375 0.35938 0.26562 0 0.54688-0.23438 0.54688-0.60938 0-0.45312-0.45312-0.6875-0.85938-0.6875-0.34375 0-0.96875 0.1875-1.2656 1.1719-0.0625 0.20312-0.09375 0.3125-0.32812 1.5625h-0.6875c-0.20312 0-0.3125 0-0.3125 0.1875 0 0.125 0.09375 0.125 0.28125 0.125h0.65625l-0.73438 3.9375c-0.1875 0.96875-0.35938 1.875-0.875 1.875-0.046875 0-0.28125 0-0.48438-0.1875 0.46875-0.03125 0.5625-0.39062 0.5625-0.53125 0-0.23438-0.1875-0.35938-0.375-0.35938-0.26562 0-0.54688 0.23438-0.54688 0.60938 0 0.4375 0.4375 0.6875 0.84375 0.6875 0.54688 0 0.95312-0.59375 1.125-0.96875 0.32812-0.625 0.54688-1.8281 0.5625-1.9062z"/>
  </symbol>
  <symbol id="symbol9547" overflow="visible">
   <path d="m3.3281-3.0156c0.0625-0.25 0.29688-1.1719 0.98438-1.1719 0.046875 0 0.29688 0 0.5 0.125-0.28125 0.0625-0.46875 0.29688-0.46875 0.54688 0 0.15625 0.10938 0.34375 0.375 0.34375 0.21875 0 0.53125-0.17188 0.53125-0.57812 0-0.51562-0.57812-0.65625-0.92188-0.65625-0.57812 0-0.92188 0.53125-1.0469 0.75-0.25-0.65625-0.78125-0.75-1.0781-0.75-1.0312 0-1.6094 1.2812-1.6094 1.5312 0 0.10938 0.10938 0.10938 0.125 0.10938 0.078125 0 0.10938-0.03125 0.125-0.10938 0.34375-1.0625 1-1.3125 1.3438-1.3125 0.1875 0 0.53125 0.09375 0.53125 0.67188 0 0.3125-0.17188 0.96875-0.53125 2.375-0.15625 0.60938-0.51562 1.0312-0.95312 1.0312-0.0625 0-0.28125 0-0.5-0.125 0.25-0.0625 0.46875-0.26562 0.46875-0.54688 0-0.26562-0.21875-0.34375-0.35938-0.34375-0.3125 0-0.54688 0.25-0.54688 0.57812 0 0.45312 0.48438 0.65625 0.92188 0.65625 0.67188 0 1.0312-0.70312 1.0469-0.75 0.125 0.35938 0.48438 0.75 1.0781 0.75 1.0312 0 1.5938-1.2812 1.5938-1.5312 0-0.10938-0.078125-0.10938-0.10938-0.10938-0.09375 0-0.10938 0.046875-0.14062 0.10938-0.32812 1.0781-1 1.3125-1.3125 1.3125-0.39062 0-0.54688-0.3125-0.54688-0.65625 0-0.21875 0.046875-0.4375 0.15625-0.875z"/>
  </symbol>
  <symbol id="symbol8098" overflow="visible">
   <path d="m3.2969 2.3906c0-0.03125 0-0.046875-0.17188-0.21875-1.2344-1.25-1.5625-3.1406-1.5625-4.6719 0-1.7344 0.375-3.4688 1.6094-4.7031 0.125-0.125 0.125-0.14062 0.125-0.17188 0-0.078125-0.03125-0.10938-0.09375-0.10938-0.10938 0-1 0.6875-1.5938 1.9531-0.5 1.0938-0.625 2.2031-0.625 3.0312 0 0.78125 0.10938 1.9844 0.65625 3.125 0.60938 1.2188 1.4531 1.875 1.5625 1.875 0.0625 0 0.09375-0.03125 0.09375-0.10938z"/>
  </symbol>
  <symbol id="symbol9831" overflow="visible">
   <path d="m2.875-2.5c0-0.76562-0.10938-1.9688-0.65625-3.1094-0.59375-1.2188-1.4531-1.875-1.5469-1.875-0.0625 0-0.10938 0.046875-0.10938 0.10938 0 0.03125 0 0.046875 0.1875 0.23438 0.98438 0.98438 1.5469 2.5625 1.5469 4.6406 0 1.7188-0.35938 3.4688-1.5938 4.7188-0.14062 0.125-0.14062 0.14062-0.14062 0.17188 0 0.0625 0.046875 0.10938 0.10938 0.10938 0.09375 0 1-0.6875 1.5781-1.9531 0.51562-1.0938 0.625-2.2031 0.625-3.0469z"/>
  </symbol>
  <symbol id="symbol2649" overflow="visible">
   <path d="m4.4062-6.9531c-0.0625-0.14062-0.09375-0.1875-0.26562-0.1875-0.15625 0-0.1875 0.046875-0.25 0.1875l-3.375 6.75c-0.046875 0.09375-0.046875 0.10938-0.046875 0.125 0 0.078125 0.0625 0.078125 0.21875 0.078125h6.9219c0.15625 0 0.21875 0 0.21875-0.078125 0-0.015625 0-0.03125-0.046875-0.125zm-0.57812 0.8125 2.6875 5.3906h-5.375z"/>
  </symbol>
  <symbol id="symbol6530" overflow="visible">
   <path d="m6.8438-3.2656c0.15625 0 0.34375 0 0.34375-0.1875 0-0.20312-0.1875-0.20312-0.32812-0.20312h-5.9688c-0.14062 0-0.32812 0-0.32812 0.20312 0 0.1875 0.1875 0.1875 0.32812 0.1875zm0.015625 1.9375c0.14062 0 0.32812 0 0.32812-0.20312 0-0.1875-0.1875-0.1875-0.34375-0.1875h-5.9531c-0.14062 0-0.32812 0-0.32812 0.1875 0 0.20312 0.1875 0.20312 0.32812 0.20312z"/>
  </symbol>
  <symbol id="symbol1833" overflow="visible">
   <path d="m3.3281-3.0156c0.0625-0.25 0.29688-1.1719 0.98438-1.1719 0.046875 0 0.29688 0 0.5 0.125-0.28125 0.0625-0.46875 0.29688-0.46875 0.54688 0 0.15625 0.10938 0.34375 0.375 0.34375 0.21875 0 0.53125-0.17188 0.53125-0.57812 0-0.51562-0.57812-0.65625-0.92188-0.65625-0.57812 0-0.92188 0.53125-1.0469 0.75-0.25-0.65625-0.78125-0.75-1.0781-0.75-1.0312 0-1.6094 1.2812-1.6094 1.5312 0 0.10938 0.10938 0.10938 0.125 0.10938 0.078125 0 0.10938-0.03125 0.125-0.10938 0.34375-1.0625 1-1.3125 1.3438-1.3125 0.1875 0 0.53125 0.09375 0.53125 0.67188 0 0.3125-0.17188 0.96875-0.53125 2.375-0.15625 0.60938-0.51562 1.0312-0.95312 1.0312-0.0625 0-0.28125 0-0.5-0.125 0.25-0.0625 0.46875-0.26562 0.46875-0.54688 0-0.26562-0.21875-0.34375-0.35938-0.34375-0.3125 0-0.54688 0.25-0.54688 0.57812 0 0.45312 0.48438 0.65625 0.92188 0.65625 0.67188 0 1.0312-0.70312 1.0469-0.75 0.125 0.35938 0.48438 0.75 1.0781 0.75 1.0312 0 1.5938-1.2812 1.5938-1.5312 0-0.10938-0.078125-0.10938-0.10938-0.10938-0.09375 0-0.10938 0.046875-0.14062 0.10938-0.32812 1.0781-1 1.3125-1.3125 1.3125-0.39062 0-0.54688-0.3125-0.54688-0.65625 0-0.21875 0.046875-0.4375 0.15625-0.875z"/>
  </symbol>
  <symbol id="symbol4990" overflow="visible">
   <path d="m2.8594-6.8125s0-0.10938-0.125-0.10938c-0.23438 0-0.95312 0.078125-1.2188 0.10938-0.078125 0-0.1875 0.015625-0.1875 0.1875 0 0.125 0.09375 0.125 0.23438 0.125 0.48438 0 0.5 0.0625 0.5 0.17188l-0.03125 0.20312-1.4375 5.7344c-0.046875 0.14062-0.046875 0.15625-0.046875 0.21875 0 0.23438 0.20312 0.28125 0.29688 0.28125 0.15625 0 0.3125-0.125 0.35938-0.26562l0.1875-0.75 0.21875-0.89062c0.0625-0.23438 0.125-0.45312 0.17188-0.67188 0.015625-0.0625 0.10938-0.39062 0.10938-0.45312 0.03125-0.09375 0.34375-0.64062 0.6875-0.92188 0.21875-0.15625 0.51562-0.34375 0.95312-0.34375 0.42188 0 0.53125 0.34375 0.53125 0.70312 0 0.53125-0.375 1.625-0.60938 2.2344-0.078125 0.21875-0.14062 0.34375-0.14062 0.54688 0 0.46875 0.35938 0.8125 0.82812 0.8125 0.9375 0 1.2969-1.4531 1.2969-1.5312 0-0.10938-0.078125-0.10938-0.10938-0.10938-0.10938 0-0.10938 0.03125-0.15625 0.1875-0.14062 0.53125-0.46875 1.2344-1.0156 1.2344-0.17188 0-0.23438-0.09375-0.23438-0.32812 0-0.25 0.078125-0.48438 0.17188-0.70312 0.15625-0.4375 0.60938-1.625 0.60938-2.2031 0-0.64062-0.39062-1.0625-1.1406-1.0625-0.625 0-1.1094 0.3125-1.4844 0.76562z"/>
  </symbol>
  <symbol id="symbol4496" overflow="visible">
   <path d="m3.4844-4.8125c-0.0625-0.125-0.078125-0.15625-0.21875-0.15625-0.09375 0-0.15625 0.015625-0.21875 0.125l-2.5781 4.6719c-0.046875 0.078125-0.046875 0.09375-0.046875 0.10938 0 0.0625 0.0625 0.0625 0.17188 0.0625h5.3438c0.10938 0 0.17188 0 0.17188-0.0625 0-0.015625 0-0.03125-0.046875-0.10938zm-0.45312 0.53125 2.0469 3.7031h-4.0938z"/>
  </symbol>
  <symbol id="symbol1370" overflow="visible">
   <path d="m1.3906-1.5938c0-0.57812 0.26562-1.2812 0.9375-1.2812-0.0625 0.046875-0.125 0.14062-0.125 0.25 0 0.23438 0.1875 0.3125 0.3125 0.3125 0.17188 0 0.32812-0.10938 0.32812-0.3125 0-0.23438-0.23438-0.45312-0.5625-0.45312-0.34375 0-0.73438 0.21875-0.9375 0.75v-0.75l-1 0.078125v0.25c0.46875 0 0.51562 0.046875 0.51562 0.39062v1.8125c0 0.29688-0.0625 0.29688-0.51562 0.29688v0.25c0.03125 0 0.5-0.03125 0.79688-0.03125s0.59375 0.015625 0.90625 0.03125v-0.25h-0.14062c-0.51562 0-0.51562-0.078125-0.51562-0.3125z"/>
  </symbol>
  <symbol id="symbol9825" overflow="visible">
   <path d="m1.4688-4.2969c0-0.20312-0.17188-0.40625-0.40625-0.40625-0.20312 0-0.39062 0.17188-0.39062 0.40625 0 0.25 0.20312 0.40625 0.39062 0.40625 0.23438 0 0.40625-0.17188 0.40625-0.40625zm-1.0625 1.2969v0.25c0.4375 0 0.5 0.046875 0.5 0.39062v1.8125c0 0.29688-0.0625 0.29688-0.51562 0.29688v0.25c0.015625 0 0.5-0.03125 0.78125-0.03125 0.25 0 0.5 0.015625 0.73438 0.03125v-0.25c-0.40625 0-0.46875 0-0.46875-0.29688v-2.5312z"/>
  </symbol>
  <symbol id="symbol4848" overflow="visible">
   <path d="m2.6406-2.9219c0-0.125 0-0.1875-0.09375-0.1875-0.03125 0-0.046875 0-0.14062 0.078125-0.015625 0.015625-0.078125 0.078125-0.125 0.10938-0.21875-0.14062-0.46875-0.1875-0.73438-0.1875-1 0-1.2344 0.53125-1.2344 0.875 0 0.21875 0.09375 0.40625 0.26562 0.54688 0.26562 0.21875 0.53125 0.26562 0.96875 0.34375 0.34375 0.0625 0.90625 0.15625 0.90625 0.625 0 0.26562-0.1875 0.59375-0.85938 0.59375s-0.90625-0.4375-1.0312-0.90625c-0.03125-0.09375-0.03125-0.125-0.125-0.125-0.125 0-0.125 0.046875-0.125 0.1875v0.85938c0 0.10938 0 0.17188 0.09375 0.17188 0.0625 0 0.20312-0.14062 0.34375-0.29688 0.29688 0.29688 0.67188 0.29688 0.84375 0.29688 0.90625 0 1.25-0.48438 1.25-0.96875 0-0.26562-0.125-0.48438-0.3125-0.64062-0.26562-0.25-0.57812-0.3125-0.82812-0.34375-0.54688-0.10938-1-0.1875-1-0.5625 0-0.21875 0.1875-0.48438 0.84375-0.48438 0.8125 0 0.84375 0.5625 0.85938 0.76562 0 0.078125 0.09375 0.078125 0.10938 0.078125 0.125 0 0.125-0.046875 0.125-0.1875z"/>
  </symbol>
  <symbol id="symbol6667" overflow="visible">
   <path d="m3.0625-1.5938c0.15625 0 0.20312 0 0.20312-0.14062 0-0.625-0.34375-1.375-1.3906-1.375-0.90625 0-1.6094 0.71875-1.6094 1.5781 0 0.89062 0.78125 1.5938 1.7031 1.5938 0.9375 0 1.2969-0.75 1.2969-0.90625 0-0.015625-0.015625-0.09375-0.125-0.09375-0.09375 0-0.10938 0.046875-0.125 0.10938-0.21875 0.5625-0.75 0.67188-1 0.67188-0.32812 0-0.64062-0.14062-0.84375-0.40625-0.26562-0.32812-0.26562-0.75-0.26562-1.0312zm-2.1562-0.17188c0.078125-0.98438 0.70312-1.1406 0.96875-1.1406 0.85938 0 0.89062 0.96875 0.90625 1.1406z"/>
  </symbol>
  <symbol id="symbol6822" overflow="visible">
   <path d="m2.5156-3v0.25c0.46875 0 0.51562 0.046875 0.51562 0.39062v1.2031c0 0.60938-0.39062 1.0312-0.92188 1.0312-0.625 0-0.65625-0.29688-0.65625-0.65625v-2.2969l-1.0781 0.078125v0.25c0.53125 0 0.53125 0.03125 0.53125 0.64062v1.0469c0 0.48438 0 1.125 1.1562 1.125 0.15625 0 0.65625 0 1-0.57812v0.57812l1.0469-0.0625v-0.25c-0.46875 0-0.51562-0.046875-0.51562-0.39062v-2.4375z"/>
  </symbol>
  <symbol id="symbol1240" overflow="visible">
   <path d="m3.5938-2.1094c0-0.60938-0.29688-0.96875-1.0469-0.96875-0.57812 0-0.9375 0.3125-1.1406 0.6875v-0.6875l-1.0312 0.078125v0.25c0.46875 0 0.53125 0.046875 0.53125 0.39062v1.8125c0 0.29688-0.078125 0.29688-0.53125 0.29688v0.25c0.015625 0 0.5-0.03125 0.79688-0.03125 0.25 0 0.73438 0.03125 0.79688 0.03125v-0.25c-0.45312 0-0.51562 0-0.51562-0.29688v-1.2656c0-0.71875 0.57812-1.0625 1.0312-1.0625 0.48438 0 0.54688 0.375 0.54688 0.73438v1.5938c0 0.29688-0.0625 0.29688-0.51562 0.29688v0.25c0.015625 0 0.5-0.03125 0.79688-0.03125 0.25 0 0.73438 0.03125 0.79688 0.03125v-0.25c-0.45312 0-0.51562 0-0.51562-0.29688z"/>
  </symbol>
  <symbol id="symbol3159" overflow="visible">
   <path d="m3.875-2.625c0.03125-0.09375 0.03125-0.10938 0.03125-0.15625 0-0.14062-0.10938-0.21875-0.23438-0.21875-0.078125 0-0.20312 0.03125-0.28125 0.15625-0.03125 0.046875-0.078125 0.26562-0.10938 0.40625l-0.15625 0.57812c-0.03125 0.17188-0.25 1.0469-0.28125 1.125 0 0-0.3125 0.60938-0.84375 0.60938-0.48438 0-0.48438-0.45312-0.48438-0.57812 0-0.375 0.15625-0.8125 0.375-1.3594 0.078125-0.21875 0.10938-0.29688 0.10938-0.42188 0-0.32812-0.28125-0.59375-0.65625-0.59375-0.70312 0-1.0156 0.95312-1.0156 1.0781 0 0.078125 0.09375 0.078125 0.125 0.078125 0.09375 0 0.09375-0.03125 0.125-0.10938 0.17188-0.57812 0.46875-0.84375 0.75-0.84375 0.10938 0 0.17188 0.078125 0.17188 0.23438 0 0.17188-0.0625 0.3125-0.09375 0.40625-0.34375 0.85938-0.40625 1.1094-0.40625 1.4219 0 0.10938 0 0.4375 0.26562 0.67188 0.21875 0.17188 0.51562 0.20312 0.70312 0.20312 0.28125 0 0.53125-0.09375 0.75-0.3125-0.078125 0.39062-0.15625 0.6875-0.45312 1.0312-0.1875 0.21875-0.46875 0.4375-0.84375 0.4375-0.046875 0-0.375 0-0.51562-0.21875 0.375-0.046875 0.375-0.375 0.375-0.39062 0-0.21875-0.20312-0.26562-0.26562-0.26562-0.17188 0-0.40625 0.14062-0.40625 0.46875 0 0.34375 0.32812 0.60938 0.82812 0.60938 0.70312 0 1.5625-0.54688 1.7812-1.4219z"/>
  </symbol>
  <symbol id="symbol8521" overflow="visible">
   <path d="m2.1875-4.625c0-0.015625 0.015625-0.10938 0.015625-0.10938 0-0.046875-0.015625-0.10938-0.10938-0.10938-0.14062 0-0.71875 0.0625-0.89062 0.078125-0.046875 0-0.15625 0.015625-0.15625 0.15625 0 0.09375 0.10938 0.09375 0.1875 0.09375 0.32812 0 0.32812 0.0625 0.32812 0.10938s-0.015625 0.09375-0.015625 0.15625l-0.98438 3.9375c-0.046875 0.125-0.046875 0.14062-0.046875 0.15625 0 0.10938 0.09375 0.21875 0.25 0.21875 0.078125 0 0.20312-0.03125 0.28125-0.17188 0.015625-0.046875 0.078125-0.29688 0.10938-0.4375l0.17188-0.625c0.015625-0.10938 0.09375-0.375 0.10938-0.46875 0.0625-0.26562 0.0625-0.28125 0.20312-0.5 0.23438-0.34375 0.57812-0.73438 1.125-0.73438 0.39062 0 0.40625 0.3125 0.40625 0.48438 0 0.42188-0.29688 1.1875-0.40625 1.4844-0.078125 0.20312-0.10938 0.26562-0.10938 0.375 0 0.375 0.3125 0.59375 0.65625 0.59375 0.70312 0 1.0156-0.95312 1.0156-1.0625 0-0.09375-0.09375-0.09375-0.125-0.09375-0.09375 0-0.09375 0.046875-0.125 0.125-0.15625 0.5625-0.46875 0.84375-0.73438 0.84375-0.15625 0-0.1875-0.09375-0.1875-0.25s0.046875-0.25 0.17188-0.5625c0.078125-0.21875 0.35938-0.95312 0.35938-1.3438 0-0.10938 0-0.40625-0.25-0.60938-0.125-0.078125-0.32812-0.1875-0.65625-0.1875-0.5 0-0.875 0.28125-1.125 0.57812z"/>
  </symbol>
  <symbol id="symbol9821" overflow="visible">
   <path d="m6.8438-3.2656c0.15625 0 0.34375 0 0.34375-0.1875 0-0.20312-0.1875-0.20312-0.32812-0.20312h-5.9688c-0.14062 0-0.32812 0-0.32812 0.20312 0 0.1875 0.1875 0.1875 0.32812 0.1875zm0.015625 1.9375c0.14062 0 0.32812 0 0.32812-0.20312 0-0.1875-0.1875-0.1875-0.34375-0.1875h-5.9531c-0.14062 0-0.32812 0-0.32812 0.1875 0 0.20312 0.1875 0.20312 0.32812 0.20312z"/>
  </symbol>
  <symbol id="symbol4640" overflow="visible">
   <path d="m4.4062-6.9531c-0.0625-0.14062-0.09375-0.1875-0.26562-0.1875-0.15625 0-0.1875 0.046875-0.25 0.1875l-3.375 6.75c-0.046875 0.09375-0.046875 0.10938-0.046875 0.125 0 0.078125 0.0625 0.078125 0.21875 0.078125h6.9219c0.15625 0 0.21875 0 0.21875-0.078125 0-0.015625 0-0.03125-0.046875-0.125zm-0.57812 0.8125 2.6875 5.3906h-5.375z"/>
  </symbol>
  <symbol id="symbol6379" overflow="visible">
   <path d="m4.8438-3.7969c0.046875-0.14062 0.046875-0.15625 0.046875-0.23438 0-0.17188-0.14062-0.26562-0.29688-0.26562-0.09375 0-0.25 0.0625-0.34375 0.20312-0.015625 0.0625-0.10938 0.35938-0.14062 0.54688-0.078125 0.25-0.14062 0.53125-0.20312 0.79688l-0.45312 1.7969c-0.03125 0.14062-0.46875 0.84375-1.125 0.84375-0.5 0-0.60938-0.4375-0.60938-0.8125 0-0.45312 0.17188-1.0781 0.5-1.9531 0.15625-0.40625 0.20312-0.51562 0.20312-0.71875 0-0.4375-0.3125-0.8125-0.8125-0.8125-0.95312 0-1.3125 1.4531-1.3125 1.5312 0 0.10938 0.09375 0.10938 0.10938 0.10938 0.10938 0 0.10938-0.03125 0.15625-0.1875 0.28125-0.9375 0.67188-1.2344 1.0156-1.2344 0.078125 0 0.25 0 0.25 0.3125 0 0.25-0.10938 0.51562-0.17188 0.70312-0.40625 1.0625-0.57812 1.625-0.57812 2.0938 0 0.89062 0.625 1.1875 1.2188 1.1875 0.39062 0 0.71875-0.17188 1-0.45312-0.125 0.51562-0.25 1.0156-0.64062 1.5469-0.26562 0.32812-0.64062 0.625-1.0938 0.625-0.14062 0-0.59375-0.03125-0.76562-0.42188 0.15625 0 0.29688 0 0.42188-0.125 0.10938-0.078125 0.20312-0.21875 0.20312-0.40625 0-0.3125-0.26562-0.34375-0.35938-0.34375-0.23438 0-0.5625 0.15625-0.5625 0.64062 0 0.5 0.4375 0.875 1.0625 0.875 1.0156 0 2.0469-0.90625 2.3281-2.0312z"/>
  </symbol>
 </defs>
 <g transform="translate(-51.834 -153.38)">
  <g fill="none">
   <path d="m77.672 155.33v79.745" stroke="#000" stroke-width=".66428px"/>
   <path d="m51.834 217.31h87.813" stroke="#000" stroke-width=".65206px"/>
   <path d="m77.672 217.31c7.7469-15.494 7.7469 7.7469 15.494-7.7469 7.7469-15.494 7.7469-30.988 15.494-23.241 7.7469 7.7469 23.241-30.988 23.241-30.988" stroke="#00aad4" stroke-width=".77469px"/>
  </g>
  <ellipse cx="97.268" cy="199.81" rx=".83561" ry=".8582" fill="#f55" fill-rule="evenodd" stop-color="#000000" stroke="#000" stroke-width=".049116" style="font-variation-settings:normal"/>
  <ellipse cx="124.75" cy="170.76" rx=".83561" ry=".8582" fill="#f55" fill-rule="evenodd" stop-color="#000000" stroke="#000" stroke-width=".049116" style="font-variation-settings:normal"/>
  <g fill="none" stroke="#4d4d4d">
   <path d="m97.268 200.67-0.0649 16.637" stroke-dasharray="1.14191, 0.380637" stroke-width=".19032"/>
   <path d="m96.432 199.81-18.738-0.0405" stroke-dasharray="1.21077, 0.403592" stroke-width=".2018"/>
   <path d="m124.58 171.62-0.17714 45.34" stroke-dasharray="1.14191, 0.380637" stroke-width=".19032"/>
   <path d="m123.91 170.76-46.215-0.0732" stroke-dasharray="1.15276, 0.384256" stroke-width=".19213"/>
  </g>
  <g transform="matrix(.5764 0 0 .5764 42.672 173.7)">
   <g>
    <use x="91.925003" y="81.962997" width="100%" height="100%" xlink:href="#symbol9116"/>
   </g>
  </g>
  <g transform="matrix(.41381 0 0 .41381 81.551 187.48)">
   <g>
    <use x="91.925003" y="81.962997" width="100%" height="100%" xlink:href="#symbol2670"/>
    <use x="99.833" y="81.962997" width="100%" height="100%" xlink:href="#symbol6654"/>
    <use x="109.796" y="81.962997" width="100%" height="100%" xlink:href="#symbol8138"/>
   </g>
  </g>
  <g transform="matrix(.37518 0 0 .37518 26.999 140.87)">
   <g>
    <use x="91.925003" y="81.962997" width="100%" height="100%" xlink:href="#symbol2551"/>
    <use x="97.875" y="81.962997" width="100%" height="100%" xlink:href="#symbol250"/>
    <use x="101.75" y="81.962997" width="100%" height="100%" xlink:href="#symbol6168"/>
    <use x="109.657" y="81.962997" width="100%" height="100%" xlink:href="#symbol4722"/>
    <use x="119.62" y="81.962997" width="100%" height="100%" xlink:href="#symbol9591"/>
    <use x="125.36" y="81.962997" width="100%" height="100%" xlink:href="#symbol7079"/>
   </g>
  </g>
  <g transform="matrix(.50266 0 0 .50266 19.677 159.8)">
   <g>
    <use x="91.925003" y="81.962997" width="100%" height="100%" xlink:href="#symbol9842"/>
    <use x="97.875" y="81.962997" width="100%" height="100%" xlink:href="#symbol8098"/>
    <use x="101.75" y="81.962997" width="100%" height="100%" xlink:href="#symbol9547"/>
    <use x="107.443" y="81.962997" width="100%" height="100%" xlink:href="#symbol9831"/>
   </g>
  </g>
  <path d="m97.896 222.25v1.3229h26.458v-1.3229" fill="none" stroke="#000" stroke-width=".26458px"/>
  <g transform="matrix(.3822 0 0 .3822 68.822 196.45)">
   <g>
    <use x="91.925003" y="81.962997" width="100%" height="100%" xlink:href="#symbol2649"/>
    <use x="100.227" y="81.962997" width="100%" height="100%" xlink:href="#symbol1833"/>
    <use x="108.689" y="81.962997" width="100%" height="100%" xlink:href="#symbol6530"/>
    <use x="119.205" y="81.962997" width="100%" height="100%" xlink:href="#symbol4990"/>
   </g>
  </g>
  <g transform="matrix(.47551 0 0 .47551 85.328 144.77)">
   <g>
    <use x="93.307999" y="77.517998" width="100%" height="100%" xlink:href="#symbol4496"/>
   </g>
   <g>
    <use x="99.852997" y="77.517998" width="100%" height="100%" xlink:href="#symbol3159"/>
   </g>
   <path transform="matrix(1,0,0,-1,93.121,79.472)" d="m9.375e-5 -6.5625e-4h11.207" fill="none" stroke="#000" stroke-miterlimit="10" stroke-width=".398"/>
   <g>
    <use x="93.121002" y="85.398003" width="100%" height="100%" xlink:href="#symbol4496"/>
    <use x="99.666" y="85.398003" width="100%" height="100%" xlink:href="#symbol8521"/>
    <use x="108.293" y="81.962997" width="100%" height="100%" xlink:href="#symbol9821"/>
    <use x="120.004" y="78.040001" width="100%" height="100%" xlink:href="#symbol1370"/>
    <use x="123.1171" y="78.040001" width="100%" height="100%" xlink:href="#symbol9825"/>
    <use x="125.37243" y="78.040001" width="100%" height="100%" xlink:href="#symbol4848"/>
    <use x="128.52878" y="78.040001" width="100%" height="100%" xlink:href="#symbol6667"/>
   </g>
   <path transform="matrix(1 0 0 -1 120 79.472)" d="m-9.375e-5 -6.5625e-4h12.066" fill="none" stroke="#000" stroke-miterlimit="10" stroke-width=".398"/>
   <g>
    <use x="120.081" y="85.398003" width="100%" height="100%" xlink:href="#symbol1370"/>
    <use x="123.19411" y="85.398003" width="100%" height="100%" xlink:href="#symbol6822"/>
    <use x="127.59457" y="85.398003" width="100%" height="100%" xlink:href="#symbol1240"/>
   </g>
  </g>
  <g transform="matrix(.45713 0 0 .45713 10.25 146.48)">
   <g>
    <use x="91.925003" y="81.962997" width="100%" height="100%" xlink:href="#symbol4640"/>
    <use x="100.227" y="81.962997" width="100%" height="100%" xlink:href="#symbol6379"/>
   </g>
  </g>
  <path d="m60.854 170.66h-1.3229v29.104h1.3229" fill="none" stroke="#000" stroke-width=".26458px"/>
  <path d="m140.54 153.47-59.094 63.472" fill="none" stroke="#f00" stroke-width=".257"/>
 </g>
</svg>
