<?xml version="1.0" encoding="UTF-8"?>
<svg width="102.73mm" height="20.131mm" version="1.1" viewBox="0 0 102.73 20.131" xmlns="http://www.w3.org/2000/svg" xmlns:ns2="http://www.iki.fi/pav/software/textext/" xmlns:xlink="http://www.w3.org/1999/xlink">
 <defs>
  <marker id="EmptyTriangleInL" overflow="visible" orient="auto">
   <path transform="matrix(-.8 0 0 -.8 4.8 0)" d="m5.77 0-8.65 5v-10z" fill="#fff" fill-rule="evenodd" stroke="#000" stroke-width="1pt"/>
  </marker>
  <symbol id="symbol7453" overflow="visible">
   <path d="m3.3281-3.0156c0.0625-0.25 0.29688-1.1719 0.98438-1.1719 0.046875 0 0.29688 0 0.5 0.125-0.28125 0.0625-0.46875 0.29688-0.46875 0.54688 0 0.15625 0.10938 0.34375 0.375 0.34375 0.21875 0 0.53125-0.17188 0.53125-0.57812 0-0.51562-0.57812-0.65625-0.92188-0.65625-0.57812 0-0.92188 0.53125-1.0469 0.75-0.25-0.65625-0.78125-0.75-1.0781-0.75-1.0312 0-1.6094 1.2812-1.6094 1.5312 0 0.10938 0.10938 0.10938 0.125 0.10938 0.078125 0 0.10938-0.03125 0.125-0.10938 0.34375-1.0625 1-1.3125 1.3438-1.3125 0.1875 0 0.53125 0.09375 0.53125 0.67188 0 0.3125-0.17188 0.96875-0.53125 2.375-0.15625 0.60938-0.51562 1.0312-0.95312 1.0312-0.0625 0-0.28125 0-0.5-0.125 0.25-0.0625 0.46875-0.26562 0.46875-0.54688 0-0.26562-0.21875-0.34375-0.35938-0.34375-0.3125 0-0.54688 0.25-0.54688 0.57812 0 0.45312 0.48438 0.65625 0.92188 0.65625 0.67188 0 1.0312-0.70312 1.0469-0.75 0.125 0.35938 0.48438 0.75 1.0781 0.75 1.0312 0 1.5938-1.2812 1.5938-1.5312 0-0.10938-0.078125-0.10938-0.10938-0.10938-0.09375 0-0.10938 0.046875-0.14062 0.10938-0.32812 1.0781-1 1.3125-1.3125 1.3125-0.39062 0-0.54688-0.3125-0.54688-0.65625 0-0.21875 0.046875-0.4375 0.15625-0.875z"/>
  </symbol>
  <symbol id="symbol4386" overflow="visible">
   <path d="m1.0938-3.4219v2.6719c0 0.4375-0.10938 0.4375-0.78125 0.4375v0.3125c0.35938-0.015625 0.85938-0.03125 1.1406-0.03125 0.25 0 0.76562 0.015625 1.1094 0.03125v-0.3125c-0.67188 0-0.78125 0-0.78125-0.4375v-1.8438c0-1.0312 0.71875-1.5938 1.3438-1.5938 0.64062 0 0.75 0.53125 0.75 1.1094v2.3281c0 0.4375-0.10938 0.4375-0.78125 0.4375v0.3125c0.34375-0.015625 0.85938-0.03125 1.125-0.03125 0.25 0 0.78125 0.015625 1.1094 0.03125v-0.3125c-0.65625 0-0.76562 0-0.76562-0.4375v-1.8438c0-1.0312 0.70312-1.5938 1.3438-1.5938 0.625 0 0.73438 0.53125 0.73438 1.1094v2.3281c0 0.4375-0.10938 0.4375-0.78125 0.4375v0.3125c0.34375-0.015625 0.85938-0.03125 1.125-0.03125s0.78125 0.015625 1.125 0.03125v-0.3125c-0.51562 0-0.76562 0-0.78125-0.29688v-1.9062c0-0.85938 0-1.1562-0.3125-1.5156-0.14062-0.17188-0.46875-0.375-1.0469-0.375-0.82812 0-1.2812 0.59375-1.4375 0.98438-0.14062-0.875-0.875-0.98438-1.3281-0.98438-0.73438 0-1.2031 0.42188-1.4844 1.0469v-1.0469l-1.4062 0.10938v0.3125c0.70312 0 0.78125 0.0625 0.78125 0.5625z"/>
  </symbol>
  <symbol id="symbol2694" overflow="visible">
   <path d="m3.8906-0.78125v0.89062l1.4375-0.10938v-0.3125c-0.6875 0-0.76562-0.0625-0.76562-0.5625v-3.5312l-1.4688 0.10938v0.3125c0.6875 0 0.78125 0.0625 0.78125 0.5625v1.7656c0 0.875-0.48438 1.5469-1.2188 1.5469-0.82812 0-0.875-0.46875-0.875-0.98438v-3.3125l-1.4688 0.10938v0.3125c0.78125 0 0.78125 0.03125 0.78125 0.90625v1.5c0 0.78125 0 1.6875 1.5156 1.6875 0.5625 0 1-0.28125 1.2812-0.89062z"/>
  </symbol>
  <symbol id="symbol2231" overflow="visible">
   <path d="m2.0781-1.9375c0.21875 0.046875 1.0312 0.20312 1.0312 0.92188 0 0.5-0.34375 0.90625-1.125 0.90625-0.84375 0-1.2031-0.5625-1.3906-1.4219-0.03125-0.125-0.03125-0.15625-0.14062-0.15625-0.125 0-0.125 0.0625-0.125 0.23438v1.3281c0 0.17188 0 0.23438 0.10938 0.23438 0.046875 0 0.0625-0.015625 0.25-0.20312 0.015625-0.015625 0.015625-0.03125 0.20312-0.21875 0.4375 0.40625 0.89062 0.42188 1.0938 0.42188 1.1406 0 1.6094-0.67188 1.6094-1.3906 0-0.51562-0.29688-0.82812-0.42188-0.9375-0.32812-0.32812-0.71875-0.40625-1.1406-0.48438-0.5625-0.10938-1.2188-0.23438-1.2188-0.8125 0-0.35938 0.25-0.76562 1.1094-0.76562 1.0938 0 1.1562 0.90625 1.1719 1.2031 0 0.09375 0.09375 0.09375 0.10938 0.09375 0.14062 0 0.14062-0.046875 0.14062-0.23438v-1.0156c0-0.15625 0-0.23438-0.10938-0.23438-0.046875 0-0.078125 0-0.20312 0.125-0.03125 0.03125-0.125 0.125-0.17188 0.15625-0.375-0.28125-0.78125-0.28125-0.9375-0.28125-1.2188 0-1.5938 0.67188-1.5938 1.2344 0 0.34375 0.15625 0.625 0.42188 0.84375 0.32812 0.25 0.60938 0.3125 1.3281 0.45312z"/>
  </symbol>
  <symbol id="symbol9479" overflow="visible">
   <path d="m1.7188-3.9844h1.4375v-0.3125h-1.4375v-1.8281h-0.25c0 0.8125-0.29688 1.875-1.2812 1.9219v0.21875h0.84375v2.75c0 1.2188 0.9375 1.3438 1.2969 1.3438 0.70312 0 0.98438-0.70312 0.98438-1.3438v-0.5625h-0.25v0.54688c0 0.73438-0.29688 1.1094-0.67188 1.1094-0.67188 0-0.67188-0.90625-0.67188-1.0781z"/>
  </symbol>
  <symbol id="symbol4347" overflow="visible">
   <path d="m3.3125-0.75c0.046875 0.39062 0.3125 0.8125 0.78125 0.8125 0.21875 0 0.82812-0.14062 0.82812-0.95312v-0.5625h-0.25v0.5625c0 0.57812-0.25 0.64062-0.35938 0.64062-0.32812 0-0.375-0.45312-0.375-0.5v-1.9844c0-0.42188 0-0.8125-0.35938-1.1875-0.39062-0.39062-0.89062-0.54688-1.3594-0.54688-0.82812 0-1.5156 0.46875-1.5156 1.125 0 0.29688 0.20312 0.46875 0.46875 0.46875 0.28125 0 0.45312-0.20312 0.45312-0.45312 0-0.125-0.046875-0.45312-0.51562-0.45312 0.28125-0.35938 0.76562-0.46875 1.0781-0.46875 0.5 0 1.0625 0.39062 1.0625 1.2812v0.35938c-0.51562 0.03125-1.2031 0.0625-1.8281 0.35938-0.75 0.34375-1 0.85938-1 1.2969 0 0.8125 0.96875 1.0625 1.5938 1.0625 0.65625 0 1.1094-0.40625 1.2969-0.85938zm-0.0625-1.6406v1c0 0.9375-0.71875 1.2812-1.1719 1.2812-0.48438 0-0.89062-0.34375-0.89062-0.84375 0-0.54688 0.42188-1.375 2.0625-1.4375z"/>
  </symbol>
  <symbol id="symbol5266" overflow="visible">
   <path d="m1.7656-6.9219-1.4375 0.10938v0.3125c0.70312 0 0.78125 0.0625 0.78125 0.5625v5.1875c0 0.4375-0.10938 0.4375-0.78125 0.4375v0.3125c0.32812-0.015625 0.85938-0.03125 1.1094-0.03125s0.73438 0.015625 1.1094 0.03125v-0.3125c-0.67188 0-0.78125 0-0.78125-0.4375z"/>
  </symbol>
  <symbol id="symbol352" overflow="visible">
   <path d="m6.1719-3.3438c0.17188-0.5 0.48438-0.64062 0.84375-0.64062v-0.3125c-0.23438 0.015625-0.51562 0.03125-0.73438 0.03125-0.29688 0-0.73438-0.015625-0.92188-0.03125v0.3125c0.35938 0 0.57812 0.1875 0.57812 0.46875 0 0.0625 0 0.09375-0.0625 0.21875l-0.90625 2.5469-0.98438-2.7812c-0.03125-0.125-0.046875-0.14062-0.046875-0.1875 0-0.26562 0.39062-0.26562 0.59375-0.26562v-0.3125c-0.29688 0.015625-0.79688 0.03125-1.0469 0.03125-0.29688 0-0.57812-0.015625-0.875-0.03125v0.3125c0.35938 0 0.51562 0.015625 0.625 0.14062 0.046875 0.0625 0.15625 0.35938 0.21875 0.54688l-0.84375 2.4219-0.95312-2.6562c-0.046875-0.125-0.046875-0.14062-0.046875-0.1875 0-0.26562 0.39062-0.26562 0.57812-0.26562v-0.3125c-0.29688 0.015625-0.85938 0.03125-1.0781 0.03125-0.046875 0-0.57812-0.015625-0.9375-0.03125v0.3125c0.5 0 0.625 0.03125 0.75 0.34375l1.25 3.5312c0.046875 0.14062 0.078125 0.21875 0.20312 0.21875 0.14062 0 0.15625-0.0625 0.20312-0.20312l1.0156-2.8125 1.0156 2.8281c0.03125 0.10938 0.0625 0.1875 0.20312 0.1875 0.125 0 0.15625-0.09375 0.1875-0.1875z"/>
  </symbol>
  <symbol id="symbol3341" overflow="visible">
   <path d="m4.1406-3.3438c0.25-0.64062 0.76562-0.64062 0.92188-0.64062v-0.3125c-0.23438 0.015625-0.51562 0.03125-0.75 0.03125-0.17188 0-0.64062-0.015625-0.85938-0.03125v0.3125c0.3125 0 0.46875 0.17188 0.46875 0.42188 0 0.10938-0.015625 0.125-0.0625 0.25l-1.0156 2.4375-1.0938-2.6719c-0.046875-0.10938-0.0625-0.14062-0.0625-0.1875 0-0.25 0.35938-0.25 0.5625-0.25v-0.3125c-0.26562 0.015625-0.92188 0.03125-1.0938 0.03125-0.26562 0-0.67188-0.015625-0.96875-0.03125v0.3125c0.48438 0 0.67188 0 0.8125 0.34375l1.5 3.6406c-0.0625 0.125-0.20312 0.45312-0.25 0.59375-0.21875 0.54688-0.5 1.2344-1.1406 1.2344-0.046875 0-0.28125 0-0.46875-0.1875 0.3125-0.03125 0.39062-0.25 0.39062-0.42188 0-0.25-0.1875-0.40625-0.42188-0.40625-0.20312 0-0.42188 0.125-0.42188 0.42188 0 0.45312 0.42188 0.8125 0.92188 0.8125 0.625 0 1.0312-0.57812 1.2656-1.1406z"/>
  </symbol>
  <symbol id="symbol2913" overflow="visible">
   <path d="m1.7188-3.7656v-3.1562l-1.4375 0.10938v0.3125c0.70312 0 0.78125 0.0625 0.78125 0.5625v5.9375h0.25c0-0.015625 0.078125-0.15625 0.35938-0.625 0.14062 0.23438 0.5625 0.73438 1.2969 0.73438 1.1875 0 2.2188-0.98438 2.2188-2.2656 0-1.2656-0.96875-2.25-2.1094-2.25-0.78125 0-1.2031 0.46875-1.3594 0.64062zm0.03125 2.625v-2.0469c0-0.1875 0-0.20312 0.10938-0.35938 0.39062-0.5625 0.9375-0.64062 1.1719-0.64062 0.45312 0 0.8125 0.26562 1.0469 0.64062 0.26562 0.40625 0.28125 0.96875 0.28125 1.3906 0 0.35938-0.015625 0.95312-0.29688 1.4062-0.21875 0.3125-0.59375 0.64062-1.125 0.64062-0.45312 0-0.8125-0.23438-1.0469-0.60938-0.14062-0.20312-0.14062-0.23438-0.14062-0.42188z"/>
  </symbol>
  <symbol id="symbol8334" overflow="visible">
   <path d="m1.1094-2.5156c0.0625-1.4844 0.90625-1.7344 1.25-1.7344 1.0156 0 1.125 1.3438 1.125 1.7344zm0 0.21875h2.7812c0.21875 0 0.25 0 0.25-0.21875 0-0.98438-0.54688-1.9531-1.7812-1.9531-1.1562 0-2.0781 1.0312-2.0781 2.2812 0 1.3281 1.0469 2.2969 2.1875 2.2969 1.2188 0 1.6719-1.1094 1.6719-1.2969 0-0.09375-0.078125-0.125-0.14062-0.125-0.078125 0-0.10938 0.0625-0.125 0.14062-0.34375 1.0312-1.25 1.0312-1.3438 1.0312-0.5 0-0.89062-0.29688-1.125-0.67188-0.29688-0.46875-0.29688-1.125-0.29688-1.4844z"/>
  </symbol>
  <symbol id="symbol6360" overflow="visible">
   <path d="m4.5781-3.1875c0-0.79688-0.046875-1.5938-0.39062-2.3281-0.45312-0.96875-1.2812-1.125-1.6875-1.125-0.60938 0-1.3281 0.26562-1.75 1.1875-0.3125 0.6875-0.35938 1.4688-0.35938 2.2656 0 0.75 0.03125 1.6406 0.45312 2.4062 0.42188 0.79688 1.1562 1 1.6406 1 0.53125 0 1.2969-0.20312 1.7344-1.1562 0.3125-0.6875 0.35938-1.4688 0.35938-2.25zm-2.0938 3.1875c-0.39062 0-0.98438-0.25-1.1562-1.2031-0.10938-0.59375-0.10938-1.5156-0.10938-2.1094 0-0.64062 0-1.2969 0.078125-1.8281 0.1875-1.1875 0.9375-1.2812 1.1875-1.2812 0.32812 0 0.98438 0.1875 1.1719 1.1719 0.10938 0.5625 0.10938 1.3125 0.10938 1.9375 0 0.75 0 1.4219-0.10938 2.0625-0.15625 0.95312-0.71875 1.25-1.1719 1.25z"/>
  </symbol>
  <symbol id="symbol8720" overflow="visible">
   <path d="m6.7188-3.2344c0.14062-0.0625 0.20312-0.125 0.20312-0.21875s-0.046875-0.15625-0.20312-0.21875l-5.5-2.5938c-0.125-0.078125-0.17188-0.078125-0.1875-0.078125-0.125 0-0.20312 0.09375-0.20312 0.20312 0 0.125 0.078125 0.17188 0.1875 0.21875l5.2344 2.4688-5.2188 2.4531c-0.1875 0.09375-0.20312 0.17188-0.20312 0.23438 0 0.10938 0.09375 0.20312 0.20312 0.20312 0.03125 0 0.046875 0 0.17188-0.078125zm-0.15625 4.5938c0.17188 0 0.35938 0 0.35938-0.1875 0-0.20312-0.21875-0.20312-0.35938-0.20312h-5.375c-0.15625 0-0.35938 0-0.35938 0.20312 0 0.1875 0.17188 0.1875 0.34375 0.1875z"/>
  </symbol>
 </defs>
 <g transform="translate(-63.901 -88.481)">
  <text x="119.0625" y="79.375" font-family="'CMU Serif'" font-size="3.5278px" letter-spacing="0px" stroke-width=".26458" text-align="center" text-anchor="middle" word-spacing="0px" style="line-height:1.25" xml:space="preserve"><tspan x="119.0625" y="79.375" stroke-width=".26458"/></text>
  <g transform="matrix(.77408 0 0 .77408 14.662 20.215)">
   <g transform="matrix(2.3496 0 0 2.3496 64.9 89.482)" ns2:alignment="middle center" ns2:jacobian_sqrt="0.352778" ns2:pdfconverter="inkscape" ns2:preamble="/Users/ketiboldiais/Library/Application Support/org.inkscape.Inkscape/config/inkscape/extensions/inkscapeMadeEasy/basicLatexPackages.tex" ns2:scale="1.0" ns2:texconverter="pdflatex" ns2:text="$\\sqrt{x}$\n" ns2:version="1.3.1">
    <defs id="id-6943f6aa-836c-4c11-8434-f7f5cd38ef0a"></defs>
    <g transform="translate(-149.45 -127.18)">
     <g>
      <g transform="translate(148.71 127.59)">
       <path d="m3.875 8.5156-1.75-3.875c-0.078125-0.15625-0.125-0.15625-0.15625-0.15625 0 0-0.0625 0-0.17188 0.078125l-0.9375 0.71875c-0.125 0.10938-0.125 0.125-0.125 0.15625 0 0.0625 0.015625 0.10938 0.09375 0.10938 0.0625 0 0.23438-0.14062 0.34375-0.21875 0.046875-0.046875 0.20312-0.15625 0.3125-0.23438l1.9688 4.3125c0.0625 0.15625 0.10938 0.15625 0.20312 0.15625 0.15625 0 0.1875-0.046875 0.25-0.1875l4.5312-9.375c0.0625-0.14062 0.0625-0.17188 0.0625-0.20312 0-0.09375-0.078125-0.20312-0.20312-0.20312-0.078125 0-0.14062 0.0625-0.21875 0.21875z"/>
      </g>
     </g>
     <path transform="matrix(1 0 0 -1 157.02 127.39)" d="m6.25e-4 -6.25e-4h5.6953" fill="none" stroke="#000" stroke-miterlimit="10" stroke-width=".398"/>
     <g>
      <g transform="translate(157.02 134.76)">
       <path d="m3.3281-3.0156c0.0625-0.25 0.29688-1.1719 0.98438-1.1719 0.046875 0 0.29688 0 0.5 0.125-0.28125 0.0625-0.46875 0.29688-0.46875 0.54688 0 0.15625 0.10938 0.34375 0.375 0.34375 0.21875 0 0.53125-0.17188 0.53125-0.57812 0-0.51562-0.57812-0.65625-0.92188-0.65625-0.57812 0-0.92188 0.53125-1.0469 0.75-0.25-0.65625-0.78125-0.75-1.0781-0.75-1.0312 0-1.6094 1.2812-1.6094 1.5312 0 0.10938 0.10938 0.10938 0.125 0.10938 0.078125 0 0.10938-0.03125 0.125-0.10938 0.34375-1.0625 1-1.3125 1.3438-1.3125 0.1875 0 0.53125 0.09375 0.53125 0.67188 0 0.3125-0.17188 0.96875-0.53125 2.375-0.15625 0.60938-0.51562 1.0312-0.95312 1.0312-0.0625 0-0.28125 0-0.5-0.125 0.25-0.0625 0.46875-0.26562 0.46875-0.54688 0-0.26562-0.21875-0.34375-0.35938-0.34375-0.3125 0-0.54688 0.25-0.54688 0.57812 0 0.45312 0.48438 0.65625 0.92188 0.65625 0.67188 0 1.0312-0.70312 1.0469-0.75 0.125 0.35938 0.48438 0.75 1.0781 0.75 1.0312 0 1.5938-1.2812 1.5938-1.5312 0-0.10938-0.078125-0.10938-0.10938-0.10938-0.09375 0-0.10938 0.046875-0.14062 0.10938-0.32812 1.0781-1 1.3125-1.3125 1.3125-0.39062 0-0.54688-0.3125-0.54688-0.65625 0-0.21875 0.046875-0.4375 0.15625-0.875z"/>
      </g>
     </g>
    </g>
   </g>
   <path d="m97.896 103.19h18.521" fill="none" marker-start="url(#EmptyTriangleInL)" stroke="#000" stroke-width=".265"/>
   <g transform="matrix(.7429 0 0 .7429 50.444 44.574)">
    <g>
     <use x="91.925003" y="81.962997" width="100%" height="100%" xlink:href="#symbol7453"/>
     <use x="100.94" y="81.962997" width="100%" height="100%" xlink:href="#symbol4386"/>
     <use x="108.96288" y="81.962997" width="100%" height="100%" xlink:href="#symbol2694"/>
     <use x="114.4981" y="81.962997" width="100%" height="100%" xlink:href="#symbol2231"/>
     <use x="118.42735" y="81.962997" width="100%" height="100%" xlink:href="#symbol9479"/>
     <use x="125.62932" y="81.962997" width="100%" height="100%" xlink:href="#symbol4347"/>
     <use x="130.61061" y="81.962997" width="100%" height="100%" xlink:href="#symbol5266"/>
     <use x="133.37822" y="81.962997" width="100%" height="100%" xlink:href="#symbol352"/>
     <use x="140.29427" y="81.962997" width="100%" height="100%" xlink:href="#symbol4347"/>
     <use x="144.99661" y="81.962997" width="100%" height="100%" xlink:href="#symbol3341"/>
     <use x="150.25487" y="81.962997" width="100%" height="100%" xlink:href="#symbol2231"/>
     <use x="157.50166" y="81.962997" width="100%" height="100%" xlink:href="#symbol2913"/>
     <use x="163.31584" y="81.962997" width="100%" height="100%" xlink:href="#symbol8334"/>
     <use x="171.06599" y="81.962997" width="100%" height="100%" xlink:href="#symbol7453"/>
     <use x="179.52699" y="81.962997" width="100%" height="100%" xlink:href="#symbol8720"/>
     <use x="190.043" y="81.962997" width="100%" height="100%" xlink:href="#symbol6360"/>
    </g>
   </g>
  </g>
 </g>
</svg>
