<?xml version="1.0" encoding="UTF-8" standalone="no"?>
<!-- Created with Inkscape (http://www.inkscape.org/) -->

<svg
   width="48.045948mm"
   height="43.0895mm"
   viewBox="0 0 48.045948 43.0895"
   version="1.1"
   id="svg5"
   sodipodi:docname="french_and_spanish.svg"
   inkscape:version="1.1 (c4e8f9e, 2021-05-24)"
   xmlns:inkscape="http://www.inkscape.org/namespaces/inkscape"
   xmlns:sodipodi="http://sodipodi.sourceforge.net/DTD/sodipodi-0.dtd"
   xmlns="http://www.w3.org/2000/svg"
   xmlns:svg="http://www.w3.org/2000/svg"
   xmlns:ns14="http://www.iki.fi/pav/software/textext/">
  <sodipodi:namedview
     id="namedview7"
     pagecolor="#ffffff"
     bordercolor="#666666"
     borderopacity="1.0"
     inkscape:pageshadow="2"
     inkscape:pageopacity="0.0"
     inkscape:pagecheckerboard="0"
     inkscape:document-units="mm"
     showgrid="false"
     inkscape:zoom="3.1496409"
     inkscape:cx="113.8225"
     inkscape:cy="100.80514"
     inkscape:window-width="1312"
     inkscape:window-height="847"
     inkscape:window-x="2168"
     inkscape:window-y="25"
     inkscape:window-maximized="0"
     inkscape:current-layer="layer1">
    <inkscape:grid
       type="xygrid"
       id="grid824"
       originx="-63.289529"
       originy="-140.0187" />
  </sodipodi:namedview>
  <defs
     id="defs2" />
  <g
     inkscape:label="Layer 1"
     inkscape:groupmode="layer"
     id="layer1"
     transform="translate(-63.28953,-140.0187)">
    <ellipse
       style="font-variation-settings:normal;vector-effect:none;fill:none;fill-opacity:1;fill-rule:evenodd;stroke:#000000;stroke-width:0.473342;stroke-linecap:butt;stroke-linejoin:miter;stroke-miterlimit:4;stroke-dasharray:none;stroke-dashoffset:0;stroke-opacity:1;stop-color:#000000"
       id="path848"
       cx="82.536957"
       cy="155.11198"
       rx="9.5511074"
       ry="9.3833361" />
    <ellipse
       style="font-variation-settings:normal;vector-effect:none;fill:none;fill-opacity:1;fill-rule:evenodd;stroke:#000000;stroke-width:0.473342;stroke-linecap:butt;stroke-linejoin:miter;stroke-miterlimit:4;stroke-dasharray:none;stroke-dashoffset:0;stroke-opacity:1;stop-color:#000000"
       id="circle930"
       cx="92.088051"
       cy="155.11198"
       rx="9.5511074"
       ry="9.3833361" />
    <rect
       style="font-variation-settings:normal;vector-effect:none;fill:none;fill-opacity:1;fill-rule:evenodd;stroke:#000000;stroke-width:0.420948;stroke-linecap:butt;stroke-linejoin:miter;stroke-miterlimit:4;stroke-dasharray:none;stroke-dashoffset:0;stroke-opacity:1;stop-color:#000000"
       id="rect954"
       width="47.625"
       height="29.765633"
       x="63.500004"
       y="140.22917"
       ry="0" />
    <text
       xml:space="preserve"
       style="font-style:italic;font-weight:500;font-size:3.72935px;line-height:1.25;font-family:'CMU Serif';-inkscape-font-specification:'CMU Serif, Medium Italic';text-align:center;letter-spacing:0px;word-spacing:0px;text-anchor:middle;stroke-width:0.264583"
       x="71.552002"
       y="149.98676"
       id="text2347"><tspan
         sodipodi:role="line"
         id="tspan2345"
         style="font-style:italic;stroke-width:0.264583"
         x="71.552002"
         y="149.98676">F</tspan></text>
    <text
       xml:space="preserve"
       style="font-style:italic;font-weight:500;font-size:3.72935px;line-height:1.25;font-family:'CMU Serif';-inkscape-font-specification:'CMU Serif, Medium Italic';text-align:center;letter-spacing:0px;word-spacing:0px;text-anchor:middle;stroke-width:0.264583"
       x="102.26443"
       y="150.2328"
       id="text3479"><tspan
         sodipodi:role="line"
         id="tspan3477"
         style="font-style:italic;stroke-width:0.264583"
         x="102.26443"
         y="150.2328">S</tspan></text>
    <path
       style="opacity:0.99;fill:#a9a9a9;stroke:#a9a9a9;stroke-width:0.224504;stroke-linejoin:bevel;stroke-dasharray:0.898015, 0.898015;stroke-opacity:0.888889"
       d="m 328.55852,614.87826 c -9.00288,-6.02096 -14.82812,-15.90964 -15.45097,-26.22894 -0.75412,-12.49393 4.7208,-23.63306 15.13279,-30.78879 l 1.71534,-1.17889 0.93057,0.58339 c 8.18886,5.1337 14.0291,13.89886 15.67585,23.52666 0.5864,3.42844 0.47763,9.14317 -0.23502,12.34771 -1.53508,6.90279 -4.9009,12.93292 -9.85973,17.66453 -2.11006,2.01336 -5.93694,4.89812 -6.49779,4.89812 -0.0986,0 -0.73357,-0.37071 -1.41104,-0.82379 z"
       id="path3649"
       transform="scale(0.26458333)" />
    <path
       style="fill:none;stroke:#000000;stroke-width:0.264583px;stroke-linecap:butt;stroke-linejoin:miter;stroke-opacity:1"
       d="m 87.312499,154.78125 v 23.8125"
       id="path3928" />
    <g
       transform="matrix(0.352778,0,0,0.352778,82.576676,141.50704)"
       ns14:version="1.3.1"
       ns14:texconverter="pdflatex"
       ns14:pdfconverter="inkscape"
       ns14:text="$F \\cup S$\n"
       ns14:preamble="/Users/ketiboldiais/Library/Application Support/org.inkscape.Inkscape/config/inkscape/extensions/circuitSymbols/circuitSymbolsPreamble.tex"
       ns14:scale="1.0"
       ns14:alignment="middle center"
       ns14:inkscapeversion="1.1"
       ns14:jacobian_sqrt="0.352778"
       id="g13744">
      <defs
         id="id-eaeb8847-cc35-4042-90ff-3a5349830351">
        <g
           id="id-b834a717-ff22-4c91-84a6-2ae7e58815ae">
          <symbol
             overflow="visible"
             id="id-6df583e6-288f-4aed-a34a-7ee421a45008">
            <path
               style="stroke:none;stroke-width:0"
               d=""
               id="id-58359e2c-745d-459d-adc6-770a550b4c73" />
          </symbol>
          <symbol
             overflow="visible"
             id="id-8eefea32-e8a9-4c28-9913-0b3dd618be01">
            <path
               style="stroke:none;stroke-width:0"
               d="m 3.015625,-3.234375 h 0.96875 c 0.75,0 0.828125,0.15625 0.828125,0.4375 0,0.078125 0,0.1875 -0.0625,0.5 C 4.71875,-2.25 4.71875,-2.21875 4.71875,-2.1875 c 0,0.078125 0.0625,0.109375 0.109375,0.109375 0.109375,0 0.109375,-0.03125 0.15625,-0.203125 L 5.53125,-4.453125 C 5.5625,-4.5625 5.5625,-4.578125 5.5625,-4.609375 5.5625,-4.625 5.546875,-4.71875 5.4375,-4.71875 5.34375,-4.71875 5.328125,-4.671875 5.296875,-4.5 5.078125,-3.734375 4.859375,-3.546875 4,-3.546875 H 3.09375 l 0.640625,-2.53125 C 3.828125,-6.4375 3.84375,-6.46875 4.28125,-6.46875 h 1.3125 c 1.21875,0 1.453125,0.328125 1.453125,1.09375 0,0.234375 0,0.265625 -0.03125,0.546875 C 7,-4.703125 7,-4.6875 7,-4.65625 c 0,0.046875 0.03125,0.125 0.125,0.125 0.109375,0 0.109375,-0.0625 0.125,-0.25 L 7.453125,-6.515625 C 7.484375,-6.78125 7.4375,-6.78125 7.1875,-6.78125 H 2.296875 c -0.1875,0 -0.296875,0 -0.296875,0.203125 0,0.109375 0.09375,0.109375 0.28125,0.109375 0.375,0 0.65625,0 0.65625,0.171875 0,0.046875 0,0.0625 -0.0625,0.25 L 1.5625,-0.78125 c -0.09375,0.390625 -0.109375,0.46875 -0.90625,0.46875 -0.171875,0 -0.28125,0 -0.28125,0.1875 C 0.375,0 0.5,0 0.53125,0 0.8125,0 1.5625,-0.03125 1.84375,-0.03125 2.171875,-0.03125 3,0 3.328125,0 3.421875,0 3.53125,0 3.53125,-0.1875 3.53125,-0.265625 3.484375,-0.296875 3.484375,-0.296875 3.453125,-0.3125 3.421875,-0.3125 3.203125,-0.3125 c -0.21875,0 -0.265625,0 -0.515625,-0.015625 -0.296875,-0.03125 -0.328125,-0.078125 -0.328125,-0.203125 0,-0.015625 0,-0.078125 0.046875,-0.21875 z m 0,0"
               id="id-e1015eab-2753-4da3-8512-4f7f1ff9bd38" />
          </symbol>
          <symbol
             overflow="visible"
             id="id-22324855-8362-45d5-9661-6741b3a6ddcf">
            <path
               style="stroke:none;stroke-width:0"
               d="m 6.4375,-6.921875 c 0,-0.03125 -0.03125,-0.109375 -0.125,-0.109375 -0.046875,0 -0.046875,0.015625 -0.171875,0.15625 L 5.65625,-6.3125 c -0.25,-0.46875 -0.765625,-0.71875 -1.421875,-0.71875 -1.265625,0 -2.453125,1.15625 -2.453125,2.359375 0,0.796875 0.515625,1.265625 1.03125,1.40625 l 1.0625,0.28125 c 0.375,0.09375 0.921875,0.25 0.921875,1.0625 0,0.890625 -0.8125,1.828125 -1.796875,1.828125 -0.640625,0 -1.75,-0.21875 -1.75,-1.453125 0,-0.234375 0.0625,-0.484375 0.0625,-0.53125 0.015625,-0.046875 0.015625,-0.0625 0.015625,-0.078125 0,-0.09375 -0.0625,-0.109375 -0.109375,-0.109375 -0.046875,0 -0.078125,0.015625 -0.109375,0.046875 -0.03125,0.03125 -0.59375,2.3125 -0.59375,2.34375 0,0.046875 0.046875,0.09375 0.109375,0.09375 0.046875,0 0.0625,-0.015625 0.1875,-0.15625 L 1.296875,-0.5 c 0.421875,0.578125 1.109375,0.71875 1.6875,0.71875 1.359375,0 2.53125,-1.328125 2.53125,-2.5625 0,-0.6875 -0.34375,-1.03125 -0.484375,-1.171875 C 4.796875,-3.734375 4.640625,-3.78125 3.765625,-4 3.53125,-4.0625 3.1875,-4.171875 3.09375,-4.1875 2.828125,-4.28125 2.484375,-4.5625 2.484375,-5.09375 c 0,-0.8125 0.796875,-1.65625 1.75,-1.65625 0.8125,0 1.421875,0.4375 1.421875,1.546875 0,0.3125 -0.03125,0.5 -0.03125,0.5625 0,0 0,0.09375 0.109375,0.09375 0.109375,0 0.125,-0.03125 0.15625,-0.203125 z m 0,0"
               id="id-5e6b68ef-0ceb-41ac-afeb-4bdeaf3e5fb8" />
          </symbol>
          <symbol
             overflow="visible"
             id="id-3c944521-915c-4779-be0d-05c24e736ad3">
            <path
               style="stroke:none;stroke-width:0"
               d=""
               id="id-a37f434d-d9d1-4b89-99ce-f44b37f769c4" />
          </symbol>
          <symbol
             overflow="visible"
             id="id-229cc437-d3b7-4ad2-9ad8-d5c2c1f67f24">
            <path
               style="stroke:none;stroke-width:0"
               d="m 6.09375,-5.609375 c 0,-0.171875 0,-0.359375 -0.203125,-0.359375 -0.203125,0 -0.203125,0.1875 -0.203125,0.359375 V -2 c 0,1.5 -1.625,1.828125 -2.375,1.828125 -0.4375,0 -1.0625,-0.09375 -1.59375,-0.4375 C 0.953125,-1.09375 0.953125,-1.734375 0.953125,-2 v -3.609375 c 0,-0.171875 0,-0.359375 -0.203125,-0.359375 -0.203125,0 -0.203125,0.1875 -0.203125,0.359375 v 3.65625 c 0,1.515625 1.53125,2.171875 2.765625,2.171875 1.296875,0 2.78125,-0.703125 2.78125,-2.15625 z m 0,0"
               id="id-7d53c942-109e-4feb-8265-9288abf14178" />
          </symbol>
        </g>
      </defs>
      <g
         id="id-37fcfe59-3937-4ebf-a12c-7b2e7a720e4a"
         transform="translate(-149.087,-127.734)">
        <g
           style="fill:#000000;fill-opacity:1"
           id="id-67fee074-bfcf-40a6-8f34-fc58c1c73fbd">
          <g
             transform="translate(148.712,134.765)"
             id="g13732">
            <path
               style="stroke:none;stroke-width:0"
               d="m 3.015625,-3.234375 h 0.96875 c 0.75,0 0.828125,0.15625 0.828125,0.4375 0,0.078125 0,0.1875 -0.0625,0.5 C 4.71875,-2.25 4.71875,-2.21875 4.71875,-2.1875 c 0,0.078125 0.0625,0.109375 0.109375,0.109375 0.109375,0 0.109375,-0.03125 0.15625,-0.203125 L 5.53125,-4.453125 C 5.5625,-4.5625 5.5625,-4.578125 5.5625,-4.609375 5.5625,-4.625 5.546875,-4.71875 5.4375,-4.71875 5.34375,-4.71875 5.328125,-4.671875 5.296875,-4.5 5.078125,-3.734375 4.859375,-3.546875 4,-3.546875 H 3.09375 l 0.640625,-2.53125 C 3.828125,-6.4375 3.84375,-6.46875 4.28125,-6.46875 h 1.3125 c 1.21875,0 1.453125,0.328125 1.453125,1.09375 0,0.234375 0,0.265625 -0.03125,0.546875 C 7,-4.703125 7,-4.6875 7,-4.65625 c 0,0.046875 0.03125,0.125 0.125,0.125 0.109375,0 0.109375,-0.0625 0.125,-0.25 L 7.453125,-6.515625 C 7.484375,-6.78125 7.4375,-6.78125 7.1875,-6.78125 H 2.296875 c -0.1875,0 -0.296875,0 -0.296875,0.203125 0,0.109375 0.09375,0.109375 0.28125,0.109375 0.375,0 0.65625,0 0.65625,0.171875 0,0.046875 0,0.0625 -0.0625,0.25 L 1.5625,-0.78125 c -0.09375,0.390625 -0.109375,0.46875 -0.90625,0.46875 -0.171875,0 -0.28125,0 -0.28125,0.1875 C 0.375,0 0.5,0 0.53125,0 0.8125,0 1.5625,-0.03125 1.84375,-0.03125 2.171875,-0.03125 3,0 3.328125,0 3.421875,0 3.53125,0 3.53125,-0.1875 3.53125,-0.265625 3.484375,-0.296875 3.484375,-0.296875 3.453125,-0.3125 3.421875,-0.3125 3.203125,-0.3125 c -0.21875,0 -0.265625,0 -0.515625,-0.015625 -0.296875,-0.03125 -0.328125,-0.078125 -0.328125,-0.203125 0,-0.015625 0,-0.078125 0.046875,-0.21875 z m 0,0"
               id="id-64b37fe5-e76a-4c95-99e1-2446e91dd724" />
          </g>
        </g>
        <g
           style="fill:#000000;fill-opacity:1"
           id="id-c57a952c-8c1b-4234-8495-a84d50cd5988">
          <g
             transform="translate(158.716,134.765)"
             id="g13736">
            <path
               style="stroke:none;stroke-width:0"
               d="m 6.09375,-5.609375 c 0,-0.171875 0,-0.359375 -0.203125,-0.359375 -0.203125,0 -0.203125,0.1875 -0.203125,0.359375 V -2 c 0,1.5 -1.625,1.828125 -2.375,1.828125 -0.4375,0 -1.0625,-0.09375 -1.59375,-0.4375 C 0.953125,-1.09375 0.953125,-1.734375 0.953125,-2 v -3.609375 c 0,-0.171875 0,-0.359375 -0.203125,-0.359375 -0.203125,0 -0.203125,0.1875 -0.203125,0.359375 v 3.65625 c 0,1.515625 1.53125,2.171875 2.765625,2.171875 1.296875,0 2.78125,-0.703125 2.78125,-2.15625 z m 0,0"
               id="id-fe8cd972-91ae-402b-bb44-7538bf1f3bf0" />
          </g>
        </g>
        <g
           style="fill:#000000;fill-opacity:1"
           id="id-ef7bc992-48b5-4d80-b7c9-f8f5ae31b51a">
          <g
             transform="translate(167.572,134.765)"
             id="g13740">
            <path
               style="stroke:none;stroke-width:0"
               d="m 6.4375,-6.921875 c 0,-0.03125 -0.03125,-0.109375 -0.125,-0.109375 -0.046875,0 -0.046875,0.015625 -0.171875,0.15625 L 5.65625,-6.3125 c -0.25,-0.46875 -0.765625,-0.71875 -1.421875,-0.71875 -1.265625,0 -2.453125,1.15625 -2.453125,2.359375 0,0.796875 0.515625,1.265625 1.03125,1.40625 l 1.0625,0.28125 c 0.375,0.09375 0.921875,0.25 0.921875,1.0625 0,0.890625 -0.8125,1.828125 -1.796875,1.828125 -0.640625,0 -1.75,-0.21875 -1.75,-1.453125 0,-0.234375 0.0625,-0.484375 0.0625,-0.53125 0.015625,-0.046875 0.015625,-0.0625 0.015625,-0.078125 0,-0.09375 -0.0625,-0.109375 -0.109375,-0.109375 -0.046875,0 -0.078125,0.015625 -0.109375,0.046875 -0.03125,0.03125 -0.59375,2.3125 -0.59375,2.34375 0,0.046875 0.046875,0.09375 0.109375,0.09375 0.046875,0 0.0625,-0.015625 0.1875,-0.15625 L 1.296875,-0.5 c 0.421875,0.578125 1.109375,0.71875 1.6875,0.71875 1.359375,0 2.53125,-1.328125 2.53125,-2.5625 0,-0.6875 -0.34375,-1.03125 -0.484375,-1.171875 C 4.796875,-3.734375 4.640625,-3.78125 3.765625,-4 3.53125,-4.0625 3.1875,-4.171875 3.09375,-4.1875 2.828125,-4.28125 2.484375,-4.5625 2.484375,-5.09375 c 0,-0.8125 0.796875,-1.65625 1.75,-1.65625 0.8125,0 1.421875,0.4375 1.421875,1.546875 0,0.3125 -0.03125,0.5 -0.03125,0.5625 0,0 0,0.09375 0.109375,0.09375 0.109375,0 0.125,-0.03125 0.15625,-0.203125 z m 0,0"
               id="id-0a076a58-3a1e-456c-83ab-0c9c09f64df0" />
          </g>
        </g>
      </g>
    </g>
    <g
       transform="matrix(0.352778,0,0,0.352778,82.652127,179.68245)"
       ns14:version="1.3.1"
       ns14:texconverter="pdflatex"
       ns14:pdfconverter="inkscape"
       ns14:text="$F \\cap S$\n"
       ns14:preamble="/Users/ketiboldiais/Library/Application Support/org.inkscape.Inkscape/config/inkscape/extensions/circuitSymbols/circuitSymbolsPreamble.tex"
       ns14:scale="1.0"
       ns14:alignment="middle center"
       ns14:inkscapeversion="1.1"
       ns14:jacobian_sqrt="0.352778"
       id="g13887">
      <defs
         id="id-8de78252-cb1f-4f2c-9c6e-52613296f5d3">
        <g
           id="id-35e87723-fff3-45cf-ae1b-8016f42c3112">
          <symbol
             overflow="visible"
             id="id-9560599a-9511-4a2f-b307-fada002f7b76">
            <path
               style="stroke:none;stroke-width:0"
               d=""
               id="id-f4f2464b-40ed-4a1a-8870-aaa93d7501a0" />
          </symbol>
          <symbol
             overflow="visible"
             id="id-d17a5193-590c-4208-92d4-0649605145f4">
            <path
               style="stroke:none;stroke-width:0"
               d="m 3.015625,-3.234375 h 0.96875 c 0.75,0 0.828125,0.15625 0.828125,0.4375 0,0.078125 0,0.1875 -0.0625,0.5 C 4.71875,-2.25 4.71875,-2.21875 4.71875,-2.1875 c 0,0.078125 0.0625,0.109375 0.109375,0.109375 0.109375,0 0.109375,-0.03125 0.15625,-0.203125 L 5.53125,-4.453125 C 5.5625,-4.5625 5.5625,-4.578125 5.5625,-4.609375 5.5625,-4.625 5.546875,-4.71875 5.4375,-4.71875 5.34375,-4.71875 5.328125,-4.671875 5.296875,-4.5 5.078125,-3.734375 4.859375,-3.546875 4,-3.546875 H 3.09375 l 0.640625,-2.53125 C 3.828125,-6.4375 3.84375,-6.46875 4.28125,-6.46875 h 1.3125 c 1.21875,0 1.453125,0.328125 1.453125,1.09375 0,0.234375 0,0.265625 -0.03125,0.546875 C 7,-4.703125 7,-4.6875 7,-4.65625 c 0,0.046875 0.03125,0.125 0.125,0.125 0.109375,0 0.109375,-0.0625 0.125,-0.25 L 7.453125,-6.515625 C 7.484375,-6.78125 7.4375,-6.78125 7.1875,-6.78125 H 2.296875 c -0.1875,0 -0.296875,0 -0.296875,0.203125 0,0.109375 0.09375,0.109375 0.28125,0.109375 0.375,0 0.65625,0 0.65625,0.171875 0,0.046875 0,0.0625 -0.0625,0.25 L 1.5625,-0.78125 c -0.09375,0.390625 -0.109375,0.46875 -0.90625,0.46875 -0.171875,0 -0.28125,0 -0.28125,0.1875 C 0.375,0 0.5,0 0.53125,0 0.8125,0 1.5625,-0.03125 1.84375,-0.03125 2.171875,-0.03125 3,0 3.328125,0 3.421875,0 3.53125,0 3.53125,-0.1875 3.53125,-0.265625 3.484375,-0.296875 3.484375,-0.296875 3.453125,-0.3125 3.421875,-0.3125 3.203125,-0.3125 c -0.21875,0 -0.265625,0 -0.515625,-0.015625 -0.296875,-0.03125 -0.328125,-0.078125 -0.328125,-0.203125 0,-0.015625 0,-0.078125 0.046875,-0.21875 z m 0,0"
               id="id-2dacbb1e-8d64-43a2-8bb3-0bfdfcd672ee" />
          </symbol>
          <symbol
             overflow="visible"
             id="id-7ef45ddb-7afb-4120-8f64-241fc85207c7">
            <path
               style="stroke:none;stroke-width:0"
               d="m 6.4375,-6.921875 c 0,-0.03125 -0.03125,-0.109375 -0.125,-0.109375 -0.046875,0 -0.046875,0.015625 -0.171875,0.15625 L 5.65625,-6.3125 c -0.25,-0.46875 -0.765625,-0.71875 -1.421875,-0.71875 -1.265625,0 -2.453125,1.15625 -2.453125,2.359375 0,0.796875 0.515625,1.265625 1.03125,1.40625 l 1.0625,0.28125 c 0.375,0.09375 0.921875,0.25 0.921875,1.0625 0,0.890625 -0.8125,1.828125 -1.796875,1.828125 -0.640625,0 -1.75,-0.21875 -1.75,-1.453125 0,-0.234375 0.0625,-0.484375 0.0625,-0.53125 0.015625,-0.046875 0.015625,-0.0625 0.015625,-0.078125 0,-0.09375 -0.0625,-0.109375 -0.109375,-0.109375 -0.046875,0 -0.078125,0.015625 -0.109375,0.046875 -0.03125,0.03125 -0.59375,2.3125 -0.59375,2.34375 0,0.046875 0.046875,0.09375 0.109375,0.09375 0.046875,0 0.0625,-0.015625 0.1875,-0.15625 L 1.296875,-0.5 c 0.421875,0.578125 1.109375,0.71875 1.6875,0.71875 1.359375,0 2.53125,-1.328125 2.53125,-2.5625 0,-0.6875 -0.34375,-1.03125 -0.484375,-1.171875 C 4.796875,-3.734375 4.640625,-3.78125 3.765625,-4 3.53125,-4.0625 3.1875,-4.171875 3.09375,-4.1875 2.828125,-4.28125 2.484375,-4.5625 2.484375,-5.09375 c 0,-0.8125 0.796875,-1.65625 1.75,-1.65625 0.8125,0 1.421875,0.4375 1.421875,1.546875 0,0.3125 -0.03125,0.5 -0.03125,0.5625 0,0 0,0.09375 0.109375,0.09375 0.109375,0 0.125,-0.03125 0.15625,-0.203125 z m 0,0"
               id="id-6aa41fd8-7037-4da7-9723-d6ee1eafc3c4" />
          </symbol>
          <symbol
             overflow="visible"
             id="id-ab583e8f-cd40-4a55-a8bf-ecde63953b5f">
            <path
               style="stroke:none;stroke-width:0"
               d=""
               id="id-d4ce83f2-30af-43e2-bbae-7951819f9cd7" />
          </symbol>
          <symbol
             overflow="visible"
             id="id-8a30f4c6-7196-446a-9dd0-6495b31b1839">
            <path
               style="stroke:none;stroke-width:0"
               d="m 6.09375,-3.78125 c 0,-1.515625 -1.53125,-2.1875 -2.78125,-2.1875 -1.28125,0 -2.765625,0.703125 -2.765625,2.171875 v 3.65625 c 0,0.1875 0,0.359375 0.203125,0.359375 0.203125,0 0.203125,-0.171875 0.203125,-0.359375 V -3.75 c 0,-1.5 1.625,-1.8125 2.359375,-1.8125 0.453125,0 1.078125,0.09375 1.609375,0.421875 C 5.6875,-4.640625 5.6875,-4 5.6875,-3.734375 v 3.59375 c 0,0.1875 0,0.359375 0.203125,0.359375 0.203125,0 0.203125,-0.171875 0.203125,-0.359375 z m 0,0"
               id="id-b70d9a0f-c665-4baa-8242-789167dc05b4" />
          </symbol>
        </g>
      </defs>
      <g
         id="id-1a62444e-87e8-4d07-9271-7f396fec143b"
         transform="translate(-149.087,-127.734)">
        <g
           style="fill:#000000;fill-opacity:1"
           id="id-63a96a75-90d2-4dc8-ac5f-d6b0f4e15454">
          <g
             transform="translate(148.712,134.765)"
             id="g13875">
            <path
               style="stroke:none;stroke-width:0"
               d="m 3.015625,-3.234375 h 0.96875 c 0.75,0 0.828125,0.15625 0.828125,0.4375 0,0.078125 0,0.1875 -0.0625,0.5 C 4.71875,-2.25 4.71875,-2.21875 4.71875,-2.1875 c 0,0.078125 0.0625,0.109375 0.109375,0.109375 0.109375,0 0.109375,-0.03125 0.15625,-0.203125 L 5.53125,-4.453125 C 5.5625,-4.5625 5.5625,-4.578125 5.5625,-4.609375 5.5625,-4.625 5.546875,-4.71875 5.4375,-4.71875 5.34375,-4.71875 5.328125,-4.671875 5.296875,-4.5 5.078125,-3.734375 4.859375,-3.546875 4,-3.546875 H 3.09375 l 0.640625,-2.53125 C 3.828125,-6.4375 3.84375,-6.46875 4.28125,-6.46875 h 1.3125 c 1.21875,0 1.453125,0.328125 1.453125,1.09375 0,0.234375 0,0.265625 -0.03125,0.546875 C 7,-4.703125 7,-4.6875 7,-4.65625 c 0,0.046875 0.03125,0.125 0.125,0.125 0.109375,0 0.109375,-0.0625 0.125,-0.25 L 7.453125,-6.515625 C 7.484375,-6.78125 7.4375,-6.78125 7.1875,-6.78125 H 2.296875 c -0.1875,0 -0.296875,0 -0.296875,0.203125 0,0.109375 0.09375,0.109375 0.28125,0.109375 0.375,0 0.65625,0 0.65625,0.171875 0,0.046875 0,0.0625 -0.0625,0.25 L 1.5625,-0.78125 c -0.09375,0.390625 -0.109375,0.46875 -0.90625,0.46875 -0.171875,0 -0.28125,0 -0.28125,0.1875 C 0.375,0 0.5,0 0.53125,0 0.8125,0 1.5625,-0.03125 1.84375,-0.03125 2.171875,-0.03125 3,0 3.328125,0 3.421875,0 3.53125,0 3.53125,-0.1875 3.53125,-0.265625 3.484375,-0.296875 3.484375,-0.296875 3.453125,-0.3125 3.421875,-0.3125 3.203125,-0.3125 c -0.21875,0 -0.265625,0 -0.515625,-0.015625 -0.296875,-0.03125 -0.328125,-0.078125 -0.328125,-0.203125 0,-0.015625 0,-0.078125 0.046875,-0.21875 z m 0,0"
               id="id-0418ada5-3843-446b-b3b9-812ef31136c8" />
          </g>
        </g>
        <g
           style="fill:#000000;fill-opacity:1"
           id="id-e1aad4c8-8a25-4746-b1bd-78e9d5d386f8">
          <g
             transform="translate(158.716,134.765)"
             id="g13879">
            <path
               style="stroke:none;stroke-width:0"
               d="m 6.09375,-3.78125 c 0,-1.515625 -1.53125,-2.1875 -2.78125,-2.1875 -1.28125,0 -2.765625,0.703125 -2.765625,2.171875 v 3.65625 c 0,0.1875 0,0.359375 0.203125,0.359375 0.203125,0 0.203125,-0.171875 0.203125,-0.359375 V -3.75 c 0,-1.5 1.625,-1.8125 2.359375,-1.8125 0.453125,0 1.078125,0.09375 1.609375,0.421875 C 5.6875,-4.640625 5.6875,-4 5.6875,-3.734375 v 3.59375 c 0,0.1875 0,0.359375 0.203125,0.359375 0.203125,0 0.203125,-0.171875 0.203125,-0.359375 z m 0,0"
               id="id-8ffbf6a5-2e57-44c5-a418-7ef465313de0" />
          </g>
        </g>
        <g
           style="fill:#000000;fill-opacity:1"
           id="id-995f7f9e-97fa-4864-9cdc-b32e8e3f126d">
          <g
             transform="translate(167.572,134.765)"
             id="g13883">
            <path
               style="stroke:none;stroke-width:0"
               d="m 6.4375,-6.921875 c 0,-0.03125 -0.03125,-0.109375 -0.125,-0.109375 -0.046875,0 -0.046875,0.015625 -0.171875,0.15625 L 5.65625,-6.3125 c -0.25,-0.46875 -0.765625,-0.71875 -1.421875,-0.71875 -1.265625,0 -2.453125,1.15625 -2.453125,2.359375 0,0.796875 0.515625,1.265625 1.03125,1.40625 l 1.0625,0.28125 c 0.375,0.09375 0.921875,0.25 0.921875,1.0625 0,0.890625 -0.8125,1.828125 -1.796875,1.828125 -0.640625,0 -1.75,-0.21875 -1.75,-1.453125 0,-0.234375 0.0625,-0.484375 0.0625,-0.53125 0.015625,-0.046875 0.015625,-0.0625 0.015625,-0.078125 0,-0.09375 -0.0625,-0.109375 -0.109375,-0.109375 -0.046875,0 -0.078125,0.015625 -0.109375,0.046875 -0.03125,0.03125 -0.59375,2.3125 -0.59375,2.34375 0,0.046875 0.046875,0.09375 0.109375,0.09375 0.046875,0 0.0625,-0.015625 0.1875,-0.15625 L 1.296875,-0.5 c 0.421875,0.578125 1.109375,0.71875 1.6875,0.71875 1.359375,0 2.53125,-1.328125 2.53125,-2.5625 0,-0.6875 -0.34375,-1.03125 -0.484375,-1.171875 C 4.796875,-3.734375 4.640625,-3.78125 3.765625,-4 3.53125,-4.0625 3.1875,-4.171875 3.09375,-4.1875 2.828125,-4.28125 2.484375,-4.5625 2.484375,-5.09375 c 0,-0.8125 0.796875,-1.65625 1.75,-1.65625 0.8125,0 1.421875,0.4375 1.421875,1.546875 0,0.3125 -0.03125,0.5 -0.03125,0.5625 0,0 0,0.09375 0.109375,0.09375 0.109375,0 0.125,-0.03125 0.15625,-0.203125 z m 0,0"
               id="id-e458ba47-64f7-4cbd-920e-97746a442af5" />
          </g>
        </g>
      </g>
    </g>
  </g>
</svg>
