<?xml version="1.0" encoding="UTF-8"?>
<svg width="85.233mm" height="86.296mm" version="1.1" viewBox="0 0 85.233 86.296" xmlns="http://www.w3.org/2000/svg" xmlns:xlink="http://www.w3.org/1999/xlink">
 <defs>
  <marker id="marker1542" overflow="visible" orient="auto">
   <path transform="matrix(.4 0 0 .4 -1.8 0)" d="m5.77 0-8.65 5v-10z" fill="#fff" fill-rule="evenodd" stroke="#f55" stroke-width="1pt"/>
  </marker>
  <marker id="marker1365" overflow="visible" orient="auto">
   <path transform="matrix(.4 0 0 .4 -1.8 0)" d="m5.77 0-8.65 5v-10z" fill="#fff" fill-rule="evenodd" stroke="#000" stroke-width="1pt"/>
  </marker>
  <marker id="marker1331" overflow="visible" orient="auto">
   <path transform="matrix(.4 0 0 .4 -1.8 0)" d="m5.77 0-8.65 5v-10z" fill="#fff" fill-rule="evenodd" stroke="#000" stroke-width="1pt"/>
  </marker>
  <marker id="marker1303" overflow="visible" orient="auto">
   <path transform="matrix(.4 0 0 .4 -1.8 0)" d="m5.77 0-8.65 5v-10z" fill="#fff" fill-rule="evenodd" stroke="#000" stroke-width="1pt"/>
  </marker>
  <marker id="marker1269" overflow="visible" orient="auto">
   <path transform="matrix(.4 0 0 .4 -1.8 0)" d="m5.77 0-8.65 5v-10z" fill="#fff" fill-rule="evenodd" stroke="#f55" stroke-width="1pt"/>
  </marker>
  <marker id="EmptyTriangleOutM" overflow="visible" orient="auto">
   <path transform="matrix(.4 0 0 .4 -1.8 0)" d="m5.77 0-8.65 5v-10z" fill="#fff" fill-rule="evenodd" stroke="#000" stroke-width="1pt"/>
  </marker>
  <symbol id="symbol3073" overflow="visible">
   <path d="m3.6562-3.9844h0.85938c0.20312 0 0.29688 0 0.29688-0.20312 0-0.10938-0.09375-0.10938-0.26562-0.10938h-0.82812l0.20312-1.1406c0.046875-0.20312 0.1875-0.90625 0.25-1.0312 0.078125-0.1875 0.25-0.34375 0.46875-0.34375 0.03125 0 0.29688 0 0.48438 0.1875-0.4375 0.03125-0.54688 0.39062-0.54688 0.53125 0 0.23438 0.1875 0.35938 0.375 0.35938 0.26562 0 0.54688-0.23438 0.54688-0.60938 0-0.45312-0.45312-0.6875-0.85938-0.6875-0.34375 0-0.96875 0.1875-1.2656 1.1719-0.0625 0.20312-0.09375 0.3125-0.32812 1.5625h-0.6875c-0.20312 0-0.3125 0-0.3125 0.1875 0 0.125 0.09375 0.125 0.28125 0.125h0.65625l-0.73438 3.9375c-0.1875 0.96875-0.35938 1.875-0.875 1.875-0.046875 0-0.28125 0-0.48438-0.1875 0.46875-0.03125 0.5625-0.39062 0.5625-0.53125 0-0.23438-0.1875-0.35938-0.375-0.35938-0.26562 0-0.54688 0.23438-0.54688 0.60938 0 0.4375 0.4375 0.6875 0.84375 0.6875 0.54688 0 0.95312-0.59375 1.125-0.96875 0.32812-0.625 0.54688-1.8281 0.5625-1.9062z"/>
  </symbol>
  <symbol id="symbol2318" overflow="visible">
   <path d="m3.3281-3.0156c0.0625-0.25 0.29688-1.1719 0.98438-1.1719 0.046875 0 0.29688 0 0.5 0.125-0.28125 0.0625-0.46875 0.29688-0.46875 0.54688 0 0.15625 0.10938 0.34375 0.375 0.34375 0.21875 0 0.53125-0.17188 0.53125-0.57812 0-0.51562-0.57812-0.65625-0.92188-0.65625-0.57812 0-0.92188 0.53125-1.0469 0.75-0.25-0.65625-0.78125-0.75-1.0781-0.75-1.0312 0-1.6094 1.2812-1.6094 1.5312 0 0.10938 0.10938 0.10938 0.125 0.10938 0.078125 0 0.10938-0.03125 0.125-0.10938 0.34375-1.0625 1-1.3125 1.3438-1.3125 0.1875 0 0.53125 0.09375 0.53125 0.67188 0 0.3125-0.17188 0.96875-0.53125 2.375-0.15625 0.60938-0.51562 1.0312-0.95312 1.0312-0.0625 0-0.28125 0-0.5-0.125 0.25-0.0625 0.46875-0.26562 0.46875-0.54688 0-0.26562-0.21875-0.34375-0.35938-0.34375-0.3125 0-0.54688 0.25-0.54688 0.57812 0 0.45312 0.48438 0.65625 0.92188 0.65625 0.67188 0 1.0312-0.70312 1.0469-0.75 0.125 0.35938 0.48438 0.75 1.0781 0.75 1.0312 0 1.5938-1.2812 1.5938-1.5312 0-0.10938-0.078125-0.10938-0.10938-0.10938-0.09375 0-0.10938 0.046875-0.14062 0.10938-0.32812 1.0781-1 1.3125-1.3125 1.3125-0.39062 0-0.54688-0.3125-0.54688-0.65625 0-0.21875 0.046875-0.4375 0.15625-0.875z"/>
  </symbol>
  <symbol id="symbol8201" overflow="visible">
   <path d="m3.2969 2.3906c0-0.03125 0-0.046875-0.17188-0.21875-1.2344-1.25-1.5625-3.1406-1.5625-4.6719 0-1.7344 0.375-3.4688 1.6094-4.7031 0.125-0.125 0.125-0.14062 0.125-0.17188 0-0.078125-0.03125-0.10938-0.09375-0.10938-0.10938 0-1 0.6875-1.5938 1.9531-0.5 1.0938-0.625 2.2031-0.625 3.0312 0 0.78125 0.10938 1.9844 0.65625 3.125 0.60938 1.2188 1.4531 1.875 1.5625 1.875 0.0625 0 0.09375-0.03125 0.09375-0.10938z"/>
  </symbol>
  <symbol id="symbol156" overflow="visible">
   <path d="m2.875-2.5c0-0.76562-0.10938-1.9688-0.65625-3.1094-0.59375-1.2188-1.4531-1.875-1.5469-1.875-0.0625 0-0.10938 0.046875-0.10938 0.10938 0 0.03125 0 0.046875 0.1875 0.23438 0.98438 0.98438 1.5469 2.5625 1.5469 4.6406 0 1.7188-0.35938 3.4688-1.5938 4.7188-0.14062 0.125-0.14062 0.14062-0.14062 0.17188 0 0.0625 0.046875 0.10938 0.10938 0.10938 0.09375 0 1-0.6875 1.5781-1.9531 0.51562-1.0938 0.625-2.2031 0.625-3.0469z"/>
  </symbol>
  <symbol id="symbol3346" overflow="visible">
   <path d="m4.6875-3.7656c0.015625-0.046875 0.03125-0.10938 0.03125-0.17188 0-0.17188-0.10938-0.26562-0.28125-0.26562-0.09375 0-0.375 0.0625-0.40625 0.42188-0.1875-0.35938-0.53125-0.625-0.9375-0.625-1.125 0-2.3594 1.3906-2.3594 2.8281 0 0.98438 0.59375 1.5781 1.3125 1.5781 0.59375 0 1.0625-0.46875 1.1562-0.57812l0.015625 0.015625c-0.20312 0.875-0.32812 1.2969-0.32812 1.3125-0.046875 0.09375-0.375 1.0781-1.4375 1.0781-0.1875 0-0.51562-0.015625-0.79688-0.10938 0.29688-0.078125 0.40625-0.34375 0.40625-0.51562 0-0.15625-0.10938-0.34375-0.375-0.34375-0.21875 0-0.53125 0.17188-0.53125 0.57812s0.35938 0.60938 1.3125 0.60938c1.25 0 1.9688-0.78125 2.125-1.375zm-1.2812 2.4844c-0.0625 0.26562-0.29688 0.51562-0.51562 0.70312-0.20312 0.17188-0.51562 0.35938-0.8125 0.35938-0.5 0-0.64062-0.51562-0.64062-0.92188 0-0.46875 0.28125-1.6562 0.5625-2.1562 0.26562-0.48438 0.6875-0.89062 1.1094-0.89062 0.65625 0 0.79688 0.8125 0.79688 0.85938s-0.015625 0.10938-0.03125 0.14062z"/>
  </symbol>
  <symbol id="symbol9275" overflow="visible">
   <path d="m3.3281-3.0156c0.0625-0.25 0.29688-1.1719 0.98438-1.1719 0.046875 0 0.29688 0 0.5 0.125-0.28125 0.0625-0.46875 0.29688-0.46875 0.54688 0 0.15625 0.10938 0.34375 0.375 0.34375 0.21875 0 0.53125-0.17188 0.53125-0.57812 0-0.51562-0.57812-0.65625-0.92188-0.65625-0.57812 0-0.92188 0.53125-1.0469 0.75-0.25-0.65625-0.78125-0.75-1.0781-0.75-1.0312 0-1.6094 1.2812-1.6094 1.5312 0 0.10938 0.10938 0.10938 0.125 0.10938 0.078125 0 0.10938-0.03125 0.125-0.10938 0.34375-1.0625 1-1.3125 1.3438-1.3125 0.1875 0 0.53125 0.09375 0.53125 0.67188 0 0.3125-0.17188 0.96875-0.53125 2.375-0.15625 0.60938-0.51562 1.0312-0.95312 1.0312-0.0625 0-0.28125 0-0.5-0.125 0.25-0.0625 0.46875-0.26562 0.46875-0.54688 0-0.26562-0.21875-0.34375-0.35938-0.34375-0.3125 0-0.54688 0.25-0.54688 0.57812 0 0.45312 0.48438 0.65625 0.92188 0.65625 0.67188 0 1.0312-0.70312 1.0469-0.75 0.125 0.35938 0.48438 0.75 1.0781 0.75 1.0312 0 1.5938-1.2812 1.5938-1.5312 0-0.10938-0.078125-0.10938-0.10938-0.10938-0.09375 0-0.10938 0.046875-0.14062 0.10938-0.32812 1.0781-1 1.3125-1.3125 1.3125-0.39062 0-0.54688-0.3125-0.54688-0.65625 0-0.21875 0.046875-0.4375 0.15625-0.875z"/>
  </symbol>
  <symbol id="symbol72" overflow="visible">
   <path d="m3.2969 2.3906c0-0.03125 0-0.046875-0.17188-0.21875-1.2344-1.25-1.5625-3.1406-1.5625-4.6719 0-1.7344 0.375-3.4688 1.6094-4.7031 0.125-0.125 0.125-0.14062 0.125-0.17188 0-0.078125-0.03125-0.10938-0.09375-0.10938-0.10938 0-1 0.6875-1.5938 1.9531-0.5 1.0938-0.625 2.2031-0.625 3.0312 0 0.78125 0.10938 1.9844 0.65625 3.125 0.60938 1.2188 1.4531 1.875 1.5625 1.875 0.0625 0 0.09375-0.03125 0.09375-0.10938z"/>
  </symbol>
  <symbol id="symbol7426" overflow="visible">
   <path d="m2.875-2.5c0-0.76562-0.10938-1.9688-0.65625-3.1094-0.59375-1.2188-1.4531-1.875-1.5469-1.875-0.0625 0-0.10938 0.046875-0.10938 0.10938 0 0.03125 0 0.046875 0.1875 0.23438 0.98438 0.98438 1.5469 2.5625 1.5469 4.6406 0 1.7188-0.35938 3.4688-1.5938 4.7188-0.14062 0.125-0.14062 0.14062-0.14062 0.17188 0 0.0625 0.046875 0.10938 0.10938 0.10938 0.09375 0 1-0.6875 1.5781-1.9531 0.51562-1.0938 0.625-2.2031 0.625-3.0469z"/>
  </symbol>
  <symbol id="symbol7166" overflow="visible">
   <path d="m3.3281-3.0156c0.0625-0.25 0.29688-1.1719 0.98438-1.1719 0.046875 0 0.29688 0 0.5 0.125-0.28125 0.0625-0.46875 0.29688-0.46875 0.54688 0 0.15625 0.10938 0.34375 0.375 0.34375 0.21875 0 0.53125-0.17188 0.53125-0.57812 0-0.51562-0.57812-0.65625-0.92188-0.65625-0.57812 0-0.92188 0.53125-1.0469 0.75-0.25-0.65625-0.78125-0.75-1.0781-0.75-1.0312 0-1.6094 1.2812-1.6094 1.5312 0 0.10938 0.10938 0.10938 0.125 0.10938 0.078125 0 0.10938-0.03125 0.125-0.10938 0.34375-1.0625 1-1.3125 1.3438-1.3125 0.1875 0 0.53125 0.09375 0.53125 0.67188 0 0.3125-0.17188 0.96875-0.53125 2.375-0.15625 0.60938-0.51562 1.0312-0.95312 1.0312-0.0625 0-0.28125 0-0.5-0.125 0.25-0.0625 0.46875-0.26562 0.46875-0.54688 0-0.26562-0.21875-0.34375-0.35938-0.34375-0.3125 0-0.54688 0.25-0.54688 0.57812 0 0.45312 0.48438 0.65625 0.92188 0.65625 0.67188 0 1.0312-0.70312 1.0469-0.75 0.125 0.35938 0.48438 0.75 1.0781 0.75 1.0312 0 1.5938-1.2812 1.5938-1.5312 0-0.10938-0.078125-0.10938-0.10938-0.10938-0.09375 0-0.10938 0.046875-0.14062 0.10938-0.32812 1.0781-1 1.3125-1.3125 1.3125-0.39062 0-0.54688-0.3125-0.54688-0.65625 0-0.21875 0.046875-0.4375 0.15625-0.875z"/>
  </symbol>
  <symbol id="symbol107" overflow="visible">
   <path d="m4.6875-3.7656c0.015625-0.046875 0.03125-0.10938 0.03125-0.17188 0-0.17188-0.10938-0.26562-0.28125-0.26562-0.09375 0-0.375 0.0625-0.40625 0.42188-0.1875-0.35938-0.53125-0.625-0.9375-0.625-1.125 0-2.3594 1.3906-2.3594 2.8281 0 0.98438 0.59375 1.5781 1.3125 1.5781 0.59375 0 1.0625-0.46875 1.1562-0.57812l0.015625 0.015625c-0.20312 0.875-0.32812 1.2969-0.32812 1.3125-0.046875 0.09375-0.375 1.0781-1.4375 1.0781-0.1875 0-0.51562-0.015625-0.79688-0.10938 0.29688-0.078125 0.40625-0.34375 0.40625-0.51562 0-0.15625-0.10938-0.34375-0.375-0.34375-0.21875 0-0.53125 0.17188-0.53125 0.57812s0.35938 0.60938 1.3125 0.60938c1.25 0 1.9688-0.78125 2.125-1.375zm-1.2812 2.4844c-0.0625 0.26562-0.29688 0.51562-0.51562 0.70312-0.20312 0.17188-0.51562 0.35938-0.8125 0.35938-0.5 0-0.64062-0.51562-0.64062-0.92188 0-0.46875 0.28125-1.6562 0.5625-2.1562 0.26562-0.48438 0.6875-0.89062 1.1094-0.89062 0.65625 0 0.79688 0.8125 0.79688 0.85938s-0.015625 0.10938-0.03125 0.14062z"/>
  </symbol>
  <symbol id="symbol6775" overflow="visible">
   <path d="m3.6562-3.9844h0.85938c0.20312 0 0.29688 0 0.29688-0.20312 0-0.10938-0.09375-0.10938-0.26562-0.10938h-0.82812l0.20312-1.1406c0.046875-0.20312 0.1875-0.90625 0.25-1.0312 0.078125-0.1875 0.25-0.34375 0.46875-0.34375 0.03125 0 0.29688 0 0.48438 0.1875-0.4375 0.03125-0.54688 0.39062-0.54688 0.53125 0 0.23438 0.1875 0.35938 0.375 0.35938 0.26562 0 0.54688-0.23438 0.54688-0.60938 0-0.45312-0.45312-0.6875-0.85938-0.6875-0.34375 0-0.96875 0.1875-1.2656 1.1719-0.0625 0.20312-0.09375 0.3125-0.32812 1.5625h-0.6875c-0.20312 0-0.3125 0-0.3125 0.1875 0 0.125 0.09375 0.125 0.28125 0.125h0.65625l-0.73438 3.9375c-0.1875 0.96875-0.35938 1.875-0.875 1.875-0.046875 0-0.28125 0-0.48438-0.1875 0.46875-0.03125 0.5625-0.39062 0.5625-0.53125 0-0.23438-0.1875-0.35938-0.375-0.35938-0.26562 0-0.54688 0.23438-0.54688 0.60938 0 0.4375 0.4375 0.6875 0.84375 0.6875 0.54688 0 0.95312-0.59375 1.125-0.96875 0.32812-0.625 0.54688-1.8281 0.5625-1.9062z"/>
  </symbol>
 </defs>
 <g transform="translate(-39.977 -49.645)">
  <g transform="translate(-1.5239)" stroke-width=".26458">
   <circle cx="55.1" cy="68.344" r="13.229" fill="none" stop-color="#000000" stroke="#000" style="font-variation-settings:normal"/>
   <g font-family="'CMU Serif'" font-size="4.9389px" letter-spacing="0px" text-anchor="middle" word-spacing="0px">
    <text x="55.080624" y="64.347404" text-align="center" style="font-variant-caps:normal;font-variant-east-asian:normal;font-variant-ligatures:normal;font-variant-numeric:normal;line-height:1.25" xml:space="preserve"><tspan x="55.080624" y="64.347404" font-family="'CMU Serif'" font-size="4.9389px" stroke-width=".26458" style="font-variant-caps:normal;font-variant-east-asian:normal;font-variant-ligatures:normal;font-variant-numeric:normal">1</tspan></text>
    <text x="55.102329" y="70.403366" text-align="center" style="font-variant-caps:normal;font-variant-east-asian:normal;font-variant-ligatures:normal;font-variant-numeric:normal;line-height:1.25" xml:space="preserve"><tspan x="55.102329" y="70.403366" font-family="'CMU Serif'" font-size="4.9389px" stroke-width=".26458" style="font-variant-caps:normal;font-variant-east-asian:normal;font-variant-ligatures:normal;font-variant-numeric:normal">2</tspan></text>
    <text x="55.102329" y="76.485901" text-align="center" style="font-variant-caps:normal;font-variant-east-asian:normal;font-variant-ligatures:normal;font-variant-numeric:normal;line-height:1.25" xml:space="preserve"><tspan x="55.102329" y="76.485901" font-family="'CMU Serif'" font-size="4.9389px" stroke-width=".26458" style="font-variant-caps:normal;font-variant-east-asian:normal;font-variant-ligatures:normal;font-variant-numeric:normal">4</tspan></text>
   </g>
  </g>
  <g transform="translate(0 1.0747)" stroke-width=".26458">
   <circle cx="111.85" cy="67.269" r="13.229" fill="none" stop-color="#000000" stroke="#000" style="font-variation-settings:normal"/>
   <g font-family="'CMU Serif'" font-size="4.9389px" letter-spacing="0px" text-anchor="middle" word-spacing="0px">
    <text x="111.85027" y="64.649254" text-align="center" style="font-variant-caps:normal;font-variant-east-asian:normal;font-variant-ligatures:normal;font-variant-numeric:normal;line-height:1.25" xml:space="preserve"><tspan x="111.85027" y="64.649254" font-family="'CMU Serif'" font-size="4.9389px" stroke-width=".26458" style="font-variant-caps:normal;font-variant-east-asian:normal;font-variant-ligatures:normal;font-variant-numeric:normal">3</tspan></text>
    <text x="111.85027" y="73.178719" text-align="center" style="font-variant-caps:normal;font-variant-east-asian:normal;font-variant-ligatures:normal;font-variant-numeric:normal;line-height:1.25" xml:space="preserve"><tspan x="111.85027" y="73.178719" font-family="'CMU Serif'" font-size="4.9389px" stroke-width=".26458" style="font-variant-caps:normal;font-variant-east-asian:normal;font-variant-ligatures:normal;font-variant-numeric:normal">4</tspan></text>
   </g>
  </g>
  <g font-family="'CMU Serif'" font-size="4.2333px" letter-spacing="0px" stroke-width=".26458" text-anchor="middle" word-spacing="0px">
   <text x="68.791664" y="216.95833" text-align="center" style="line-height:1.25" xml:space="preserve"><tspan x="68.791664" y="216.95833" stroke-width=".26458"/></text>
   <text x="53.321491" y="108.76849" text-align="center" style="line-height:1.25" xml:space="preserve"><tspan x="53.321491" y="108.76849" stroke-width=".26458">1</tspan></text>
   <text x="53.340096" y="120.5945" text-align="center" style="line-height:1.25" xml:space="preserve"><tspan x="53.340096" y="120.5945" stroke-width=".26458">4</tspan></text>
   <text x="53.340096" y="114.70427" text-align="center" style="line-height:1.25" xml:space="preserve"><tspan x="53.340096" y="114.70427" stroke-width=".26458">2</tspan></text>
  </g>
  <circle cx="53.338" cy="113.27" r="13.229" fill="none" stop-color="#000000" stroke="#000" stroke-width=".26458" style="font-variation-settings:normal"/>
  <g transform="translate(-.094377 -12.136)" stroke-width=".26458">
   <g transform="translate(.47592 -49.496)" font-family="'CMU Serif'" font-size="4.2333px" letter-spacing="0px" text-anchor="middle" word-spacing="0px">
    <text x="111.23042" y="171.86339" text-align="center" style="line-height:1.25" xml:space="preserve"><tspan x="111.23042" y="171.86339" stroke-width=".26458">3</tspan></text>
    <text x="111.23042" y="180.76407" text-align="center" style="line-height:1.25" xml:space="preserve"><tspan x="111.23042" y="180.76407" stroke-width=".26458">4</tspan></text>
   </g>
   <circle cx="111.7" cy="125.41" r="13.229" fill="none" stop-color="#000000" stroke="#000" style="font-variation-settings:normal"/>
  </g>
  <g fill="none">
   <path d="m54.953 112.38c23.557-7.0671 55.359 4.3749 55.359 4.3749" marker-end="url(#marker1542)" stroke="#f55" stroke-width=".26458px"/>
   <g stroke="#000">
    <path d="m54.953 119.28c26.586-13.293 55.359-10.432 55.359-10.432" marker-end="url(#marker1331)" stroke-width=".26458px"/>
    <path d="m54.448 106.15c20.697-8.0767 55.359 1.1779 55.359 1.1779" marker-end="url(#marker1303)" stroke-width=".26458px"/>
    <path d="m54.518 61.417c19.182-7.4036 55.864 1.5144 55.864 1.5144" marker-end="url(#EmptyTriangleOutM)" stroke-width=".265"/>
   </g>
   <path d="m55.527 67.979c25.576-11.274 55.191-3.8701 55.191-3.8701" marker-end="url(#marker1269)" stroke="#f55" stroke-width=".26458px"/>
   <path d="m55.023 74.036c25.408-14.134 55.191-2.524 55.191-2.524" marker-end="url(#marker1365)" stroke="#000" stroke-width=".26458px"/>
  </g>
  <g transform="matrix(.71139 0 0 .71139 39.603 30.161)">
   <g>
    <use x="91.925003" y="81.962997" width="100%" height="100%" xlink:href="#symbol3073"/>
    <use x="97.875" y="81.962997" width="100%" height="100%" xlink:href="#symbol8201"/>
    <use x="101.75" y="81.962997" width="100%" height="100%" xlink:href="#symbol2318"/>
    <use x="107.443" y="81.962997" width="100%" height="100%" xlink:href="#symbol156"/>
   </g>
  </g>
  <g transform="matrix(.71139 0 0 .71139 40.111 75.855)">
   <g>
    <use x="91.925003" y="81.962997" width="100%" height="100%" xlink:href="#symbol3346"/>
    <use x="97.035004" y="81.962997" width="100%" height="100%" xlink:href="#symbol72"/>
    <use x="100.909" y="81.962997" width="100%" height="100%" xlink:href="#symbol9275"/>
    <use x="106.603" y="81.962997" width="100%" height="100%" xlink:href="#symbol7426"/>
   </g>
  </g>
  <g transform="matrix(.71139 0 0 .71139 -14.196 73.348)">
   <g>
    <use x="91.925003" y="81.962997" width="100%" height="100%" xlink:href="#symbol7166"/>
   </g>
  </g>
  <g transform="matrix(.71139 0 0 .71139 -14.227 28.944)">
   <g>
    <use x="91.925003" y="81.962997" width="100%" height="100%" xlink:href="#symbol7166"/>
   </g>
  </g>
  <g transform="matrix(.71139 0 0 .71139 16.218 41.525)">
   <g>
    <use x="91.925003" y="81.962997" width="100%" height="100%" xlink:href="#symbol107"/>
   </g>
  </g>
  <g transform="matrix(.71139 0 0 .71139 15.018 -3.6609)">
   <g>
    <use x="91.925003" y="81.962997" width="100%" height="100%" xlink:href="#symbol6775"/>
   </g>
  </g>
 </g>
</svg>
