<?xml version="1.0" encoding="UTF-8"?>
<svg width="52.63mm" height="28.656mm" version="1.1" viewBox="0 0 52.63 28.656" xmlns="http://www.w3.org/2000/svg">
 <g transform="translate(-30.618 -99.57)">
  <circle cx="42.333" cy="116.32" r="10.583" fill="#ffffba" stroke="#000" stroke-linejoin="round" stroke-miterlimit="3.9" stroke-opacity=".87097" stroke-width=".26458"/>
  <circle cx="71.532" cy="116.51" r="10.583" fill="#ffcaca" stroke="#000" stroke-linejoin="round" stroke-miterlimit="3.9" stroke-opacity=".87097" stroke-width=".26458"/>
  <g fill="#93ffff" fill-opacity=".9879" stroke="#000" stroke-linejoin="round" stroke-miterlimit="3.9" stroke-opacity=".87097" stroke-width=".26458">
   <circle cx="71.532" cy="110.84" r=".66146"/>
   <circle cx="71.532" cy="115.94" r=".66146"/>
   <circle cx="71.532" cy="120.95" r=".66146"/>
  </g>
  <g fill="#ff6a6a" fill-opacity=".99597" stroke="#000" stroke-linejoin="round" stroke-miterlimit="3.9" stroke-opacity=".87097" stroke-width=".26458">
   <circle cx="42.333" cy="110.65" r=".66146"/>
   <circle cx="42.333" cy="115.76" r=".66146"/>
   <circle cx="42.333" cy="120.76" r=".66146"/>
  </g>
  <g fill="none" stroke="#000" stroke-width=".26458px">
   <path d="m42.333 110.56c15.308-7.087 29.199 0.28349 29.199 0.28349"/>
   <path d="m42.333 115.76c15.592-5.1972 29.199 0.18899 29.199 0.18899"/>
   <path d="m42.239 120.86c15.119-4.4412 29.388 0.0945 29.388 0.0945"/>
  </g>
  <text x="41.989166" y="103.37648" font-family="'CMU Serif'" font-size="3.5278px" letter-spacing="0px" stroke-width=".26458" text-align="center" text-anchor="middle" word-spacing="0px" style="line-height:1.25" xml:space="preserve"><tspan x="41.989166" y="103.37648" font-family="'CMU Serif'" font-size="6.35px" font-style="italic" font-weight="500" stroke-width=".26458">x</tspan></text>
  <text x="71.622421" y="103.3765" font-family="'CMU Serif'" font-size="3.5278px" letter-spacing="0px" stroke-width=".26458" text-align="center" text-anchor="middle" word-spacing="0px" style="line-height:1.25" xml:space="preserve"><tspan x="71.622421" y="103.3765" font-family="'CMU Serif'" font-style="italic" font-weight="500" stroke-width=".26458">f(x)</tspan></text>
 </g>
</svg>
