<?xml version="1.0" encoding="UTF-8"?>
<svg width="82.931mm" height="133.59mm" version="1.1" viewBox="0 0 82.931 133.59" xmlns="http://www.w3.org/2000/svg">
 <g transform="translate(-28.935 -49.004)">
  <text transform="matrix(.0054001 .65531 1.5259 -.0076976 0 0)" x="97.547813" y="61.97802" font-family="'CMU Serif'" font-size="41.223px" letter-spacing="0px" stroke-width="3.0917" text-align="center" text-anchor="middle" word-spacing="0px" style="line-height:1.25" xml:space="preserve"><tspan x="97.547813" y="61.97802" stroke-width="3.0917">{</tspan></text>
  <g fill="none" stroke="#000">
   <rect x="48.381" y="73.327" width="60.854" height="106.97" stroke-width=".26458"/>
   <path d="m48.249 73.195v107.23m20.294-107.23v107.23m20.294-107.23v107.23m20.294-107.23v107.23m-60.881-107.23h61.119m-61.119 15.24h61.119m-61.119 15.24h61.119m-61.119 15.24h61.119m-61.119 15.24h61.119m-61.119 15.24h61.119m-61.119 15.24h61.119m-61.119 15.24h61.119" stroke-width=".26458px"/>
   <path d="m48.249 73.195v107.23m20.294-107.23v107.23m20.294-107.23v107.23m20.294-107.23v107.23m-60.881-107.23h61.119m-61.119 15.24h61.119m-61.119 15.24h61.119m-61.119 15.24h61.119m-61.119 15.24h61.119m-61.119 15.24h61.119m-61.119 15.24h61.119m-61.119 15.24h61.119" stroke-width=".26458px"/>
  </g>
  <g font-family="'CMU Serif'" letter-spacing="0px" text-anchor="middle" word-spacing="0px">
   <text transform="matrix(.49881 .028489 .0053773 -2.0045 0 0)" x="85.59182" y="-48.592422" font-size="54.2px" stroke-width="4.065" text-align="center" style="line-height:1.25" xml:space="preserve"><tspan x="85.59182" y="-48.592422" stroke-width="4.065">{</tspan></text>
   <text x="79.379135" y="55.643116" font-size="3.5278px" stroke-width=".26458" text-align="center" style="line-height:1.25" xml:space="preserve"><tspan x="79.379135" y="55.643116" font-size="8.4667px" stroke-width=".26458">3</tspan></text>
   <text x="31.576366" y="129.76779" font-size="3.5278px" stroke-width=".26458" text-align="center" style="line-height:1.25" xml:space="preserve"><tspan x="31.576366" y="129.76779" font-size="8.4667px" stroke-width=".26458">7</tspan></text>
  </g>
 </g>
</svg>
