<?xml version="1.0" encoding="UTF-8" standalone="no"?>
<!-- Created with Inkscape (http://www.inkscape.org/) -->

<svg
   width="54.376125mm"
   height="47.433231mm"
   viewBox="0 0 54.376125 47.433232"
   version="1.1"
   id="svg5"
   sodipodi:docname="neighborhoods.svg"
   inkscape:version="1.1 (c4e8f9e, 2021-05-24)"
   xmlns:inkscape="http://www.inkscape.org/namespaces/inkscape"
   xmlns:sodipodi="http://sodipodi.sourceforge.net/DTD/sodipodi-0.dtd"
   xmlns="http://www.w3.org/2000/svg"
   xmlns:svg="http://www.w3.org/2000/svg"
   xmlns:ns3="http://www.iki.fi/pav/software/textext/">
  <sodipodi:namedview
     id="namedview7"
     pagecolor="#ffffff"
     bordercolor="#666666"
     borderopacity="1.0"
     inkscape:pageshadow="2"
     inkscape:pageopacity="0.0"
     inkscape:pagecheckerboard="0"
     inkscape:document-units="mm"
     showgrid="true"
     inkscape:zoom="1.3416246"
     inkscape:cx="264.60457"
     inkscape:cy="85.344291"
     inkscape:window-width="1312"
     inkscape:window-height="1003"
     inkscape:window-x="935"
     inkscape:window-y="25"
     inkscape:window-maximized="0"
     inkscape:current-layer="layer1"
     inkscape:snap-text-baseline="false"
     inkscape:snap-center="true"
     inkscape:snap-global="true">
    <inkscape:grid
       type="xygrid"
       id="grid824"
       originx="-78.314634"
       originy="-128.53401" />
  </sodipodi:namedview>
  <defs
     id="defs2">
    <marker
       style="overflow:visible"
       id="TriangleInM"
       refX="0"
       refY="0"
       orient="auto"
       inkscape:stockid="TriangleInM"
       inkscape:isstock="true">
      <path
         transform="scale(-0.4)"
         style="fill:context-stroke;fill-rule:evenodd;stroke:context-stroke;stroke-width:1pt"
         d="M 5.77,0 -2.88,5 V -5 Z"
         id="path1081" />
    </marker>
    <marker
       style="overflow:visible"
       id="TriangleOutM"
       refX="0"
       refY="0"
       orient="auto"
       inkscape:stockid="TriangleOutM"
       inkscape:isstock="true">
      <path
         transform="scale(0.4)"
         style="fill:context-stroke;fill-rule:evenodd;stroke:context-stroke;stroke-width:1pt"
         d="M 5.77,0 -2.88,5 V -5 Z"
         id="path1090" />
    </marker>
  </defs>
  <g
     inkscape:label="Layer 1"
     inkscape:groupmode="layer"
     id="layer1"
     transform="translate(-78.314636,-128.534)">
    <g
       id="g1447"
       transform="matrix(1.4107189,0,0,1.4107189,-32.600805,-52.867987)">
      <g
         id="g1240"
         transform="translate(42.333336,14.629796)">
        <text
           xml:space="preserve"
           style="font-size:4.23333px;line-height:1.25;font-family:'CMU Serif';-inkscape-font-specification:'CMU Serif, Normal';text-align:center;letter-spacing:0px;word-spacing:0px;text-anchor:middle;stroke:#df8f87;stroke-width:0.264583;stroke-opacity:0.888889"
           x="63.257816"
           y="117.2916"
           id="text3588"><tspan
             sodipodi:role="line"
             id="tspan3586"
             style="stroke:#df8f87;stroke-width:0.264583;stroke-opacity:0.888889"
             x="63.257816"
             y="117.2916">)</tspan></text>
        <text
           xml:space="preserve"
           style="font-size:4.23333px;line-height:1.25;font-family:'CMU Serif';-inkscape-font-specification:'CMU Serif, Normal';text-align:center;letter-spacing:0px;word-spacing:0px;text-anchor:middle;stroke:#df8f87;stroke-width:0.264583;stroke-opacity:0.888889"
           x="47.885777"
           y="117.26582"
           id="text3452"><tspan
             sodipodi:role="line"
             id="tspan3450"
             style="stroke:#df8f87;stroke-width:0.264583;stroke-opacity:0.888889"
             x="47.885777"
             y="117.26582">(</tspan></text>
        <path
           style="fill:none;stroke:#000000;stroke-width:0.264583px;stroke-linecap:butt;stroke-linejoin:miter;stroke-opacity:1;marker-start:url(#TriangleInM);marker-end:url(#TriangleOutM)"
           d="M 37.041666,116.41667 H 74.083332"
           id="path859" />
        <text
           xml:space="preserve"
           style="font-size:3.04531px;line-height:1.25;font-family:'CMU Serif';-inkscape-font-specification:'CMU Serif, Normal';text-align:center;letter-spacing:0px;word-spacing:0px;text-anchor:middle;stroke-width:0.19034"
           x="55.362503"
           y="121.04117"
           id="text2155"><tspan
             sodipodi:role="line"
             id="tspan2153"
             style="font-style:italic;stroke-width:0.19034"
             x="55.362503"
             y="121.04117">a</tspan></text>
        <g
           transform="matrix(0.23480051,0,0,0.23480051,45.096521,119.53787)"
           ns3:version="1.3.1"
           ns3:texconverter="pdflatex"
           ns3:pdfconverter="inkscape"
           ns3:text="$a - \\delta$\n"
           ns3:preamble="/Users/ketiboldiais/Library/Application Support/org.inkscape.Inkscape/config/inkscape/extensions/inkscapeMadeEasy/basicLatexPackages.tex"
           ns3:scale="1.0"
           ns3:alignment="middle center"
           ns3:jacobian_sqrt="0.352778"
           id="g2294">
          <defs
             id="id-ec23fd8c-631a-4be2-a695-a553362e3071">
            <g
               id="id-e3fe48e4-714a-4a26-b5db-331fc7e1c3ac">
              <symbol
                 overflow="visible"
                 id="id-5a9bf095-1773-4de1-9aa0-546a1b7114c9">
                <path
                   style="stroke:none;stroke-width:0"
                   d=""
                   id="id-fb989526-e86f-41de-8f1a-20e12a2f4e3d" />
              </symbol>
              <symbol
                 overflow="visible"
                 id="id-67d205e3-8173-478f-83fe-2c5564999d4b">
                <path
                   style="stroke:none;stroke-width:0"
                   d="M 3.71875,-3.765625 C 3.53125,-4.140625 3.25,-4.40625 2.796875,-4.40625 c -1.15625,0 -2.390625,1.46875 -2.390625,2.921875 0,0.9375 0.546875,1.59375 1.3125,1.59375 0.203125,0 0.703125,-0.046875 1.296875,-0.75 0.078125,0.421875 0.4375,0.75 0.90625,0.75 0.359375,0 0.578125,-0.234375 0.75,-0.546875 0.15625,-0.359375 0.296875,-0.96875 0.296875,-0.984375 0,-0.109375 -0.09375,-0.109375 -0.125,-0.109375 -0.09375,0 -0.109375,0.046875 -0.140625,0.1875 -0.171875,0.640625 -0.34375,1.234375 -0.75,1.234375 -0.28125,0 -0.296875,-0.265625 -0.296875,-0.453125 0,-0.21875 0.015625,-0.3125 0.125,-0.75 C 3.890625,-1.71875 3.90625,-1.828125 4,-2.203125 L 4.359375,-3.59375 c 0.0625,-0.28125 0.0625,-0.296875 0.0625,-0.34375 0,-0.171875 -0.109375,-0.265625 -0.28125,-0.265625 -0.25,0 -0.390625,0.21875 -0.421875,0.4375 z M 3.078125,-1.1875 C 3.015625,-1 3.015625,-0.984375 2.875,-0.8125 2.4375,-0.265625 2.03125,-0.109375 1.75,-0.109375 c -0.5,0 -0.640625,-0.546875 -0.640625,-0.9375 0,-0.5 0.3125,-1.71875 0.546875,-2.1875 0.3125,-0.578125 0.75,-0.953125 1.15625,-0.953125 0.640625,0 0.78125,0.8125 0.78125,0.875 0,0.0625 -0.015625,0.125 -0.03125,0.171875 z m 0,0"
                   id="id-2ce1a79d-9f2d-4b34-a39f-a15e13fecbcd" />
              </symbol>
              <symbol
                 overflow="visible"
                 id="id-94326525-6dd9-41cb-bef1-03f6e1a1533e">
                <path
                   style="stroke:none;stroke-width:0"
                   d="M 2.625,-4.359375 C 1.390625,-4.0625 0.421875,-2.765625 0.421875,-1.5625 0.421875,-0.59375 1.0625,0.125 2,0.125 c 1.15625,0 1.984375,-1.578125 1.984375,-2.953125 0,-0.90625 -0.390625,-1.40625 -0.734375,-1.84375 C 2.890625,-5.125 2.296875,-5.875 2.296875,-6.3125 c 0,-0.21875 0.203125,-0.453125 0.546875,-0.453125 0.3125,0 0.5,0.125 0.71875,0.265625 0.203125,0.125 0.390625,0.25 0.546875,0.25 C 4.359375,-6.25 4.5,-6.484375 4.5,-6.65625 4.5,-6.875 4.34375,-6.890625 3.984375,-6.984375 3.46875,-7.09375 3.328125,-7.09375 3.171875,-7.09375 c -0.78125,0 -1.140625,0.4375 -1.140625,1.03125 0,0.546875 0.296875,1.09375 0.59375,1.703125 z m 0.125,0.21875 c 0.25,0.46875 0.546875,1 0.546875,1.71875 0,0.65625 -0.375,2.328125 -1.296875,2.328125 -0.546875,0 -0.96875,-0.421875 -0.96875,-1.1875 0,-0.625 0.375,-2.5 1.71875,-2.859375 z m 0,0"
                   id="id-bc4e82d3-4c46-4da8-a7c1-3bdd197ae2da" />
              </symbol>
              <symbol
                 overflow="visible"
                 id="id-3e85a3fe-5f8a-47ad-8af8-a8936e6af4d3">
                <path
                   style="stroke:none;stroke-width:0"
                   d=""
                   id="id-d707b26d-5193-407c-8dfa-4dbea8c22e6e" />
              </symbol>
              <symbol
                 overflow="visible"
                 id="id-66d47214-1ab7-4ba4-b729-01ba7ed228cf">
                <path
                   style="stroke:none;stroke-width:0"
                   d="m 6.5625,-2.296875 c 0.171875,0 0.359375,0 0.359375,-0.203125 0,-0.1875 -0.1875,-0.1875 -0.359375,-0.1875 H 1.171875 c -0.171875,0 -0.34375,0 -0.34375,0.1875 0,0.203125 0.171875,0.203125 0.34375,0.203125 z m 0,0"
                   id="id-98ee1aaf-3590-4e7a-9fed-af8ce60a2219" />
              </symbol>
            </g>
          </defs>
          <g
             id="id-c8c50f6d-18d7-4fcd-ba44-642450501138"
             transform="translate(-149.118,-127.671)">
            <g
               style="fill:#000000;fill-opacity:1"
               id="id-9487a899-712d-4c36-bb4d-f30b60b99d69">
              <g
                 transform="translate(148.712,134.765)"
                 id="g2282">
                <path
                   style="stroke:none;stroke-width:0"
                   d="M 3.71875,-3.765625 C 3.53125,-4.140625 3.25,-4.40625 2.796875,-4.40625 c -1.15625,0 -2.390625,1.46875 -2.390625,2.921875 0,0.9375 0.546875,1.59375 1.3125,1.59375 0.203125,0 0.703125,-0.046875 1.296875,-0.75 0.078125,0.421875 0.4375,0.75 0.90625,0.75 0.359375,0 0.578125,-0.234375 0.75,-0.546875 0.15625,-0.359375 0.296875,-0.96875 0.296875,-0.984375 0,-0.109375 -0.09375,-0.109375 -0.125,-0.109375 -0.09375,0 -0.109375,0.046875 -0.140625,0.1875 -0.171875,0.640625 -0.34375,1.234375 -0.75,1.234375 -0.28125,0 -0.296875,-0.265625 -0.296875,-0.453125 0,-0.21875 0.015625,-0.3125 0.125,-0.75 C 3.890625,-1.71875 3.90625,-1.828125 4,-2.203125 L 4.359375,-3.59375 c 0.0625,-0.28125 0.0625,-0.296875 0.0625,-0.34375 0,-0.171875 -0.109375,-0.265625 -0.28125,-0.265625 -0.25,0 -0.390625,0.21875 -0.421875,0.4375 z M 3.078125,-1.1875 C 3.015625,-1 3.015625,-0.984375 2.875,-0.8125 2.4375,-0.265625 2.03125,-0.109375 1.75,-0.109375 c -0.5,0 -0.640625,-0.546875 -0.640625,-0.9375 0,-0.5 0.3125,-1.71875 0.546875,-2.1875 0.3125,-0.578125 0.75,-0.953125 1.15625,-0.953125 0.640625,0 0.78125,0.8125 0.78125,0.875 0,0.0625 -0.015625,0.125 -0.03125,0.171875 z m 0,0"
                   id="id-1dfe4ef2-6e81-48df-bd90-675ac7dd45bb" />
              </g>
            </g>
            <g
               style="fill:#000000;fill-opacity:1"
               id="id-6c66caf0-b6c1-41ec-8ea8-ebcde2e4d998">
              <g
                 transform="translate(156.192,134.765)"
                 id="g2286">
                <path
                   style="stroke:none;stroke-width:0"
                   d="m 6.5625,-2.296875 c 0.171875,0 0.359375,0 0.359375,-0.203125 0,-0.1875 -0.1875,-0.1875 -0.359375,-0.1875 H 1.171875 c -0.171875,0 -0.34375,0 -0.34375,0.1875 0,0.203125 0.171875,0.203125 0.34375,0.203125 z m 0,0"
                   id="id-f1fd2e6c-b7ee-4abd-916b-3915c2814831" />
              </g>
            </g>
            <g
               style="fill:#000000;fill-opacity:1"
               id="id-65d52601-ecf9-4363-8fc4-518582f85d5f">
              <g
                 transform="translate(166.155,134.765)"
                 id="g2290">
                <path
                   style="stroke:none;stroke-width:0"
                   d="M 2.625,-4.359375 C 1.390625,-4.0625 0.421875,-2.765625 0.421875,-1.5625 0.421875,-0.59375 1.0625,0.125 2,0.125 c 1.15625,0 1.984375,-1.578125 1.984375,-2.953125 0,-0.90625 -0.390625,-1.40625 -0.734375,-1.84375 C 2.890625,-5.125 2.296875,-5.875 2.296875,-6.3125 c 0,-0.21875 0.203125,-0.453125 0.546875,-0.453125 0.3125,0 0.5,0.125 0.71875,0.265625 0.203125,0.125 0.390625,0.25 0.546875,0.25 C 4.359375,-6.25 4.5,-6.484375 4.5,-6.65625 4.5,-6.875 4.34375,-6.890625 3.984375,-6.984375 3.46875,-7.09375 3.328125,-7.09375 3.171875,-7.09375 c -0.78125,0 -1.140625,0.4375 -1.140625,1.03125 0,0.546875 0.296875,1.09375 0.59375,1.703125 z m 0.125,0.21875 c 0.25,0.46875 0.546875,1 0.546875,1.71875 0,0.65625 -0.375,2.328125 -1.296875,2.328125 -0.546875,0 -0.96875,-0.421875 -0.96875,-1.1875 0,-0.625 0.375,-2.5 1.71875,-2.859375 z m 0,0"
                   id="id-3ee04e81-6eae-4d43-9b03-07c6a0db17ce" />
              </g>
            </g>
          </g>
        </g>
        <g
           transform="matrix(0.23480051,0,0,0.23480051,60.881475,119.25905)"
           ns3:version="1.3.1"
           ns3:texconverter="pdflatex"
           ns3:pdfconverter="inkscape"
           ns3:text="$a + \\delta$\n"
           ns3:preamble="/Users/ketiboldiais/Library/Application Support/org.inkscape.Inkscape/config/inkscape/extensions/inkscapeMadeEasy/basicLatexPackages.tex"
           ns3:scale="1.0"
           ns3:alignment="middle center"
           ns3:jacobian_sqrt="0.352778"
           id="g2443">
          <defs
             id="id-22bc3a6b-d6b3-4a86-be37-865f5b5473da">
            <g
               id="id-91bd9294-0a74-44f4-a344-320d2f4dd19b">
              <symbol
                 overflow="visible"
                 id="id-a62bdad2-b44b-4cb7-a3b1-bd56b1cf406d">
                <path
                   style="stroke:none;stroke-width:0"
                   d=""
                   id="id-e4d39525-134c-44fb-82fb-7eb22e7d8951" />
              </symbol>
              <symbol
                 overflow="visible"
                 id="id-46056765-d50a-48f4-b3d0-4bdb23ebb22b">
                <path
                   style="stroke:none;stroke-width:0"
                   d="M 3.71875,-3.765625 C 3.53125,-4.140625 3.25,-4.40625 2.796875,-4.40625 c -1.15625,0 -2.390625,1.46875 -2.390625,2.921875 0,0.9375 0.546875,1.59375 1.3125,1.59375 0.203125,0 0.703125,-0.046875 1.296875,-0.75 0.078125,0.421875 0.4375,0.75 0.90625,0.75 0.359375,0 0.578125,-0.234375 0.75,-0.546875 0.15625,-0.359375 0.296875,-0.96875 0.296875,-0.984375 0,-0.109375 -0.09375,-0.109375 -0.125,-0.109375 -0.09375,0 -0.109375,0.046875 -0.140625,0.1875 -0.171875,0.640625 -0.34375,1.234375 -0.75,1.234375 -0.28125,0 -0.296875,-0.265625 -0.296875,-0.453125 0,-0.21875 0.015625,-0.3125 0.125,-0.75 C 3.890625,-1.71875 3.90625,-1.828125 4,-2.203125 L 4.359375,-3.59375 c 0.0625,-0.28125 0.0625,-0.296875 0.0625,-0.34375 0,-0.171875 -0.109375,-0.265625 -0.28125,-0.265625 -0.25,0 -0.390625,0.21875 -0.421875,0.4375 z M 3.078125,-1.1875 C 3.015625,-1 3.015625,-0.984375 2.875,-0.8125 2.4375,-0.265625 2.03125,-0.109375 1.75,-0.109375 c -0.5,0 -0.640625,-0.546875 -0.640625,-0.9375 0,-0.5 0.3125,-1.71875 0.546875,-2.1875 0.3125,-0.578125 0.75,-0.953125 1.15625,-0.953125 0.640625,0 0.78125,0.8125 0.78125,0.875 0,0.0625 -0.015625,0.125 -0.03125,0.171875 z m 0,0"
                   id="id-f282cac2-b9e5-49ad-91a1-aa61dc147f69" />
              </symbol>
              <symbol
                 overflow="visible"
                 id="id-c966d8a3-c060-4b50-857b-abbd4fca2229">
                <path
                   style="stroke:none;stroke-width:0"
                   d="M 2.625,-4.359375 C 1.390625,-4.0625 0.421875,-2.765625 0.421875,-1.5625 0.421875,-0.59375 1.0625,0.125 2,0.125 c 1.15625,0 1.984375,-1.578125 1.984375,-2.953125 0,-0.90625 -0.390625,-1.40625 -0.734375,-1.84375 C 2.890625,-5.125 2.296875,-5.875 2.296875,-6.3125 c 0,-0.21875 0.203125,-0.453125 0.546875,-0.453125 0.3125,0 0.5,0.125 0.71875,0.265625 0.203125,0.125 0.390625,0.25 0.546875,0.25 C 4.359375,-6.25 4.5,-6.484375 4.5,-6.65625 4.5,-6.875 4.34375,-6.890625 3.984375,-6.984375 3.46875,-7.09375 3.328125,-7.09375 3.171875,-7.09375 c -0.78125,0 -1.140625,0.4375 -1.140625,1.03125 0,0.546875 0.296875,1.09375 0.59375,1.703125 z m 0.125,0.21875 c 0.25,0.46875 0.546875,1 0.546875,1.71875 0,0.65625 -0.375,2.328125 -1.296875,2.328125 -0.546875,0 -0.96875,-0.421875 -0.96875,-1.1875 0,-0.625 0.375,-2.5 1.71875,-2.859375 z m 0,0"
                   id="id-83eb7273-5cfc-4d33-b199-e50dbb317451" />
              </symbol>
              <symbol
                 overflow="visible"
                 id="id-a754cd34-8314-4f0b-b672-7e0956b0de4c">
                <path
                   style="stroke:none;stroke-width:0"
                   d=""
                   id="id-35eba6d8-39ad-4a28-8e90-e499117b1f16" />
              </symbol>
              <symbol
                 overflow="visible"
                 id="id-8d79e582-0381-4f50-9edc-6eedbb6fde7e">
                <path
                   style="stroke:none;stroke-width:0"
                   d="m 4.078125,-2.296875 h 2.78125 C 7,-2.296875 7.1875,-2.296875 7.1875,-2.5 7.1875,-2.6875 7,-2.6875 6.859375,-2.6875 h -2.78125 v -2.796875 c 0,-0.140625 0,-0.328125 -0.203125,-0.328125 -0.203125,0 -0.203125,0.1875 -0.203125,0.328125 V -2.6875 h -2.78125 c -0.140625,0 -0.328125,0 -0.328125,0.1875 0,0.203125 0.1875,0.203125 0.328125,0.203125 h 2.78125 V 0.5 c 0,0.140625 0,0.328125 0.203125,0.328125 0.203125,0 0.203125,-0.1875 0.203125,-0.328125 z m 0,0"
                   id="id-2efcd3f2-a82e-422a-bb5d-35894b17b49d" />
              </symbol>
            </g>
          </defs>
          <g
             id="id-2e5b800f-ad40-4bc2-8348-d3f21c31467e"
             transform="translate(-149.118,-127.671)">
            <g
               style="fill:#000000;fill-opacity:1"
               id="id-cc4aafd9-5607-4407-92f3-c86a30d632d9">
              <g
                 transform="translate(148.712,134.765)"
                 id="g2431">
                <path
                   style="stroke:none;stroke-width:0"
                   d="M 3.71875,-3.765625 C 3.53125,-4.140625 3.25,-4.40625 2.796875,-4.40625 c -1.15625,0 -2.390625,1.46875 -2.390625,2.921875 0,0.9375 0.546875,1.59375 1.3125,1.59375 0.203125,0 0.703125,-0.046875 1.296875,-0.75 0.078125,0.421875 0.4375,0.75 0.90625,0.75 0.359375,0 0.578125,-0.234375 0.75,-0.546875 0.15625,-0.359375 0.296875,-0.96875 0.296875,-0.984375 0,-0.109375 -0.09375,-0.109375 -0.125,-0.109375 -0.09375,0 -0.109375,0.046875 -0.140625,0.1875 -0.171875,0.640625 -0.34375,1.234375 -0.75,1.234375 -0.28125,0 -0.296875,-0.265625 -0.296875,-0.453125 0,-0.21875 0.015625,-0.3125 0.125,-0.75 C 3.890625,-1.71875 3.90625,-1.828125 4,-2.203125 L 4.359375,-3.59375 c 0.0625,-0.28125 0.0625,-0.296875 0.0625,-0.34375 0,-0.171875 -0.109375,-0.265625 -0.28125,-0.265625 -0.25,0 -0.390625,0.21875 -0.421875,0.4375 z M 3.078125,-1.1875 C 3.015625,-1 3.015625,-0.984375 2.875,-0.8125 2.4375,-0.265625 2.03125,-0.109375 1.75,-0.109375 c -0.5,0 -0.640625,-0.546875 -0.640625,-0.9375 0,-0.5 0.3125,-1.71875 0.546875,-2.1875 0.3125,-0.578125 0.75,-0.953125 1.15625,-0.953125 0.640625,0 0.78125,0.8125 0.78125,0.875 0,0.0625 -0.015625,0.125 -0.03125,0.171875 z m 0,0"
                   id="id-4a214227-247a-43d8-898b-c8c50b1be1b1" />
              </g>
            </g>
            <g
               style="fill:#000000;fill-opacity:1"
               id="id-6aae679a-c51e-4771-a27d-e9b5e85bc3a1">
              <g
                 transform="translate(156.192,134.765)"
                 id="g2435">
                <path
                   style="stroke:none;stroke-width:0"
                   d="m 4.078125,-2.296875 h 2.78125 C 7,-2.296875 7.1875,-2.296875 7.1875,-2.5 7.1875,-2.6875 7,-2.6875 6.859375,-2.6875 h -2.78125 v -2.796875 c 0,-0.140625 0,-0.328125 -0.203125,-0.328125 -0.203125,0 -0.203125,0.1875 -0.203125,0.328125 V -2.6875 h -2.78125 c -0.140625,0 -0.328125,0 -0.328125,0.1875 0,0.203125 0.1875,0.203125 0.328125,0.203125 h 2.78125 V 0.5 c 0,0.140625 0,0.328125 0.203125,0.328125 0.203125,0 0.203125,-0.1875 0.203125,-0.328125 z m 0,0"
                   id="id-2c9a12b3-348a-4d7c-ad6a-134d49528cda" />
              </g>
            </g>
            <g
               style="fill:#000000;fill-opacity:1"
               id="id-2c54cde1-003c-447e-8719-095509d9ade7">
              <g
                 transform="translate(166.155,134.765)"
                 id="g2439">
                <path
                   style="stroke:none;stroke-width:0"
                   d="M 2.625,-4.359375 C 1.390625,-4.0625 0.421875,-2.765625 0.421875,-1.5625 0.421875,-0.59375 1.0625,0.125 2,0.125 c 1.15625,0 1.984375,-1.578125 1.984375,-2.953125 0,-0.90625 -0.390625,-1.40625 -0.734375,-1.84375 C 2.890625,-5.125 2.296875,-5.875 2.296875,-6.3125 c 0,-0.21875 0.203125,-0.453125 0.546875,-0.453125 0.3125,0 0.5,0.125 0.71875,0.265625 0.203125,0.125 0.390625,0.25 0.546875,0.25 C 4.359375,-6.25 4.5,-6.484375 4.5,-6.65625 4.5,-6.875 4.34375,-6.890625 3.984375,-6.984375 3.46875,-7.09375 3.328125,-7.09375 3.171875,-7.09375 c -0.78125,0 -1.140625,0.4375 -1.140625,1.03125 0,0.546875 0.296875,1.09375 0.59375,1.703125 z m 0.125,0.21875 c 0.25,0.46875 0.546875,1 0.546875,1.71875 0,0.65625 -0.375,2.328125 -1.296875,2.328125 -0.546875,0 -0.96875,-0.421875 -0.96875,-1.1875 0,-0.625 0.375,-2.5 1.71875,-2.859375 z m 0,0"
                   id="id-c0cdf246-c016-42a6-b116-f3cdd0958517" />
              </g>
            </g>
          </g>
        </g>
        <path
           style="fill:none;stroke:#000000;stroke-width:0.289837px;stroke-linecap:butt;stroke-linejoin:miter;stroke-opacity:1"
           d="m 42.333333,115.62292 v 1.5875"
           id="path2524" />
        <path
           style="fill:none;stroke:#000000;stroke-width:0.289837px;stroke-linecap:butt;stroke-linejoin:miter;stroke-opacity:1"
           d="m 47.625,115.62292 v 1.5875"
           id="path2766" />
        <path
           style="fill:none;stroke:#000000;stroke-width:0.289837px;stroke-linecap:butt;stroke-linejoin:miter;stroke-opacity:1"
           d="m 55.5625,115.62292 v 1.5875"
           id="path2848" />
        <path
           style="fill:none;stroke:#000000;stroke-width:0.289837px;stroke-linecap:butt;stroke-linejoin:miter;stroke-opacity:1"
           d="m 63.5,115.62292 v 1.5875"
           id="path2930" />
        <path
           style="fill:none;stroke:#000000;stroke-width:0.289837px;stroke-linecap:butt;stroke-linejoin:miter;stroke-opacity:1"
           d="m 68.791667,115.62292 v 1.5875"
           id="path3012" />
      </g>
      <g
         id="g1277"
         transform="translate(-6.666667e-7,27.25207)">
        <text
           xml:space="preserve"
           style="font-size:4.23333px;line-height:1.25;font-family:'CMU Serif';-inkscape-font-specification:'CMU Serif, Normal';text-align:center;letter-spacing:0px;word-spacing:0px;text-anchor:middle;stroke:#df8f87;stroke-width:0.264583;stroke-opacity:0.888889"
           x="97.900314"
           y="117.44014"
           id="text4306"><tspan
             sodipodi:role="line"
             id="tspan4304"
             style="stroke:#df8f87;stroke-width:0.264583;stroke-opacity:0.888889"
             x="97.900314"
             y="117.44014">]</tspan></text>
        <text
           xml:space="preserve"
           style="font-size:4.23333px;line-height:1.25;font-family:'CMU Serif';-inkscape-font-specification:'CMU Serif, Normal';text-align:center;letter-spacing:0px;word-spacing:0px;text-anchor:middle;stroke:#df8f87;stroke-width:0.264583;stroke-opacity:0.888889"
           x="90.22982"
           y="117.43661"
           id="text4628"><tspan
             sodipodi:role="line"
             id="tspan4626"
             style="stroke:#df8f87;stroke-width:0.264583;stroke-opacity:0.888889"
             x="90.22982"
             y="117.43661">(</tspan></text>
        <path
           style="fill:none;stroke:#000000;stroke-width:0.264583px;stroke-linecap:butt;stroke-linejoin:miter;stroke-opacity:1;marker-start:url(#TriangleInM);marker-end:url(#TriangleOutM)"
           d="M 79.375002,116.41667 H 116.41668"
           id="path3106" />
        <path
           style="fill:none;stroke:#000000;stroke-width:0.289837px;stroke-linecap:butt;stroke-linejoin:miter;stroke-opacity:1"
           d="m 84.666669,115.62292 v 1.5875"
           id="path3108" />
        <path
           style="fill:none;stroke:#000000;stroke-width:0.289837px;stroke-linecap:butt;stroke-linejoin:miter;stroke-opacity:1"
           d="m 89.958336,115.62292 v 1.5875"
           id="path3110" />
        <path
           style="fill:none;stroke:#000000;stroke-width:0.289837px;stroke-linecap:butt;stroke-linejoin:miter;stroke-opacity:1"
           d="m 97.895836,115.62292 v 1.5875"
           id="path3112" />
        <path
           style="fill:none;stroke:#000000;stroke-width:0.289837px;stroke-linecap:butt;stroke-linejoin:miter;stroke-opacity:1"
           d="m 105.83334,115.62292 v 1.5875"
           id="path3114" />
        <path
           style="fill:none;stroke:#000000;stroke-width:0.289837px;stroke-linecap:butt;stroke-linejoin:miter;stroke-opacity:1"
           d="m 111.12501,115.62292 v 1.5875"
           id="path3116" />
        <text
           xml:space="preserve"
           style="font-size:3.04531px;line-height:1.25;font-family:'CMU Serif';-inkscape-font-specification:'CMU Serif, Normal';text-align:center;letter-spacing:0px;word-spacing:0px;text-anchor:middle;stroke-width:0.19034"
           x="97.695839"
           y="121.04117"
           id="text3132"><tspan
             sodipodi:role="line"
             id="tspan3130"
             style="font-style:italic;stroke-width:0.19034"
             x="97.695839"
             y="121.04117">a</tspan></text>
        <g
           transform="matrix(0.23480051,0,0,0.23480051,87.429855,119.53787)"
           ns3:version="1.3.1"
           ns3:texconverter="pdflatex"
           ns3:pdfconverter="inkscape"
           ns3:text="$a - \\delta$\n"
           ns3:preamble="/Users/ketiboldiais/Library/Application Support/org.inkscape.Inkscape/config/inkscape/extensions/inkscapeMadeEasy/basicLatexPackages.tex"
           ns3:scale="1.0"
           ns3:alignment="middle center"
           ns3:jacobian_sqrt="0.352778"
           id="g3182">
          <defs
             id="defs3160">
            <g
               id="g3158">
              <symbol
                 overflow="visible"
                 id="symbol3140">
                <path
                   style="stroke:none;stroke-width:0"
                   d=""
                   id="path3138" />
              </symbol>
              <symbol
                 overflow="visible"
                 id="symbol3144">
                <path
                   style="stroke:none;stroke-width:0"
                   d="M 3.71875,-3.765625 C 3.53125,-4.140625 3.25,-4.40625 2.796875,-4.40625 c -1.15625,0 -2.390625,1.46875 -2.390625,2.921875 0,0.9375 0.546875,1.59375 1.3125,1.59375 0.203125,0 0.703125,-0.046875 1.296875,-0.75 0.078125,0.421875 0.4375,0.75 0.90625,0.75 0.359375,0 0.578125,-0.234375 0.75,-0.546875 0.15625,-0.359375 0.296875,-0.96875 0.296875,-0.984375 0,-0.109375 -0.09375,-0.109375 -0.125,-0.109375 -0.09375,0 -0.109375,0.046875 -0.140625,0.1875 -0.171875,0.640625 -0.34375,1.234375 -0.75,1.234375 -0.28125,0 -0.296875,-0.265625 -0.296875,-0.453125 0,-0.21875 0.015625,-0.3125 0.125,-0.75 C 3.890625,-1.71875 3.90625,-1.828125 4,-2.203125 L 4.359375,-3.59375 c 0.0625,-0.28125 0.0625,-0.296875 0.0625,-0.34375 0,-0.171875 -0.109375,-0.265625 -0.28125,-0.265625 -0.25,0 -0.390625,0.21875 -0.421875,0.4375 z M 3.078125,-1.1875 C 3.015625,-1 3.015625,-0.984375 2.875,-0.8125 2.4375,-0.265625 2.03125,-0.109375 1.75,-0.109375 c -0.5,0 -0.640625,-0.546875 -0.640625,-0.9375 0,-0.5 0.3125,-1.71875 0.546875,-2.1875 0.3125,-0.578125 0.75,-0.953125 1.15625,-0.953125 0.640625,0 0.78125,0.8125 0.78125,0.875 0,0.0625 -0.015625,0.125 -0.03125,0.171875 z m 0,0"
                   id="path3142" />
              </symbol>
              <symbol
                 overflow="visible"
                 id="symbol3148">
                <path
                   style="stroke:none;stroke-width:0"
                   d="M 2.625,-4.359375 C 1.390625,-4.0625 0.421875,-2.765625 0.421875,-1.5625 0.421875,-0.59375 1.0625,0.125 2,0.125 c 1.15625,0 1.984375,-1.578125 1.984375,-2.953125 0,-0.90625 -0.390625,-1.40625 -0.734375,-1.84375 C 2.890625,-5.125 2.296875,-5.875 2.296875,-6.3125 c 0,-0.21875 0.203125,-0.453125 0.546875,-0.453125 0.3125,0 0.5,0.125 0.71875,0.265625 0.203125,0.125 0.390625,0.25 0.546875,0.25 C 4.359375,-6.25 4.5,-6.484375 4.5,-6.65625 4.5,-6.875 4.34375,-6.890625 3.984375,-6.984375 3.46875,-7.09375 3.328125,-7.09375 3.171875,-7.09375 c -0.78125,0 -1.140625,0.4375 -1.140625,1.03125 0,0.546875 0.296875,1.09375 0.59375,1.703125 z m 0.125,0.21875 c 0.25,0.46875 0.546875,1 0.546875,1.71875 0,0.65625 -0.375,2.328125 -1.296875,2.328125 -0.546875,0 -0.96875,-0.421875 -0.96875,-1.1875 0,-0.625 0.375,-2.5 1.71875,-2.859375 z m 0,0"
                   id="path3146" />
              </symbol>
              <symbol
                 overflow="visible"
                 id="symbol3152">
                <path
                   style="stroke:none;stroke-width:0"
                   d=""
                   id="path3150" />
              </symbol>
              <symbol
                 overflow="visible"
                 id="symbol3156">
                <path
                   style="stroke:none;stroke-width:0"
                   d="m 6.5625,-2.296875 c 0.171875,0 0.359375,0 0.359375,-0.203125 0,-0.1875 -0.1875,-0.1875 -0.359375,-0.1875 H 1.171875 c -0.171875,0 -0.34375,0 -0.34375,0.1875 0,0.203125 0.171875,0.203125 0.34375,0.203125 z m 0,0"
                   id="path3154" />
              </symbol>
            </g>
          </defs>
          <g
             id="g3180"
             transform="translate(-149.118,-127.671)">
            <g
               style="fill:#000000;fill-opacity:1"
               id="g3166">
              <g
                 transform="translate(148.712,134.765)"
                 id="g3164">
                <path
                   style="stroke:none;stroke-width:0"
                   d="M 3.71875,-3.765625 C 3.53125,-4.140625 3.25,-4.40625 2.796875,-4.40625 c -1.15625,0 -2.390625,1.46875 -2.390625,2.921875 0,0.9375 0.546875,1.59375 1.3125,1.59375 0.203125,0 0.703125,-0.046875 1.296875,-0.75 0.078125,0.421875 0.4375,0.75 0.90625,0.75 0.359375,0 0.578125,-0.234375 0.75,-0.546875 0.15625,-0.359375 0.296875,-0.96875 0.296875,-0.984375 0,-0.109375 -0.09375,-0.109375 -0.125,-0.109375 -0.09375,0 -0.109375,0.046875 -0.140625,0.1875 -0.171875,0.640625 -0.34375,1.234375 -0.75,1.234375 -0.28125,0 -0.296875,-0.265625 -0.296875,-0.453125 0,-0.21875 0.015625,-0.3125 0.125,-0.75 C 3.890625,-1.71875 3.90625,-1.828125 4,-2.203125 L 4.359375,-3.59375 c 0.0625,-0.28125 0.0625,-0.296875 0.0625,-0.34375 0,-0.171875 -0.109375,-0.265625 -0.28125,-0.265625 -0.25,0 -0.390625,0.21875 -0.421875,0.4375 z M 3.078125,-1.1875 C 3.015625,-1 3.015625,-0.984375 2.875,-0.8125 2.4375,-0.265625 2.03125,-0.109375 1.75,-0.109375 c -0.5,0 -0.640625,-0.546875 -0.640625,-0.9375 0,-0.5 0.3125,-1.71875 0.546875,-2.1875 0.3125,-0.578125 0.75,-0.953125 1.15625,-0.953125 0.640625,0 0.78125,0.8125 0.78125,0.875 0,0.0625 -0.015625,0.125 -0.03125,0.171875 z m 0,0"
                   id="path3162" />
              </g>
            </g>
            <g
               style="fill:#000000;fill-opacity:1"
               id="g3172">
              <g
                 transform="translate(156.192,134.765)"
                 id="g3170">
                <path
                   style="stroke:none;stroke-width:0"
                   d="m 6.5625,-2.296875 c 0.171875,0 0.359375,0 0.359375,-0.203125 0,-0.1875 -0.1875,-0.1875 -0.359375,-0.1875 H 1.171875 c -0.171875,0 -0.34375,0 -0.34375,0.1875 0,0.203125 0.171875,0.203125 0.34375,0.203125 z m 0,0"
                   id="path3168" />
              </g>
            </g>
            <g
               style="fill:#000000;fill-opacity:1"
               id="g3178">
              <g
                 transform="translate(166.155,134.765)"
                 id="g3176">
                <path
                   style="stroke:none;stroke-width:0"
                   d="M 2.625,-4.359375 C 1.390625,-4.0625 0.421875,-2.765625 0.421875,-1.5625 0.421875,-0.59375 1.0625,0.125 2,0.125 c 1.15625,0 1.984375,-1.578125 1.984375,-2.953125 0,-0.90625 -0.390625,-1.40625 -0.734375,-1.84375 C 2.890625,-5.125 2.296875,-5.875 2.296875,-6.3125 c 0,-0.21875 0.203125,-0.453125 0.546875,-0.453125 0.3125,0 0.5,0.125 0.71875,0.265625 0.203125,0.125 0.390625,0.25 0.546875,0.25 C 4.359375,-6.25 4.5,-6.484375 4.5,-6.65625 4.5,-6.875 4.34375,-6.890625 3.984375,-6.984375 3.46875,-7.09375 3.328125,-7.09375 3.171875,-7.09375 c -0.78125,0 -1.140625,0.4375 -1.140625,1.03125 0,0.546875 0.296875,1.09375 0.59375,1.703125 z m 0.125,0.21875 c 0.25,0.46875 0.546875,1 0.546875,1.71875 0,0.65625 -0.375,2.328125 -1.296875,2.328125 -0.546875,0 -0.96875,-0.421875 -0.96875,-1.1875 0,-0.625 0.375,-2.5 1.71875,-2.859375 z m 0,0"
                   id="path3174" />
              </g>
            </g>
          </g>
        </g>
      </g>
      <g
         id="g1314"
         transform="translate(-42.33336,41.092609)">
        <text
           xml:space="preserve"
           style="font-size:4.23333px;line-height:1.25;font-family:'CMU Serif';-inkscape-font-specification:'CMU Serif, Normal';text-align:center;letter-spacing:0px;word-spacing:0px;text-anchor:middle;stroke:#df8f87;stroke-width:0.264583;stroke-opacity:0.888889"
           x="147.96306"
           y="117.37059"
           id="text5346"><tspan
             sodipodi:role="line"
             id="tspan5344"
             style="stroke:#df8f87;stroke-width:0.264583;stroke-opacity:0.888889"
             x="147.96306"
             y="117.37059">)</tspan></text>
        <text
           xml:space="preserve"
           style="font-size:4.23333px;line-height:1.25;font-family:'CMU Serif';-inkscape-font-specification:'CMU Serif, Normal';text-align:center;letter-spacing:0px;word-spacing:0px;text-anchor:middle;stroke:#df8f87;stroke-width:0.264583;stroke-opacity:0.888889"
           x="140.23088"
           y="117.44014"
           id="text5932"><tspan
             sodipodi:role="line"
             id="tspan5930"
             style="stroke:#df8f87;stroke-width:0.264583;stroke-opacity:0.888889"
             x="140.23088"
             y="117.44014">[</tspan></text>
        <path
           style="fill:none;stroke:#000000;stroke-width:0.264583px;stroke-linecap:butt;stroke-linejoin:miter;stroke-opacity:1;marker-start:url(#TriangleInM);marker-end:url(#TriangleOutM)"
           d="m 121.70835,116.41667 h 37.04169"
           id="path3118" />
        <path
           style="fill:none;stroke:#000000;stroke-width:0.289837px;stroke-linecap:butt;stroke-linejoin:miter;stroke-opacity:1"
           d="m 127.00002,115.62292 v 1.5875"
           id="path3120" />
        <path
           style="fill:none;stroke:#000000;stroke-width:0.289837px;stroke-linecap:butt;stroke-linejoin:miter;stroke-opacity:1"
           d="m 132.29169,115.62292 v 1.5875"
           id="path3122" />
        <path
           style="fill:none;stroke:#000000;stroke-width:0.289837px;stroke-linecap:butt;stroke-linejoin:miter;stroke-opacity:1"
           d="m 140.22919,115.62292 v 1.5875"
           id="path3124" />
        <path
           style="fill:none;stroke:#000000;stroke-width:0.289837px;stroke-linecap:butt;stroke-linejoin:miter;stroke-opacity:1"
           d="m 148.1667,115.62292 v 1.5875"
           id="path3126" />
        <path
           style="fill:none;stroke:#000000;stroke-width:0.289837px;stroke-linecap:butt;stroke-linejoin:miter;stroke-opacity:1"
           d="m 153.45837,115.62292 v 1.5875"
           id="path3128" />
        <text
           xml:space="preserve"
           style="font-size:3.04531px;line-height:1.25;font-family:'CMU Serif';-inkscape-font-specification:'CMU Serif, Normal';text-align:center;letter-spacing:0px;word-spacing:0px;text-anchor:middle;stroke-width:0.19034"
           x="140.02917"
           y="121.04117"
           id="text3136"><tspan
             sodipodi:role="line"
             id="tspan3134"
             style="font-style:italic;stroke-width:0.19034"
             x="140.02917"
             y="121.04117">a</tspan></text>
        <g
           transform="matrix(0.23480051,0,0,0.23480051,145.54814,119.25905)"
           ns3:version="1.3.1"
           ns3:texconverter="pdflatex"
           ns3:pdfconverter="inkscape"
           ns3:text="$a + \\delta$\n"
           ns3:preamble="/Users/ketiboldiais/Library/Application Support/org.inkscape.Inkscape/config/inkscape/extensions/inkscapeMadeEasy/basicLatexPackages.tex"
           ns3:scale="1.0"
           ns3:alignment="middle center"
           ns3:jacobian_sqrt="0.352778"
           id="g3228">
          <defs
             id="defs3206">
            <g
               id="g3204">
              <symbol
                 overflow="visible"
                 id="symbol3186">
                <path
                   style="stroke:none;stroke-width:0"
                   d=""
                   id="path3184" />
              </symbol>
              <symbol
                 overflow="visible"
                 id="symbol3190">
                <path
                   style="stroke:none;stroke-width:0"
                   d="M 3.71875,-3.765625 C 3.53125,-4.140625 3.25,-4.40625 2.796875,-4.40625 c -1.15625,0 -2.390625,1.46875 -2.390625,2.921875 0,0.9375 0.546875,1.59375 1.3125,1.59375 0.203125,0 0.703125,-0.046875 1.296875,-0.75 0.078125,0.421875 0.4375,0.75 0.90625,0.75 0.359375,0 0.578125,-0.234375 0.75,-0.546875 0.15625,-0.359375 0.296875,-0.96875 0.296875,-0.984375 0,-0.109375 -0.09375,-0.109375 -0.125,-0.109375 -0.09375,0 -0.109375,0.046875 -0.140625,0.1875 -0.171875,0.640625 -0.34375,1.234375 -0.75,1.234375 -0.28125,0 -0.296875,-0.265625 -0.296875,-0.453125 0,-0.21875 0.015625,-0.3125 0.125,-0.75 C 3.890625,-1.71875 3.90625,-1.828125 4,-2.203125 L 4.359375,-3.59375 c 0.0625,-0.28125 0.0625,-0.296875 0.0625,-0.34375 0,-0.171875 -0.109375,-0.265625 -0.28125,-0.265625 -0.25,0 -0.390625,0.21875 -0.421875,0.4375 z M 3.078125,-1.1875 C 3.015625,-1 3.015625,-0.984375 2.875,-0.8125 2.4375,-0.265625 2.03125,-0.109375 1.75,-0.109375 c -0.5,0 -0.640625,-0.546875 -0.640625,-0.9375 0,-0.5 0.3125,-1.71875 0.546875,-2.1875 0.3125,-0.578125 0.75,-0.953125 1.15625,-0.953125 0.640625,0 0.78125,0.8125 0.78125,0.875 0,0.0625 -0.015625,0.125 -0.03125,0.171875 z m 0,0"
                   id="path3188" />
              </symbol>
              <symbol
                 overflow="visible"
                 id="symbol3194">
                <path
                   style="stroke:none;stroke-width:0"
                   d="M 2.625,-4.359375 C 1.390625,-4.0625 0.421875,-2.765625 0.421875,-1.5625 0.421875,-0.59375 1.0625,0.125 2,0.125 c 1.15625,0 1.984375,-1.578125 1.984375,-2.953125 0,-0.90625 -0.390625,-1.40625 -0.734375,-1.84375 C 2.890625,-5.125 2.296875,-5.875 2.296875,-6.3125 c 0,-0.21875 0.203125,-0.453125 0.546875,-0.453125 0.3125,0 0.5,0.125 0.71875,0.265625 0.203125,0.125 0.390625,0.25 0.546875,0.25 C 4.359375,-6.25 4.5,-6.484375 4.5,-6.65625 4.5,-6.875 4.34375,-6.890625 3.984375,-6.984375 3.46875,-7.09375 3.328125,-7.09375 3.171875,-7.09375 c -0.78125,0 -1.140625,0.4375 -1.140625,1.03125 0,0.546875 0.296875,1.09375 0.59375,1.703125 z m 0.125,0.21875 c 0.25,0.46875 0.546875,1 0.546875,1.71875 0,0.65625 -0.375,2.328125 -1.296875,2.328125 -0.546875,0 -0.96875,-0.421875 -0.96875,-1.1875 0,-0.625 0.375,-2.5 1.71875,-2.859375 z m 0,0"
                   id="path3192" />
              </symbol>
              <symbol
                 overflow="visible"
                 id="symbol3198">
                <path
                   style="stroke:none;stroke-width:0"
                   d=""
                   id="path3196" />
              </symbol>
              <symbol
                 overflow="visible"
                 id="symbol3202">
                <path
                   style="stroke:none;stroke-width:0"
                   d="m 4.078125,-2.296875 h 2.78125 C 7,-2.296875 7.1875,-2.296875 7.1875,-2.5 7.1875,-2.6875 7,-2.6875 6.859375,-2.6875 h -2.78125 v -2.796875 c 0,-0.140625 0,-0.328125 -0.203125,-0.328125 -0.203125,0 -0.203125,0.1875 -0.203125,0.328125 V -2.6875 h -2.78125 c -0.140625,0 -0.328125,0 -0.328125,0.1875 0,0.203125 0.1875,0.203125 0.328125,0.203125 h 2.78125 V 0.5 c 0,0.140625 0,0.328125 0.203125,0.328125 0.203125,0 0.203125,-0.1875 0.203125,-0.328125 z m 0,0"
                   id="path3200" />
              </symbol>
            </g>
          </defs>
          <g
             id="g3226"
             transform="translate(-149.118,-127.671)">
            <g
               style="fill:#000000;fill-opacity:1"
               id="g3212">
              <g
                 transform="translate(148.712,134.765)"
                 id="g3210">
                <path
                   style="stroke:none;stroke-width:0"
                   d="M 3.71875,-3.765625 C 3.53125,-4.140625 3.25,-4.40625 2.796875,-4.40625 c -1.15625,0 -2.390625,1.46875 -2.390625,2.921875 0,0.9375 0.546875,1.59375 1.3125,1.59375 0.203125,0 0.703125,-0.046875 1.296875,-0.75 0.078125,0.421875 0.4375,0.75 0.90625,0.75 0.359375,0 0.578125,-0.234375 0.75,-0.546875 0.15625,-0.359375 0.296875,-0.96875 0.296875,-0.984375 0,-0.109375 -0.09375,-0.109375 -0.125,-0.109375 -0.09375,0 -0.109375,0.046875 -0.140625,0.1875 -0.171875,0.640625 -0.34375,1.234375 -0.75,1.234375 -0.28125,0 -0.296875,-0.265625 -0.296875,-0.453125 0,-0.21875 0.015625,-0.3125 0.125,-0.75 C 3.890625,-1.71875 3.90625,-1.828125 4,-2.203125 L 4.359375,-3.59375 c 0.0625,-0.28125 0.0625,-0.296875 0.0625,-0.34375 0,-0.171875 -0.109375,-0.265625 -0.28125,-0.265625 -0.25,0 -0.390625,0.21875 -0.421875,0.4375 z M 3.078125,-1.1875 C 3.015625,-1 3.015625,-0.984375 2.875,-0.8125 2.4375,-0.265625 2.03125,-0.109375 1.75,-0.109375 c -0.5,0 -0.640625,-0.546875 -0.640625,-0.9375 0,-0.5 0.3125,-1.71875 0.546875,-2.1875 0.3125,-0.578125 0.75,-0.953125 1.15625,-0.953125 0.640625,0 0.78125,0.8125 0.78125,0.875 0,0.0625 -0.015625,0.125 -0.03125,0.171875 z m 0,0"
                   id="path3208" />
              </g>
            </g>
            <g
               style="fill:#000000;fill-opacity:1"
               id="g3218">
              <g
                 transform="translate(156.192,134.765)"
                 id="g3216">
                <path
                   style="stroke:none;stroke-width:0"
                   d="m 4.078125,-2.296875 h 2.78125 C 7,-2.296875 7.1875,-2.296875 7.1875,-2.5 7.1875,-2.6875 7,-2.6875 6.859375,-2.6875 h -2.78125 v -2.796875 c 0,-0.140625 0,-0.328125 -0.203125,-0.328125 -0.203125,0 -0.203125,0.1875 -0.203125,0.328125 V -2.6875 h -2.78125 c -0.140625,0 -0.328125,0 -0.328125,0.1875 0,0.203125 0.1875,0.203125 0.328125,0.203125 h 2.78125 V 0.5 c 0,0.140625 0,0.328125 0.203125,0.328125 0.203125,0 0.203125,-0.1875 0.203125,-0.328125 z m 0,0"
                   id="path3214" />
              </g>
            </g>
            <g
               style="fill:#000000;fill-opacity:1"
               id="g3224">
              <g
                 transform="translate(166.155,134.765)"
                 id="g3222">
                <path
                   style="stroke:none;stroke-width:0"
                   d="M 2.625,-4.359375 C 1.390625,-4.0625 0.421875,-2.765625 0.421875,-1.5625 0.421875,-0.59375 1.0625,0.125 2,0.125 c 1.15625,0 1.984375,-1.578125 1.984375,-2.953125 0,-0.90625 -0.390625,-1.40625 -0.734375,-1.84375 C 2.890625,-5.125 2.296875,-5.875 2.296875,-6.3125 c 0,-0.21875 0.203125,-0.453125 0.546875,-0.453125 0.3125,0 0.5,0.125 0.71875,0.265625 0.203125,0.125 0.390625,0.25 0.546875,0.25 C 4.359375,-6.25 4.5,-6.484375 4.5,-6.65625 4.5,-6.875 4.34375,-6.890625 3.984375,-6.984375 3.46875,-7.09375 3.328125,-7.09375 3.171875,-7.09375 c -0.78125,0 -1.140625,0.4375 -1.140625,1.03125 0,0.546875 0.296875,1.09375 0.59375,1.703125 z m 0.125,0.21875 c 0.25,0.46875 0.546875,1 0.546875,1.71875 0,0.65625 -0.375,2.328125 -1.296875,2.328125 -0.546875,0 -0.96875,-0.421875 -0.96875,-1.1875 0,-0.625 0.375,-2.5 1.71875,-2.859375 z m 0,0"
                   id="path3220" />
              </g>
            </g>
          </g>
        </g>
      </g>
    </g>
  </g>
</svg>
