<?xml version="1.0" encoding="UTF-8" standalone="no"?>
<!-- Created with Inkscape (http://www.inkscape.org/) -->

<svg
   width="40.683815mm"
   height="3.3936565mm"
   viewBox="0 0 40.683815 3.3936565"
   version="1.1"
   id="svg1975"
   inkscape:version="1.1 (c4e8f9e, 2021-05-24)"
   sodipodi:docname="open_b_infinity.svg"
   xmlns:inkscape="http://www.inkscape.org/namespaces/inkscape"
   xmlns:sodipodi="http://sodipodi.sourceforge.net/DTD/sodipodi-0.dtd"
   xmlns="http://www.w3.org/2000/svg"
   xmlns:svg="http://www.w3.org/2000/svg"
   xmlns:ns2="http://www.iki.fi/pav/software/textext/">
  <sodipodi:namedview
     id="namedview1977"
     pagecolor="#ffffff"
     bordercolor="#666666"
     borderopacity="1.0"
     inkscape:pageshadow="2"
     inkscape:pageopacity="0.0"
     inkscape:pagecheckerboard="0"
     inkscape:document-units="mm"
     showgrid="false"
     inkscape:zoom="5.3664983"
     inkscape:cx="56.088716"
     inkscape:cy="-14.255106"
     inkscape:window-width="1312"
     inkscape:window-height="1003"
     inkscape:window-x="0"
     inkscape:window-y="25"
     inkscape:window-maximized="0"
     inkscape:current-layer="layer1">
    <inkscape:grid
       type="xygrid"
       id="grid2066"
       originx="-151.65412"
       originy="-197.69289" />
  </sodipodi:namedview>
  <defs
     id="defs1972">
    <marker
       style="overflow:visible"
       id="TriangleInM"
       refX="0"
       refY="0"
       orient="auto"
       inkscape:stockid="TriangleInM"
       inkscape:isstock="true">
      <path
         transform="scale(-0.4)"
         style="fill:context-stroke;fill-rule:evenodd;stroke:context-stroke;stroke-width:1pt"
         d="M 5.77,0 -2.88,5 V -5 Z"
         id="path2023" />
    </marker>
    <g
       id="g3792">
      <symbol
         overflow="visible"
         id="symbol3782">
        <path
           style="stroke:none;stroke-width:0"
           d=""
           id="path3780" />
      </symbol>
      <symbol
         overflow="visible"
         id="symbol3786">
        <path
           style="stroke:none;stroke-width:0"
           d="m 6.5625,-2.296875 c 0.171875,0 0.359375,0 0.359375,-0.203125 0,-0.1875 -0.1875,-0.1875 -0.359375,-0.1875 H 1.171875 c -0.171875,0 -0.34375,0 -0.34375,0.1875 0,0.203125 0.171875,0.203125 0.34375,0.203125 z m 0,0"
           id="path3784" />
      </symbol>
      <symbol
         overflow="visible"
         id="symbol3790">
        <path
           style="stroke:none;stroke-width:0"
           d="M 5.0625,-2.703125 C 4.53125,-3.375 4.40625,-3.53125 4.09375,-3.78125 c -0.5625,-0.453125 -1.109375,-0.625 -1.625,-0.625 -1.15625,0 -1.921875,1.09375 -1.921875,2.265625 0,1.140625 0.734375,2.25 1.890625,2.25 1.140625,0 1.96875,-0.90625 2.453125,-1.703125 0.546875,0.671875 0.65625,0.828125 0.96875,1.078125 0.5625,0.453125 1.125,0.625 1.625,0.625 1.171875,0 1.921875,-1.09375 1.921875,-2.265625 0,-1.140625 -0.734375,-2.25 -1.875,-2.25 -1.15625,0 -1.984375,0.90625 -2.46875,1.703125 z m 0.265625,0.34375 c 0.40625,-0.71875 1.140625,-1.734375 2.265625,-1.734375 1.0625,0 1.59375,1.046875 1.59375,1.9375 0,0.984375 -0.671875,1.78125 -1.546875,1.78125 C 7.0625,-0.375 6.625,-0.78125 6.40625,-1 6.15625,-1.265625 5.9375,-1.578125 5.328125,-2.359375 Z m -0.6875,0.421875 c -0.40625,0.71875 -1.15625,1.734375 -2.28125,1.734375 -1.046875,0 -1.59375,-1.046875 -1.59375,-1.9375 0,-0.984375 0.671875,-1.78125 1.546875,-1.78125 0.578125,0 1.03125,0.40625 1.234375,0.625 0.25,0.265625 0.484375,0.578125 1.09375,1.359375 z m 0,0"
           id="path3788" />
      </symbol>
    </g>
  </defs>
  <g
     inkscape:label="Layer 1"
     inkscape:groupmode="layer"
     id="layer1"
     transform="translate(-151.65411,-197.69288)">
    <g
       id="g2204">
      <g
         id="g2629"
         transform="translate(74.083333,79.375001)">
        <circle
           style="font-variation-settings:normal;opacity:1;vector-effect:none;fill:none;fill-opacity:1;fill-rule:evenodd;stroke:#000000;stroke-width:0.0909074;stroke-linecap:butt;stroke-linejoin:miter;stroke-miterlimit:4;stroke-dasharray:none;stroke-dashoffset:0;stroke-opacity:1;stop-color:#000000;stop-opacity:1"
           id="circle1129"
           cx="117.73959"
           cy="119.06251"
           r="0.45454633" />
        <path
           style="fill:none;fill-rule:evenodd;stroke:#000000;stroke-width:0.264583px;stroke-linecap:butt;stroke-linejoin:miter;stroke-opacity:1;marker-start:url(#TriangleInM)"
           d="m 83.798289,119.06248 33.486761,3e-5"
           id="path1301"
           inkscape:connector-type="polyline"
           inkscape:connector-curvature="0"
           inkscape:connection-end="#circle1129" />
      </g>
      <text
         xml:space="preserve"
         style="font-style:italic;font-variant:normal;font-weight:500;font-stretch:normal;font-size:2.46944px;line-height:1.25;font-family:'CMU Serif';-inkscape-font-specification:'CMU Serif, Medium Italic';font-variant-ligatures:normal;font-variant-caps:normal;font-variant-numeric:normal;font-variant-east-asian:normal;text-align:center;letter-spacing:0px;word-spacing:0px;text-anchor:middle;stroke-width:0.264583"
         x="191.77362"
         y="201.05881"
         id="text3238"><tspan
           sodipodi:role="line"
           id="tspan3236"
           style="font-style:italic;font-variant:normal;font-weight:500;font-stretch:normal;font-size:2.46944px;font-family:'CMU Serif';-inkscape-font-specification:'CMU Serif, Medium Italic';font-variant-ligatures:normal;font-variant-caps:normal;font-variant-numeric:normal;font-variant-east-asian:normal;stroke-width:0.264583"
           x="191.77362"
           y="201.05881">b</tspan></text>
      <g
         transform="matrix(0.26475355,0,0,0.26475355,151.65408,197.69295)"
         ns2:version="1.3.1"
         ns2:texconverter="pdflatex"
         ns2:pdfconverter="inkscape"
         ns2:text="$-\\infty$\n"
         ns2:preamble="/Users/ketiboldiais/Library/Application Support/org.inkscape.Inkscape/config/inkscape/extensions/inkscapeMadeEasy/basicLatexPackages.tex"
         ns2:scale="1.0"
         ns2:alignment="middle center"
         ns2:jacobian_sqrt="0.352778"
         id="g3808">
        <defs
           id="defs3794">
          <g
             id="g2146">
            <symbol
               overflow="visible"
               id="symbol2136">
              <path
                 style="stroke:none;stroke-width:0"
                 d=""
                 id="path2134" />
            </symbol>
            <symbol
               overflow="visible"
               id="symbol2140">
              <path
                 style="stroke:none;stroke-width:0"
                 d="m 6.5625,-2.296875 c 0.171875,0 0.359375,0 0.359375,-0.203125 0,-0.1875 -0.1875,-0.1875 -0.359375,-0.1875 H 1.171875 c -0.171875,0 -0.34375,0 -0.34375,0.1875 0,0.203125 0.171875,0.203125 0.34375,0.203125 z m 0,0"
                 id="path2138" />
            </symbol>
            <symbol
               overflow="visible"
               id="symbol2144">
              <path
                 style="stroke:none;stroke-width:0"
                 d="M 5.0625,-2.703125 C 4.53125,-3.375 4.40625,-3.53125 4.09375,-3.78125 c -0.5625,-0.453125 -1.109375,-0.625 -1.625,-0.625 -1.15625,0 -1.921875,1.09375 -1.921875,2.265625 0,1.140625 0.734375,2.25 1.890625,2.25 1.140625,0 1.96875,-0.90625 2.453125,-1.703125 0.546875,0.671875 0.65625,0.828125 0.96875,1.078125 0.5625,0.453125 1.125,0.625 1.625,0.625 1.171875,0 1.921875,-1.09375 1.921875,-2.265625 0,-1.140625 -0.734375,-2.25 -1.875,-2.25 -1.15625,0 -1.984375,0.90625 -2.46875,1.703125 z m 0.265625,0.34375 c 0.40625,-0.71875 1.140625,-1.734375 2.265625,-1.734375 1.0625,0 1.59375,1.046875 1.59375,1.9375 0,0.984375 -0.671875,1.78125 -1.546875,1.78125 C 7.0625,-0.375 6.625,-0.78125 6.40625,-1 6.15625,-1.265625 5.9375,-1.578125 5.328125,-2.359375 Z m -0.6875,0.421875 c -0.40625,0.71875 -1.15625,1.734375 -2.28125,1.734375 -1.046875,0 -1.59375,-1.046875 -1.59375,-1.9375 0,-0.984375 0.671875,-1.78125 1.546875,-1.78125 0.578125,0 1.03125,0.40625 1.234375,0.625 0.25,0.265625 0.484375,0.578125 1.09375,1.359375 z m 0,0"
                 id="path2142" />
            </symbol>
          </g>
        </defs>
        <g
           id="g3806"
           transform="translate(-149.54,-130.359)">
          <g
             style="fill:#000000;fill-opacity:1"
             id="g3804">
            <g
               transform="translate(148.712,134.765)"
               id="g3798">
              <path
                 style="stroke:none;stroke-width:0"
                 d="m 6.5625,-2.296875 c 0.171875,0 0.359375,0 0.359375,-0.203125 0,-0.1875 -0.1875,-0.1875 -0.359375,-0.1875 H 1.171875 c -0.171875,0 -0.34375,0 -0.34375,0.1875 0,0.203125 0.171875,0.203125 0.34375,0.203125 z m 0,0"
                 id="path3796" />
            </g>
            <g
               transform="translate(156.461,134.765)"
               id="g3802">
              <path
                 style="stroke:none;stroke-width:0"
                 d="M 5.0625,-2.703125 C 4.53125,-3.375 4.40625,-3.53125 4.09375,-3.78125 c -0.5625,-0.453125 -1.109375,-0.625 -1.625,-0.625 -1.15625,0 -1.921875,1.09375 -1.921875,2.265625 0,1.140625 0.734375,2.25 1.890625,2.25 1.140625,0 1.96875,-0.90625 2.453125,-1.703125 0.546875,0.671875 0.65625,0.828125 0.96875,1.078125 0.5625,0.453125 1.125,0.625 1.625,0.625 1.171875,0 1.921875,-1.09375 1.921875,-2.265625 0,-1.140625 -0.734375,-2.25 -1.875,-2.25 -1.15625,0 -1.984375,0.90625 -2.46875,1.703125 z m 0.265625,0.34375 c 0.40625,-0.71875 1.140625,-1.734375 2.265625,-1.734375 1.0625,0 1.59375,1.046875 1.59375,1.9375 0,0.984375 -0.671875,1.78125 -1.546875,1.78125 C 7.0625,-0.375 6.625,-0.78125 6.40625,-1 6.15625,-1.265625 5.9375,-1.578125 5.328125,-2.359375 Z m -0.6875,0.421875 c -0.40625,0.71875 -1.15625,1.734375 -2.28125,1.734375 -1.046875,0 -1.59375,-1.046875 -1.59375,-1.9375 0,-0.984375 0.671875,-1.78125 1.546875,-1.78125 0.578125,0 1.03125,0.40625 1.234375,0.625 0.25,0.265625 0.484375,0.578125 1.09375,1.359375 z m 0,0"
                 id="path3800" />
            </g>
          </g>
        </g>
      </g>
    </g>
  </g>
</svg>
