<?xml version="1.0" encoding="UTF-8" standalone="no"?>
<!-- Created with Inkscape (http://www.inkscape.org/) -->

<svg
   width="43.033085mm"
   height="36.46748mm"
   viewBox="0 0 43.033085 36.46748"
   version="1.1"
   id="svg5"
   sodipodi:docname="radical_notation.svg"
   inkscape:version="1.1 (c4e8f9e, 2021-05-24)"
   xmlns:inkscape="http://www.inkscape.org/namespaces/inkscape"
   xmlns:sodipodi="http://sodipodi.sourceforge.net/DTD/sodipodi-0.dtd"
   xmlns="http://www.w3.org/2000/svg"
   xmlns:svg="http://www.w3.org/2000/svg"
   xmlns:ns2="http://www.iki.fi/pav/software/textext/">
  <sodipodi:namedview
     id="namedview7"
     pagecolor="#ffffff"
     bordercolor="#666666"
     borderopacity="1.0"
     inkscape:pageshadow="2"
     inkscape:pageopacity="0.0"
     inkscape:pagecheckerboard="0"
     inkscape:document-units="mm"
     showgrid="false"
     inkscape:zoom="1.1135662"
     inkscape:cx="28.287497"
     inkscape:cy="62.412096"
     inkscape:window-width="1312"
     inkscape:window-height="847"
     inkscape:window-x="2088"
     inkscape:window-y="25"
     inkscape:window-maximized="0"
     inkscape:current-layer="layer1"
     inkscape:snap-text-baseline="true"
     inkscape:snap-global="true">
    <inkscape:grid
       type="xygrid"
       id="grid824"
       originx="-93.060645"
       originy="-119.10708" />
  </sodipodi:namedview>
  <defs
     id="defs2">
    <marker
       style="overflow:visible"
       id="marker1662"
       refX="0"
       refY="0"
       orient="auto"
       inkscape:stockid="TriangleInM"
       inkscape:isstock="true">
      <path
         transform="scale(-0.4)"
         style="fill:context-stroke;fill-rule:evenodd;stroke:context-stroke;stroke-width:1pt"
         d="M 5.77,0 -2.88,5 V -5 Z"
         id="path1529" />
    </marker>
    <marker
       style="overflow:visible"
       id="marker7235"
       refX="0"
       refY="0"
       orient="auto"
       inkscape:stockid="TriangleInM"
       inkscape:isstock="true">
      <path
         transform="scale(-0.4)"
         style="fill:context-stroke;fill-rule:evenodd;stroke:context-stroke;stroke-width:1pt"
         d="M 5.77,0 -2.88,5 V -5 Z"
         id="path7233" />
    </marker>
    <marker
       style="overflow:visible"
       id="marker5296"
       refX="0"
       refY="0"
       orient="auto"
       inkscape:stockid="TriangleInM"
       inkscape:isstock="true">
      <path
         transform="scale(-0.4)"
         style="fill:context-stroke;fill-rule:evenodd;stroke:context-stroke;stroke-width:1pt"
         d="M 5.77,0 -2.88,5 V -5 Z"
         id="path5294" />
    </marker>
    <marker
       style="overflow:visible"
       id="TriangleInM"
       refX="0"
       refY="0"
       orient="auto"
       inkscape:stockid="TriangleInM"
       inkscape:isstock="true">
      <path
         transform="scale(-0.4)"
         style="fill:context-stroke;fill-rule:evenodd;stroke:context-stroke;stroke-width:1pt"
         d="M 5.77,0 -2.88,5 V -5 Z"
         id="path1398" />
    </marker>
  </defs>
  <g
     inkscape:label="Layer 1"
     inkscape:groupmode="layer"
     id="layer1"
     transform="translate(-93.060644,-119.10709)">
    <g
       id="g1695">
      <g
         transform="matrix(1.1989537,0,0,1.1989537,99.89217,127.29321)"
         ns2:version="1.3.1"
         ns2:texconverter="pdflatex"
         ns2:pdfconverter="inkscape"
         ns2:text="$\\sqrt{x}$\n"
         ns2:preamble="/Users/ketiboldiais/Library/Application Support/org.inkscape.Inkscape/config/inkscape/extensions/circuitSymbols/circuitSymbolsPreamble.tex"
         ns2:scale="1.0"
         ns2:alignment="middle center"
         ns2:jacobian_sqrt="0.352778"
         id="g854">
        <defs
           id="id-5741f6eb-b8ea-4633-8f16-72c59ed4cf8a">
          <g
             id="id-697ee200-f17b-424d-bf95-0834e69d18e7">
            <symbol
               overflow="visible"
               id="id-ee533fe3-1e71-4a4d-8cb6-ea4c05c92fef">
              <path
                 style="stroke:none;stroke-width:0"
                 d=""
                 id="id-ce71ef3a-2431-4e10-b69d-3e22009e41ad" />
            </symbol>
            <symbol
               overflow="visible"
               id="id-a222e0e9-8546-4e75-bef7-bdfd2ea7eedc">
              <path
                 style="stroke:none;stroke-width:0"
                 d="m 3.875,8.515625 -1.75,-3.875 C 2.046875,4.484375 2,4.484375 1.96875,4.484375 c 0,0 -0.0625,0 -0.171875,0.078125 l -0.9375,0.71875 c -0.125,0.109375 -0.125,0.125 -0.125,0.15625 0,0.0625 0.015625,0.109375 0.09375,0.109375 0.0625,0 0.234375,-0.140625 0.34375,-0.21875 C 1.21875,5.28125 1.375,5.171875 1.484375,5.09375 l 1.96875,4.3125 C 3.515625,9.5625 3.5625,9.5625 3.65625,9.5625 c 0.15625,0 0.1875,-0.046875 0.25,-0.1875 L 8.4375,0 C 8.5,-0.140625 8.5,-0.171875 8.5,-0.203125 8.5,-0.296875 8.421875,-0.40625 8.296875,-0.40625 c -0.078125,0 -0.140625,0.0625 -0.21875,0.21875 z m 0,0"
                 id="id-62076bb6-aa22-4b13-9a12-da915f26546d" />
            </symbol>
            <symbol
               overflow="visible"
               id="id-085dc571-cc34-4ccd-b3c1-fb1bbe1ea116">
              <path
                 style="stroke:none;stroke-width:0"
                 d=""
                 id="id-4d228e87-48f6-44e7-8c2b-82cf1f44d3c4" />
            </symbol>
            <symbol
               overflow="visible"
               id="id-3cf0a722-0465-4d58-9a69-c8ab044b5bf7">
              <path
                 style="stroke:none;stroke-width:0"
                 d="M 3.328125,-3.015625 C 3.390625,-3.265625 3.625,-4.1875 4.3125,-4.1875 c 0.046875,0 0.296875,0 0.5,0.125 C 4.53125,-4 4.34375,-3.765625 4.34375,-3.515625 c 0,0.15625 0.109375,0.34375 0.375,0.34375 0.21875,0 0.53125,-0.171875 0.53125,-0.578125 0,-0.515625 -0.578125,-0.65625 -0.921875,-0.65625 -0.578125,0 -0.921875,0.53125 -1.046875,0.75 -0.25,-0.65625 -0.78125,-0.75 -1.078125,-0.75 -1.03125,0 -1.609375,1.28125 -1.609375,1.53125 0,0.109375 0.109375,0.109375 0.125,0.109375 0.078125,0 0.109375,-0.03125 0.125,-0.109375 0.34375,-1.0625 1,-1.3125 1.34375,-1.3125 0.1875,0 0.53125,0.09375 0.53125,0.671875 0,0.3125 -0.171875,0.96875 -0.53125,2.375 -0.15625,0.609375 -0.515625,1.03125 -0.953125,1.03125 -0.0625,0 -0.28125,0 -0.5,-0.125 0.25,-0.0625 0.46875,-0.265625 0.46875,-0.546875 0,-0.265625 -0.21875,-0.34375 -0.359375,-0.34375 -0.3125,0 -0.546875,0.25 -0.546875,0.578125 0,0.453125 0.484375,0.65625 0.921875,0.65625 0.671875,0 1.03125,-0.703125 1.046875,-0.75 0.125,0.359375 0.484375,0.75 1.078125,0.75 1.03125,0 1.59375,-1.28125 1.59375,-1.53125 0,-0.109375 -0.078125,-0.109375 -0.109375,-0.109375 -0.09375,0 -0.109375,0.046875 -0.140625,0.109375 -0.328125,1.078125 -1,1.3125 -1.3125,1.3125 -0.390625,0 -0.546875,-0.3125 -0.546875,-0.65625 0,-0.21875 0.046875,-0.4375 0.15625,-0.875 z m 0,0"
                 id="id-d01e1ea5-dcfd-424d-a4ea-8552a144979b" />
            </symbol>
          </g>
        </defs>
        <g
           id="id-a7cdcf87-39dc-4e41-a671-643aaf8b80d2"
           transform="translate(-149.446,-127.183)">
          <g
             style="fill:#000000;fill-opacity:1"
             id="id-86e0e3fd-7d48-43bf-ad90-a9fb73ea4929">
            <g
               transform="translate(148.712,127.589)"
               id="g845">
              <path
                 style="stroke:none;stroke-width:0"
                 d="m 3.875,8.515625 -1.75,-3.875 C 2.046875,4.484375 2,4.484375 1.96875,4.484375 c 0,0 -0.0625,0 -0.171875,0.078125 l -0.9375,0.71875 c -0.125,0.109375 -0.125,0.125 -0.125,0.15625 0,0.0625 0.015625,0.109375 0.09375,0.109375 0.0625,0 0.234375,-0.140625 0.34375,-0.21875 C 1.21875,5.28125 1.375,5.171875 1.484375,5.09375 l 1.96875,4.3125 C 3.515625,9.5625 3.5625,9.5625 3.65625,9.5625 c 0.15625,0 0.1875,-0.046875 0.25,-0.1875 L 8.4375,0 C 8.5,-0.140625 8.5,-0.171875 8.5,-0.203125 8.5,-0.296875 8.421875,-0.40625 8.296875,-0.40625 c -0.078125,0 -0.140625,0.0625 -0.21875,0.21875 z m 0,0"
                 id="id-aa1d9542-e4dc-4796-961f-be844cd21348" />
            </g>
          </g>
          <path
             style="fill:none;stroke:#000000;stroke-width:0.398;stroke-linecap:butt;stroke-linejoin:miter;stroke-miterlimit:10;stroke-opacity:1"
             d="M 6.25e-4,-6.25e-4 H 5.695938"
             transform="matrix(1,0,0,-1,157.015,127.39)"
             id="id-4afe12d8-93b8-412e-b136-9601bf0ff4d5" />
          <g
             style="fill:#000000;fill-opacity:1"
             id="id-12bfbb0e-8c87-423f-8aee-2af13f85bed7">
            <g
               transform="translate(157.015,134.765)"
               id="g850">
              <path
                 style="stroke:none;stroke-width:0"
                 d="M 3.328125,-3.015625 C 3.390625,-3.265625 3.625,-4.1875 4.3125,-4.1875 c 0.046875,0 0.296875,0 0.5,0.125 C 4.53125,-4 4.34375,-3.765625 4.34375,-3.515625 c 0,0.15625 0.109375,0.34375 0.375,0.34375 0.21875,0 0.53125,-0.171875 0.53125,-0.578125 0,-0.515625 -0.578125,-0.65625 -0.921875,-0.65625 -0.578125,0 -0.921875,0.53125 -1.046875,0.75 -0.25,-0.65625 -0.78125,-0.75 -1.078125,-0.75 -1.03125,0 -1.609375,1.28125 -1.609375,1.53125 0,0.109375 0.109375,0.109375 0.125,0.109375 0.078125,0 0.109375,-0.03125 0.125,-0.109375 0.34375,-1.0625 1,-1.3125 1.34375,-1.3125 0.1875,0 0.53125,0.09375 0.53125,0.671875 0,0.3125 -0.171875,0.96875 -0.53125,2.375 -0.15625,0.609375 -0.515625,1.03125 -0.953125,1.03125 -0.0625,0 -0.28125,0 -0.5,-0.125 0.25,-0.0625 0.46875,-0.265625 0.46875,-0.546875 0,-0.265625 -0.21875,-0.34375 -0.359375,-0.34375 -0.3125,0 -0.546875,0.25 -0.546875,0.578125 0,0.453125 0.484375,0.65625 0.921875,0.65625 0.671875,0 1.03125,-0.703125 1.046875,-0.75 0.125,0.359375 0.484375,0.75 1.078125,0.75 1.03125,0 1.59375,-1.28125 1.59375,-1.53125 0,-0.109375 -0.078125,-0.109375 -0.109375,-0.109375 -0.09375,0 -0.109375,0.046875 -0.140625,0.109375 -0.328125,1.078125 -1,1.3125 -1.3125,1.3125 -0.390625,0 -0.546875,-0.3125 -0.546875,-0.65625 0,-0.21875 0.046875,-0.4375 0.15625,-0.875 z m 0,0"
                 id="id-2fa033f1-1385-4f15-9233-d05117faf2e4" />
            </g>
          </g>
        </g>
      </g>
      <path
         style="fill:none;stroke:#000000;stroke-width:0.264583px;stroke-linecap:butt;stroke-linejoin:miter;stroke-opacity:1;marker-start:url(#TriangleInM)"
         d="m 112.36392,138.12906 c 0,7.93751 7.9375,7.9375 7.9375,7.9375"
         id="path929"
         sodipodi:nodetypes="cc" />
      <text
         xml:space="preserve"
         style="font-style:italic;font-weight:500;font-size:4.09242px;line-height:1.25;font-family:'CMU Serif';-inkscape-font-specification:'CMU Serif, Medium Italic';text-align:center;letter-spacing:0px;word-spacing:0px;text-anchor:middle;stroke-width:0.290342"
         x="128.33052"
         y="147.34572"
         id="text4922"><tspan
           sodipodi:role="line"
           id="tspan4920"
           style="stroke-width:0.290342"
           x="128.33052"
           y="147.34572">radicand</tspan></text>
      <path
         style="fill:none;stroke:#000000;stroke-width:0.264583px;stroke-linecap:butt;stroke-linejoin:miter;stroke-opacity:1;marker-start:url(#marker5296)"
         d="m 113.2668,126.08453 c 0,-5.29166 7.9375,-5.29166 7.9375,-5.29166"
         id="path5037"
         sodipodi:nodetypes="cc" />
      <text
         xml:space="preserve"
         style="font-style:italic;font-weight:500;font-size:4.09242px;line-height:1.25;font-family:'CMU Serif';-inkscape-font-specification:'CMU Serif, Medium Italic';text-align:center;letter-spacing:0px;word-spacing:0px;text-anchor:middle;stroke-width:0.290342"
         x="127.42102"
         y="121.94661"
         id="text6852"><tspan
           sodipodi:role="line"
           id="tspan6850"
           style="stroke-width:0.290342"
           x="127.42102"
           y="121.94661">radical</tspan></text>
      <text
         xml:space="preserve"
         style="font-style:italic;font-weight:500;font-size:4.09242px;line-height:1.25;font-family:'CMU Serif';-inkscape-font-specification:'CMU Serif, Medium Italic';text-align:center;letter-spacing:0px;word-spacing:0px;text-anchor:middle;stroke-width:0.290342"
         x="108.47916"
         y="154.78127"
         id="text8653"><tspan
           sodipodi:role="line"
           id="tspan8651"
           style="stroke-width:0.290342"
           x="108.47916"
           y="154.78127">radical expression</tspan></text>
      <rect
         style="font-variation-settings:normal;opacity:1;fill:none;fill-opacity:1;fill-rule:evenodd;stroke:#000000;stroke-width:0.264583;stroke-linecap:butt;stroke-linejoin:miter;stroke-miterlimit:4;stroke-dasharray:1.05833, 1.05833;stroke-dashoffset:0;stroke-opacity:1;stop-color:#000000;stop-opacity:1"
         id="rect1116"
         width="26.209337"
         height="20.581051"
         x="96.343719"
         y="123.09008"
         ry="2.6458333" />
      <path
         style="fill:none;stroke:#000000;stroke-width:0.264583px;stroke-linecap:butt;stroke-linejoin:miter;stroke-opacity:1;marker-start:url(#marker1662)"
         d="m 107.15625,144.99168 v 6.61459"
         id="path1311" />
    </g>
  </g>
</svg>
