<?xml version="1.0" encoding="UTF-8" standalone="no"?>
<!-- Created with Inkscape (http://www.inkscape.org/) -->

<svg
   width="71.671585mm"
   height="63.602573mm"
   viewBox="0 0 71.671585 63.602573"
   version="1.1"
   id="svg5"
   sodipodi:docname="rate_of_change.svg"
   inkscape:version="1.1 (c4e8f9e, 2021-05-24)"
   xmlns:inkscape="http://www.inkscape.org/namespaces/inkscape"
   xmlns:sodipodi="http://sodipodi.sourceforge.net/DTD/sodipodi-0.dtd"
   xmlns="http://www.w3.org/2000/svg"
   xmlns:svg="http://www.w3.org/2000/svg"
   xmlns:ns4="http://www.iki.fi/pav/software/textext/">
  <sodipodi:namedview
     id="namedview7"
     pagecolor="#ffffff"
     bordercolor="#666666"
     borderopacity="1.0"
     inkscape:pageshadow="2"
     inkscape:pageopacity="0.0"
     inkscape:pagecheckerboard="0"
     inkscape:document-units="mm"
     showgrid="false"
     inkscape:snap-center="true"
     inkscape:snap-global="true"
     inkscape:zoom="1.5748204"
     inkscape:cx="193.03788"
     inkscape:cy="136.206"
     inkscape:window-width="1312"
     inkscape:window-height="847"
     inkscape:window-x="2257"
     inkscape:window-y="64"
     inkscape:window-maximized="0"
     inkscape:current-layer="layer1"
     inkscape:snap-text-baseline="true">
    <inkscape:grid
       type="xygrid"
       id="grid824"
       originx="-50.159962"
       originy="-74.199853" />
  </sodipodi:namedview>
  <defs
     id="defs2">
    <marker
       style="overflow:visible"
       id="TriangleInL"
       refX="0"
       refY="0"
       orient="auto"
       inkscape:stockid="TriangleInL"
       inkscape:isstock="true">
      <path
         transform="scale(-0.8)"
         style="fill:context-stroke;fill-rule:evenodd;stroke:context-stroke;stroke-width:1pt"
         d="M 5.77,0 -2.88,5 V -5 Z"
         id="path1076" />
    </marker>
    <marker
       style="overflow:visible"
       id="TriangleOutL"
       refX="0"
       refY="0"
       orient="auto"
       inkscape:stockid="TriangleOutL"
       inkscape:isstock="true">
      <path
         transform="scale(0.8)"
         style="fill:context-stroke;fill-rule:evenodd;stroke:context-stroke;stroke-width:1pt"
         d="M 5.77,0 -2.88,5 V -5 Z"
         id="path1085" />
    </marker>
    <marker
       style="overflow:visible"
       id="marker1213"
       refX="0"
       refY="0"
       orient="auto"
       inkscape:stockid="TriangleOutM"
       inkscape:isstock="true">
      <path
         transform="scale(0.4)"
         style="fill:context-stroke;fill-rule:evenodd;stroke:context-stroke;stroke-width:1pt"
         d="M 5.77,0 -2.88,5 V -5 Z"
         id="path1211" />
    </marker>
    <marker
       style="overflow:visible"
       id="TriangleOutM"
       refX="0"
       refY="0"
       orient="auto"
       inkscape:stockid="TriangleOutM"
       inkscape:isstock="true">
      <path
         transform="scale(0.4)"
         style="fill:context-stroke;fill-rule:evenodd;stroke:context-stroke;stroke-width:1pt"
         d="M 5.77,0 -2.88,5 V -5 Z"
         id="path1088" />
    </marker>
  </defs>
  <g
     inkscape:label="Layer 1"
     inkscape:groupmode="layer"
     id="layer1"
     transform="translate(-50.159963,-74.199854)">
    <g
       id="g12068">
      <path
         style="fill:none;stroke:#000000;stroke-width:0.265;stroke-linecap:butt;stroke-linejoin:miter;stroke-miterlimit:4;stroke-dasharray:none;stroke-opacity:1;marker-start:url(#TriangleInL)"
         d="M 58.208333,79.374999 V 137.58333"
         id="path859" />
      <path
         style="fill:none;stroke:#000000;stroke-width:0.265;stroke-linecap:butt;stroke-linejoin:miter;stroke-miterlimit:4;stroke-dasharray:none;stroke-opacity:1;marker-end:url(#TriangleOutL)"
         d="M 52.916666,132.29166 H 116.41667"
         id="path861" />
      <path
         style="fill:none;stroke:#000000;stroke-width:0.264583px;stroke-linecap:butt;stroke-linejoin:miter;stroke-opacity:1"
         d="M 56.885417,123.03125 H 59.53125"
         id="path1270" />
      <path
         style="fill:none;stroke:#000000;stroke-width:0.264583px;stroke-linecap:butt;stroke-linejoin:miter;stroke-opacity:1"
         d="M 56.885417,96.572917 H 59.53125"
         id="path1352" />
      <path
         style="fill:none;stroke:#000000;stroke-width:0.264583px;stroke-linecap:butt;stroke-linejoin:miter;stroke-opacity:1"
         d="m 74.083332,130.96875 v 2.64583"
         id="path1387" />
      <path
         style="fill:none;stroke:#000000;stroke-width:0.264583px;stroke-linecap:butt;stroke-linejoin:miter;stroke-opacity:1"
         d="m 105.83333,130.96875 v 2.64583"
         id="path1389" />
      <path
         style="fill:none;stroke:#48d1cc;stroke-width:0.264583px;stroke-linecap:butt;stroke-linejoin:miter;stroke-opacity:1"
         d="m 60.854167,128.32292 c 2.688137,3.50702 7.140765,4.19591 9.954205,0.29371 3.53743,-4.90636 17.364718,-32.484284 27.08746,-36.012464 8.704998,-3.158861 11.906248,14.552084 11.906248,14.552084"
         id="path1504"
         sodipodi:nodetypes="cssc" />
      <circle
         style="font-variation-settings:normal;opacity:1;vector-effect:none;fill:#708090;fill-opacity:1;fill-rule:evenodd;stroke:#000000;stroke-width:0.135883;stroke-linecap:butt;stroke-linejoin:miter;stroke-miterlimit:4;stroke-dasharray:none;stroke-dashoffset:0;stroke-opacity:1;stop-color:#000000;stop-opacity:1"
         id="path3342"
         cx="105.83334"
         cy="96.572914"
         r="0.33970824" />
      <circle
         style="font-variation-settings:normal;opacity:1;vector-effect:none;fill:#708090;fill-opacity:1;fill-rule:evenodd;stroke:#000000;stroke-width:0.135883;stroke-linecap:butt;stroke-linejoin:miter;stroke-miterlimit:4;stroke-dasharray:none;stroke-dashoffset:0;stroke-opacity:1;stop-color:#000000;stop-opacity:1"
         id="circle3424"
         cx="74.200905"
         cy="123.03125"
         r="0.33970824" />
      <path
         style="fill:none;stroke:#48d1cc;stroke-width:0.165;stroke-linecap:butt;stroke-linejoin:miter;stroke-miterlimit:4;stroke-dasharray:0.165, 0.33;stroke-dashoffset:0;stroke-opacity:1"
         d="M 59.531249,123.03125 H 74.083332"
         id="path3495" />
      <path
         style="fill:none;stroke:#48d1cc;stroke-width:0.165;stroke-linecap:butt;stroke-linejoin:miter;stroke-miterlimit:4;stroke-dasharray:0.165, 0.33;stroke-dashoffset:0;stroke-opacity:1"
         d="m 74.083332,130.96875 v -7.9375"
         id="path3497" />
      <path
         style="fill:none;stroke:#48d1cc;stroke-width:0.165;stroke-linecap:butt;stroke-linejoin:miter;stroke-miterlimit:4;stroke-dasharray:0.165, 0.33;stroke-dashoffset:0;stroke-opacity:1"
         d="M 59.531249,96.572915 H 105.83333 V 130.96875"
         id="path3612" />
      <path
         style="fill:none;stroke:#f08080;stroke-width:0.165;stroke-linecap:butt;stroke-linejoin:miter;stroke-miterlimit:4;stroke-dasharray:0.495, 0.495;stroke-dashoffset:0;stroke-opacity:1"
         d="M 74.083332,123.03125 H 105.83333"
         id="path3807" />
      <path
         style="fill:none;stroke:#f08080;stroke-width:0.165;stroke-linecap:butt;stroke-linejoin:miter;stroke-miterlimit:4;stroke-dasharray:0.495, 0.495;stroke-dashoffset:0;stroke-opacity:1"
         d="M 105.83333,96.572915 74.083332,123.03125"
         id="path3809" />
      <path
         style="fill:none;stroke:#f08080;stroke-width:0.165;stroke-linecap:butt;stroke-linejoin:miter;stroke-miterlimit:4;stroke-dasharray:0.495, 0.495;stroke-dashoffset:0;stroke-opacity:1"
         d="M 105.83333,96.572915 V 123.03125"
         id="path4014" />
      <g
         transform="matrix(0.29211868,0,0,0.29211868,50.51483,93.791798)"
         ns4:version="1.3.1"
         ns4:texconverter="pdflatex"
         ns4:pdfconverter="inkscape"
         ns4:text="$f(b)$\n"
         ns4:preamble="/Users/ketiboldiais/Library/Application Support/org.inkscape.Inkscape/config/inkscape/extensions/circuitSymbols/circuitSymbolsPreamble.tex"
         ns4:scale="1.0"
         ns4:alignment="middle center"
         ns4:jacobian_sqrt="0.352778"
         id="g4235">
        <defs
           id="id-942b7cf0-1d6d-45df-909e-d0293c61d1cf">
          <g
             id="id-08c46f92-4c39-4eb7-b81c-f894c2f8cc53">
            <symbol
               overflow="visible"
               id="id-40183b8a-9b81-4122-96d4-9547663805ea">
              <path
                 style="stroke:none;stroke-width:0"
                 d=""
                 id="id-9cf02bb3-1e6e-4464-9ea3-a75b8a6f0437" />
            </symbol>
            <symbol
               overflow="visible"
               id="id-b29f281f-51e4-47e7-8751-ae8e60707062">
              <path
                 style="stroke:none;stroke-width:0"
                 d="m 3.65625,-3.984375 h 0.859375 c 0.203125,0 0.296875,0 0.296875,-0.203125 0,-0.109375 -0.09375,-0.109375 -0.265625,-0.109375 H 3.71875 L 3.921875,-5.4375 c 0.046875,-0.203125 0.1875,-0.90625 0.25,-1.03125 0.078125,-0.1875 0.25,-0.34375 0.46875,-0.34375 0.03125,0 0.296875,0 0.484375,0.1875 -0.4375,0.03125 -0.546875,0.390625 -0.546875,0.53125 0,0.234375 0.1875,0.359375 0.375,0.359375 C 5.21875,-5.734375 5.5,-5.96875 5.5,-6.34375 c 0,-0.453125 -0.453125,-0.6875 -0.859375,-0.6875 -0.34375,0 -0.96875,0.1875 -1.265625,1.171875 -0.0625,0.203125 -0.09375,0.3125 -0.328125,1.5625 h -0.6875 c -0.203125,0 -0.3125,0 -0.3125,0.1875 0,0.125 0.09375,0.125 0.28125,0.125 h 0.65625 L 2.25,-0.046875 c -0.1875,0.96875 -0.359375,1.875 -0.875,1.875 -0.046875,0 -0.28125,0 -0.484375,-0.1875 C 1.359375,1.609375 1.453125,1.25 1.453125,1.109375 1.453125,0.875 1.265625,0.75 1.078125,0.75 0.8125,0.75 0.53125,0.984375 0.53125,1.359375 c 0,0.4375 0.4375,0.6875 0.84375,0.6875 0.546875,0 0.953125,-0.59375 1.125,-0.96875 0.328125,-0.625 0.546875,-1.828125 0.5625,-1.90625 z m 0,0"
                 id="id-3a6f861f-8a15-4c1e-89f3-3ac252d5e388" />
            </symbol>
            <symbol
               overflow="visible"
               id="id-2c950c00-1e14-480e-a24e-31fcbd3b3cae">
              <path
                 style="stroke:none;stroke-width:0"
                 d="m 2.375,-6.8125 c 0,0 0,-0.109375 -0.125,-0.109375 -0.21875,0 -0.953125,0.078125 -1.21875,0.109375 -0.078125,0 -0.1875,0.015625 -0.1875,0.1875 0,0.125 0.09375,0.125 0.25,0.125 0.46875,0 0.484375,0.0625 0.484375,0.171875 0,0.0625 -0.078125,0.40625 -0.125,0.609375 l -0.828125,3.25 c -0.109375,0.5 -0.15625,0.671875 -0.15625,1.015625 0,0.9375 0.53125,1.5625 1.265625,1.5625 1.171875,0 2.40625,-1.484375 2.40625,-2.921875 0,-0.90625 -0.53125,-1.59375 -1.328125,-1.59375 -0.453125,0 -0.875,0.296875 -1.171875,0.59375 z M 1.453125,-3.046875 C 1.5,-3.265625 1.5,-3.28125 1.59375,-3.390625 2.078125,-4.03125 2.53125,-4.1875 2.796875,-4.1875 c 0.359375,0 0.625,0.296875 0.625,0.9375 0,0.59375 -0.328125,1.734375 -0.515625,2.109375 -0.328125,0.671875 -0.78125,1.03125 -1.171875,1.03125 -0.34375,0 -0.671875,-0.265625 -0.671875,-1 0,-0.203125 0,-0.390625 0.15625,-1.015625 z m 0,0"
                 id="id-863edc88-d2b9-410f-815e-ba7ed8acab2b" />
            </symbol>
            <symbol
               overflow="visible"
               id="id-db57139a-e32e-471f-a1b5-951420425b22">
              <path
                 style="stroke:none;stroke-width:0"
                 d=""
                 id="id-ad4c64b9-56c0-440c-9067-cb3a30f1a4a2" />
            </symbol>
            <symbol
               overflow="visible"
               id="id-c32d7b64-30f6-4592-b5c0-bf03d34f55c5">
              <path
                 style="stroke:none;stroke-width:0"
                 d="m 3.296875,2.390625 c 0,-0.03125 0,-0.046875 -0.171875,-0.21875 C 1.890625,0.921875 1.5625,-0.96875 1.5625,-2.5 c 0,-1.734375 0.375,-3.46875 1.609375,-4.703125 0.125,-0.125 0.125,-0.140625 0.125,-0.171875 0,-0.078125 -0.03125,-0.109375 -0.09375,-0.109375 -0.109375,0 -1,0.6875 -1.59375,1.953125 -0.5,1.09375 -0.625,2.203125 -0.625,3.03125 0,0.78125 0.109375,1.984375 0.65625,3.125 C 2.25,1.84375 3.09375,2.5 3.203125,2.5 c 0.0625,0 0.09375,-0.03125 0.09375,-0.109375 z m 0,0"
                 id="id-6936f360-40ac-4e1b-9de0-f75a8b18d037" />
            </symbol>
            <symbol
               overflow="visible"
               id="id-b3827fd9-ba0e-49d8-80aa-a5c2e44d5441">
              <path
                 style="stroke:none;stroke-width:0"
                 d="m 2.875,-2.5 c 0,-0.765625 -0.109375,-1.96875 -0.65625,-3.109375 -0.59375,-1.21875 -1.453125,-1.875 -1.546875,-1.875 -0.0625,0 -0.109375,0.046875 -0.109375,0.109375 0,0.03125 0,0.046875 0.1875,0.234375 0.984375,0.984375 1.546875,2.5625 1.546875,4.640625 0,1.71875 -0.359375,3.46875 -1.59375,4.71875 C 0.5625,2.34375 0.5625,2.359375 0.5625,2.390625 0.5625,2.453125 0.609375,2.5 0.671875,2.5 0.765625,2.5 1.671875,1.8125 2.25,0.546875 2.765625,-0.546875 2.875,-1.65625 2.875,-2.5 Z m 0,0"
                 id="id-f7d664fa-af6f-4a96-9897-187ed6bbbbf8" />
            </symbol>
          </g>
        </defs>
        <g
           id="id-f5532612-6f17-43d2-88e8-81b3663b67d1"
           transform="translate(-149.243,-127.281)">
          <g
             style="fill:#000000;fill-opacity:1"
             id="id-d6cc9ba1-9a04-4cc8-b955-ff4f7fbbfad8">
            <g
               transform="translate(148.712,134.765)"
               id="g4219">
              <path
                 style="stroke:none;stroke-width:0"
                 d="m 3.65625,-3.984375 h 0.859375 c 0.203125,0 0.296875,0 0.296875,-0.203125 0,-0.109375 -0.09375,-0.109375 -0.265625,-0.109375 H 3.71875 L 3.921875,-5.4375 c 0.046875,-0.203125 0.1875,-0.90625 0.25,-1.03125 0.078125,-0.1875 0.25,-0.34375 0.46875,-0.34375 0.03125,0 0.296875,0 0.484375,0.1875 -0.4375,0.03125 -0.546875,0.390625 -0.546875,0.53125 0,0.234375 0.1875,0.359375 0.375,0.359375 C 5.21875,-5.734375 5.5,-5.96875 5.5,-6.34375 c 0,-0.453125 -0.453125,-0.6875 -0.859375,-0.6875 -0.34375,0 -0.96875,0.1875 -1.265625,1.171875 -0.0625,0.203125 -0.09375,0.3125 -0.328125,1.5625 h -0.6875 c -0.203125,0 -0.3125,0 -0.3125,0.1875 0,0.125 0.09375,0.125 0.28125,0.125 h 0.65625 L 2.25,-0.046875 c -0.1875,0.96875 -0.359375,1.875 -0.875,1.875 -0.046875,0 -0.28125,0 -0.484375,-0.1875 C 1.359375,1.609375 1.453125,1.25 1.453125,1.109375 1.453125,0.875 1.265625,0.75 1.078125,0.75 0.8125,0.75 0.53125,0.984375 0.53125,1.359375 c 0,0.4375 0.4375,0.6875 0.84375,0.6875 0.546875,0 0.953125,-0.59375 1.125,-0.96875 0.328125,-0.625 0.546875,-1.828125 0.5625,-1.90625 z m 0,0"
                 id="id-cfc0835b-480f-46c6-885f-943847a04c8a" />
            </g>
          </g>
          <g
             style="fill:#000000;fill-opacity:1"
             id="id-761e5ca5-1698-4b42-b5e2-4bf15af894fc">
            <g
               transform="translate(154.662,134.765)"
               id="g4223">
              <path
                 style="stroke:none;stroke-width:0"
                 d="m 3.296875,2.390625 c 0,-0.03125 0,-0.046875 -0.171875,-0.21875 C 1.890625,0.921875 1.5625,-0.96875 1.5625,-2.5 c 0,-1.734375 0.375,-3.46875 1.609375,-4.703125 0.125,-0.125 0.125,-0.140625 0.125,-0.171875 0,-0.078125 -0.03125,-0.109375 -0.09375,-0.109375 -0.109375,0 -1,0.6875 -1.59375,1.953125 -0.5,1.09375 -0.625,2.203125 -0.625,3.03125 0,0.78125 0.109375,1.984375 0.65625,3.125 C 2.25,1.84375 3.09375,2.5 3.203125,2.5 c 0.0625,0 0.09375,-0.03125 0.09375,-0.109375 z m 0,0"
                 id="id-371f01b7-3afb-478f-83d0-11ca72a487b8" />
            </g>
          </g>
          <g
             style="fill:#000000;fill-opacity:1"
             id="id-03847814-7551-4347-af85-825184b636c2">
            <g
               transform="translate(158.537,134.765)"
               id="g4227">
              <path
                 style="stroke:none;stroke-width:0"
                 d="m 2.375,-6.8125 c 0,0 0,-0.109375 -0.125,-0.109375 -0.21875,0 -0.953125,0.078125 -1.21875,0.109375 -0.078125,0 -0.1875,0.015625 -0.1875,0.1875 0,0.125 0.09375,0.125 0.25,0.125 0.46875,0 0.484375,0.0625 0.484375,0.171875 0,0.0625 -0.078125,0.40625 -0.125,0.609375 l -0.828125,3.25 c -0.109375,0.5 -0.15625,0.671875 -0.15625,1.015625 0,0.9375 0.53125,1.5625 1.265625,1.5625 1.171875,0 2.40625,-1.484375 2.40625,-2.921875 0,-0.90625 -0.53125,-1.59375 -1.328125,-1.59375 -0.453125,0 -0.875,0.296875 -1.171875,0.59375 z M 1.453125,-3.046875 C 1.5,-3.265625 1.5,-3.28125 1.59375,-3.390625 2.078125,-4.03125 2.53125,-4.1875 2.796875,-4.1875 c 0.359375,0 0.625,0.296875 0.625,0.9375 0,0.59375 -0.328125,1.734375 -0.515625,2.109375 -0.328125,0.671875 -0.78125,1.03125 -1.171875,1.03125 -0.34375,0 -0.671875,-0.265625 -0.671875,-1 0,-0.203125 0,-0.390625 0.15625,-1.015625 z m 0,0"
                 id="id-123c0dda-718a-430d-aa14-50460d88999c" />
            </g>
          </g>
          <g
             style="fill:#000000;fill-opacity:1"
             id="id-f948e5fa-ec92-45ff-9e0b-b9b0c2c8f6ec">
            <g
               transform="translate(162.812,134.765)"
               id="g4231">
              <path
                 style="stroke:none;stroke-width:0"
                 d="m 2.875,-2.5 c 0,-0.765625 -0.109375,-1.96875 -0.65625,-3.109375 -0.59375,-1.21875 -1.453125,-1.875 -1.546875,-1.875 -0.0625,0 -0.109375,0.046875 -0.109375,0.109375 0,0.03125 0,0.046875 0.1875,0.234375 0.984375,0.984375 1.546875,2.5625 1.546875,4.640625 0,1.71875 -0.359375,3.46875 -1.59375,4.71875 C 0.5625,2.34375 0.5625,2.359375 0.5625,2.390625 0.5625,2.453125 0.609375,2.5 0.671875,2.5 0.765625,2.5 1.671875,1.8125 2.25,0.546875 2.765625,-0.546875 2.875,-1.65625 2.875,-2.5 Z m 0,0"
                 id="id-aa98fd61-65b6-4b4a-be06-12cced6641d4" />
            </g>
          </g>
        </g>
      </g>
      <g
         transform="matrix(0.29211868,0,0,0.29211868,50.15989,120.97284)"
         ns4:version="1.3.1"
         ns4:texconverter="pdflatex"
         ns4:pdfconverter="inkscape"
         ns4:text="$f(a)$\n"
         ns4:preamble="/Users/ketiboldiais/Library/Application Support/org.inkscape.Inkscape/config/inkscape/extensions/circuitSymbols/circuitSymbolsPreamble.tex"
         ns4:scale="1.0"
         ns4:alignment="middle center"
         ns4:jacobian_sqrt="0.352778"
         id="g4427">
        <defs
           id="id-6a6d0fb8-8e8a-4533-b089-68ac1fb7aed4">
          <g
             id="id-a4c1c694-f7cc-4742-a2fb-8ef097e6f5c8">
            <symbol
               overflow="visible"
               id="id-75d378ad-a4f8-46e5-b622-b0cf6ac28f70">
              <path
                 style="stroke:none;stroke-width:0"
                 d=""
                 id="id-30fa816e-bb46-4e2a-a443-7680345034ef" />
            </symbol>
            <symbol
               overflow="visible"
               id="id-b3cff3e4-e611-48af-a6ab-66303fb06969">
              <path
                 style="stroke:none;stroke-width:0"
                 d="m 3.65625,-3.984375 h 0.859375 c 0.203125,0 0.296875,0 0.296875,-0.203125 0,-0.109375 -0.09375,-0.109375 -0.265625,-0.109375 H 3.71875 L 3.921875,-5.4375 c 0.046875,-0.203125 0.1875,-0.90625 0.25,-1.03125 0.078125,-0.1875 0.25,-0.34375 0.46875,-0.34375 0.03125,0 0.296875,0 0.484375,0.1875 -0.4375,0.03125 -0.546875,0.390625 -0.546875,0.53125 0,0.234375 0.1875,0.359375 0.375,0.359375 C 5.21875,-5.734375 5.5,-5.96875 5.5,-6.34375 c 0,-0.453125 -0.453125,-0.6875 -0.859375,-0.6875 -0.34375,0 -0.96875,0.1875 -1.265625,1.171875 -0.0625,0.203125 -0.09375,0.3125 -0.328125,1.5625 h -0.6875 c -0.203125,0 -0.3125,0 -0.3125,0.1875 0,0.125 0.09375,0.125 0.28125,0.125 h 0.65625 L 2.25,-0.046875 c -0.1875,0.96875 -0.359375,1.875 -0.875,1.875 -0.046875,0 -0.28125,0 -0.484375,-0.1875 C 1.359375,1.609375 1.453125,1.25 1.453125,1.109375 1.453125,0.875 1.265625,0.75 1.078125,0.75 0.8125,0.75 0.53125,0.984375 0.53125,1.359375 c 0,0.4375 0.4375,0.6875 0.84375,0.6875 0.546875,0 0.953125,-0.59375 1.125,-0.96875 0.328125,-0.625 0.546875,-1.828125 0.5625,-1.90625 z m 0,0"
                 id="id-fadef980-bb55-43b5-9a90-d285c81b4757" />
            </symbol>
            <symbol
               overflow="visible"
               id="id-2a963ac5-b22e-4bdb-b22e-6fe89598b395">
              <path
                 style="stroke:none;stroke-width:0"
                 d="M 3.71875,-3.765625 C 3.53125,-4.140625 3.25,-4.40625 2.796875,-4.40625 c -1.15625,0 -2.390625,1.46875 -2.390625,2.921875 0,0.9375 0.546875,1.59375 1.3125,1.59375 0.203125,0 0.703125,-0.046875 1.296875,-0.75 0.078125,0.421875 0.4375,0.75 0.90625,0.75 0.359375,0 0.578125,-0.234375 0.75,-0.546875 0.15625,-0.359375 0.296875,-0.96875 0.296875,-0.984375 0,-0.109375 -0.09375,-0.109375 -0.125,-0.109375 -0.09375,0 -0.109375,0.046875 -0.140625,0.1875 -0.171875,0.640625 -0.34375,1.234375 -0.75,1.234375 -0.28125,0 -0.296875,-0.265625 -0.296875,-0.453125 0,-0.21875 0.015625,-0.3125 0.125,-0.75 C 3.890625,-1.71875 3.90625,-1.828125 4,-2.203125 L 4.359375,-3.59375 c 0.0625,-0.28125 0.0625,-0.296875 0.0625,-0.34375 0,-0.171875 -0.109375,-0.265625 -0.28125,-0.265625 -0.25,0 -0.390625,0.21875 -0.421875,0.4375 z M 3.078125,-1.1875 C 3.015625,-1 3.015625,-0.984375 2.875,-0.8125 2.4375,-0.265625 2.03125,-0.109375 1.75,-0.109375 c -0.5,0 -0.640625,-0.546875 -0.640625,-0.9375 0,-0.5 0.3125,-1.71875 0.546875,-2.1875 0.3125,-0.578125 0.75,-0.953125 1.15625,-0.953125 0.640625,0 0.78125,0.8125 0.78125,0.875 0,0.0625 -0.015625,0.125 -0.03125,0.171875 z m 0,0"
                 id="id-43278adf-39ec-4843-b44e-f9008ccf48d0" />
            </symbol>
            <symbol
               overflow="visible"
               id="id-6d4173df-1c51-4751-8965-b88fcef092ef">
              <path
                 style="stroke:none;stroke-width:0"
                 d=""
                 id="id-36557bbc-f3fe-44de-9fe1-821b64c08113" />
            </symbol>
            <symbol
               overflow="visible"
               id="id-c6443982-a697-4018-996e-23686a525276">
              <path
                 style="stroke:none;stroke-width:0"
                 d="m 3.296875,2.390625 c 0,-0.03125 0,-0.046875 -0.171875,-0.21875 C 1.890625,0.921875 1.5625,-0.96875 1.5625,-2.5 c 0,-1.734375 0.375,-3.46875 1.609375,-4.703125 0.125,-0.125 0.125,-0.140625 0.125,-0.171875 0,-0.078125 -0.03125,-0.109375 -0.09375,-0.109375 -0.109375,0 -1,0.6875 -1.59375,1.953125 -0.5,1.09375 -0.625,2.203125 -0.625,3.03125 0,0.78125 0.109375,1.984375 0.65625,3.125 C 2.25,1.84375 3.09375,2.5 3.203125,2.5 c 0.0625,0 0.09375,-0.03125 0.09375,-0.109375 z m 0,0"
                 id="id-7a82e609-ed5a-4315-8411-ac7a5d698699" />
            </symbol>
            <symbol
               overflow="visible"
               id="id-16313ab5-e677-428f-9db2-d7a20d190c21">
              <path
                 style="stroke:none;stroke-width:0"
                 d="m 2.875,-2.5 c 0,-0.765625 -0.109375,-1.96875 -0.65625,-3.109375 -0.59375,-1.21875 -1.453125,-1.875 -1.546875,-1.875 -0.0625,0 -0.109375,0.046875 -0.109375,0.109375 0,0.03125 0,0.046875 0.1875,0.234375 0.984375,0.984375 1.546875,2.5625 1.546875,4.640625 0,1.71875 -0.359375,3.46875 -1.59375,4.71875 C 0.5625,2.34375 0.5625,2.359375 0.5625,2.390625 0.5625,2.453125 0.609375,2.5 0.671875,2.5 0.765625,2.5 1.671875,1.8125 2.25,0.546875 2.765625,-0.546875 2.875,-1.65625 2.875,-2.5 Z m 0,0"
                 id="id-e6511ae4-abdc-4f88-9f46-334e5e49e6b9" />
            </symbol>
          </g>
        </defs>
        <g
           id="id-5897e784-824e-4b9f-82da-0303c2619e3d"
           transform="translate(-149.243,-127.281)">
          <g
             style="fill:#000000;fill-opacity:1"
             id="id-289f83ee-edd1-4922-92d6-459139cc57a7">
            <g
               transform="translate(148.712,134.765)"
               id="g4411">
              <path
                 style="stroke:none;stroke-width:0"
                 d="m 3.65625,-3.984375 h 0.859375 c 0.203125,0 0.296875,0 0.296875,-0.203125 0,-0.109375 -0.09375,-0.109375 -0.265625,-0.109375 H 3.71875 L 3.921875,-5.4375 c 0.046875,-0.203125 0.1875,-0.90625 0.25,-1.03125 0.078125,-0.1875 0.25,-0.34375 0.46875,-0.34375 0.03125,0 0.296875,0 0.484375,0.1875 -0.4375,0.03125 -0.546875,0.390625 -0.546875,0.53125 0,0.234375 0.1875,0.359375 0.375,0.359375 C 5.21875,-5.734375 5.5,-5.96875 5.5,-6.34375 c 0,-0.453125 -0.453125,-0.6875 -0.859375,-0.6875 -0.34375,0 -0.96875,0.1875 -1.265625,1.171875 -0.0625,0.203125 -0.09375,0.3125 -0.328125,1.5625 h -0.6875 c -0.203125,0 -0.3125,0 -0.3125,0.1875 0,0.125 0.09375,0.125 0.28125,0.125 h 0.65625 L 2.25,-0.046875 c -0.1875,0.96875 -0.359375,1.875 -0.875,1.875 -0.046875,0 -0.28125,0 -0.484375,-0.1875 C 1.359375,1.609375 1.453125,1.25 1.453125,1.109375 1.453125,0.875 1.265625,0.75 1.078125,0.75 0.8125,0.75 0.53125,0.984375 0.53125,1.359375 c 0,0.4375 0.4375,0.6875 0.84375,0.6875 0.546875,0 0.953125,-0.59375 1.125,-0.96875 0.328125,-0.625 0.546875,-1.828125 0.5625,-1.90625 z m 0,0"
                 id="id-edd9e41c-c674-4711-b4e0-b4aefb286d02" />
            </g>
          </g>
          <g
             style="fill:#000000;fill-opacity:1"
             id="id-d7ce3774-55fa-431f-aaa5-0bf0b244199c">
            <g
               transform="translate(154.662,134.765)"
               id="g4415">
              <path
                 style="stroke:none;stroke-width:0"
                 d="m 3.296875,2.390625 c 0,-0.03125 0,-0.046875 -0.171875,-0.21875 C 1.890625,0.921875 1.5625,-0.96875 1.5625,-2.5 c 0,-1.734375 0.375,-3.46875 1.609375,-4.703125 0.125,-0.125 0.125,-0.140625 0.125,-0.171875 0,-0.078125 -0.03125,-0.109375 -0.09375,-0.109375 -0.109375,0 -1,0.6875 -1.59375,1.953125 -0.5,1.09375 -0.625,2.203125 -0.625,3.03125 0,0.78125 0.109375,1.984375 0.65625,3.125 C 2.25,1.84375 3.09375,2.5 3.203125,2.5 c 0.0625,0 0.09375,-0.03125 0.09375,-0.109375 z m 0,0"
                 id="id-85e5835b-63b6-48ba-9226-853d82bffdf1" />
            </g>
          </g>
          <g
             style="fill:#000000;fill-opacity:1"
             id="id-45a843a1-e2e8-4221-9453-6aaf8a41960b">
            <g
               transform="translate(158.537,134.765)"
               id="g4419">
              <path
                 style="stroke:none;stroke-width:0"
                 d="M 3.71875,-3.765625 C 3.53125,-4.140625 3.25,-4.40625 2.796875,-4.40625 c -1.15625,0 -2.390625,1.46875 -2.390625,2.921875 0,0.9375 0.546875,1.59375 1.3125,1.59375 0.203125,0 0.703125,-0.046875 1.296875,-0.75 0.078125,0.421875 0.4375,0.75 0.90625,0.75 0.359375,0 0.578125,-0.234375 0.75,-0.546875 0.15625,-0.359375 0.296875,-0.96875 0.296875,-0.984375 0,-0.109375 -0.09375,-0.109375 -0.125,-0.109375 -0.09375,0 -0.109375,0.046875 -0.140625,0.1875 -0.171875,0.640625 -0.34375,1.234375 -0.75,1.234375 -0.28125,0 -0.296875,-0.265625 -0.296875,-0.453125 0,-0.21875 0.015625,-0.3125 0.125,-0.75 C 3.890625,-1.71875 3.90625,-1.828125 4,-2.203125 L 4.359375,-3.59375 c 0.0625,-0.28125 0.0625,-0.296875 0.0625,-0.34375 0,-0.171875 -0.109375,-0.265625 -0.28125,-0.265625 -0.25,0 -0.390625,0.21875 -0.421875,0.4375 z M 3.078125,-1.1875 C 3.015625,-1 3.015625,-0.984375 2.875,-0.8125 2.4375,-0.265625 2.03125,-0.109375 1.75,-0.109375 c -0.5,0 -0.640625,-0.546875 -0.640625,-0.9375 0,-0.5 0.3125,-1.71875 0.546875,-2.1875 0.3125,-0.578125 0.75,-0.953125 1.15625,-0.953125 0.640625,0 0.78125,0.8125 0.78125,0.875 0,0.0625 -0.015625,0.125 -0.03125,0.171875 z m 0,0"
                 id="id-84593277-a915-4ccb-89e5-7068ed840597" />
            </g>
          </g>
          <g
             style="fill:#000000;fill-opacity:1"
             id="id-55abaf6e-b58f-4d75-8cb5-68aa54402c1f">
            <g
               transform="translate(163.803,134.765)"
               id="g4423">
              <path
                 style="stroke:none;stroke-width:0"
                 d="m 2.875,-2.5 c 0,-0.765625 -0.109375,-1.96875 -0.65625,-3.109375 -0.59375,-1.21875 -1.453125,-1.875 -1.546875,-1.875 -0.0625,0 -0.109375,0.046875 -0.109375,0.109375 0,0.03125 0,0.046875 0.1875,0.234375 0.984375,0.984375 1.546875,2.5625 1.546875,4.640625 0,1.71875 -0.359375,3.46875 -1.59375,4.71875 C 0.5625,2.34375 0.5625,2.359375 0.5625,2.390625 0.5625,2.453125 0.609375,2.5 0.671875,2.5 0.765625,2.5 1.671875,1.8125 2.25,0.546875 2.765625,-0.546875 2.875,-1.65625 2.875,-2.5 Z m 0,0"
                 id="id-bb8c5393-28a7-4e9a-b787-7b208a144b9d" />
            </g>
          </g>
        </g>
      </g>
      <g
         transform="matrix(0.29211868,0,0,0.29211868,73.321013,136.4834)"
         ns4:version="1.3.1"
         ns4:texconverter="pdflatex"
         ns4:pdfconverter="inkscape"
         ns4:text="$a$\n"
         ns4:preamble="/Users/ketiboldiais/Library/Application Support/org.inkscape.Inkscape/config/inkscape/extensions/circuitSymbols/circuitSymbolsPreamble.tex"
         ns4:scale="1.0"
         ns4:alignment="middle center"
         ns4:jacobian_sqrt="0.352778"
         id="g4655">
        <defs
           id="id-8adc1fe3-471e-433f-879e-6f939b7f0041">
          <g
             id="id-d7f22ca0-6574-4ede-a6ec-44aacee35469">
            <symbol
               overflow="visible"
               id="id-6707a66a-10c3-47d4-88c8-72ee951b7585">
              <path
                 style="stroke:none;stroke-width:0"
                 d=""
                 id="id-b3592758-8e81-47a3-8e98-2aa0cdf0b699" />
            </symbol>
            <symbol
               overflow="visible"
               id="id-c442d198-b7a9-4913-b940-03809a23addb">
              <path
                 style="stroke:none;stroke-width:0"
                 d="M 3.71875,-3.765625 C 3.53125,-4.140625 3.25,-4.40625 2.796875,-4.40625 c -1.15625,0 -2.390625,1.46875 -2.390625,2.921875 0,0.9375 0.546875,1.59375 1.3125,1.59375 0.203125,0 0.703125,-0.046875 1.296875,-0.75 0.078125,0.421875 0.4375,0.75 0.90625,0.75 0.359375,0 0.578125,-0.234375 0.75,-0.546875 0.15625,-0.359375 0.296875,-0.96875 0.296875,-0.984375 0,-0.109375 -0.09375,-0.109375 -0.125,-0.109375 -0.09375,0 -0.109375,0.046875 -0.140625,0.1875 -0.171875,0.640625 -0.34375,1.234375 -0.75,1.234375 -0.28125,0 -0.296875,-0.265625 -0.296875,-0.453125 0,-0.21875 0.015625,-0.3125 0.125,-0.75 C 3.890625,-1.71875 3.90625,-1.828125 4,-2.203125 L 4.359375,-3.59375 c 0.0625,-0.28125 0.0625,-0.296875 0.0625,-0.34375 0,-0.171875 -0.109375,-0.265625 -0.28125,-0.265625 -0.25,0 -0.390625,0.21875 -0.421875,0.4375 z M 3.078125,-1.1875 C 3.015625,-1 3.015625,-0.984375 2.875,-0.8125 2.4375,-0.265625 2.03125,-0.109375 1.75,-0.109375 c -0.5,0 -0.640625,-0.546875 -0.640625,-0.9375 0,-0.5 0.3125,-1.71875 0.546875,-2.1875 0.3125,-0.578125 0.75,-0.953125 1.15625,-0.953125 0.640625,0 0.78125,0.8125 0.78125,0.875 0,0.0625 -0.015625,0.125 -0.03125,0.171875 z m 0,0"
                 id="id-fb1616c7-de2a-47d2-99db-bafcc8b84d75" />
            </symbol>
          </g>
        </defs>
        <g
           id="id-d4875adb-5bf6-4fb7-b142-a8efbfb6db01"
           transform="translate(-149.118,-130.359)">
          <g
             style="fill:#000000;fill-opacity:1"
             id="id-ef051935-125d-4269-8bd7-1fa0279100b1">
            <g
               transform="translate(148.712,134.765)"
               id="g4651">
              <path
                 style="stroke:none;stroke-width:0"
                 d="M 3.71875,-3.765625 C 3.53125,-4.140625 3.25,-4.40625 2.796875,-4.40625 c -1.15625,0 -2.390625,1.46875 -2.390625,2.921875 0,0.9375 0.546875,1.59375 1.3125,1.59375 0.203125,0 0.703125,-0.046875 1.296875,-0.75 0.078125,0.421875 0.4375,0.75 0.90625,0.75 0.359375,0 0.578125,-0.234375 0.75,-0.546875 0.15625,-0.359375 0.296875,-0.96875 0.296875,-0.984375 0,-0.109375 -0.09375,-0.109375 -0.125,-0.109375 -0.09375,0 -0.109375,0.046875 -0.140625,0.1875 -0.171875,0.640625 -0.34375,1.234375 -0.75,1.234375 -0.28125,0 -0.296875,-0.265625 -0.296875,-0.453125 0,-0.21875 0.015625,-0.3125 0.125,-0.75 C 3.890625,-1.71875 3.90625,-1.828125 4,-2.203125 L 4.359375,-3.59375 c 0.0625,-0.28125 0.0625,-0.296875 0.0625,-0.34375 0,-0.171875 -0.109375,-0.265625 -0.28125,-0.265625 -0.25,0 -0.390625,0.21875 -0.421875,0.4375 z M 3.078125,-1.1875 C 3.015625,-1 3.015625,-0.984375 2.875,-0.8125 2.4375,-0.265625 2.03125,-0.109375 1.75,-0.109375 c -0.5,0 -0.640625,-0.546875 -0.640625,-0.9375 0,-0.5 0.3125,-1.71875 0.546875,-2.1875 0.3125,-0.578125 0.75,-0.953125 1.15625,-0.953125 0.640625,0 0.78125,0.8125 0.78125,0.875 0,0.0625 -0.015625,0.125 -0.03125,0.171875 z m 0,0"
                 id="id-fd32afe8-5914-4d4e-85f0-586222277c15" />
            </g>
          </g>
        </g>
      </g>
      <g
         transform="matrix(0.29211868,0,0,0.29211868,105.49108,135.35207)"
         ns4:version="1.3.1"
         ns4:texconverter="pdflatex"
         ns4:pdfconverter="inkscape"
         ns4:text="$b$\n"
         ns4:preamble="/Users/ketiboldiais/Library/Application Support/org.inkscape.Inkscape/config/inkscape/extensions/circuitSymbols/circuitSymbolsPreamble.tex"
         ns4:scale="1.0"
         ns4:alignment="middle center"
         ns4:jacobian_sqrt="0.352778"
         id="g4888">
        <defs
           id="id-ef1c38d1-9406-464a-ba49-5ecbe9ee64ba">
          <g
             id="id-edbb4c2e-e4dc-4d99-ade4-cfbbb91bfe5a">
            <symbol
               overflow="visible"
               id="id-a408fea7-aac5-427f-ace4-fa13955f8da1">
              <path
                 style="stroke:none;stroke-width:0"
                 d=""
                 id="id-5ae31686-d0df-486d-84e6-0a34ea56e40b" />
            </symbol>
            <symbol
               overflow="visible"
               id="id-82ce5e76-562f-4c84-9c98-56c84e6879a0">
              <path
                 style="stroke:none;stroke-width:0"
                 d="m 2.375,-6.8125 c 0,0 0,-0.109375 -0.125,-0.109375 -0.21875,0 -0.953125,0.078125 -1.21875,0.109375 -0.078125,0 -0.1875,0.015625 -0.1875,0.1875 0,0.125 0.09375,0.125 0.25,0.125 0.46875,0 0.484375,0.0625 0.484375,0.171875 0,0.0625 -0.078125,0.40625 -0.125,0.609375 l -0.828125,3.25 c -0.109375,0.5 -0.15625,0.671875 -0.15625,1.015625 0,0.9375 0.53125,1.5625 1.265625,1.5625 1.171875,0 2.40625,-1.484375 2.40625,-2.921875 0,-0.90625 -0.53125,-1.59375 -1.328125,-1.59375 -0.453125,0 -0.875,0.296875 -1.171875,0.59375 z M 1.453125,-3.046875 C 1.5,-3.265625 1.5,-3.28125 1.59375,-3.390625 2.078125,-4.03125 2.53125,-4.1875 2.796875,-4.1875 c 0.359375,0 0.625,0.296875 0.625,0.9375 0,0.59375 -0.328125,1.734375 -0.515625,2.109375 -0.328125,0.671875 -0.78125,1.03125 -1.171875,1.03125 -0.34375,0 -0.671875,-0.265625 -0.671875,-1 0,-0.203125 0,-0.390625 0.15625,-1.015625 z m 0,0"
                 id="id-19268f4a-cabe-432e-8870-6abb1c946c3f" />
            </symbol>
          </g>
        </defs>
        <g
           id="id-36100e97-cb48-44bb-b9d3-0435f4d3a2fc"
           transform="translate(-149.181,-127.843)">
          <g
             style="fill:#000000;fill-opacity:1"
             id="id-bcf7e365-4cdb-4097-aaa2-add49065e03a">
            <g
               transform="translate(148.712,134.765)"
               id="g4884">
              <path
                 style="stroke:none;stroke-width:0"
                 d="m 2.375,-6.8125 c 0,0 0,-0.109375 -0.125,-0.109375 -0.21875,0 -0.953125,0.078125 -1.21875,0.109375 -0.078125,0 -0.1875,0.015625 -0.1875,0.1875 0,0.125 0.09375,0.125 0.25,0.125 0.46875,0 0.484375,0.0625 0.484375,0.171875 0,0.0625 -0.078125,0.40625 -0.125,0.609375 l -0.828125,3.25 c -0.109375,0.5 -0.15625,0.671875 -0.15625,1.015625 0,0.9375 0.53125,1.5625 1.265625,1.5625 1.171875,0 2.40625,-1.484375 2.40625,-2.921875 0,-0.90625 -0.53125,-1.59375 -1.328125,-1.59375 -0.453125,0 -0.875,0.296875 -1.171875,0.59375 z M 1.453125,-3.046875 C 1.5,-3.265625 1.5,-3.28125 1.59375,-3.390625 2.078125,-4.03125 2.53125,-4.1875 2.796875,-4.1875 c 0.359375,0 0.625,0.296875 0.625,0.9375 0,0.59375 -0.328125,1.734375 -0.515625,2.109375 -0.328125,0.671875 -0.78125,1.03125 -1.171875,1.03125 -0.34375,0 -0.671875,-0.265625 -0.671875,-1 0,-0.203125 0,-0.390625 0.15625,-1.015625 z m 0,0"
                 id="id-4c44009c-969f-46ef-b8d2-9224242cbd29" />
            </g>
          </g>
        </g>
      </g>
      <g
         transform="matrix(0.29211868,0,0,0.29211868,64.224136,118.13148)"
         ns4:version="1.3.1"
         ns4:texconverter="pdflatex"
         ns4:pdfconverter="inkscape"
         ns4:text="$(a, f(a))$\n"
         ns4:preamble="/Users/ketiboldiais/Library/Application Support/org.inkscape.Inkscape/config/inkscape/extensions/circuitSymbols/circuitSymbolsPreamble.tex"
         ns4:scale="1.0"
         ns4:alignment="middle center"
         ns4:jacobian_sqrt="0.352778"
         id="g5179">
        <defs
           id="id-677acab9-7e03-4b23-94bb-1b3ab208d013">
          <g
             id="id-0aeb90e3-e7b5-4018-aee6-04b3e7b3cdff">
            <symbol
               overflow="visible"
               id="id-10a14918-4565-4877-bfd8-190668cdfbad">
              <path
                 style="stroke:none;stroke-width:0"
                 d=""
                 id="id-8f1ab794-42b1-4c3b-b32c-670432d81359" />
            </symbol>
            <symbol
               overflow="visible"
               id="id-5dffca89-8a56-47ea-add0-205d0664133b">
              <path
                 style="stroke:none;stroke-width:0"
                 d="m 3.296875,2.390625 c 0,-0.03125 0,-0.046875 -0.171875,-0.21875 C 1.890625,0.921875 1.5625,-0.96875 1.5625,-2.5 c 0,-1.734375 0.375,-3.46875 1.609375,-4.703125 0.125,-0.125 0.125,-0.140625 0.125,-0.171875 0,-0.078125 -0.03125,-0.109375 -0.09375,-0.109375 -0.109375,0 -1,0.6875 -1.59375,1.953125 -0.5,1.09375 -0.625,2.203125 -0.625,3.03125 0,0.78125 0.109375,1.984375 0.65625,3.125 C 2.25,1.84375 3.09375,2.5 3.203125,2.5 c 0.0625,0 0.09375,-0.03125 0.09375,-0.109375 z m 0,0"
                 id="id-74760b59-9bd3-40f7-b4fc-504430e30666" />
            </symbol>
            <symbol
               overflow="visible"
               id="id-59a22ac0-5a94-49e7-ab9a-3f226792065d">
              <path
                 style="stroke:none;stroke-width:0"
                 d="m 2.875,-2.5 c 0,-0.765625 -0.109375,-1.96875 -0.65625,-3.109375 -0.59375,-1.21875 -1.453125,-1.875 -1.546875,-1.875 -0.0625,0 -0.109375,0.046875 -0.109375,0.109375 0,0.03125 0,0.046875 0.1875,0.234375 0.984375,0.984375 1.546875,2.5625 1.546875,4.640625 0,1.71875 -0.359375,3.46875 -1.59375,4.71875 C 0.5625,2.34375 0.5625,2.359375 0.5625,2.390625 0.5625,2.453125 0.609375,2.5 0.671875,2.5 0.765625,2.5 1.671875,1.8125 2.25,0.546875 2.765625,-0.546875 2.875,-1.65625 2.875,-2.5 Z m 0,0"
                 id="id-5d3ce78b-32d4-463b-8254-1458b9f8da5f" />
            </symbol>
            <symbol
               overflow="visible"
               id="id-d9590fdd-fce0-42f4-ade8-de12455e8526">
              <path
                 style="stroke:none;stroke-width:0"
                 d=""
                 id="id-a5cf343b-0dbf-441d-8b72-be94b873ffa9" />
            </symbol>
            <symbol
               overflow="visible"
               id="id-d5c06297-c20d-4970-a4e7-91c545f655bf">
              <path
                 style="stroke:none;stroke-width:0"
                 d="M 3.71875,-3.765625 C 3.53125,-4.140625 3.25,-4.40625 2.796875,-4.40625 c -1.15625,0 -2.390625,1.46875 -2.390625,2.921875 0,0.9375 0.546875,1.59375 1.3125,1.59375 0.203125,0 0.703125,-0.046875 1.296875,-0.75 0.078125,0.421875 0.4375,0.75 0.90625,0.75 0.359375,0 0.578125,-0.234375 0.75,-0.546875 0.15625,-0.359375 0.296875,-0.96875 0.296875,-0.984375 0,-0.109375 -0.09375,-0.109375 -0.125,-0.109375 -0.09375,0 -0.109375,0.046875 -0.140625,0.1875 -0.171875,0.640625 -0.34375,1.234375 -0.75,1.234375 -0.28125,0 -0.296875,-0.265625 -0.296875,-0.453125 0,-0.21875 0.015625,-0.3125 0.125,-0.75 C 3.890625,-1.71875 3.90625,-1.828125 4,-2.203125 L 4.359375,-3.59375 c 0.0625,-0.28125 0.0625,-0.296875 0.0625,-0.34375 0,-0.171875 -0.109375,-0.265625 -0.28125,-0.265625 -0.25,0 -0.390625,0.21875 -0.421875,0.4375 z M 3.078125,-1.1875 C 3.015625,-1 3.015625,-0.984375 2.875,-0.8125 2.4375,-0.265625 2.03125,-0.109375 1.75,-0.109375 c -0.5,0 -0.640625,-0.546875 -0.640625,-0.9375 0,-0.5 0.3125,-1.71875 0.546875,-2.1875 0.3125,-0.578125 0.75,-0.953125 1.15625,-0.953125 0.640625,0 0.78125,0.8125 0.78125,0.875 0,0.0625 -0.015625,0.125 -0.03125,0.171875 z m 0,0"
                 id="id-8ec36a0a-be2a-42cb-9701-b97c62299dba" />
            </symbol>
            <symbol
               overflow="visible"
               id="id-0f73797b-d46f-40fe-818a-4c6e9199af81">
              <path
                 style="stroke:none;stroke-width:0"
                 d="m 2.03125,-0.015625 c 0,-0.65625 -0.25,-1.046875 -0.640625,-1.046875 -0.328125,0 -0.53125,0.25 -0.53125,0.53125 C 0.859375,-0.265625 1.0625,0 1.390625,0 1.5,0 1.640625,-0.046875 1.734375,-0.125 1.765625,-0.15625 1.78125,-0.15625 1.78125,-0.15625 c 0.015625,0 0.015625,0 0.015625,0.140625 0,0.75 -0.34375,1.34375 -0.671875,1.671875 -0.109375,0.109375 -0.109375,0.125 -0.109375,0.15625 0,0.078125 0.046875,0.109375 0.09375,0.109375 0.109375,0 0.921875,-0.765625 0.921875,-1.9375 z m 0,0"
                 id="id-261dcbb7-3682-423f-b1a6-60edb8fed660" />
            </symbol>
            <symbol
               overflow="visible"
               id="id-2c0873eb-d2d7-4bab-b97a-b9790f8a3304">
              <path
                 style="stroke:none;stroke-width:0"
                 d="m 3.65625,-3.984375 h 0.859375 c 0.203125,0 0.296875,0 0.296875,-0.203125 0,-0.109375 -0.09375,-0.109375 -0.265625,-0.109375 H 3.71875 L 3.921875,-5.4375 c 0.046875,-0.203125 0.1875,-0.90625 0.25,-1.03125 0.078125,-0.1875 0.25,-0.34375 0.46875,-0.34375 0.03125,0 0.296875,0 0.484375,0.1875 -0.4375,0.03125 -0.546875,0.390625 -0.546875,0.53125 0,0.234375 0.1875,0.359375 0.375,0.359375 C 5.21875,-5.734375 5.5,-5.96875 5.5,-6.34375 c 0,-0.453125 -0.453125,-0.6875 -0.859375,-0.6875 -0.34375,0 -0.96875,0.1875 -1.265625,1.171875 -0.0625,0.203125 -0.09375,0.3125 -0.328125,1.5625 h -0.6875 c -0.203125,0 -0.3125,0 -0.3125,0.1875 0,0.125 0.09375,0.125 0.28125,0.125 h 0.65625 L 2.25,-0.046875 c -0.1875,0.96875 -0.359375,1.875 -0.875,1.875 -0.046875,0 -0.28125,0 -0.484375,-0.1875 C 1.359375,1.609375 1.453125,1.25 1.453125,1.109375 1.453125,0.875 1.265625,0.75 1.078125,0.75 0.8125,0.75 0.53125,0.984375 0.53125,1.359375 c 0,0.4375 0.4375,0.6875 0.84375,0.6875 0.546875,0 0.953125,-0.59375 1.125,-0.96875 0.328125,-0.625 0.546875,-1.828125 0.5625,-1.90625 z m 0,0"
                 id="id-d2115918-9e80-4a1d-886d-9a054a095465" />
            </symbol>
          </g>
        </defs>
        <g
           id="id-ff6d9717-a2f4-4d78-9033-4355b7026b0a"
           transform="translate(-149.696,-127.281)">
          <g
             style="fill:#000000;fill-opacity:1"
             id="id-ecd66384-f51f-473b-b022-238eec731ab3">
            <g
               transform="translate(148.712,134.765)"
               id="g5149">
              <path
                 style="stroke:none;stroke-width:0"
                 d="m 3.296875,2.390625 c 0,-0.03125 0,-0.046875 -0.171875,-0.21875 C 1.890625,0.921875 1.5625,-0.96875 1.5625,-2.5 c 0,-1.734375 0.375,-3.46875 1.609375,-4.703125 0.125,-0.125 0.125,-0.140625 0.125,-0.171875 0,-0.078125 -0.03125,-0.109375 -0.09375,-0.109375 -0.109375,0 -1,0.6875 -1.59375,1.953125 -0.5,1.09375 -0.625,2.203125 -0.625,3.03125 0,0.78125 0.109375,1.984375 0.65625,3.125 C 2.25,1.84375 3.09375,2.5 3.203125,2.5 c 0.0625,0 0.09375,-0.03125 0.09375,-0.109375 z m 0,0"
                 id="id-2278ca62-4953-4d63-bfaa-60073881b148" />
            </g>
          </g>
          <g
             style="fill:#000000;fill-opacity:1"
             id="id-a6cab624-3f6d-406a-b444-594cb5486359">
            <g
               transform="translate(152.587,134.765)"
               id="g5153">
              <path
                 style="stroke:none;stroke-width:0"
                 d="M 3.71875,-3.765625 C 3.53125,-4.140625 3.25,-4.40625 2.796875,-4.40625 c -1.15625,0 -2.390625,1.46875 -2.390625,2.921875 0,0.9375 0.546875,1.59375 1.3125,1.59375 0.203125,0 0.703125,-0.046875 1.296875,-0.75 0.078125,0.421875 0.4375,0.75 0.90625,0.75 0.359375,0 0.578125,-0.234375 0.75,-0.546875 0.15625,-0.359375 0.296875,-0.96875 0.296875,-0.984375 0,-0.109375 -0.09375,-0.109375 -0.125,-0.109375 -0.09375,0 -0.109375,0.046875 -0.140625,0.1875 -0.171875,0.640625 -0.34375,1.234375 -0.75,1.234375 -0.28125,0 -0.296875,-0.265625 -0.296875,-0.453125 0,-0.21875 0.015625,-0.3125 0.125,-0.75 C 3.890625,-1.71875 3.90625,-1.828125 4,-2.203125 L 4.359375,-3.59375 c 0.0625,-0.28125 0.0625,-0.296875 0.0625,-0.34375 0,-0.171875 -0.109375,-0.265625 -0.28125,-0.265625 -0.25,0 -0.390625,0.21875 -0.421875,0.4375 z M 3.078125,-1.1875 C 3.015625,-1 3.015625,-0.984375 2.875,-0.8125 2.4375,-0.265625 2.03125,-0.109375 1.75,-0.109375 c -0.5,0 -0.640625,-0.546875 -0.640625,-0.9375 0,-0.5 0.3125,-1.71875 0.546875,-2.1875 0.3125,-0.578125 0.75,-0.953125 1.15625,-0.953125 0.640625,0 0.78125,0.8125 0.78125,0.875 0,0.0625 -0.015625,0.125 -0.03125,0.171875 z m 0,0"
                 id="id-79823b13-8239-4821-bfe7-1b23795d4817" />
            </g>
            <g
               transform="translate(157.853,134.765)"
               id="g5156">
              <path
                 style="stroke:none;stroke-width:0"
                 d="m 2.03125,-0.015625 c 0,-0.65625 -0.25,-1.046875 -0.640625,-1.046875 -0.328125,0 -0.53125,0.25 -0.53125,0.53125 C 0.859375,-0.265625 1.0625,0 1.390625,0 1.5,0 1.640625,-0.046875 1.734375,-0.125 1.765625,-0.15625 1.78125,-0.15625 1.78125,-0.15625 c 0.015625,0 0.015625,0 0.015625,0.140625 0,0.75 -0.34375,1.34375 -0.671875,1.671875 -0.109375,0.109375 -0.109375,0.125 -0.109375,0.15625 0,0.078125 0.046875,0.109375 0.09375,0.109375 0.109375,0 0.921875,-0.765625 0.921875,-1.9375 z m 0,0"
                 id="id-b5697a41-b7fe-4bbe-92b6-8877653c4b75" />
            </g>
          </g>
          <g
             style="fill:#000000;fill-opacity:1"
             id="id-a73cc227-32e5-46d3-97d9-aa150a48adf1">
            <g
               transform="translate(162.285,134.765)"
               id="g5160">
              <path
                 style="stroke:none;stroke-width:0"
                 d="m 3.65625,-3.984375 h 0.859375 c 0.203125,0 0.296875,0 0.296875,-0.203125 0,-0.109375 -0.09375,-0.109375 -0.265625,-0.109375 H 3.71875 L 3.921875,-5.4375 c 0.046875,-0.203125 0.1875,-0.90625 0.25,-1.03125 0.078125,-0.1875 0.25,-0.34375 0.46875,-0.34375 0.03125,0 0.296875,0 0.484375,0.1875 -0.4375,0.03125 -0.546875,0.390625 -0.546875,0.53125 0,0.234375 0.1875,0.359375 0.375,0.359375 C 5.21875,-5.734375 5.5,-5.96875 5.5,-6.34375 c 0,-0.453125 -0.453125,-0.6875 -0.859375,-0.6875 -0.34375,0 -0.96875,0.1875 -1.265625,1.171875 -0.0625,0.203125 -0.09375,0.3125 -0.328125,1.5625 h -0.6875 c -0.203125,0 -0.3125,0 -0.3125,0.1875 0,0.125 0.09375,0.125 0.28125,0.125 h 0.65625 L 2.25,-0.046875 c -0.1875,0.96875 -0.359375,1.875 -0.875,1.875 -0.046875,0 -0.28125,0 -0.484375,-0.1875 C 1.359375,1.609375 1.453125,1.25 1.453125,1.109375 1.453125,0.875 1.265625,0.75 1.078125,0.75 0.8125,0.75 0.53125,0.984375 0.53125,1.359375 c 0,0.4375 0.4375,0.6875 0.84375,0.6875 0.546875,0 0.953125,-0.59375 1.125,-0.96875 0.328125,-0.625 0.546875,-1.828125 0.5625,-1.90625 z m 0,0"
                 id="id-91213d22-7078-43aa-868c-1a7ee6649e30" />
            </g>
          </g>
          <g
             style="fill:#000000;fill-opacity:1"
             id="id-f050888f-ab98-4c33-8e9a-e121ef1ededa">
            <g
               transform="translate(168.231,134.765)"
               id="g5164">
              <path
                 style="stroke:none;stroke-width:0"
                 d="m 3.296875,2.390625 c 0,-0.03125 0,-0.046875 -0.171875,-0.21875 C 1.890625,0.921875 1.5625,-0.96875 1.5625,-2.5 c 0,-1.734375 0.375,-3.46875 1.609375,-4.703125 0.125,-0.125 0.125,-0.140625 0.125,-0.171875 0,-0.078125 -0.03125,-0.109375 -0.09375,-0.109375 -0.109375,0 -1,0.6875 -1.59375,1.953125 -0.5,1.09375 -0.625,2.203125 -0.625,3.03125 0,0.78125 0.109375,1.984375 0.65625,3.125 C 2.25,1.84375 3.09375,2.5 3.203125,2.5 c 0.0625,0 0.09375,-0.03125 0.09375,-0.109375 z m 0,0"
                 id="id-7a3fc18d-91fb-428e-8b05-3639c84b352b" />
            </g>
          </g>
          <g
             style="fill:#000000;fill-opacity:1"
             id="id-014b1709-0ec6-4763-90b9-ce5b67d0c707">
            <g
               transform="translate(172.105,134.765)"
               id="g5168">
              <path
                 style="stroke:none;stroke-width:0"
                 d="M 3.71875,-3.765625 C 3.53125,-4.140625 3.25,-4.40625 2.796875,-4.40625 c -1.15625,0 -2.390625,1.46875 -2.390625,2.921875 0,0.9375 0.546875,1.59375 1.3125,1.59375 0.203125,0 0.703125,-0.046875 1.296875,-0.75 0.078125,0.421875 0.4375,0.75 0.90625,0.75 0.359375,0 0.578125,-0.234375 0.75,-0.546875 0.15625,-0.359375 0.296875,-0.96875 0.296875,-0.984375 0,-0.109375 -0.09375,-0.109375 -0.125,-0.109375 -0.09375,0 -0.109375,0.046875 -0.140625,0.1875 -0.171875,0.640625 -0.34375,1.234375 -0.75,1.234375 -0.28125,0 -0.296875,-0.265625 -0.296875,-0.453125 0,-0.21875 0.015625,-0.3125 0.125,-0.75 C 3.890625,-1.71875 3.90625,-1.828125 4,-2.203125 L 4.359375,-3.59375 c 0.0625,-0.28125 0.0625,-0.296875 0.0625,-0.34375 0,-0.171875 -0.109375,-0.265625 -0.28125,-0.265625 -0.25,0 -0.390625,0.21875 -0.421875,0.4375 z M 3.078125,-1.1875 C 3.015625,-1 3.015625,-0.984375 2.875,-0.8125 2.4375,-0.265625 2.03125,-0.109375 1.75,-0.109375 c -0.5,0 -0.640625,-0.546875 -0.640625,-0.9375 0,-0.5 0.3125,-1.71875 0.546875,-2.1875 0.3125,-0.578125 0.75,-0.953125 1.15625,-0.953125 0.640625,0 0.78125,0.8125 0.78125,0.875 0,0.0625 -0.015625,0.125 -0.03125,0.171875 z m 0,0"
                 id="id-7b07471f-b9d4-41bc-b5aa-3d848f12f574" />
            </g>
          </g>
          <g
             style="fill:#000000;fill-opacity:1"
             id="id-7d93d816-9a32-453e-a25f-7feae23fddbd">
            <g
               transform="translate(177.371,134.765)"
               id="g5172">
              <path
                 style="stroke:none;stroke-width:0"
                 d="m 2.875,-2.5 c 0,-0.765625 -0.109375,-1.96875 -0.65625,-3.109375 -0.59375,-1.21875 -1.453125,-1.875 -1.546875,-1.875 -0.0625,0 -0.109375,0.046875 -0.109375,0.109375 0,0.03125 0,0.046875 0.1875,0.234375 0.984375,0.984375 1.546875,2.5625 1.546875,4.640625 0,1.71875 -0.359375,3.46875 -1.59375,4.71875 C 0.5625,2.34375 0.5625,2.359375 0.5625,2.390625 0.5625,2.453125 0.609375,2.5 0.671875,2.5 0.765625,2.5 1.671875,1.8125 2.25,0.546875 2.765625,-0.546875 2.875,-1.65625 2.875,-2.5 Z m 0,0"
                 id="id-f8df9f13-9449-4611-8cbf-dbb4fa36da45" />
            </g>
            <g
               transform="translate(181.245,134.765)"
               id="g5175">
              <path
                 style="stroke:none;stroke-width:0"
                 d="m 2.875,-2.5 c 0,-0.765625 -0.109375,-1.96875 -0.65625,-3.109375 -0.59375,-1.21875 -1.453125,-1.875 -1.546875,-1.875 -0.0625,0 -0.109375,0.046875 -0.109375,0.109375 0,0.03125 0,0.046875 0.1875,0.234375 0.984375,0.984375 1.546875,2.5625 1.546875,4.640625 0,1.71875 -0.359375,3.46875 -1.59375,4.71875 C 0.5625,2.34375 0.5625,2.359375 0.5625,2.390625 0.5625,2.453125 0.609375,2.5 0.671875,2.5 0.765625,2.5 1.671875,1.8125 2.25,0.546875 2.765625,-0.546875 2.875,-1.65625 2.875,-2.5 Z m 0,0"
                 id="id-7aa7e0b8-4dfe-4e9e-bea6-0867e0cb193c" />
            </g>
          </g>
        </g>
      </g>
      <g
         transform="matrix(0.29211868,0,0,0.29211868,108.5359,93.730926)"
         ns4:version="1.3.1"
         ns4:texconverter="pdflatex"
         ns4:pdfconverter="inkscape"
         ns4:text="$(b, f(b))$\n"
         ns4:preamble="/Users/ketiboldiais/Library/Application Support/org.inkscape.Inkscape/config/inkscape/extensions/circuitSymbols/circuitSymbolsPreamble.tex"
         ns4:scale="1.0"
         ns4:alignment="middle center"
         ns4:jacobian_sqrt="0.352778"
         id="g5579">
        <defs
           id="id-6e14fb89-910b-4bf5-be8b-76de0bda2e57">
          <g
             id="id-ada4bd1a-bbe3-4da2-b971-489191e2f94e">
            <symbol
               overflow="visible"
               id="id-de0eaf24-8651-4448-826c-b66dde3beed5">
              <path
                 style="stroke:none;stroke-width:0"
                 d=""
                 id="id-0f110b4a-2246-4bb9-bfaf-4e97b295b8fe" />
            </symbol>
            <symbol
               overflow="visible"
               id="id-e9f1fb36-22c7-469c-8a70-5bfdde70899c">
              <path
                 style="stroke:none;stroke-width:0"
                 d="m 3.296875,2.390625 c 0,-0.03125 0,-0.046875 -0.171875,-0.21875 C 1.890625,0.921875 1.5625,-0.96875 1.5625,-2.5 c 0,-1.734375 0.375,-3.46875 1.609375,-4.703125 0.125,-0.125 0.125,-0.140625 0.125,-0.171875 0,-0.078125 -0.03125,-0.109375 -0.09375,-0.109375 -0.109375,0 -1,0.6875 -1.59375,1.953125 -0.5,1.09375 -0.625,2.203125 -0.625,3.03125 0,0.78125 0.109375,1.984375 0.65625,3.125 C 2.25,1.84375 3.09375,2.5 3.203125,2.5 c 0.0625,0 0.09375,-0.03125 0.09375,-0.109375 z m 0,0"
                 id="id-961ce3d2-d414-4060-9149-b3b23126fad4" />
            </symbol>
            <symbol
               overflow="visible"
               id="id-c4ff901b-58af-40d4-9a41-010eb650cae9">
              <path
                 style="stroke:none;stroke-width:0"
                 d="m 2.875,-2.5 c 0,-0.765625 -0.109375,-1.96875 -0.65625,-3.109375 -0.59375,-1.21875 -1.453125,-1.875 -1.546875,-1.875 -0.0625,0 -0.109375,0.046875 -0.109375,0.109375 0,0.03125 0,0.046875 0.1875,0.234375 0.984375,0.984375 1.546875,2.5625 1.546875,4.640625 0,1.71875 -0.359375,3.46875 -1.59375,4.71875 C 0.5625,2.34375 0.5625,2.359375 0.5625,2.390625 0.5625,2.453125 0.609375,2.5 0.671875,2.5 0.765625,2.5 1.671875,1.8125 2.25,0.546875 2.765625,-0.546875 2.875,-1.65625 2.875,-2.5 Z m 0,0"
                 id="id-34ae478d-9289-4132-96a1-020bc9cc2568" />
            </symbol>
            <symbol
               overflow="visible"
               id="id-54e64c47-41e5-46d1-b834-ebb9be842d16">
              <path
                 style="stroke:none;stroke-width:0"
                 d=""
                 id="id-20404070-d65e-4502-a687-896a6b77f476" />
            </symbol>
            <symbol
               overflow="visible"
               id="id-93b3f6a2-04fb-45a6-bd0c-09fa567304e3">
              <path
                 style="stroke:none;stroke-width:0"
                 d="m 2.375,-6.8125 c 0,0 0,-0.109375 -0.125,-0.109375 -0.21875,0 -0.953125,0.078125 -1.21875,0.109375 -0.078125,0 -0.1875,0.015625 -0.1875,0.1875 0,0.125 0.09375,0.125 0.25,0.125 0.46875,0 0.484375,0.0625 0.484375,0.171875 0,0.0625 -0.078125,0.40625 -0.125,0.609375 l -0.828125,3.25 c -0.109375,0.5 -0.15625,0.671875 -0.15625,1.015625 0,0.9375 0.53125,1.5625 1.265625,1.5625 1.171875,0 2.40625,-1.484375 2.40625,-2.921875 0,-0.90625 -0.53125,-1.59375 -1.328125,-1.59375 -0.453125,0 -0.875,0.296875 -1.171875,0.59375 z M 1.453125,-3.046875 C 1.5,-3.265625 1.5,-3.28125 1.59375,-3.390625 2.078125,-4.03125 2.53125,-4.1875 2.796875,-4.1875 c 0.359375,0 0.625,0.296875 0.625,0.9375 0,0.59375 -0.328125,1.734375 -0.515625,2.109375 -0.328125,0.671875 -0.78125,1.03125 -1.171875,1.03125 -0.34375,0 -0.671875,-0.265625 -0.671875,-1 0,-0.203125 0,-0.390625 0.15625,-1.015625 z m 0,0"
                 id="id-b86402da-93f1-4ede-887b-4dd75e7f8b2a" />
            </symbol>
            <symbol
               overflow="visible"
               id="id-ac85ebdc-a78f-4013-ad8c-42c38ad8d51c">
              <path
                 style="stroke:none;stroke-width:0"
                 d="m 2.03125,-0.015625 c 0,-0.65625 -0.25,-1.046875 -0.640625,-1.046875 -0.328125,0 -0.53125,0.25 -0.53125,0.53125 C 0.859375,-0.265625 1.0625,0 1.390625,0 1.5,0 1.640625,-0.046875 1.734375,-0.125 1.765625,-0.15625 1.78125,-0.15625 1.78125,-0.15625 c 0.015625,0 0.015625,0 0.015625,0.140625 0,0.75 -0.34375,1.34375 -0.671875,1.671875 -0.109375,0.109375 -0.109375,0.125 -0.109375,0.15625 0,0.078125 0.046875,0.109375 0.09375,0.109375 0.109375,0 0.921875,-0.765625 0.921875,-1.9375 z m 0,0"
                 id="id-0cb25ef3-f057-4e4a-97c0-cb05acf7f849" />
            </symbol>
            <symbol
               overflow="visible"
               id="id-87fdfd4e-e636-4ac6-b03a-78a49d7951ef">
              <path
                 style="stroke:none;stroke-width:0"
                 d="m 3.65625,-3.984375 h 0.859375 c 0.203125,0 0.296875,0 0.296875,-0.203125 0,-0.109375 -0.09375,-0.109375 -0.265625,-0.109375 H 3.71875 L 3.921875,-5.4375 c 0.046875,-0.203125 0.1875,-0.90625 0.25,-1.03125 0.078125,-0.1875 0.25,-0.34375 0.46875,-0.34375 0.03125,0 0.296875,0 0.484375,0.1875 -0.4375,0.03125 -0.546875,0.390625 -0.546875,0.53125 0,0.234375 0.1875,0.359375 0.375,0.359375 C 5.21875,-5.734375 5.5,-5.96875 5.5,-6.34375 c 0,-0.453125 -0.453125,-0.6875 -0.859375,-0.6875 -0.34375,0 -0.96875,0.1875 -1.265625,1.171875 -0.0625,0.203125 -0.09375,0.3125 -0.328125,1.5625 h -0.6875 c -0.203125,0 -0.3125,0 -0.3125,0.1875 0,0.125 0.09375,0.125 0.28125,0.125 h 0.65625 L 2.25,-0.046875 c -0.1875,0.96875 -0.359375,1.875 -0.875,1.875 -0.046875,0 -0.28125,0 -0.484375,-0.1875 C 1.359375,1.609375 1.453125,1.25 1.453125,1.109375 1.453125,0.875 1.265625,0.75 1.078125,0.75 0.8125,0.75 0.53125,0.984375 0.53125,1.359375 c 0,0.4375 0.4375,0.6875 0.84375,0.6875 0.546875,0 0.953125,-0.59375 1.125,-0.96875 0.328125,-0.625 0.546875,-1.828125 0.5625,-1.90625 z m 0,0"
                 id="id-dc40303c-6af0-4806-a0d0-cc47bfc74596" />
            </symbol>
          </g>
        </defs>
        <g
           id="id-a6229c7d-f67e-487d-85ef-827e9ad8e4cd"
           transform="translate(-149.696,-127.281)">
          <g
             style="fill:#000000;fill-opacity:1"
             id="id-5b870745-b7b1-48ec-a112-c7761c3ae376">
            <g
               transform="translate(148.712,134.765)"
               id="g5549">
              <path
                 style="stroke:none;stroke-width:0"
                 d="m 3.296875,2.390625 c 0,-0.03125 0,-0.046875 -0.171875,-0.21875 C 1.890625,0.921875 1.5625,-0.96875 1.5625,-2.5 c 0,-1.734375 0.375,-3.46875 1.609375,-4.703125 0.125,-0.125 0.125,-0.140625 0.125,-0.171875 0,-0.078125 -0.03125,-0.109375 -0.09375,-0.109375 -0.109375,0 -1,0.6875 -1.59375,1.953125 -0.5,1.09375 -0.625,2.203125 -0.625,3.03125 0,0.78125 0.109375,1.984375 0.65625,3.125 C 2.25,1.84375 3.09375,2.5 3.203125,2.5 c 0.0625,0 0.09375,-0.03125 0.09375,-0.109375 z m 0,0"
                 id="id-fc85debc-2045-45e9-8d39-c1c9f8e029f0" />
            </g>
          </g>
          <g
             style="fill:#000000;fill-opacity:1"
             id="id-db167c88-f8e8-4296-8c49-f5168fa672f7">
            <g
               transform="translate(152.587,134.765)"
               id="g5553">
              <path
                 style="stroke:none;stroke-width:0"
                 d="m 2.375,-6.8125 c 0,0 0,-0.109375 -0.125,-0.109375 -0.21875,0 -0.953125,0.078125 -1.21875,0.109375 -0.078125,0 -0.1875,0.015625 -0.1875,0.1875 0,0.125 0.09375,0.125 0.25,0.125 0.46875,0 0.484375,0.0625 0.484375,0.171875 0,0.0625 -0.078125,0.40625 -0.125,0.609375 l -0.828125,3.25 c -0.109375,0.5 -0.15625,0.671875 -0.15625,1.015625 0,0.9375 0.53125,1.5625 1.265625,1.5625 1.171875,0 2.40625,-1.484375 2.40625,-2.921875 0,-0.90625 -0.53125,-1.59375 -1.328125,-1.59375 -0.453125,0 -0.875,0.296875 -1.171875,0.59375 z M 1.453125,-3.046875 C 1.5,-3.265625 1.5,-3.28125 1.59375,-3.390625 2.078125,-4.03125 2.53125,-4.1875 2.796875,-4.1875 c 0.359375,0 0.625,0.296875 0.625,0.9375 0,0.59375 -0.328125,1.734375 -0.515625,2.109375 -0.328125,0.671875 -0.78125,1.03125 -1.171875,1.03125 -0.34375,0 -0.671875,-0.265625 -0.671875,-1 0,-0.203125 0,-0.390625 0.15625,-1.015625 z m 0,0"
                 id="id-5db92152-c994-4962-9d08-2270071809bd" />
            </g>
            <g
               transform="translate(156.863,134.765)"
               id="g5556">
              <path
                 style="stroke:none;stroke-width:0"
                 d="m 2.03125,-0.015625 c 0,-0.65625 -0.25,-1.046875 -0.640625,-1.046875 -0.328125,0 -0.53125,0.25 -0.53125,0.53125 C 0.859375,-0.265625 1.0625,0 1.390625,0 1.5,0 1.640625,-0.046875 1.734375,-0.125 1.765625,-0.15625 1.78125,-0.15625 1.78125,-0.15625 c 0.015625,0 0.015625,0 0.015625,0.140625 0,0.75 -0.34375,1.34375 -0.671875,1.671875 -0.109375,0.109375 -0.109375,0.125 -0.109375,0.15625 0,0.078125 0.046875,0.109375 0.09375,0.109375 0.109375,0 0.921875,-0.765625 0.921875,-1.9375 z m 0,0"
                 id="id-99ee3f68-ddc7-4f9a-b90b-3fe4c35888c1" />
            </g>
          </g>
          <g
             style="fill:#000000;fill-opacity:1"
             id="id-bac98987-dc56-4f05-a7e4-d1720f2faf3a">
            <g
               transform="translate(161.294,134.765)"
               id="g5560">
              <path
                 style="stroke:none;stroke-width:0"
                 d="m 3.65625,-3.984375 h 0.859375 c 0.203125,0 0.296875,0 0.296875,-0.203125 0,-0.109375 -0.09375,-0.109375 -0.265625,-0.109375 H 3.71875 L 3.921875,-5.4375 c 0.046875,-0.203125 0.1875,-0.90625 0.25,-1.03125 0.078125,-0.1875 0.25,-0.34375 0.46875,-0.34375 0.03125,0 0.296875,0 0.484375,0.1875 -0.4375,0.03125 -0.546875,0.390625 -0.546875,0.53125 0,0.234375 0.1875,0.359375 0.375,0.359375 C 5.21875,-5.734375 5.5,-5.96875 5.5,-6.34375 c 0,-0.453125 -0.453125,-0.6875 -0.859375,-0.6875 -0.34375,0 -0.96875,0.1875 -1.265625,1.171875 -0.0625,0.203125 -0.09375,0.3125 -0.328125,1.5625 h -0.6875 c -0.203125,0 -0.3125,0 -0.3125,0.1875 0,0.125 0.09375,0.125 0.28125,0.125 h 0.65625 L 2.25,-0.046875 c -0.1875,0.96875 -0.359375,1.875 -0.875,1.875 -0.046875,0 -0.28125,0 -0.484375,-0.1875 C 1.359375,1.609375 1.453125,1.25 1.453125,1.109375 1.453125,0.875 1.265625,0.75 1.078125,0.75 0.8125,0.75 0.53125,0.984375 0.53125,1.359375 c 0,0.4375 0.4375,0.6875 0.84375,0.6875 0.546875,0 0.953125,-0.59375 1.125,-0.96875 0.328125,-0.625 0.546875,-1.828125 0.5625,-1.90625 z m 0,0"
                 id="id-9aa927f0-6ed2-495c-90f5-4d30c0dc9e00" />
            </g>
          </g>
          <g
             style="fill:#000000;fill-opacity:1"
             id="id-3cf64dbf-3ca8-4293-89a0-2ea0b1915719">
            <g
               transform="translate(167.24,134.765)"
               id="g5564">
              <path
                 style="stroke:none;stroke-width:0"
                 d="m 3.296875,2.390625 c 0,-0.03125 0,-0.046875 -0.171875,-0.21875 C 1.890625,0.921875 1.5625,-0.96875 1.5625,-2.5 c 0,-1.734375 0.375,-3.46875 1.609375,-4.703125 0.125,-0.125 0.125,-0.140625 0.125,-0.171875 0,-0.078125 -0.03125,-0.109375 -0.09375,-0.109375 -0.109375,0 -1,0.6875 -1.59375,1.953125 -0.5,1.09375 -0.625,2.203125 -0.625,3.03125 0,0.78125 0.109375,1.984375 0.65625,3.125 C 2.25,1.84375 3.09375,2.5 3.203125,2.5 c 0.0625,0 0.09375,-0.03125 0.09375,-0.109375 z m 0,0"
                 id="id-db7783a4-d5af-4b99-877c-6263eb3f7aca" />
            </g>
          </g>
          <g
             style="fill:#000000;fill-opacity:1"
             id="id-563d1f24-4fd9-442a-aec2-a91202128bd3">
            <g
               transform="translate(171.114,134.765)"
               id="g5568">
              <path
                 style="stroke:none;stroke-width:0"
                 d="m 2.375,-6.8125 c 0,0 0,-0.109375 -0.125,-0.109375 -0.21875,0 -0.953125,0.078125 -1.21875,0.109375 -0.078125,0 -0.1875,0.015625 -0.1875,0.1875 0,0.125 0.09375,0.125 0.25,0.125 0.46875,0 0.484375,0.0625 0.484375,0.171875 0,0.0625 -0.078125,0.40625 -0.125,0.609375 l -0.828125,3.25 c -0.109375,0.5 -0.15625,0.671875 -0.15625,1.015625 0,0.9375 0.53125,1.5625 1.265625,1.5625 1.171875,0 2.40625,-1.484375 2.40625,-2.921875 0,-0.90625 -0.53125,-1.59375 -1.328125,-1.59375 -0.453125,0 -0.875,0.296875 -1.171875,0.59375 z M 1.453125,-3.046875 C 1.5,-3.265625 1.5,-3.28125 1.59375,-3.390625 2.078125,-4.03125 2.53125,-4.1875 2.796875,-4.1875 c 0.359375,0 0.625,0.296875 0.625,0.9375 0,0.59375 -0.328125,1.734375 -0.515625,2.109375 -0.328125,0.671875 -0.78125,1.03125 -1.171875,1.03125 -0.34375,0 -0.671875,-0.265625 -0.671875,-1 0,-0.203125 0,-0.390625 0.15625,-1.015625 z m 0,0"
                 id="id-d40adf7e-4ec6-4140-995c-339024a909a1" />
            </g>
          </g>
          <g
             style="fill:#000000;fill-opacity:1"
             id="id-73035401-23fb-4e27-998e-0e7a7e86a818">
            <g
               transform="translate(175.39,134.765)"
               id="g5572">
              <path
                 style="stroke:none;stroke-width:0"
                 d="m 2.875,-2.5 c 0,-0.765625 -0.109375,-1.96875 -0.65625,-3.109375 -0.59375,-1.21875 -1.453125,-1.875 -1.546875,-1.875 -0.0625,0 -0.109375,0.046875 -0.109375,0.109375 0,0.03125 0,0.046875 0.1875,0.234375 0.984375,0.984375 1.546875,2.5625 1.546875,4.640625 0,1.71875 -0.359375,3.46875 -1.59375,4.71875 C 0.5625,2.34375 0.5625,2.359375 0.5625,2.390625 0.5625,2.453125 0.609375,2.5 0.671875,2.5 0.765625,2.5 1.671875,1.8125 2.25,0.546875 2.765625,-0.546875 2.875,-1.65625 2.875,-2.5 Z m 0,0"
                 id="id-af062c3c-4962-4a9f-b2b9-c4d718bcc461" />
            </g>
            <g
               transform="translate(179.264,134.765)"
               id="g5575">
              <path
                 style="stroke:none;stroke-width:0"
                 d="m 2.875,-2.5 c 0,-0.765625 -0.109375,-1.96875 -0.65625,-3.109375 -0.59375,-1.21875 -1.453125,-1.875 -1.546875,-1.875 -0.0625,0 -0.109375,0.046875 -0.109375,0.109375 0,0.03125 0,0.046875 0.1875,0.234375 0.984375,0.984375 1.546875,2.5625 1.546875,4.640625 0,1.71875 -0.359375,3.46875 -1.59375,4.71875 C 0.5625,2.34375 0.5625,2.359375 0.5625,2.390625 0.5625,2.453125 0.609375,2.5 0.671875,2.5 0.765625,2.5 1.671875,1.8125 2.25,0.546875 2.765625,-0.546875 2.875,-1.65625 2.875,-2.5 Z m 0,0"
                 id="id-7d185df3-f12f-4c9a-ad29-87062236ecc4" />
            </g>
          </g>
        </g>
      </g>
      <g
         transform="matrix(0.29211868,0,0,0.29211868,86.898171,124.65007)"
         ns4:version="1.3.1"
         ns4:texconverter="pdflatex"
         ns4:pdfconverter="inkscape"
         ns4:text="$b - a$\n"
         ns4:preamble="/Users/ketiboldiais/Library/Application Support/org.inkscape.Inkscape/config/inkscape/extensions/circuitSymbols/circuitSymbolsPreamble.tex"
         ns4:scale="1.0"
         ns4:alignment="middle center"
         ns4:jacobian_sqrt="0.352778"
         id="g6037">
        <defs
           id="id-7fc432fa-d9bf-43bb-ba00-394e8ce34eef">
          <g
             id="id-324c92a6-e143-44b3-9307-1fe17a86643c">
            <symbol
               overflow="visible"
               id="id-4b96eefb-1610-43c5-ac74-dbbb662bdbcf">
              <path
                 style="stroke:none;stroke-width:0"
                 d=""
                 id="id-c8c1fe8a-7f91-4293-848d-3e93585fa30e" />
            </symbol>
            <symbol
               overflow="visible"
               id="id-ae52f648-a198-46b2-a63f-c0f170d14d71">
              <path
                 style="stroke:none;stroke-width:0"
                 d="m 2.375,-6.8125 c 0,0 0,-0.109375 -0.125,-0.109375 -0.21875,0 -0.953125,0.078125 -1.21875,0.109375 -0.078125,0 -0.1875,0.015625 -0.1875,0.1875 0,0.125 0.09375,0.125 0.25,0.125 0.46875,0 0.484375,0.0625 0.484375,0.171875 0,0.0625 -0.078125,0.40625 -0.125,0.609375 l -0.828125,3.25 c -0.109375,0.5 -0.15625,0.671875 -0.15625,1.015625 0,0.9375 0.53125,1.5625 1.265625,1.5625 1.171875,0 2.40625,-1.484375 2.40625,-2.921875 0,-0.90625 -0.53125,-1.59375 -1.328125,-1.59375 -0.453125,0 -0.875,0.296875 -1.171875,0.59375 z M 1.453125,-3.046875 C 1.5,-3.265625 1.5,-3.28125 1.59375,-3.390625 2.078125,-4.03125 2.53125,-4.1875 2.796875,-4.1875 c 0.359375,0 0.625,0.296875 0.625,0.9375 0,0.59375 -0.328125,1.734375 -0.515625,2.109375 -0.328125,0.671875 -0.78125,1.03125 -1.171875,1.03125 -0.34375,0 -0.671875,-0.265625 -0.671875,-1 0,-0.203125 0,-0.390625 0.15625,-1.015625 z m 0,0"
                 id="id-2c673e50-f6d8-40fb-9f64-eb2ea9ac8696" />
            </symbol>
            <symbol
               overflow="visible"
               id="id-f58e950d-f6b5-4bb5-a713-9d8bd49b761b">
              <path
                 style="stroke:none;stroke-width:0"
                 d="M 3.71875,-3.765625 C 3.53125,-4.140625 3.25,-4.40625 2.796875,-4.40625 c -1.15625,0 -2.390625,1.46875 -2.390625,2.921875 0,0.9375 0.546875,1.59375 1.3125,1.59375 0.203125,0 0.703125,-0.046875 1.296875,-0.75 0.078125,0.421875 0.4375,0.75 0.90625,0.75 0.359375,0 0.578125,-0.234375 0.75,-0.546875 0.15625,-0.359375 0.296875,-0.96875 0.296875,-0.984375 0,-0.109375 -0.09375,-0.109375 -0.125,-0.109375 -0.09375,0 -0.109375,0.046875 -0.140625,0.1875 -0.171875,0.640625 -0.34375,1.234375 -0.75,1.234375 -0.28125,0 -0.296875,-0.265625 -0.296875,-0.453125 0,-0.21875 0.015625,-0.3125 0.125,-0.75 C 3.890625,-1.71875 3.90625,-1.828125 4,-2.203125 L 4.359375,-3.59375 c 0.0625,-0.28125 0.0625,-0.296875 0.0625,-0.34375 0,-0.171875 -0.109375,-0.265625 -0.28125,-0.265625 -0.25,0 -0.390625,0.21875 -0.421875,0.4375 z M 3.078125,-1.1875 C 3.015625,-1 3.015625,-0.984375 2.875,-0.8125 2.4375,-0.265625 2.03125,-0.109375 1.75,-0.109375 c -0.5,0 -0.640625,-0.546875 -0.640625,-0.9375 0,-0.5 0.3125,-1.71875 0.546875,-2.1875 0.3125,-0.578125 0.75,-0.953125 1.15625,-0.953125 0.640625,0 0.78125,0.8125 0.78125,0.875 0,0.0625 -0.015625,0.125 -0.03125,0.171875 z m 0,0"
                 id="id-eb10c40f-95fe-495f-aa5e-ac10966ff448" />
            </symbol>
            <symbol
               overflow="visible"
               id="id-fb150cf8-c1e3-4573-bdd0-9fca2be709d2">
              <path
                 style="stroke:none;stroke-width:0"
                 d=""
                 id="id-6f5d4f93-3cdc-4534-8dba-20e2067a26f8" />
            </symbol>
            <symbol
               overflow="visible"
               id="id-91b67c9c-e65e-4113-8e38-9cd5d1951c21">
              <path
                 style="stroke:none;stroke-width:0"
                 d="m 6.5625,-2.296875 c 0.171875,0 0.359375,0 0.359375,-0.203125 0,-0.1875 -0.1875,-0.1875 -0.359375,-0.1875 H 1.171875 c -0.171875,0 -0.34375,0 -0.34375,0.1875 0,0.203125 0.171875,0.203125 0.34375,0.203125 z m 0,0"
                 id="id-71a43b64-1dd4-4c4a-ba9e-c18619ecf5c6" />
            </symbol>
          </g>
        </defs>
        <g
           id="id-fe6ff5c7-26f8-4e87-97bc-0d1b3c28e36e"
           transform="translate(-149.181,-127.843)">
          <g
             style="fill:#000000;fill-opacity:1"
             id="id-dee5a4b8-aff4-4e22-8fa1-3ce3c9d79470">
            <g
               transform="translate(148.712,134.765)"
               id="g6025">
              <path
                 style="stroke:none;stroke-width:0"
                 d="m 2.375,-6.8125 c 0,0 0,-0.109375 -0.125,-0.109375 -0.21875,0 -0.953125,0.078125 -1.21875,0.109375 -0.078125,0 -0.1875,0.015625 -0.1875,0.1875 0,0.125 0.09375,0.125 0.25,0.125 0.46875,0 0.484375,0.0625 0.484375,0.171875 0,0.0625 -0.078125,0.40625 -0.125,0.609375 l -0.828125,3.25 c -0.109375,0.5 -0.15625,0.671875 -0.15625,1.015625 0,0.9375 0.53125,1.5625 1.265625,1.5625 1.171875,0 2.40625,-1.484375 2.40625,-2.921875 0,-0.90625 -0.53125,-1.59375 -1.328125,-1.59375 -0.453125,0 -0.875,0.296875 -1.171875,0.59375 z M 1.453125,-3.046875 C 1.5,-3.265625 1.5,-3.28125 1.59375,-3.390625 2.078125,-4.03125 2.53125,-4.1875 2.796875,-4.1875 c 0.359375,0 0.625,0.296875 0.625,0.9375 0,0.59375 -0.328125,1.734375 -0.515625,2.109375 -0.328125,0.671875 -0.78125,1.03125 -1.171875,1.03125 -0.34375,0 -0.671875,-0.265625 -0.671875,-1 0,-0.203125 0,-0.390625 0.15625,-1.015625 z m 0,0"
                 id="id-2b6436bc-ceac-4f87-b7ed-ef8c1644e508" />
            </g>
          </g>
          <g
             style="fill:#000000;fill-opacity:1"
             id="id-7a97262c-96dd-4c78-901b-a53c63d005ef">
            <g
               transform="translate(155.202,134.765)"
               id="g6029">
              <path
                 style="stroke:none;stroke-width:0"
                 d="m 6.5625,-2.296875 c 0.171875,0 0.359375,0 0.359375,-0.203125 0,-0.1875 -0.1875,-0.1875 -0.359375,-0.1875 H 1.171875 c -0.171875,0 -0.34375,0 -0.34375,0.1875 0,0.203125 0.171875,0.203125 0.34375,0.203125 z m 0,0"
                 id="id-38008ae2-a742-48f9-a1db-4f1e6470c4e4" />
            </g>
          </g>
          <g
             style="fill:#000000;fill-opacity:1"
             id="id-32e106a1-0e0a-4100-947b-226d951573de">
            <g
               transform="translate(165.164,134.765)"
               id="g6033">
              <path
                 style="stroke:none;stroke-width:0"
                 d="M 3.71875,-3.765625 C 3.53125,-4.140625 3.25,-4.40625 2.796875,-4.40625 c -1.15625,0 -2.390625,1.46875 -2.390625,2.921875 0,0.9375 0.546875,1.59375 1.3125,1.59375 0.203125,0 0.703125,-0.046875 1.296875,-0.75 0.078125,0.421875 0.4375,0.75 0.90625,0.75 0.359375,0 0.578125,-0.234375 0.75,-0.546875 0.15625,-0.359375 0.296875,-0.96875 0.296875,-0.984375 0,-0.109375 -0.09375,-0.109375 -0.125,-0.109375 -0.09375,0 -0.109375,0.046875 -0.140625,0.1875 -0.171875,0.640625 -0.34375,1.234375 -0.75,1.234375 -0.28125,0 -0.296875,-0.265625 -0.296875,-0.453125 0,-0.21875 0.015625,-0.3125 0.125,-0.75 C 3.890625,-1.71875 3.90625,-1.828125 4,-2.203125 L 4.359375,-3.59375 c 0.0625,-0.28125 0.0625,-0.296875 0.0625,-0.34375 0,-0.171875 -0.109375,-0.265625 -0.28125,-0.265625 -0.25,0 -0.390625,0.21875 -0.421875,0.4375 z M 3.078125,-1.1875 C 3.015625,-1 3.015625,-0.984375 2.875,-0.8125 2.4375,-0.265625 2.03125,-0.109375 1.75,-0.109375 c -0.5,0 -0.640625,-0.546875 -0.640625,-0.9375 0,-0.5 0.3125,-1.71875 0.546875,-2.1875 0.3125,-0.578125 0.75,-0.953125 1.15625,-0.953125 0.640625,0 0.78125,0.8125 0.78125,0.875 0,0.0625 -0.015625,0.125 -0.03125,0.171875 z m 0,0"
                 id="id-843bdc97-2273-49f7-9b5b-47e30f88f381" />
            </g>
          </g>
        </g>
      </g>
      <g
         transform="matrix(0.29211868,0,0,0.29211868,107.93079,110.05249)"
         ns4:version="1.3.1"
         ns4:texconverter="pdflatex"
         ns4:pdfconverter="inkscape"
         ns4:text="$f(b) - f(a)$\n"
         ns4:preamble="/Users/ketiboldiais/Library/Application Support/org.inkscape.Inkscape/config/inkscape/extensions/circuitSymbols/circuitSymbolsPreamble.tex"
         ns4:scale="1.0"
         ns4:alignment="middle center"
         ns4:jacobian_sqrt="0.352778"
         id="g6556">
        <defs
           id="id-fceb852a-a112-40b4-8248-14734fe3bc33">
          <g
             id="id-8881f96d-42b9-4b25-b88b-550b635a954f">
            <symbol
               overflow="visible"
               id="id-8b8e95c8-f625-41c8-b514-3ef00e7be9e0">
              <path
                 style="stroke:none;stroke-width:0"
                 d=""
                 id="id-e3268486-f233-492d-8c5d-ba57d006cdcf" />
            </symbol>
            <symbol
               overflow="visible"
               id="id-5b58a985-c762-46bf-b83c-d0077a3aff5e">
              <path
                 style="stroke:none;stroke-width:0"
                 d="m 3.65625,-3.984375 h 0.859375 c 0.203125,0 0.296875,0 0.296875,-0.203125 0,-0.109375 -0.09375,-0.109375 -0.265625,-0.109375 H 3.71875 L 3.921875,-5.4375 c 0.046875,-0.203125 0.1875,-0.90625 0.25,-1.03125 0.078125,-0.1875 0.25,-0.34375 0.46875,-0.34375 0.03125,0 0.296875,0 0.484375,0.1875 -0.4375,0.03125 -0.546875,0.390625 -0.546875,0.53125 0,0.234375 0.1875,0.359375 0.375,0.359375 C 5.21875,-5.734375 5.5,-5.96875 5.5,-6.34375 c 0,-0.453125 -0.453125,-0.6875 -0.859375,-0.6875 -0.34375,0 -0.96875,0.1875 -1.265625,1.171875 -0.0625,0.203125 -0.09375,0.3125 -0.328125,1.5625 h -0.6875 c -0.203125,0 -0.3125,0 -0.3125,0.1875 0,0.125 0.09375,0.125 0.28125,0.125 h 0.65625 L 2.25,-0.046875 c -0.1875,0.96875 -0.359375,1.875 -0.875,1.875 -0.046875,0 -0.28125,0 -0.484375,-0.1875 C 1.359375,1.609375 1.453125,1.25 1.453125,1.109375 1.453125,0.875 1.265625,0.75 1.078125,0.75 0.8125,0.75 0.53125,0.984375 0.53125,1.359375 c 0,0.4375 0.4375,0.6875 0.84375,0.6875 0.546875,0 0.953125,-0.59375 1.125,-0.96875 0.328125,-0.625 0.546875,-1.828125 0.5625,-1.90625 z m 0,0"
                 id="id-58061e89-2809-451c-9463-777e41308d0d" />
            </symbol>
            <symbol
               overflow="visible"
               id="id-813ad0fe-2b2e-46ec-920c-3a00f4031743">
              <path
                 style="stroke:none;stroke-width:0"
                 d="m 2.375,-6.8125 c 0,0 0,-0.109375 -0.125,-0.109375 -0.21875,0 -0.953125,0.078125 -1.21875,0.109375 -0.078125,0 -0.1875,0.015625 -0.1875,0.1875 0,0.125 0.09375,0.125 0.25,0.125 0.46875,0 0.484375,0.0625 0.484375,0.171875 0,0.0625 -0.078125,0.40625 -0.125,0.609375 l -0.828125,3.25 c -0.109375,0.5 -0.15625,0.671875 -0.15625,1.015625 0,0.9375 0.53125,1.5625 1.265625,1.5625 1.171875,0 2.40625,-1.484375 2.40625,-2.921875 0,-0.90625 -0.53125,-1.59375 -1.328125,-1.59375 -0.453125,0 -0.875,0.296875 -1.171875,0.59375 z M 1.453125,-3.046875 C 1.5,-3.265625 1.5,-3.28125 1.59375,-3.390625 2.078125,-4.03125 2.53125,-4.1875 2.796875,-4.1875 c 0.359375,0 0.625,0.296875 0.625,0.9375 0,0.59375 -0.328125,1.734375 -0.515625,2.109375 -0.328125,0.671875 -0.78125,1.03125 -1.171875,1.03125 -0.34375,0 -0.671875,-0.265625 -0.671875,-1 0,-0.203125 0,-0.390625 0.15625,-1.015625 z m 0,0"
                 id="id-a21615fb-7715-48d0-979a-ce7b83de77df" />
            </symbol>
            <symbol
               overflow="visible"
               id="id-58688835-fe58-4b1c-aaf4-1010e1d81e0a">
              <path
                 style="stroke:none;stroke-width:0"
                 d="M 3.71875,-3.765625 C 3.53125,-4.140625 3.25,-4.40625 2.796875,-4.40625 c -1.15625,0 -2.390625,1.46875 -2.390625,2.921875 0,0.9375 0.546875,1.59375 1.3125,1.59375 0.203125,0 0.703125,-0.046875 1.296875,-0.75 0.078125,0.421875 0.4375,0.75 0.90625,0.75 0.359375,0 0.578125,-0.234375 0.75,-0.546875 0.15625,-0.359375 0.296875,-0.96875 0.296875,-0.984375 0,-0.109375 -0.09375,-0.109375 -0.125,-0.109375 -0.09375,0 -0.109375,0.046875 -0.140625,0.1875 -0.171875,0.640625 -0.34375,1.234375 -0.75,1.234375 -0.28125,0 -0.296875,-0.265625 -0.296875,-0.453125 0,-0.21875 0.015625,-0.3125 0.125,-0.75 C 3.890625,-1.71875 3.90625,-1.828125 4,-2.203125 L 4.359375,-3.59375 c 0.0625,-0.28125 0.0625,-0.296875 0.0625,-0.34375 0,-0.171875 -0.109375,-0.265625 -0.28125,-0.265625 -0.25,0 -0.390625,0.21875 -0.421875,0.4375 z M 3.078125,-1.1875 C 3.015625,-1 3.015625,-0.984375 2.875,-0.8125 2.4375,-0.265625 2.03125,-0.109375 1.75,-0.109375 c -0.5,0 -0.640625,-0.546875 -0.640625,-0.9375 0,-0.5 0.3125,-1.71875 0.546875,-2.1875 0.3125,-0.578125 0.75,-0.953125 1.15625,-0.953125 0.640625,0 0.78125,0.8125 0.78125,0.875 0,0.0625 -0.015625,0.125 -0.03125,0.171875 z m 0,0"
                 id="id-d0376b2f-5212-4a76-a969-b05ec3c2fad8" />
            </symbol>
            <symbol
               overflow="visible"
               id="id-7054642b-b9da-41c6-ad39-4395fa378e0e">
              <path
                 style="stroke:none;stroke-width:0"
                 d=""
                 id="id-da31a7b7-f0de-4c1c-8577-7bb2997ebb54" />
            </symbol>
            <symbol
               overflow="visible"
               id="id-66523c6c-e7c0-487b-b466-95e41cb18249">
              <path
                 style="stroke:none;stroke-width:0"
                 d="m 3.296875,2.390625 c 0,-0.03125 0,-0.046875 -0.171875,-0.21875 C 1.890625,0.921875 1.5625,-0.96875 1.5625,-2.5 c 0,-1.734375 0.375,-3.46875 1.609375,-4.703125 0.125,-0.125 0.125,-0.140625 0.125,-0.171875 0,-0.078125 -0.03125,-0.109375 -0.09375,-0.109375 -0.109375,0 -1,0.6875 -1.59375,1.953125 -0.5,1.09375 -0.625,2.203125 -0.625,3.03125 0,0.78125 0.109375,1.984375 0.65625,3.125 C 2.25,1.84375 3.09375,2.5 3.203125,2.5 c 0.0625,0 0.09375,-0.03125 0.09375,-0.109375 z m 0,0"
                 id="id-ebec1706-cdb2-413f-bb7b-872db8468fcb" />
            </symbol>
            <symbol
               overflow="visible"
               id="id-26c5b3bc-1700-4074-b57e-c673931b2421">
              <path
                 style="stroke:none;stroke-width:0"
                 d="m 2.875,-2.5 c 0,-0.765625 -0.109375,-1.96875 -0.65625,-3.109375 -0.59375,-1.21875 -1.453125,-1.875 -1.546875,-1.875 -0.0625,0 -0.109375,0.046875 -0.109375,0.109375 0,0.03125 0,0.046875 0.1875,0.234375 0.984375,0.984375 1.546875,2.5625 1.546875,4.640625 0,1.71875 -0.359375,3.46875 -1.59375,4.71875 C 0.5625,2.34375 0.5625,2.359375 0.5625,2.390625 0.5625,2.453125 0.609375,2.5 0.671875,2.5 0.765625,2.5 1.671875,1.8125 2.25,0.546875 2.765625,-0.546875 2.875,-1.65625 2.875,-2.5 Z m 0,0"
                 id="id-e73437ec-8a44-45cd-8c96-1589013959e8" />
            </symbol>
            <symbol
               overflow="visible"
               id="id-9ef1c196-1327-41d8-9ed6-daa48ef6b450">
              <path
                 style="stroke:none;stroke-width:0"
                 d=""
                 id="id-7813497e-245d-486a-8d82-5487fbdba9d4" />
            </symbol>
            <symbol
               overflow="visible"
               id="id-e7639167-bfee-4024-afac-7ece6cd034d0">
              <path
                 style="stroke:none;stroke-width:0"
                 d="m 6.5625,-2.296875 c 0.171875,0 0.359375,0 0.359375,-0.203125 0,-0.1875 -0.1875,-0.1875 -0.359375,-0.1875 H 1.171875 c -0.171875,0 -0.34375,0 -0.34375,0.1875 0,0.203125 0.171875,0.203125 0.34375,0.203125 z m 0,0"
                 id="id-6c994389-a3c2-415e-8fcf-bf92f4015d84" />
            </symbol>
          </g>
        </defs>
        <g
           id="id-889a0ea7-514f-43fe-92fa-911192c165a2"
           transform="translate(-149.243,-127.281)">
          <g
             style="fill:#000000;fill-opacity:1"
             id="id-113cf942-2ccd-4ddb-ab8f-d1a19973bdbe">
            <g
               transform="translate(148.712,134.765)"
               id="g6520">
              <path
                 style="stroke:none;stroke-width:0"
                 d="m 3.65625,-3.984375 h 0.859375 c 0.203125,0 0.296875,0 0.296875,-0.203125 0,-0.109375 -0.09375,-0.109375 -0.265625,-0.109375 H 3.71875 L 3.921875,-5.4375 c 0.046875,-0.203125 0.1875,-0.90625 0.25,-1.03125 0.078125,-0.1875 0.25,-0.34375 0.46875,-0.34375 0.03125,0 0.296875,0 0.484375,0.1875 -0.4375,0.03125 -0.546875,0.390625 -0.546875,0.53125 0,0.234375 0.1875,0.359375 0.375,0.359375 C 5.21875,-5.734375 5.5,-5.96875 5.5,-6.34375 c 0,-0.453125 -0.453125,-0.6875 -0.859375,-0.6875 -0.34375,0 -0.96875,0.1875 -1.265625,1.171875 -0.0625,0.203125 -0.09375,0.3125 -0.328125,1.5625 h -0.6875 c -0.203125,0 -0.3125,0 -0.3125,0.1875 0,0.125 0.09375,0.125 0.28125,0.125 h 0.65625 L 2.25,-0.046875 c -0.1875,0.96875 -0.359375,1.875 -0.875,1.875 -0.046875,0 -0.28125,0 -0.484375,-0.1875 C 1.359375,1.609375 1.453125,1.25 1.453125,1.109375 1.453125,0.875 1.265625,0.75 1.078125,0.75 0.8125,0.75 0.53125,0.984375 0.53125,1.359375 c 0,0.4375 0.4375,0.6875 0.84375,0.6875 0.546875,0 0.953125,-0.59375 1.125,-0.96875 0.328125,-0.625 0.546875,-1.828125 0.5625,-1.90625 z m 0,0"
                 id="id-a4d12816-423e-47f0-a12a-e9747d6ead40" />
            </g>
          </g>
          <g
             style="fill:#000000;fill-opacity:1"
             id="id-f49db2a7-91ef-44aa-98b9-5470f2287aac">
            <g
               transform="translate(154.662,134.765)"
               id="g6524">
              <path
                 style="stroke:none;stroke-width:0"
                 d="m 3.296875,2.390625 c 0,-0.03125 0,-0.046875 -0.171875,-0.21875 C 1.890625,0.921875 1.5625,-0.96875 1.5625,-2.5 c 0,-1.734375 0.375,-3.46875 1.609375,-4.703125 0.125,-0.125 0.125,-0.140625 0.125,-0.171875 0,-0.078125 -0.03125,-0.109375 -0.09375,-0.109375 -0.109375,0 -1,0.6875 -1.59375,1.953125 -0.5,1.09375 -0.625,2.203125 -0.625,3.03125 0,0.78125 0.109375,1.984375 0.65625,3.125 C 2.25,1.84375 3.09375,2.5 3.203125,2.5 c 0.0625,0 0.09375,-0.03125 0.09375,-0.109375 z m 0,0"
                 id="id-0cc3f9e3-f3bc-4766-838a-fb6c131f5187" />
            </g>
          </g>
          <g
             style="fill:#000000;fill-opacity:1"
             id="id-0942ce1b-702c-4e5f-b820-4956500a0fa5">
            <g
               transform="translate(158.537,134.765)"
               id="g6528">
              <path
                 style="stroke:none;stroke-width:0"
                 d="m 2.375,-6.8125 c 0,0 0,-0.109375 -0.125,-0.109375 -0.21875,0 -0.953125,0.078125 -1.21875,0.109375 -0.078125,0 -0.1875,0.015625 -0.1875,0.1875 0,0.125 0.09375,0.125 0.25,0.125 0.46875,0 0.484375,0.0625 0.484375,0.171875 0,0.0625 -0.078125,0.40625 -0.125,0.609375 l -0.828125,3.25 c -0.109375,0.5 -0.15625,0.671875 -0.15625,1.015625 0,0.9375 0.53125,1.5625 1.265625,1.5625 1.171875,0 2.40625,-1.484375 2.40625,-2.921875 0,-0.90625 -0.53125,-1.59375 -1.328125,-1.59375 -0.453125,0 -0.875,0.296875 -1.171875,0.59375 z M 1.453125,-3.046875 C 1.5,-3.265625 1.5,-3.28125 1.59375,-3.390625 2.078125,-4.03125 2.53125,-4.1875 2.796875,-4.1875 c 0.359375,0 0.625,0.296875 0.625,0.9375 0,0.59375 -0.328125,1.734375 -0.515625,2.109375 -0.328125,0.671875 -0.78125,1.03125 -1.171875,1.03125 -0.34375,0 -0.671875,-0.265625 -0.671875,-1 0,-0.203125 0,-0.390625 0.15625,-1.015625 z m 0,0"
                 id="id-dc73fd3f-e4fc-4699-9340-338b66d58aa4" />
            </g>
          </g>
          <g
             style="fill:#000000;fill-opacity:1"
             id="id-5363188d-6876-4635-96f3-c6d2a4844c76">
            <g
               transform="translate(162.812,134.765)"
               id="g6532">
              <path
                 style="stroke:none;stroke-width:0"
                 d="m 2.875,-2.5 c 0,-0.765625 -0.109375,-1.96875 -0.65625,-3.109375 -0.59375,-1.21875 -1.453125,-1.875 -1.546875,-1.875 -0.0625,0 -0.109375,0.046875 -0.109375,0.109375 0,0.03125 0,0.046875 0.1875,0.234375 0.984375,0.984375 1.546875,2.5625 1.546875,4.640625 0,1.71875 -0.359375,3.46875 -1.59375,4.71875 C 0.5625,2.34375 0.5625,2.359375 0.5625,2.390625 0.5625,2.453125 0.609375,2.5 0.671875,2.5 0.765625,2.5 1.671875,1.8125 2.25,0.546875 2.765625,-0.546875 2.875,-1.65625 2.875,-2.5 Z m 0,0"
                 id="id-737c2d9c-dfa6-4dd7-9255-8ba18f2f9926" />
            </g>
          </g>
          <g
             style="fill:#000000;fill-opacity:1"
             id="id-f170f8fd-3031-4085-b659-2188b84a65cb">
            <g
               transform="translate(168.9,134.765)"
               id="g6536">
              <path
                 style="stroke:none;stroke-width:0"
                 d="m 6.5625,-2.296875 c 0.171875,0 0.359375,0 0.359375,-0.203125 0,-0.1875 -0.1875,-0.1875 -0.359375,-0.1875 H 1.171875 c -0.171875,0 -0.34375,0 -0.34375,0.1875 0,0.203125 0.171875,0.203125 0.34375,0.203125 z m 0,0"
                 id="id-cc374253-c4d7-4039-98af-3f46323891f4" />
            </g>
          </g>
          <g
             style="fill:#000000;fill-opacity:1"
             id="id-d98f8764-9acd-4bd6-aedc-b5b2f7ad6656">
            <g
               transform="translate(178.863,134.765)"
               id="g6540">
              <path
                 style="stroke:none;stroke-width:0"
                 d="m 3.65625,-3.984375 h 0.859375 c 0.203125,0 0.296875,0 0.296875,-0.203125 0,-0.109375 -0.09375,-0.109375 -0.265625,-0.109375 H 3.71875 L 3.921875,-5.4375 c 0.046875,-0.203125 0.1875,-0.90625 0.25,-1.03125 0.078125,-0.1875 0.25,-0.34375 0.46875,-0.34375 0.03125,0 0.296875,0 0.484375,0.1875 -0.4375,0.03125 -0.546875,0.390625 -0.546875,0.53125 0,0.234375 0.1875,0.359375 0.375,0.359375 C 5.21875,-5.734375 5.5,-5.96875 5.5,-6.34375 c 0,-0.453125 -0.453125,-0.6875 -0.859375,-0.6875 -0.34375,0 -0.96875,0.1875 -1.265625,1.171875 -0.0625,0.203125 -0.09375,0.3125 -0.328125,1.5625 h -0.6875 c -0.203125,0 -0.3125,0 -0.3125,0.1875 0,0.125 0.09375,0.125 0.28125,0.125 h 0.65625 L 2.25,-0.046875 c -0.1875,0.96875 -0.359375,1.875 -0.875,1.875 -0.046875,0 -0.28125,0 -0.484375,-0.1875 C 1.359375,1.609375 1.453125,1.25 1.453125,1.109375 1.453125,0.875 1.265625,0.75 1.078125,0.75 0.8125,0.75 0.53125,0.984375 0.53125,1.359375 c 0,0.4375 0.4375,0.6875 0.84375,0.6875 0.546875,0 0.953125,-0.59375 1.125,-0.96875 0.328125,-0.625 0.546875,-1.828125 0.5625,-1.90625 z m 0,0"
                 id="id-c4ab0881-ce54-49b8-a8c2-4b9f0970cac7" />
            </g>
          </g>
          <g
             style="fill:#000000;fill-opacity:1"
             id="id-8eff088e-9c16-425b-a611-d48702a793ab">
            <g
               transform="translate(184.813,134.765)"
               id="g6544">
              <path
                 style="stroke:none;stroke-width:0"
                 d="m 3.296875,2.390625 c 0,-0.03125 0,-0.046875 -0.171875,-0.21875 C 1.890625,0.921875 1.5625,-0.96875 1.5625,-2.5 c 0,-1.734375 0.375,-3.46875 1.609375,-4.703125 0.125,-0.125 0.125,-0.140625 0.125,-0.171875 0,-0.078125 -0.03125,-0.109375 -0.09375,-0.109375 -0.109375,0 -1,0.6875 -1.59375,1.953125 -0.5,1.09375 -0.625,2.203125 -0.625,3.03125 0,0.78125 0.109375,1.984375 0.65625,3.125 C 2.25,1.84375 3.09375,2.5 3.203125,2.5 c 0.0625,0 0.09375,-0.03125 0.09375,-0.109375 z m 0,0"
                 id="id-d0055cca-79e3-4401-a46e-506a80fe0e9c" />
            </g>
          </g>
          <g
             style="fill:#000000;fill-opacity:1"
             id="id-bc16a6e4-2ac2-475b-af91-d5f8031fe58e">
            <g
               transform="translate(188.687,134.765)"
               id="g6548">
              <path
                 style="stroke:none;stroke-width:0"
                 d="M 3.71875,-3.765625 C 3.53125,-4.140625 3.25,-4.40625 2.796875,-4.40625 c -1.15625,0 -2.390625,1.46875 -2.390625,2.921875 0,0.9375 0.546875,1.59375 1.3125,1.59375 0.203125,0 0.703125,-0.046875 1.296875,-0.75 0.078125,0.421875 0.4375,0.75 0.90625,0.75 0.359375,0 0.578125,-0.234375 0.75,-0.546875 0.15625,-0.359375 0.296875,-0.96875 0.296875,-0.984375 0,-0.109375 -0.09375,-0.109375 -0.125,-0.109375 -0.09375,0 -0.109375,0.046875 -0.140625,0.1875 -0.171875,0.640625 -0.34375,1.234375 -0.75,1.234375 -0.28125,0 -0.296875,-0.265625 -0.296875,-0.453125 0,-0.21875 0.015625,-0.3125 0.125,-0.75 C 3.890625,-1.71875 3.90625,-1.828125 4,-2.203125 L 4.359375,-3.59375 c 0.0625,-0.28125 0.0625,-0.296875 0.0625,-0.34375 0,-0.171875 -0.109375,-0.265625 -0.28125,-0.265625 -0.25,0 -0.390625,0.21875 -0.421875,0.4375 z M 3.078125,-1.1875 C 3.015625,-1 3.015625,-0.984375 2.875,-0.8125 2.4375,-0.265625 2.03125,-0.109375 1.75,-0.109375 c -0.5,0 -0.640625,-0.546875 -0.640625,-0.9375 0,-0.5 0.3125,-1.71875 0.546875,-2.1875 0.3125,-0.578125 0.75,-0.953125 1.15625,-0.953125 0.640625,0 0.78125,0.8125 0.78125,0.875 0,0.0625 -0.015625,0.125 -0.03125,0.171875 z m 0,0"
                 id="id-d686bde3-20a0-42cb-a7a6-29567fc9c51c" />
            </g>
          </g>
          <g
             style="fill:#000000;fill-opacity:1"
             id="id-8e6be11a-3efb-4e27-8e1b-1f03172e1c8d">
            <g
               transform="translate(193.954,134.765)"
               id="g6552">
              <path
                 style="stroke:none;stroke-width:0"
                 d="m 2.875,-2.5 c 0,-0.765625 -0.109375,-1.96875 -0.65625,-3.109375 -0.59375,-1.21875 -1.453125,-1.875 -1.546875,-1.875 -0.0625,0 -0.109375,0.046875 -0.109375,0.109375 0,0.03125 0,0.046875 0.1875,0.234375 0.984375,0.984375 1.546875,2.5625 1.546875,4.640625 0,1.71875 -0.359375,3.46875 -1.59375,4.71875 C 0.5625,2.34375 0.5625,2.359375 0.5625,2.390625 0.5625,2.453125 0.609375,2.5 0.671875,2.5 0.765625,2.5 1.671875,1.8125 2.25,0.546875 2.765625,-0.546875 2.875,-1.65625 2.875,-2.5 Z m 0,0"
                 id="id-6d4d817f-c15d-4ba7-a435-8eca0de5829f" />
            </g>
          </g>
        </g>
      </g>
      <g
         transform="matrix(0.352778,0,0,0.352778,104.758,114.632)"
         ns4:version="1.3.1"
         ns4:texconverter="pdflatex"
         ns4:pdfconverter="inkscape"
         ns4:text="$x$ $y$\n"
         ns4:preamble="/Users/ketiboldiais/Library/Application Support/org.inkscape.Inkscape/config/inkscape/extensions/circuitSymbols/circuitSymbolsPreamble.tex"
         ns4:scale="1.0"
         ns4:alignment="middle center"
         ns4:jacobian_sqrt="0.352778"
         id="g7159">
        <defs
           id="id-10d8158d-09e8-4255-b15e-9a8c56cece83">
          <g
             id="id-f347ed38-4641-4a16-ac03-5487f9059839">
            <symbol
               overflow="visible"
               id="id-2eef94fe-2c76-473b-a4ce-6fb688ae93d1">
              <path
                 style="stroke:none;stroke-width:0"
                 d=""
                 id="id-cd3f2821-eb63-4e9e-8015-20948a89fd49" />
            </symbol>
            <symbol
               overflow="visible"
               id="id-e11550e4-57c7-4da9-afa7-500f639a9093">
              <path
                 style="stroke:none;stroke-width:0"
                 d="M 3.328125,-3.015625 C 3.390625,-3.265625 3.625,-4.1875 4.3125,-4.1875 c 0.046875,0 0.296875,0 0.5,0.125 C 4.53125,-4 4.34375,-3.765625 4.34375,-3.515625 c 0,0.15625 0.109375,0.34375 0.375,0.34375 0.21875,0 0.53125,-0.171875 0.53125,-0.578125 0,-0.515625 -0.578125,-0.65625 -0.921875,-0.65625 -0.578125,0 -0.921875,0.53125 -1.046875,0.75 -0.25,-0.65625 -0.78125,-0.75 -1.078125,-0.75 -1.03125,0 -1.609375,1.28125 -1.609375,1.53125 0,0.109375 0.109375,0.109375 0.125,0.109375 0.078125,0 0.109375,-0.03125 0.125,-0.109375 0.34375,-1.0625 1,-1.3125 1.34375,-1.3125 0.1875,0 0.53125,0.09375 0.53125,0.671875 0,0.3125 -0.171875,0.96875 -0.53125,2.375 -0.15625,0.609375 -0.515625,1.03125 -0.953125,1.03125 -0.0625,0 -0.28125,0 -0.5,-0.125 0.25,-0.0625 0.46875,-0.265625 0.46875,-0.546875 0,-0.265625 -0.21875,-0.34375 -0.359375,-0.34375 -0.3125,0 -0.546875,0.25 -0.546875,0.578125 0,0.453125 0.484375,0.65625 0.921875,0.65625 0.671875,0 1.03125,-0.703125 1.046875,-0.75 0.125,0.359375 0.484375,0.75 1.078125,0.75 1.03125,0 1.59375,-1.28125 1.59375,-1.53125 0,-0.109375 -0.078125,-0.109375 -0.109375,-0.109375 -0.09375,0 -0.109375,0.046875 -0.140625,0.109375 -0.328125,1.078125 -1,1.3125 -1.3125,1.3125 -0.390625,0 -0.546875,-0.3125 -0.546875,-0.65625 0,-0.21875 0.046875,-0.4375 0.15625,-0.875 z m 0,0"
                 id="id-56b6aa13-b2a4-4871-8ed5-449305561075" />
            </symbol>
            <symbol
               overflow="visible"
               id="id-1244f1e3-00d9-4eb5-9137-ca52ccc64cc0">
              <path
                 style="stroke:none;stroke-width:0"
                 d="m 4.84375,-3.796875 c 0.046875,-0.140625 0.046875,-0.15625 0.046875,-0.234375 0,-0.171875 -0.140625,-0.265625 -0.296875,-0.265625 -0.09375,0 -0.25,0.0625 -0.34375,0.203125 -0.015625,0.0625 -0.109375,0.359375 -0.140625,0.546875 -0.078125,0.25 -0.140625,0.53125 -0.203125,0.796875 l -0.453125,1.796875 c -0.03125,0.140625 -0.46875,0.84375 -1.125,0.84375 -0.5,0 -0.609375,-0.4375 -0.609375,-0.8125 C 1.71875,-1.375 1.890625,-2 2.21875,-2.875 2.375,-3.28125 2.421875,-3.390625 2.421875,-3.59375 c 0,-0.4375 -0.3125,-0.8125 -0.8125,-0.8125 -0.953125,0 -1.3125,1.453125 -1.3125,1.53125 0,0.109375 0.09375,0.109375 0.109375,0.109375 0.109375,0 0.109375,-0.03125 0.15625,-0.1875 0.28125,-0.9375 0.671875,-1.234375 1.015625,-1.234375 0.078125,0 0.25,0 0.25,0.3125 0,0.25 -0.109375,0.515625 -0.171875,0.703125 -0.40625,1.0625 -0.578125,1.625 -0.578125,2.09375 0,0.890625 0.625,1.1875 1.21875,1.1875 0.390625,0 0.71875,-0.171875 1,-0.453125 -0.125,0.515625 -0.25,1.015625 -0.640625,1.546875 -0.265625,0.328125 -0.640625,0.625 -1.09375,0.625 -0.140625,0 -0.59375,-0.03125 -0.765625,-0.421875 0.15625,0 0.296875,0 0.421875,-0.125 C 1.328125,1.203125 1.421875,1.0625 1.421875,0.875 1.421875,0.5625 1.15625,0.53125 1.0625,0.53125 0.828125,0.53125 0.5,0.6875 0.5,1.171875 c 0,0.5 0.4375,0.875 1.0625,0.875 1.015625,0 2.046875,-0.90625 2.328125,-2.03125 z m 0,0"
                 id="id-d8f3cd90-b5e7-40fd-86a3-3d6781b72734" />
            </symbol>
          </g>
        </defs>
        <text
           xml:space="preserve"
           style="font-style:italic;font-weight:500;font-size:10.5714px;line-height:1.25;font-family:'CMU Serif';-inkscape-font-specification:'CMU Serif, Medium Italic';text-align:center;letter-spacing:0px;word-spacing:0px;text-anchor:middle;stroke-width:0.75"
           x="43.725201"
           y="52.335228"
           id="text10219"><tspan
             sodipodi:role="line"
             id="tspan10217"
             style="stroke-width:0.75"
             x="43.725201"
             y="52.335228">x</tspan></text>
        <text
           xml:space="preserve"
           style="font-style:italic;font-weight:500;font-size:10.5714px;line-height:1.25;font-family:'CMU Serif';-inkscape-font-specification:'CMU Serif, Medium Italic';text-align:center;letter-spacing:0px;word-spacing:0px;text-anchor:middle;stroke-width:0.75"
           x="-132.55824"
           y="-109.93929"
           id="text11069"><tspan
             sodipodi:role="line"
             id="tspan11067"
             style="stroke-width:0.75"
             x="-132.55824"
             y="-109.93929">y</tspan></text>
      </g>
    </g>
  </g>
</svg>
