<?xml version="1.0" encoding="UTF-8"?>
<svg width="40.446mm" height="16.14mm" version="1.1" viewBox="0 0 40.446 16.14" xmlns="http://www.w3.org/2000/svg" xmlns:ns8="http://www.iki.fi/pav/software/textext/">
 <g transform="translate(-58.076 -100.41)">
  <circle cx="66.146" cy="108.48" r="7.9375" fill="#ffffb7" fill-rule="evenodd" stop-color="#000000" stroke="#000" stroke-width=".26458" style="font-variation-settings:normal"/>
  <g transform="matrix(.52486 0 0 .52486 75.961 106.04)" ns8:alignment="middle center" ns8:jacobian_sqrt="0.352778" ns8:pdfconverter="inkscape" ns8:preamble="/Users/ketiboldiais/Library/Application Support/org.inkscape.Inkscape/config/inkscape/extensions/inkscapeMadeEasy/basicLatexPackages.tex" ns8:scale="1.0" ns8:texconverter="pdflatex" ns8:text="$=\\{1, 2, 3\\}$\n" ns8:version="1.3.1">
   <defs></defs>
   <g id="id-2c3785da-a772-4c7c-ac62-559288f88cfc" transform="translate(-149.28 -127.28)">
    <g transform="translate(148.71 134.76)">
     <path d="m6.8438-3.2656c0.15625 0 0.34375 0 0.34375-0.1875 0-0.20312-0.1875-0.20312-0.32812-0.20312h-5.9688c-0.14062 0-0.32812 0-0.32812 0.20312 0 0.1875 0.1875 0.1875 0.32812 0.1875zm0.015625 1.9375c0.14062 0 0.32812 0 0.32812-0.20312 0-0.1875-0.1875-0.1875-0.34375-0.1875h-5.9531c-0.14062 0-0.32812 0-0.32812 0.1875 0 0.20312 0.1875 0.20312 0.32812 0.20312z"/>
    </g>
    <g transform="translate(159.23 134.76)">
     <path id="id-e5401c27-0daa-4b0d-bc06-9e919d937ece" d="m2.8281-6.1562c0-0.39062 0.25-1.0312 1.3438-1.0938 0.046875-0.015625 0.078125-0.0625 0.078125-0.10938 0-0.125-0.078125-0.125-0.1875-0.125-0.98438 0-1.9062 0.51562-1.9062 1.25v2.2812c0 0.39062 0 0.70312-0.40625 1.0312-0.34375 0.29688-0.71875 0.3125-0.9375 0.3125-0.0625 0.015625-0.09375 0.0625-0.09375 0.10938 0 0.10938 0.0625 0.10938 0.15625 0.125 0.65625 0.03125 1.1406 0.39062 1.25 0.875 0.03125 0.10938 0.03125 0.14062 0.03125 0.5v1.9688c0 0.42188 0 0.73438 0.46875 1.1094 0.39062 0.29688 1.0469 0.42188 1.4375 0.42188 0.10938 0 0.1875 0 0.1875-0.125 0-0.09375-0.046875-0.09375-0.15625-0.10938-0.625-0.03125-1.1094-0.35938-1.25-0.85938-0.015625-0.09375-0.015625-0.10938-0.015625-0.46875v-2.0938c0-0.45312-0.09375-0.625-0.40625-0.95312-0.20312-0.20312-0.5-0.29688-0.78125-0.39062 0.82812-0.21875 1.1875-0.6875 1.1875-1.2656z"/>
    </g>
    <g transform="translate(164.21 134.76)">
     <path d="m2.9375-6.375c0-0.25 0-0.26562-0.23438-0.26562-0.625 0.64062-1.5 0.64062-1.8125 0.64062v0.3125c0.20312 0 0.78125 0 1.2969-0.26562v5.1719c0 0.35938-0.03125 0.46875-0.92188 0.46875h-0.3125v0.3125c0.34375-0.03125 1.2031-0.03125 1.6094-0.03125 0.39062 0 1.2656 0 1.6094 0.03125v-0.3125h-0.3125c-0.90625 0-0.92188-0.10938-0.92188-0.46875z"/>
    </g>
    <g id="id-3f4cb7d4-3446-4212-92f8-9891fc78c24f">
     <g transform="translate(169.19 134.76)">
      <path d="m2.0312-0.015625c0-0.65625-0.25-1.0469-0.64062-1.0469-0.32812 0-0.53125 0.25-0.53125 0.53125 0 0.26562 0.20312 0.53125 0.53125 0.53125 0.10938 0 0.25-0.046875 0.34375-0.125 0.03125-0.03125 0.046875-0.03125 0.046875-0.03125 0.015625 0 0.015625 0 0.015625 0.14062 0 0.75-0.34375 1.3438-0.67188 1.6719-0.10938 0.10938-0.10938 0.125-0.10938 0.15625 0 0.078125 0.046875 0.10938 0.09375 0.10938 0.10938 0 0.92188-0.76562 0.92188-1.9375z"/>
     </g>
    </g>
    <g transform="translate(173.62 134.76)">
     <path d="m1.2656-0.76562 1.0625-1.0312c1.5469-1.375 2.1406-1.9062 2.1406-2.9062 0-1.1406-0.89062-1.9375-2.1094-1.9375-1.125 0-1.8594 0.92188-1.8594 1.8125 0 0.54688 0.5 0.54688 0.53125 0.54688 0.17188 0 0.51562-0.10938 0.51562-0.53125 0-0.25-0.1875-0.51562-0.53125-0.51562-0.078125 0-0.09375 0-0.125 0.015625 0.21875-0.65625 0.76562-1.0156 1.3438-1.0156 0.90625 0 1.3281 0.8125 1.3281 1.625 0 0.79688-0.48438 1.5781-1.0469 2.2031l-1.9062 2.125c-0.10938 0.10938-0.10938 0.14062-0.10938 0.375h3.7031l0.26562-1.7344h-0.23438c-0.0625 0.29688-0.125 0.73438-0.23438 0.89062-0.0625 0.078125-0.71875 0.078125-0.9375 0.078125z"/>
    </g>
    <g transform="translate(178.6 134.76)">
     <path id="id-3a248aa7-3414-46f8-b8be-f26bbd03dc2e" d="m2.0312-0.015625c0-0.65625-0.25-1.0469-0.64062-1.0469-0.32812 0-0.53125 0.25-0.53125 0.53125 0 0.26562 0.20312 0.53125 0.53125 0.53125 0.10938 0 0.25-0.046875 0.34375-0.125 0.03125-0.03125 0.046875-0.03125 0.046875-0.03125 0.015625 0 0.015625 0 0.015625 0.14062 0 0.75-0.34375 1.3438-0.67188 1.6719-0.10938 0.10938-0.10938 0.125-0.10938 0.15625 0 0.078125 0.046875 0.10938 0.09375 0.10938 0.10938 0 0.92188-0.76562 0.92188-1.9375z"/>
    </g>
    <g transform="translate(183.03 134.76)">
     <path id="id-2004e949-34bb-46cb-b1cf-235e605089bc" d="m2.8906-3.5156c0.8125-0.26562 1.3906-0.95312 1.3906-1.75 0-0.8125-0.875-1.375-1.8281-1.375-1 0-1.7656 0.59375-1.7656 1.3594 0 0.32812 0.21875 0.51562 0.51562 0.51562s0.5-0.21875 0.5-0.51562c0-0.48438-0.46875-0.48438-0.60938-0.48438 0.29688-0.5 0.95312-0.625 1.3125-0.625 0.42188 0 0.96875 0.21875 0.96875 1.1094 0 0.125-0.03125 0.70312-0.28125 1.1406-0.29688 0.48438-0.64062 0.51562-0.89062 0.51562-0.078125 0.015625-0.3125 0.03125-0.39062 0.03125-0.078125 0.015625-0.14062 0.03125-0.14062 0.125 0 0.10938 0.0625 0.10938 0.23438 0.10938h0.4375c0.8125 0 1.1875 0.67188 1.1875 1.6562 0 1.3594-0.6875 1.6406-1.125 1.6406s-1.1875-0.17188-1.5312-0.75c0.34375 0.046875 0.65625-0.17188 0.65625-0.54688 0-0.35938-0.26562-0.5625-0.54688-0.5625-0.25 0-0.5625 0.14062-0.5625 0.57812 0 0.90625 0.92188 1.5625 2.0156 1.5625 1.2188 0 2.125-0.90625 2.125-1.9219 0-0.8125-0.64062-1.5938-1.6719-1.8125z"/>
    </g>
    <g transform="translate(188.01 134.76)">
     <path id="id-034fc187-eecf-45ad-b54d-09913e05f15a" d="m2.1562 1.1719c0 0.39062-0.26562 1.0312-1.3438 1.0938-0.0625 0.015625-0.09375 0.0625-0.09375 0.10938 0 0.125 0.10938 0.125 0.20312 0.125 0.96875 0 1.8906-0.5 1.9062-1.25v-2.2812c0-0.39062 0-0.70312 0.39062-1.0312 0.34375-0.29688 0.73438-0.3125 0.95312-0.3125 0.046875-0.015625 0.078125-0.0625 0.078125-0.125 0-0.09375-0.046875-0.09375-0.15625-0.10938-0.65625-0.03125-1.1406-0.39062-1.25-0.875-0.015625-0.10938-0.015625-0.14062-0.015625-0.5v-1.9688c0-0.42188 0-0.73438-0.48438-1.1094-0.40625-0.3125-1.0938-0.42188-1.4219-0.42188-0.09375 0-0.20312 0-0.20312 0.125 0 0.09375 0.0625 0.09375 0.15625 0.10938 0.625 0.03125 1.125 0.35938 1.25 0.85938 0.03125 0.09375 0.03125 0.10938 0.03125 0.46875v2.0938c0 0.45312 0.078125 0.625 0.39062 0.95312 0.21875 0.20312 0.5 0.29688 0.78125 0.375-0.8125 0.23438-1.1719 0.70312-1.1719 1.2812z"/>
    </g>
   </g>
  </g>
  <g font-family="'CMU Serif'" font-size="4.2333px" letter-spacing="0px" stroke-width=".26458" text-anchor="middle" word-spacing="0px">
   <text x="65.252426" y="106.13963" text-align="center" style="line-height:1.25" xml:space="preserve"><tspan x="65.252426" y="106.13963" stroke-width=".26458">1</tspan></text>
   <text x="63.947258" y="112.48689" text-align="center" style="line-height:1.25" xml:space="preserve"><tspan x="63.947258" y="112.48689" stroke-width=".26458">2</tspan></text>
   <text x="69.464043" y="109.90274" text-align="center" style="line-height:1.25" xml:space="preserve"><tspan x="69.464043" y="109.90274" stroke-width=".26458">3</tspan></text>
  </g>
 </g>
</svg>
