<?xml version="1.0" encoding="UTF-8" standalone="no"?>
<!-- Created with Inkscape (http://www.inkscape.org/) -->

<svg
   width="47.664116mm"
   height="42.333336mm"
   viewBox="0 0 47.664116 42.333336"
   version="1.1"
   id="svg5"
   sodipodi:docname="single_point.svg"
   inkscape:version="1.1 (c4e8f9e, 2021-05-24)"
   xmlns:inkscape="http://www.inkscape.org/namespaces/inkscape"
   xmlns:sodipodi="http://sodipodi.sourceforge.net/DTD/sodipodi-0.dtd"
   xmlns="http://www.w3.org/2000/svg"
   xmlns:svg="http://www.w3.org/2000/svg"
   xmlns:ns1="http://www.iki.fi/pav/software/textext/">
  <sodipodi:namedview
     id="namedview7"
     pagecolor="#ffffff"
     bordercolor="#666666"
     borderopacity="1.0"
     inkscape:pageshadow="2"
     inkscape:pageopacity="0.0"
     inkscape:pagecheckerboard="0"
     inkscape:document-units="mm"
     showgrid="false"
     inkscape:zoom="2.2104721"
     inkscape:cx="116.49095"
     inkscape:cy="110.60986"
     inkscape:window-width="1312"
     inkscape:window-height="847"
     inkscape:window-x="56"
     inkscape:window-y="25"
     inkscape:window-maximized="0"
     inkscape:current-layer="g1418"
     inkscape:snap-object-midpoints="true">
    <inkscape:grid
       type="xygrid"
       id="grid824"
       originx="-116.53278"
       originy="-51.557881" />
  </sodipodi:namedview>
  <defs
     id="defs2" />
  <g
     inkscape:label="Layer 1"
     inkscape:groupmode="layer"
     id="layer1"
     transform="translate(-116.53278,-51.557883)">
    <g
       id="g1418">
      <path
         style="fill:none;stroke:#cccccc;stroke-width:0.265829;stroke-opacity:1"
         d="M 120.27087,51.557884 V 93.89122 m 3.98119,0 V 51.557883 m 3.98119,1e-6 V 93.89122 m 3.98119,0 V 51.557883 m 3.98119,1e-6 V 93.89122 m 3.9812,0 V 51.557883 m 3.98119,1e-6 V 93.89122 m 3.98119,0 V 51.557883 m 3.98119,1e-6 V 93.89122 m 3.98119,0 V 51.557883 m 3.98119,1e-6 V 93.89122 m 3.9812,0 V 51.557883 m -47.5312,41.245966 h 47.50889 m 0,-3.993709 h -47.50889 m 0,-3.993711 h 47.50889 m 0,-3.99371 h -47.50889 m 0,-3.993711 h 47.50889 m 0,-3.993709 h -47.50889 m 0,-3.993711 h 47.50889 m 0,-3.99371 h -47.50889 m 0,-3.993711 h 47.50889 m 0,-3.99371 h -47.50889 m 0,-3.993711 h 47.50889"
         id="path1416" />
      <circle
         style="font-variation-settings:normal;vector-effect:none;fill:#241f31;fill-opacity:1;fill-rule:evenodd;stroke:#000000;stroke-width:0.264583;stroke-linecap:butt;stroke-linejoin:miter;stroke-miterlimit:4;stroke-dasharray:none;stroke-dashoffset:0;stroke-opacity:1;stop-color:#000000"
         id="path2115"
         cx="140.22917"
         cy="68.791664"
         r="0.66145831" />
      <g
         transform="matrix(0.352778,0,0,0.352778,141.68264,65.450318)"
         ns1:version="1.3.1"
         ns1:texconverter="pdflatex"
         ns1:pdfconverter="inkscape"
         ns1:text="$A$\n"
         ns1:preamble="/Users/ketiboldiais/Library/Application Support/org.inkscape.Inkscape/config/inkscape/extensions/circuitSymbols/circuitSymbolsPreamble.tex"
         ns1:scale="1.0"
         ns1:alignment="middle center"
         ns1:jacobian_sqrt="0.352778"
         id="g3307">
        <defs
           id="id-22bbcfb1-db68-4843-a297-799f0ef5f2c4">
          <g
             id="id-36b03c0e-bf69-47ae-b906-0bfd88c868b7">
            <symbol
               overflow="visible"
               id="id-3c2bbd44-e8d4-4bd0-a5b6-137f5f70e312">
              <path
                 style="stroke:none;stroke-width:0"
                 d=""
                 id="id-60337a78-6235-47cf-a017-7edf39c2d1bd" />
            </symbol>
            <symbol
               overflow="visible"
               id="id-83ac226f-c8cc-429d-a3f6-4debfaf3b312">
              <path
                 style="stroke:none;stroke-width:0"
                 d="M 1.78125,-1.140625 C 1.390625,-0.484375 1,-0.34375 0.5625,-0.3125 0.4375,-0.296875 0.34375,-0.296875 0.34375,-0.109375 0.34375,-0.046875 0.40625,0 0.484375,0 0.75,0 1.0625,-0.03125 1.328125,-0.03125 c 0.34375,0 0.6875,0.03125 1,0.03125 0.0625,0 0.1875,0 0.1875,-0.1875 0,-0.109375 -0.078125,-0.125 -0.15625,-0.125 -0.21875,-0.015625 -0.46875,-0.09375 -0.46875,-0.34375 0,-0.125 0.0625,-0.234375 0.140625,-0.375 l 0.765625,-1.265625 h 2.5 c 0.015625,0.203125 0.15625,1.5625 0.15625,1.65625 0,0.296875 -0.515625,0.328125 -0.71875,0.328125 C 4.59375,-0.3125 4.5,-0.3125 4.5,-0.109375 4.5,0 4.609375,0 4.640625,0 5.046875,0 5.46875,-0.03125 5.875,-0.03125 6.125,-0.03125 6.765625,0 7.015625,0 7.0625,0 7.1875,0 7.1875,-0.203125 7.1875,-0.3125 7.09375,-0.3125 6.953125,-0.3125 6.34375,-0.3125 6.34375,-0.375 6.3125,-0.671875 l -0.609375,-6.21875 c -0.015625,-0.203125 -0.015625,-0.25 -0.1875,-0.25 -0.15625,0 -0.203125,0.078125 -0.265625,0.171875 z M 2.984375,-2.609375 4.9375,-5.90625 5.265625,-2.609375 Z m 0,0"
                 id="id-074e6ace-977f-4f81-8fd4-d723e462df85" />
            </symbol>
          </g>
        </defs>
        <g
           id="id-8070e2ca-8e3b-4c6a-88f5-a1162e2e14cb"
           transform="translate(-149.056,-127.624)">
          <g
             style="fill:#000000;fill-opacity:1"
             id="id-59016473-6f8e-4890-9203-235790bbfd9c">
            <g
               transform="translate(148.712,134.765)"
               id="g3303">
              <path
                 style="stroke:none;stroke-width:0"
                 d="M 1.78125,-1.140625 C 1.390625,-0.484375 1,-0.34375 0.5625,-0.3125 0.4375,-0.296875 0.34375,-0.296875 0.34375,-0.109375 0.34375,-0.046875 0.40625,0 0.484375,0 0.75,0 1.0625,-0.03125 1.328125,-0.03125 c 0.34375,0 0.6875,0.03125 1,0.03125 0.0625,0 0.1875,0 0.1875,-0.1875 0,-0.109375 -0.078125,-0.125 -0.15625,-0.125 -0.21875,-0.015625 -0.46875,-0.09375 -0.46875,-0.34375 0,-0.125 0.0625,-0.234375 0.140625,-0.375 l 0.765625,-1.265625 h 2.5 c 0.015625,0.203125 0.15625,1.5625 0.15625,1.65625 0,0.296875 -0.515625,0.328125 -0.71875,0.328125 C 4.59375,-0.3125 4.5,-0.3125 4.5,-0.109375 4.5,0 4.609375,0 4.640625,0 5.046875,0 5.46875,-0.03125 5.875,-0.03125 6.125,-0.03125 6.765625,0 7.015625,0 7.0625,0 7.1875,0 7.1875,-0.203125 7.1875,-0.3125 7.09375,-0.3125 6.953125,-0.3125 6.34375,-0.3125 6.34375,-0.375 6.3125,-0.671875 l -0.609375,-6.21875 c -0.015625,-0.203125 -0.015625,-0.25 -0.1875,-0.25 -0.15625,0 -0.203125,0.078125 -0.265625,0.171875 z M 2.984375,-2.609375 4.9375,-5.90625 5.265625,-2.609375 Z m 0,0"
                 id="id-2977d4a5-6f1e-4a3b-867a-037ff4c5a0dd" />
            </g>
          </g>
        </g>
      </g>
      <circle
         style="font-variation-settings:normal;vector-effect:none;fill:#241f31;fill-opacity:1;fill-rule:evenodd;stroke:#000000;stroke-width:0.264583;stroke-linecap:butt;stroke-linejoin:miter;stroke-miterlimit:4;stroke-dasharray:none;stroke-dashoffset:0;stroke-opacity:1;stop-color:#000000"
         id="circle937"
         cx="128.32292"
         cy="76.729172"
         r="0.66145831" />
      <circle
         style="font-variation-settings:normal;vector-effect:none;fill:#241f31;fill-opacity:1;fill-rule:evenodd;stroke:#000000;stroke-width:0.264583;stroke-linecap:butt;stroke-linejoin:miter;stroke-miterlimit:4;stroke-dasharray:none;stroke-dashoffset:0;stroke-opacity:1;stop-color:#000000"
         id="circle939"
         cx="144.19792"
         cy="84.666672"
         r="0.66145831" />
      <circle
         style="font-variation-settings:normal;vector-effect:none;fill:#241f31;fill-opacity:1;fill-rule:evenodd;stroke:#000000;stroke-width:0.264583;stroke-linecap:butt;stroke-linejoin:miter;stroke-miterlimit:4;stroke-dasharray:none;stroke-dashoffset:0;stroke-opacity:1;stop-color:#000000"
         id="circle941"
         cx="152.13542"
         cy="60.854168"
         r="0.66145831" />
      <circle
         style="font-variation-settings:normal;vector-effect:none;fill:#241f31;fill-opacity:1;fill-rule:evenodd;stroke:#000000;stroke-width:0.264583;stroke-linecap:butt;stroke-linejoin:miter;stroke-miterlimit:4;stroke-dasharray:none;stroke-dashoffset:0;stroke-opacity:1;stop-color:#000000"
         id="circle943"
         cx="124.35416"
         cy="60.854168"
         r="0.66145831" />
      <circle
         style="font-variation-settings:normal;vector-effect:none;fill:#241f31;fill-opacity:1;fill-rule:evenodd;stroke:#000000;stroke-width:0.264583;stroke-linecap:butt;stroke-linejoin:miter;stroke-miterlimit:4;stroke-dasharray:none;stroke-dashoffset:0;stroke-opacity:1;stop-color:#000000"
         id="circle945"
         cx="132.29167"
         cy="68.791672"
         r="0.66145831" />
      <circle
         style="font-variation-settings:normal;vector-effect:none;fill:#241f31;fill-opacity:1;fill-rule:evenodd;stroke:#000000;stroke-width:0.264583;stroke-linecap:butt;stroke-linejoin:miter;stroke-miterlimit:4;stroke-dasharray:none;stroke-dashoffset:0;stroke-opacity:1;stop-color:#000000"
         id="circle947"
         cx="134.9375"
         cy="56.885418"
         r="0.66145831" />
      <circle
         style="font-variation-settings:normal;vector-effect:none;fill:#241f31;fill-opacity:1;fill-rule:evenodd;stroke:#000000;stroke-width:0.264583;stroke-linecap:butt;stroke-linejoin:miter;stroke-miterlimit:4;stroke-dasharray:none;stroke-dashoffset:0;stroke-opacity:1;stop-color:#000000"
         id="circle949"
         cx="129.64583"
         cy="59.531254"
         r="0.66145831" />
      <circle
         style="font-variation-settings:normal;vector-effect:none;fill:#241f31;fill-opacity:1;fill-rule:evenodd;stroke:#000000;stroke-width:0.264583;stroke-linecap:butt;stroke-linejoin:miter;stroke-miterlimit:4;stroke-dasharray:none;stroke-dashoffset:0;stroke-opacity:1;stop-color:#000000"
         id="circle951"
         cx="140.22917"
         cy="60.854168"
         r="0.66145831" />
      <circle
         style="font-variation-settings:normal;vector-effect:none;fill:#241f31;fill-opacity:1;fill-rule:evenodd;stroke:#000000;stroke-width:0.264583;stroke-linecap:butt;stroke-linejoin:miter;stroke-miterlimit:4;stroke-dasharray:none;stroke-dashoffset:0;stroke-opacity:1;stop-color:#000000"
         id="circle953"
         cx="148.16667"
         cy="54.239586"
         r="0.66145831" />
      <circle
         style="font-variation-settings:normal;vector-effect:none;fill:#241f31;fill-opacity:1;fill-rule:evenodd;stroke:#000000;stroke-width:0.264583;stroke-linecap:butt;stroke-linejoin:miter;stroke-miterlimit:4;stroke-dasharray:none;stroke-dashoffset:0;stroke-opacity:1;stop-color:#000000"
         id="circle955"
         cx="152.13542"
         cy="76.729172"
         r="0.66145831" />
      <circle
         style="font-variation-settings:normal;vector-effect:none;fill:#241f31;fill-opacity:1;fill-rule:evenodd;stroke:#000000;stroke-width:0.264583;stroke-linecap:butt;stroke-linejoin:miter;stroke-miterlimit:4;stroke-dasharray:none;stroke-dashoffset:0;stroke-opacity:1;stop-color:#000000"
         id="circle957"
         cx="148.16667"
         cy="72.760422"
         r="0.66145831" />
      <circle
         style="font-variation-settings:normal;vector-effect:none;fill:#241f31;fill-opacity:1;fill-rule:evenodd;stroke:#000000;stroke-width:0.264583;stroke-linecap:butt;stroke-linejoin:miter;stroke-miterlimit:4;stroke-dasharray:none;stroke-dashoffset:0;stroke-opacity:1;stop-color:#000000"
         id="circle959"
         cx="136.26042"
         cy="80.697922"
         r="0.66145831" />
      <circle
         style="font-variation-settings:normal;vector-effect:none;fill:#241f31;fill-opacity:1;fill-rule:evenodd;stroke:#000000;stroke-width:0.264583;stroke-linecap:butt;stroke-linejoin:miter;stroke-miterlimit:4;stroke-dasharray:none;stroke-dashoffset:0;stroke-opacity:1;stop-color:#000000"
         id="circle961"
         cx="133.61458"
         cy="78.052086"
         r="0.66145831" />
      <circle
         style="font-variation-settings:normal;vector-effect:none;fill:#241f31;fill-opacity:1;fill-rule:evenodd;stroke:#000000;stroke-width:0.264583;stroke-linecap:butt;stroke-linejoin:miter;stroke-miterlimit:4;stroke-dasharray:none;stroke-dashoffset:0;stroke-opacity:1;stop-color:#000000"
         id="circle963"
         cx="124.35416"
         cy="84.666672"
         r="0.66145831" />
      <circle
         style="font-variation-settings:normal;vector-effect:none;fill:#241f31;fill-opacity:1;fill-rule:evenodd;stroke:#000000;stroke-width:0.264583;stroke-linecap:butt;stroke-linejoin:miter;stroke-miterlimit:4;stroke-dasharray:none;stroke-dashoffset:0;stroke-opacity:1;stop-color:#000000"
         id="circle965"
         cx="123.03125"
         cy="68.791672"
         r="0.66145831" />
      <circle
         style="font-variation-settings:normal;vector-effect:none;fill:#241f31;fill-opacity:1;fill-rule:evenodd;stroke:#000000;stroke-width:0.264583;stroke-linecap:butt;stroke-linejoin:miter;stroke-miterlimit:4;stroke-dasharray:none;stroke-dashoffset:0;stroke-opacity:1;stop-color:#000000"
         id="circle967"
         cx="124.35416"
         cy="71.4375"
         r="0.66145831" />
      <circle
         style="font-variation-settings:normal;vector-effect:none;fill:#241f31;fill-opacity:1;fill-rule:evenodd;stroke:#000000;stroke-width:0.264583;stroke-linecap:butt;stroke-linejoin:miter;stroke-miterlimit:4;stroke-dasharray:none;stroke-dashoffset:0;stroke-opacity:1;stop-color:#000000"
         id="circle969"
         cx="120.38541"
         cy="75.40625"
         r="0.66145831" />
      <circle
         style="font-variation-settings:normal;vector-effect:none;fill:#241f31;fill-opacity:1;fill-rule:evenodd;stroke:#000000;stroke-width:0.264583;stroke-linecap:butt;stroke-linejoin:miter;stroke-miterlimit:4;stroke-dasharray:none;stroke-dashoffset:0;stroke-opacity:1;stop-color:#000000"
         id="circle971"
         cx="156.10417"
         cy="88.635422"
         r="0.66145831" />
      <circle
         style="font-variation-settings:normal;vector-effect:none;fill:#241f31;fill-opacity:1;fill-rule:evenodd;stroke:#000000;stroke-width:0.264583;stroke-linecap:butt;stroke-linejoin:miter;stroke-miterlimit:4;stroke-dasharray:none;stroke-dashoffset:0;stroke-opacity:1;stop-color:#000000"
         id="circle973"
         cx="160.07292"
         cy="80.697922"
         r="0.66145831" />
      <circle
         style="font-variation-settings:normal;vector-effect:none;fill:#241f31;fill-opacity:1;fill-rule:evenodd;stroke:#000000;stroke-width:0.264583;stroke-linecap:butt;stroke-linejoin:miter;stroke-miterlimit:4;stroke-dasharray:none;stroke-dashoffset:0;stroke-opacity:1;stop-color:#000000"
         id="circle975"
         cx="157.42708"
         cy="68.791672"
         r="0.66145831" />
    </g>
  </g>
</svg>
