<?xml version="1.0" encoding="UTF-8" standalone="no"?>
<svg
   xmlns:ns3="http://www.iki.fi/pav/software/textext/"
   xmlns:dc="http://purl.org/dc/elements/1.1/"
   xmlns:cc="http://creativecommons.org/ns#"
   xmlns:rdf="http://www.w3.org/1999/02/22-rdf-syntax-ns#"
   xmlns:svg="http://www.w3.org/2000/svg"
   xmlns="http://www.w3.org/2000/svg"
   xmlns:sodipodi="http://sodipodi.sourceforge.net/DTD/sodipodi-0.dtd"
   xmlns:inkscape="http://www.inkscape.org/namespaces/inkscape"
   width="115.76756mm"
   height="39.076427mm"
   viewBox="0 0 115.76756 39.076427"
   version="1.1"
   id="svg8"
   sodipodi:docname="subsets_properSubsets.svg"
   inkscape:version="1.0.2 (e86c8708, 2021-01-15)">
  <defs
     id="defs2" />
  <sodipodi:namedview
     id="base"
     pagecolor="#ffffff"
     bordercolor="#666666"
     borderopacity="1.0"
     inkscape:pageopacity="0.0"
     inkscape:pageshadow="2"
     inkscape:zoom="0.98994949"
     inkscape:cx="200.45535"
     inkscape:cy="234.61528"
     inkscape:document-units="mm"
     inkscape:current-layer="layer1"
     inkscape:document-rotation="0"
     showgrid="true"
     inkscape:snap-object-midpoints="false"
     inkscape:snap-nodes="false"
     inkscape:snap-others="true"
     inkscape:snap-grids="true"
     inkscape:snap-to-guides="false"
     inkscape:window-width="1252"
     inkscape:window-height="943"
     inkscape:window-x="910"
     inkscape:window-y="281"
     inkscape:window-maximized="0"
     inkscape:snap-center="true"
     inkscape:object-paths="true"
     inkscape:snap-intersection-paths="true"
     inkscape:snap-bbox="false"
     lock-margins="true"
     fit-margin-top="2"
     fit-margin-left="2"
     fit-margin-right="2"
     fit-margin-bottom="2" />
  <metadata
     id="metadata5">
    <rdf:RDF>
      <cc:Work
         rdf:about="">
        <dc:format>image/svg+xml</dc:format>
        <dc:type
           rdf:resource="http://purl.org/dc/dcmitype/StillImage" />
        <dc:title></dc:title>
      </cc:Work>
    </rdf:RDF>
  </metadata>
  <g
     inkscape:label="Layer 1"
     inkscape:groupmode="layer"
     id="layer1"
     transform="translate(-43.602827,-104.83497)">
    <rect
       style="fill:#ffffff;fill-rule:evenodd;stroke:#000000;stroke-width:0.264583"
       id="rect835"
       width="50.648811"
       height="30.616072"
       x="106.58929"
       y="106.96726" />
    <ellipse
       style="opacity:1;fill:#ff00ff;fill-opacity:0.165992;stroke:#000000;stroke-width:0.140835"
       id="ellipse845"
       cx="129.64583"
       cy="124.35416"
       rx="5.988615"
       ry="6.121696" />
    <rect
       style="fill:#ffffff;fill-rule:evenodd;stroke:#000000;stroke-width:0.264583"
       id="rect833"
       width="50.648811"
       height="30.616072"
       x="45.735119"
       y="107.34524" />
    <ellipse
       style="opacity:1;fill:#ffaaaa;fill-opacity:0.461538;stroke:#000000;stroke-width:0.177371"
       id="path837"
       cx="60.854168"
       cy="121.70834"
       rx="7.5422211"
       ry="7.7098265" />
    <ellipse
       style="opacity:1;fill:#ff9955;fill-opacity:0.461538;stroke:#000000;stroke-width:0.177371"
       id="ellipse839"
       cx="82.020836"
       cy="121.70834"
       rx="7.5422211"
       ry="7.7098265" />
    <text
       xml:space="preserve"
       style="font-size:2.11667px;line-height:1.25;font-family:'CMU Serif';-inkscape-font-specification:'CMU Serif, Normal';text-align:center;text-anchor:middle;stroke-width:0.264583"
       x="58.208332"
       y="119.0625"
       id="text851"><tspan
         sodipodi:role="line"
         id="tspan849"
         x="58.208332"
         y="119.0625"
         style="stroke-width:0.264583">1</tspan></text>
    <text
       xml:space="preserve"
       style="font-size:2.11667px;line-height:1.25;font-family:'CMU Serif';-inkscape-font-specification:'CMU Serif, Normal';text-align:center;text-anchor:middle;stroke-width:0.264583"
       x="60.854164"
       y="121.70833"
       id="text855"><tspan
         sodipodi:role="line"
         id="tspan853"
         x="60.854164"
         y="121.70833"
         style="stroke-width:0.264583">2</tspan></text>
    <text
       xml:space="preserve"
       style="font-size:2.11667px;line-height:1.25;font-family:'CMU Serif';-inkscape-font-specification:'CMU Serif, Normal';text-align:center;text-anchor:middle;stroke-width:0.264583"
       x="58.208332"
       y="124.35416"
       id="text859"><tspan
         sodipodi:role="line"
         id="tspan857"
         x="58.208332"
         y="124.35416"
         style="stroke-width:0.264583">3</tspan></text>
    <text
       xml:space="preserve"
       style="font-size:2.11667px;line-height:1.25;font-family:'CMU Serif';-inkscape-font-specification:'CMU Serif, Normal';text-align:center;text-anchor:middle;stroke-width:0.264583"
       x="63.5"
       y="121.70833"
       id="text863"><tspan
         sodipodi:role="line"
         id="tspan861"
         x="63.5"
         y="121.70833"
         style="stroke-width:0.264583">4</tspan></text>
    <text
       xml:space="preserve"
       style="font-size:2.11667px;line-height:1.25;font-family:'CMU Serif';-inkscape-font-specification:'CMU Serif, Normal';text-align:center;text-anchor:middle;stroke-width:0.264583"
       x="60.854164"
       y="127"
       id="text867"><tspan
         sodipodi:role="line"
         id="tspan865"
         x="60.854164"
         y="127"
         style="stroke-width:0.264583">5</tspan></text>
    <text
       xml:space="preserve"
       style="font-size:2.11667px;line-height:1.25;font-family:'CMU Serif';-inkscape-font-specification:'CMU Serif, Normal';text-align:center;text-anchor:middle;stroke-width:0.264583"
       x="60.854164"
       y="116.41666"
       id="text871"><tspan
         sodipodi:role="line"
         id="tspan869"
         x="60.854164"
         y="116.41666"
         style="stroke-width:0.264583">6</tspan></text>
    <text
       xml:space="preserve"
       style="font-size:2.11667px;line-height:1.25;font-family:'CMU Serif';-inkscape-font-specification:'CMU Serif, Normal';text-align:center;text-anchor:middle;stroke-width:0.264583"
       x="79.375"
       y="119.0625"
       id="text875"><tspan
         sodipodi:role="line"
         id="tspan873"
         x="79.375"
         y="119.0625"
         style="stroke-width:0.264583">1</tspan></text>
    <text
       xml:space="preserve"
       style="font-size:2.11667px;line-height:1.25;font-family:'CMU Serif';-inkscape-font-specification:'CMU Serif, Normal';text-align:center;text-anchor:middle;stroke-width:0.264583"
       x="79.375"
       y="124.35416"
       id="text879"><tspan
         sodipodi:role="line"
         id="tspan877"
         x="79.375"
         y="124.35416"
         style="stroke-width:0.264583">2</tspan></text>
    <text
       xml:space="preserve"
       style="font-size:2.11667px;line-height:1.25;font-family:'CMU Serif';-inkscape-font-specification:'CMU Serif, Normal';text-align:center;text-anchor:middle;stroke-width:0.264583"
       x="82.020836"
       y="121.70833"
       id="text883"><tspan
         sodipodi:role="line"
         id="tspan881"
         x="82.020836"
         y="121.70833"
         style="stroke-width:0.264583">3</tspan></text>
    <text
       xml:space="preserve"
       style="font-size:2.11667px;line-height:1.25;font-family:'CMU Serif';-inkscape-font-specification:'CMU Serif, Normal';text-align:center;text-anchor:middle;stroke-width:0.264583"
       x="84.666664"
       y="124.35416"
       id="text887"><tspan
         sodipodi:role="line"
         id="tspan885"
         x="84.666664"
         y="124.35416"
         style="stroke-width:0.264583">4</tspan></text>
    <text
       xml:space="preserve"
       style="font-size:2.11667px;line-height:1.25;font-family:'CMU Serif';-inkscape-font-specification:'CMU Serif, Normal';text-align:center;text-anchor:middle;stroke-width:0.264583"
       x="83.731224"
       y="118.28754"
       id="text891"><tspan
         sodipodi:role="line"
         id="tspan889"
         x="83.731224"
         y="118.28754"
         style="stroke-width:0.264583">5</tspan></text>
    <text
       xml:space="preserve"
       style="font-size:2.11667px;line-height:1.25;font-family:'CMU Serif';-inkscape-font-specification:'CMU Serif, Normal';text-align:center;text-anchor:middle;stroke-width:0.264583"
       x="82.020836"
       y="127"
       id="text895"><tspan
         sodipodi:role="line"
         id="tspan893"
         x="82.020836"
         y="127"
         style="stroke-width:0.264583">6</tspan></text>
    <ellipse
       style="opacity:1;fill:#00ff00;fill-opacity:0.194332;stroke:#000000;stroke-width:0.188;stroke-miterlimit:4;stroke-dasharray:none"
       id="ellipse843"
       cx="132.29167"
       cy="121.70834"
       rx="12.232485"
       ry="12.50432" />
    <text
       xml:space="preserve"
       style="font-size:2.11667px;line-height:1.25;font-family:'CMU Serif';-inkscape-font-specification:'CMU Serif, Normal';text-align:center;text-anchor:middle;stroke-width:0.264583"
       x="127"
       y="124.35416"
       id="text899"><tspan
         sodipodi:role="line"
         id="tspan897"
         x="127"
         y="124.35416"
         style="stroke-width:0.264583">1</tspan></text>
    <text
       xml:space="preserve"
       style="font-size:2.11667px;line-height:1.25;font-family:'CMU Serif';-inkscape-font-specification:'CMU Serif, Normal';text-align:center;text-anchor:middle;stroke-width:0.264583"
       x="129.64583"
       y="127"
       id="text903"><tspan
         sodipodi:role="line"
         id="tspan901"
         x="129.64583"
         y="127"
         style="stroke-width:0.264583">2</tspan></text>
    <text
       xml:space="preserve"
       style="font-size:2.11667px;line-height:1.25;font-family:'CMU Serif';-inkscape-font-specification:'CMU Serif, Normal';text-align:center;text-anchor:middle;stroke-width:0.264583"
       x="129.64583"
       y="121.70833"
       id="text907"><tspan
         sodipodi:role="line"
         id="tspan905"
         x="129.64583"
         y="121.70833"
         style="stroke-width:0.264583">3</tspan></text>
    <text
       xml:space="preserve"
       style="font-size:2.11667px;line-height:1.25;font-family:'CMU Serif';-inkscape-font-specification:'CMU Serif, Normal';text-align:center;text-anchor:middle;stroke-width:0.264583"
       x="132.29167"
       y="124.35416"
       id="text911"><tspan
         sodipodi:role="line"
         id="tspan909"
         x="132.29167"
         y="124.35416"
         style="stroke-width:0.264583">4</tspan></text>
    <text
       xml:space="preserve"
       style="font-size:2.11667px;line-height:1.25;font-family:'CMU Serif';-inkscape-font-specification:'CMU Serif, Normal';text-align:center;text-anchor:middle;stroke-width:0.264583"
       x="127"
       y="127"
       id="text915"><tspan
         sodipodi:role="line"
         id="tspan913"
         x="127"
         y="127"
         style="stroke-width:0.264583">5</tspan></text>
    <text
       xml:space="preserve"
       style="font-size:2.11667px;line-height:1.25;font-family:'CMU Serif';-inkscape-font-specification:'CMU Serif, Normal';text-align:center;text-anchor:middle;stroke-width:0.264583"
       x="132.29167"
       y="113.77083"
       id="text919"><tspan
         sodipodi:role="line"
         id="tspan917"
         x="132.29167"
         y="113.77083"
         style="stroke-width:0.264583">1</tspan></text>
    <text
       xml:space="preserve"
       style="font-size:2.11667px;line-height:1.25;font-family:'CMU Serif';-inkscape-font-specification:'CMU Serif, Normal';text-align:center;text-anchor:middle;stroke-width:0.264583"
       x="134.9375"
       y="119.0625"
       id="text923"><tspan
         sodipodi:role="line"
         id="tspan921"
         x="134.9375"
         y="119.0625"
         style="stroke-width:0.264583">2</tspan></text>
    <text
       xml:space="preserve"
       style="font-size:2.11667px;line-height:1.25;font-family:'CMU Serif';-inkscape-font-specification:'CMU Serif, Normal';text-align:center;text-anchor:middle;stroke-width:0.264583"
       x="137.58333"
       y="127"
       id="text927"><tspan
         sodipodi:role="line"
         id="tspan925"
         x="137.58333"
         y="127"
         style="stroke-width:0.264583">3</tspan></text>
    <text
       xml:space="preserve"
       style="font-size:2.11667px;line-height:1.25;font-family:'CMU Serif';-inkscape-font-specification:'CMU Serif, Normal';text-align:center;text-anchor:middle;stroke-width:0.264583"
       x="134.9375"
       y="129.64583"
       id="text931"><tspan
         sodipodi:role="line"
         id="tspan929"
         x="134.9375"
         y="129.64583"
         style="stroke-width:0.264583">4</tspan></text>
    <text
       xml:space="preserve"
       style="font-size:2.11667px;line-height:1.25;font-family:'CMU Serif';-inkscape-font-specification:'CMU Serif, Normal';text-align:center;text-anchor:middle;stroke-width:0.264583"
       x="132.29167"
       y="132.29167"
       id="text935"><tspan
         sodipodi:role="line"
         id="tspan933"
         x="132.29167"
         y="132.29167"
         style="stroke-width:0.264583">5</tspan></text>
    <text
       xml:space="preserve"
       style="font-size:2.11667px;line-height:1.25;font-family:'CMU Serif';-inkscape-font-specification:'CMU Serif, Normal';text-align:center;text-anchor:middle;stroke-width:0.264583"
       x="127"
       y="116.41666"
       id="text939"><tspan
         sodipodi:role="line"
         id="tspan937"
         x="127"
         y="116.41666"
         style="stroke-width:0.264583">6</tspan></text>
    <text
       xml:space="preserve"
       style="font-size:2.11667px;line-height:1.25;font-family:'CMU Serif';-inkscape-font-specification:'CMU Serif, Normal';text-align:center;text-anchor:middle;stroke-width:0.264583"
       x="137.58333"
       y="113.77083"
       id="text943"><tspan
         sodipodi:role="line"
         id="tspan941"
         x="137.58333"
         y="113.77083"
         style="stroke-width:0.264583">7</tspan></text>
    <text
       xml:space="preserve"
       style="font-size:2.11667px;line-height:1.25;font-family:'CMU Serif';-inkscape-font-specification:'CMU Serif, Normal';text-align:center;text-anchor:middle;stroke-width:0.264583"
       x="140.22917"
       y="119.0625"
       id="text947"><tspan
         sodipodi:role="line"
         id="tspan945"
         x="140.22917"
         y="119.0625"
         style="stroke-width:0.264583">8</tspan></text>
    <text
       xml:space="preserve"
       style="font-size:2.11667px;line-height:1.25;font-family:'CMU Serif';-inkscape-font-specification:'CMU Serif, Normal';text-align:center;text-anchor:middle;stroke-width:0.264583"
       x="140.22917"
       y="124.35416"
       id="text951"><tspan
         sodipodi:role="line"
         id="tspan949"
         x="140.22917"
         y="124.35416"
         style="stroke-width:0.264583">9</tspan></text>
    <text
       xml:space="preserve"
       style="font-size:2.11667px;line-height:1.25;font-family:'CMU Serif';-inkscape-font-specification:'CMU Serif, Normal';text-align:center;text-anchor:middle;stroke-width:0.264583"
       x="123.17831"
       y="118.92886"
       id="text955"><tspan
         sodipodi:role="line"
         id="tspan953"
         x="123.17831"
         y="118.92886"
         style="stroke-width:0.264583">10</tspan></text>
    <path
       style="opacity:1;fill:#ffff00;fill-opacity:0.125506;stroke:#000000;stroke-width:0.358883;stroke-miterlimit:4;stroke-dasharray:none"
       d="m 173.72583,463.53043 v -57.07362 h 94.95434 94.95434 v 57.07362 57.07362 h -94.95434 -94.95434 z m 62.26927,25.52007 c 5.49031,-1.16339 9.69228,-3.50198 14.05481,-7.82217 12.04947,-11.93252 12.04947,-30.53434 0,-42.46687 -2.63608,-2.61049 -4.91298,-4.32575 -7.23913,-5.45345 -19.04962,-9.23517 -40.65418,3.81171 -41.68219,25.17166 -0.94698,19.67622 16.03061,34.56211 34.86651,30.57083 z m 79.9097,-0.0127 c 8.58488,-1.79452 16.15818,-7.71303 19.90016,-15.55194 2.35382,-4.9309 3.08081,-8.11441 3.08081,-13.49098 0,-5.37658 -0.72699,-8.56008 -3.08081,-13.49098 -8.58993,-17.99464 -33.11091,-21.70882 -46.7096,-7.0751 -3.31141,3.56346 -4.97098,6.32764 -6.66843,11.10689 -1.78481,5.02524 -1.887,13.06159 -0.23267,18.29802 2.78166,8.80483 9.33389,15.81575 17.72699,18.96798 5.56526,2.09017 10.1876,2.44765 15.98355,1.23611 z"
       id="path959"
       transform="scale(0.26458333)" />
    <path
       style="opacity:1;fill:#ffff00;fill-opacity:0.137652;stroke:#000000;stroke-width:0.358883;stroke-miterlimit:4;stroke-dasharray:none"
       d="m 403.53553,462.0152 v -57.07362 h 94.95434 94.95434 v 57.07362 57.07362 h -94.95434 -94.95434 z m 107.52746,44.43993 c 4.65379,-1.12269 11.27922,-4.0312 14.97485,-6.57387 3.60967,-2.48352 9.17444,-7.93045 11.65868,-11.4118 3.1364,-4.39527 6.53673,-11.83863 7.83033,-17.14068 1.54965,-6.35151 1.54965,-16.31626 0,-22.66777 -1.2936,-5.30205 -4.69393,-12.7454 -7.83033,-17.14067 -2.48424,-3.48136 -8.04901,-8.92828 -11.65868,-11.4118 -3.72585,-2.56346 -10.34009,-5.45726 -15.23573,-6.66579 -6.256,-1.54436 -15.33802,-1.54436 -21.59402,0 -17.51834,4.32457 -30.83051,18.10875 -34.95858,36.19808 -1.25201,5.48633 -1.25201,15.22181 0,20.70813 2.00273,8.77607 5.91995,16.22611 11.8758,22.58622 7.56991,8.08374 16.46104,12.74405 27.72491,14.5321 4.12813,0.65531 12.29029,0.17535 17.21277,-1.01215 z"
       id="path961"
       transform="scale(0.26458333)" />
    <text
       xml:space="preserve"
       style="font-size:3.175px;line-height:1.25;font-family:'CMU Serif';-inkscape-font-specification:'CMU Serif, Normal';text-align:center;text-anchor:middle;stroke-width:0.264583"
       x="53.29464"
       y="113.39286"
       id="text965"><tspan
         sodipodi:role="line"
         id="tspan963"
         x="53.29464"
         y="113.39286"
         style="font-style:italic;font-variant:normal;font-weight:500;font-stretch:normal;font-size:3.175px;font-family:'CMU Serif';-inkscape-font-specification:'CMU Serif Medium Italic';stroke-width:0.264583">Set A</tspan></text>
    <text
       xml:space="preserve"
       style="font-size:3.175px;line-height:1.25;font-family:'CMU Serif';-inkscape-font-specification:'CMU Serif, Normal';text-align:center;text-anchor:middle;stroke-width:0.264583"
       x="76.351181"
       y="113.39285"
       id="text969"><tspan
         sodipodi:role="line"
         id="tspan967"
         x="76.351181"
         y="113.39285"
         style="font-style:italic;font-variant:normal;font-weight:500;font-stretch:normal;font-size:3.175px;font-family:'CMU Serif';-inkscape-font-specification:'CMU Serif Medium Italic';stroke-width:0.264583">Set B</tspan></text>
    <text
       xml:space="preserve"
       style="font-size:3.175px;line-height:1.25;font-family:'CMU Serif';-inkscape-font-specification:'CMU Serif, Normal';text-align:center;text-anchor:middle;stroke-width:0.264583"
       x="112.92039"
       y="131.8192"
       id="text977"><tspan
         sodipodi:role="line"
         id="tspan975"
         x="112.92039"
         y="131.8192"
         style="font-style:italic;font-variant:normal;font-weight:500;font-stretch:normal;font-size:3.175px;font-family:'CMU Serif';-inkscape-font-specification:'CMU Serif Medium Italic';stroke-width:0.264583">Set A</tspan></text>
    <path
       style="fill:none;stroke:#000000;stroke-width:0.165;stroke-linecap:butt;stroke-linejoin:miter;stroke-miterlimit:4;stroke-dasharray:none;stroke-opacity:1"
       d="m 116.79464,129.07887 8.50447,-4.53572"
       id="path979" />
    <text
       xml:space="preserve"
       style="font-size:3.175px;line-height:1.25;font-family:'CMU Serif';-inkscape-font-specification:'CMU Serif, Normal';text-align:center;text-anchor:middle;stroke-width:0.264583"
       x="151.66295"
       y="135.032"
       id="text983"><tspan
         sodipodi:role="line"
         id="tspan981"
         x="151.66295"
         y="135.032"
         style="font-style:italic;font-variant:normal;font-weight:500;font-stretch:normal;font-size:3.175px;font-family:'CMU Serif';-inkscape-font-specification:'CMU Serif Medium Italic';stroke-width:0.264583">Set B</tspan></text>
    <path
       style="fill:none;stroke:#000000;stroke-width:0.165;stroke-linecap:butt;stroke-linejoin:miter;stroke-miterlimit:4;stroke-dasharray:none;stroke-opacity:1"
       d="m 148.26116,132.38616 -7.55952,-4.91369"
       id="path985" />
    <g
       transform="matrix(0.38379951,0,0,0.38379951,129.57525,138.78078)"
       ns3:version="1.3.1"
       ns3:texconverter="pdflatex"
       ns3:pdfconverter="inkscape"
       ns3:text="$A \\subset B$\n"
       ns3:preamble=""
       ns3:scale="1.0"
       ns3:alignment="middle center"
       ns3:jacobian_sqrt="0.352778"
       id="g1092">
      <defs
         id="id-ad00224f-efd0-4979-b54e-9f6452ff9de6">
        <g
           id="id-182176ca-3440-4ca2-af82-1f46330b3f80">
          <symbol
             overflow="visible"
             id="id-4cbe50ea-28f9-4b62-90e8-39308d856b47">
            <path
               style="stroke:none;stroke-width:0"
               d=""
               id="id-3df5a0e5-b637-408b-b76c-e7cf4f4bf6dd" />
          </symbol>
          <symbol
             overflow="visible"
             id="id-88510867-9c82-4401-9170-10cdd7c72437">
            <path
               style="stroke:none;stroke-width:0"
               d="M 1.78125,-1.140625 C 1.390625,-0.484375 1,-0.34375 0.5625,-0.3125 0.4375,-0.296875 0.34375,-0.296875 0.34375,-0.109375 0.34375,-0.046875 0.40625,0 0.484375,0 0.75,0 1.0625,-0.03125 1.328125,-0.03125 c 0.34375,0 0.6875,0.03125 1,0.03125 0.0625,0 0.1875,0 0.1875,-0.1875 0,-0.109375 -0.078125,-0.125 -0.15625,-0.125 -0.21875,-0.015625 -0.46875,-0.09375 -0.46875,-0.34375 0,-0.125 0.0625,-0.234375 0.140625,-0.375 l 0.765625,-1.265625 h 2.5 c 0.015625,0.203125 0.15625,1.5625 0.15625,1.65625 0,0.296875 -0.515625,0.328125 -0.71875,0.328125 C 4.59375,-0.3125 4.5,-0.3125 4.5,-0.109375 4.5,0 4.609375,0 4.640625,0 5.046875,0 5.46875,-0.03125 5.875,-0.03125 6.125,-0.03125 6.765625,0 7.015625,0 7.0625,0 7.1875,0 7.1875,-0.203125 7.1875,-0.3125 7.09375,-0.3125 6.953125,-0.3125 6.34375,-0.3125 6.34375,-0.375 6.3125,-0.671875 l -0.609375,-6.21875 c -0.015625,-0.203125 -0.015625,-0.25 -0.1875,-0.25 -0.15625,0 -0.203125,0.078125 -0.265625,0.171875 z M 2.984375,-2.609375 4.9375,-5.90625 5.265625,-2.609375 Z m 0,0"
               id="id-56cd8036-6f19-485e-b64f-ea4bf2b6f72f" />
          </symbol>
          <symbol
             overflow="visible"
             id="id-d94b0cae-ff95-49c4-b180-b1eabc85b7ba">
            <path
               style="stroke:none;stroke-width:0"
               d="M 1.59375,-0.78125 C 1.5,-0.390625 1.46875,-0.3125 0.6875,-0.3125 c -0.171875,0 -0.265625,0 -0.265625,0.203125 C 0.421875,0 0.515625,0 0.6875,0 H 4.25 C 5.828125,0 7,-1.171875 7,-2.15625 7,-2.875 6.421875,-3.453125 5.453125,-3.5625 6.484375,-3.75 7.53125,-4.484375 7.53125,-5.4375 c 0,-0.734375 -0.65625,-1.375 -1.84375,-1.375 H 2.328125 c -0.1875,0 -0.28125,0 -0.28125,0.203125 0,0.109375 0.09375,0.109375 0.28125,0.109375 0.015625,0 0.203125,0 0.375,0.015625 0.171875,0.03125 0.265625,0.03125 0.265625,0.171875 0,0.03125 -0.015625,0.0625 -0.03125,0.1875 z m 1.5,-2.875 0.625,-2.46875 C 3.8125,-6.46875 3.828125,-6.5 4.25,-6.5 h 1.296875 c 0.875,0 1.078125,0.59375 1.078125,1.03125 0,0.875 -0.859375,1.8125 -2.0625,1.8125 z m -0.4375,3.34375 c -0.140625,0 -0.15625,0 -0.21875,0 -0.109375,-0.015625 -0.140625,-0.03125 -0.140625,-0.109375 0,-0.03125 0,-0.046875 0.0625,-0.21875 l 0.6875,-2.78125 h 1.875 c 0.953125,0 1.15625,0.734375 1.15625,1.15625 C 6.078125,-1.28125 5.1875,-0.3125 4,-0.3125 Z m 0,0"
               id="id-55d8e0bf-b664-42c1-ba26-a58f75c39a07" />
          </symbol>
          <symbol
             overflow="visible"
             id="id-6113962d-e37d-4be4-ac1f-e58df260c675">
            <path
               style="stroke:none;stroke-width:0"
               d=""
               id="id-204252b4-a3e8-465a-a5db-88caea362556" />
          </symbol>
          <symbol
             overflow="visible"
             id="id-86d3213f-d137-478f-9283-fc6c9206062a">
            <path
               style="stroke:none;stroke-width:0"
               d="m 6.5625,-4.984375 c 0.171875,0 0.359375,0 0.359375,-0.203125 0,-0.203125 -0.1875,-0.203125 -0.359375,-0.203125 H 3.890625 c -1.703125,0 -3.0625,1.296875 -3.0625,2.890625 0,1.609375 1.359375,2.90625 3.0625,2.90625 H 6.5625 c 0.171875,0 0.359375,0 0.359375,-0.203125 C 6.921875,0 6.734375,0 6.5625,0 H 3.90625 c -1.546875,0 -2.6875,-1.15625 -2.6875,-2.5 0,-1.328125 1.140625,-2.484375 2.6875,-2.484375 z m 0,0"
               id="id-ee7227cd-d696-48f9-8b9a-3b35e87655c5" />
          </symbol>
        </g>
      </defs>
      <g
         id="id-0f12e520-9b7b-4710-9946-958766b495fd"
         transform="translate(-149.056,-127.624)">
        <g
           style="fill:#000000;fill-opacity:1"
           id="id-5cb6812c-2034-467c-a600-1acd92be2cbf">
          <g
             transform="translate(148.712,134.765)"
             id="g1080">
            <path
               style="stroke:none;stroke-width:0"
               d="M 1.78125,-1.140625 C 1.390625,-0.484375 1,-0.34375 0.5625,-0.3125 0.4375,-0.296875 0.34375,-0.296875 0.34375,-0.109375 0.34375,-0.046875 0.40625,0 0.484375,0 0.75,0 1.0625,-0.03125 1.328125,-0.03125 c 0.34375,0 0.6875,0.03125 1,0.03125 0.0625,0 0.1875,0 0.1875,-0.1875 0,-0.109375 -0.078125,-0.125 -0.15625,-0.125 -0.21875,-0.015625 -0.46875,-0.09375 -0.46875,-0.34375 0,-0.125 0.0625,-0.234375 0.140625,-0.375 l 0.765625,-1.265625 h 2.5 c 0.015625,0.203125 0.15625,1.5625 0.15625,1.65625 0,0.296875 -0.515625,0.328125 -0.71875,0.328125 C 4.59375,-0.3125 4.5,-0.3125 4.5,-0.109375 4.5,0 4.609375,0 4.640625,0 5.046875,0 5.46875,-0.03125 5.875,-0.03125 6.125,-0.03125 6.765625,0 7.015625,0 7.0625,0 7.1875,0 7.1875,-0.203125 7.1875,-0.3125 7.09375,-0.3125 6.953125,-0.3125 6.34375,-0.3125 6.34375,-0.375 6.3125,-0.671875 l -0.609375,-6.21875 c -0.015625,-0.203125 -0.015625,-0.25 -0.1875,-0.25 -0.15625,0 -0.203125,0.078125 -0.265625,0.171875 z M 2.984375,-2.609375 4.9375,-5.90625 5.265625,-2.609375 Z m 0,0"
               id="id-387e884e-4f2c-4aa0-ad4e-58f7f8e12390" />
          </g>
        </g>
        <g
           style="fill:#000000;fill-opacity:1"
           id="id-7cb608b1-dfeb-4689-b730-40cd14c1fb62">
          <g
             transform="translate(158.952,134.765)"
             id="g1084">
            <path
               style="stroke:none;stroke-width:0"
               d="m 6.5625,-4.984375 c 0.171875,0 0.359375,0 0.359375,-0.203125 0,-0.203125 -0.1875,-0.203125 -0.359375,-0.203125 H 3.890625 c -1.703125,0 -3.0625,1.296875 -3.0625,2.890625 0,1.609375 1.359375,2.90625 3.0625,2.90625 H 6.5625 c 0.171875,0 0.359375,0 0.359375,-0.203125 C 6.921875,0 6.734375,0 6.5625,0 H 3.90625 c -1.546875,0 -2.6875,-1.15625 -2.6875,-2.5 0,-1.328125 1.140625,-2.484375 2.6875,-2.484375 z m 0,0"
               id="id-464d3be8-318a-4301-afe2-44c5fe84155f" />
          </g>
        </g>
        <g
           style="fill:#000000;fill-opacity:1"
           id="id-5c30628d-99aa-4421-8863-65c90e543241">
          <g
             transform="translate(169.468,134.765)"
             id="g1088">
            <path
               style="stroke:none;stroke-width:0"
               d="M 1.59375,-0.78125 C 1.5,-0.390625 1.46875,-0.3125 0.6875,-0.3125 c -0.171875,0 -0.265625,0 -0.265625,0.203125 C 0.421875,0 0.515625,0 0.6875,0 H 4.25 C 5.828125,0 7,-1.171875 7,-2.15625 7,-2.875 6.421875,-3.453125 5.453125,-3.5625 6.484375,-3.75 7.53125,-4.484375 7.53125,-5.4375 c 0,-0.734375 -0.65625,-1.375 -1.84375,-1.375 H 2.328125 c -0.1875,0 -0.28125,0 -0.28125,0.203125 0,0.109375 0.09375,0.109375 0.28125,0.109375 0.015625,0 0.203125,0 0.375,0.015625 0.171875,0.03125 0.265625,0.03125 0.265625,0.171875 0,0.03125 -0.015625,0.0625 -0.03125,0.1875 z m 1.5,-2.875 0.625,-2.46875 C 3.8125,-6.46875 3.828125,-6.5 4.25,-6.5 h 1.296875 c 0.875,0 1.078125,0.59375 1.078125,1.03125 0,0.875 -0.859375,1.8125 -2.0625,1.8125 z m -0.4375,3.34375 c -0.140625,0 -0.15625,0 -0.21875,0 -0.109375,-0.015625 -0.140625,-0.03125 -0.140625,-0.109375 0,-0.03125 0,-0.046875 0.0625,-0.21875 l 0.6875,-2.78125 h 1.875 c 0.953125,0 1.15625,0.734375 1.15625,1.15625 C 6.078125,-1.28125 5.1875,-0.3125 4,-0.3125 Z m 0,0"
               id="id-bc40e9a8-44e2-4af7-af30-2a57c3ae4d6e" />
          </g>
        </g>
      </g>
    </g>
    <g
       transform="matrix(0.39581888,0,0,0.39581888,63.261483,138.54679)"
       ns3:version="1.3.1"
       ns3:texconverter="pdflatex"
       ns3:pdfconverter="inkscape"
       ns3:text="$A \\subseteq B$\n"
       ns3:preamble=""
       ns3:scale="1.0"
       ns3:alignment="middle center"
       ns3:jacobian_sqrt="0.352778"
       id="g1244">
      <defs
         id="id-580f96d9-d667-4faf-87d7-beef6f4be21d">
        <g
           id="id-d0d9f098-57d7-458d-9785-c4e49753a2d8">
          <symbol
             overflow="visible"
             id="id-d7891251-7270-4e23-8f95-a678813e7176">
            <path
               style="stroke:none;stroke-width:0"
               d=""
               id="id-09dcba9a-c7b0-4518-a2c8-b7d7f0cca91c" />
          </symbol>
          <symbol
             overflow="visible"
             id="id-eb4f4a91-2e04-48ba-ab14-d169eda8f1d9">
            <path
               style="stroke:none;stroke-width:0"
               d="M 1.78125,-1.140625 C 1.390625,-0.484375 1,-0.34375 0.5625,-0.3125 0.4375,-0.296875 0.34375,-0.296875 0.34375,-0.109375 0.34375,-0.046875 0.40625,0 0.484375,0 0.75,0 1.0625,-0.03125 1.328125,-0.03125 c 0.34375,0 0.6875,0.03125 1,0.03125 0.0625,0 0.1875,0 0.1875,-0.1875 0,-0.109375 -0.078125,-0.125 -0.15625,-0.125 -0.21875,-0.015625 -0.46875,-0.09375 -0.46875,-0.34375 0,-0.125 0.0625,-0.234375 0.140625,-0.375 l 0.765625,-1.265625 h 2.5 c 0.015625,0.203125 0.15625,1.5625 0.15625,1.65625 0,0.296875 -0.515625,0.328125 -0.71875,0.328125 C 4.59375,-0.3125 4.5,-0.3125 4.5,-0.109375 4.5,0 4.609375,0 4.640625,0 5.046875,0 5.46875,-0.03125 5.875,-0.03125 6.125,-0.03125 6.765625,0 7.015625,0 7.0625,0 7.1875,0 7.1875,-0.203125 7.1875,-0.3125 7.09375,-0.3125 6.953125,-0.3125 6.34375,-0.3125 6.34375,-0.375 6.3125,-0.671875 l -0.609375,-6.21875 c -0.015625,-0.203125 -0.015625,-0.25 -0.1875,-0.25 -0.15625,0 -0.203125,0.078125 -0.265625,0.171875 z M 2.984375,-2.609375 4.9375,-5.90625 5.265625,-2.609375 Z m 0,0"
               id="id-8a840a4d-32a0-41c5-84a9-2e8cf337a954" />
          </symbol>
          <symbol
             overflow="visible"
             id="id-4abf2d5f-1db6-401f-b3e8-1d6d007b5f4f">
            <path
               style="stroke:none;stroke-width:0"
               d="M 1.59375,-0.78125 C 1.5,-0.390625 1.46875,-0.3125 0.6875,-0.3125 c -0.171875,0 -0.265625,0 -0.265625,0.203125 C 0.421875,0 0.515625,0 0.6875,0 H 4.25 C 5.828125,0 7,-1.171875 7,-2.15625 7,-2.875 6.421875,-3.453125 5.453125,-3.5625 6.484375,-3.75 7.53125,-4.484375 7.53125,-5.4375 c 0,-0.734375 -0.65625,-1.375 -1.84375,-1.375 H 2.328125 c -0.1875,0 -0.28125,0 -0.28125,0.203125 0,0.109375 0.09375,0.109375 0.28125,0.109375 0.015625,0 0.203125,0 0.375,0.015625 0.171875,0.03125 0.265625,0.03125 0.265625,0.171875 0,0.03125 -0.015625,0.0625 -0.03125,0.1875 z m 1.5,-2.875 0.625,-2.46875 C 3.8125,-6.46875 3.828125,-6.5 4.25,-6.5 h 1.296875 c 0.875,0 1.078125,0.59375 1.078125,1.03125 0,0.875 -0.859375,1.8125 -2.0625,1.8125 z m -0.4375,3.34375 c -0.140625,0 -0.15625,0 -0.21875,0 -0.109375,-0.015625 -0.140625,-0.03125 -0.140625,-0.109375 0,-0.03125 0,-0.046875 0.0625,-0.21875 l 0.6875,-2.78125 h 1.875 c 0.953125,0 1.15625,0.734375 1.15625,1.15625 C 6.078125,-1.28125 5.1875,-0.3125 4,-0.3125 Z m 0,0"
               id="id-10ffc9a2-dd06-4786-87a9-5ec96004df11" />
          </symbol>
          <symbol
             overflow="visible"
             id="id-af9ded85-e2ab-4ef5-9f61-544265963b08">
            <path
               style="stroke:none;stroke-width:0"
               d=""
               id="id-b933a108-af1d-4d30-924e-4ec0819d536b" />
          </symbol>
          <symbol
             overflow="visible"
             id="id-0854851a-44aa-4005-9459-fc2f60e4ffcc">
            <path
               style="stroke:none;stroke-width:0"
               d="m 6.5625,-5.9375 c 0.171875,0 0.359375,0 0.359375,-0.203125 0,-0.203125 -0.1875,-0.203125 -0.359375,-0.203125 H 3.890625 c -1.71875,0 -3.0625,1.3125 -3.0625,2.890625 0,1.59375 1.375,2.890625 3.0625,2.890625 H 6.5625 c 0.171875,0 0.359375,0 0.359375,-0.203125 0,-0.203125 -0.1875,-0.203125 -0.359375,-0.203125 H 3.90625 c -1.578125,0 -2.6875,-1.171875 -2.6875,-2.484375 0,-1.359375 1.140625,-2.484375 2.6875,-2.484375 z M 1.375,0.96875 c -0.171875,0 -0.34375,0 -0.34375,0.203125 0,0.1875 0.171875,0.1875 0.34375,0.1875 h 5.1875 c 0.171875,0 0.359375,0 0.359375,-0.1875 0,-0.203125 -0.1875,-0.203125 -0.359375,-0.203125 z m 0,0"
               id="id-1b0e9364-ee88-463f-9e77-14d7662e1368" />
          </symbol>
        </g>
      </defs>
      <g
         id="id-17ced283-3297-4fad-85a2-1e78e3361316"
         transform="translate(-149.056,-127.624)">
        <g
           style="fill:#000000;fill-opacity:1"
           id="id-5688494f-1839-4d6c-9bf7-17cafa4ca32b">
          <g
             transform="translate(148.712,134.765)"
             id="g1232">
            <path
               style="stroke:none;stroke-width:0"
               d="M 1.78125,-1.140625 C 1.390625,-0.484375 1,-0.34375 0.5625,-0.3125 0.4375,-0.296875 0.34375,-0.296875 0.34375,-0.109375 0.34375,-0.046875 0.40625,0 0.484375,0 0.75,0 1.0625,-0.03125 1.328125,-0.03125 c 0.34375,0 0.6875,0.03125 1,0.03125 0.0625,0 0.1875,0 0.1875,-0.1875 0,-0.109375 -0.078125,-0.125 -0.15625,-0.125 -0.21875,-0.015625 -0.46875,-0.09375 -0.46875,-0.34375 0,-0.125 0.0625,-0.234375 0.140625,-0.375 l 0.765625,-1.265625 h 2.5 c 0.015625,0.203125 0.15625,1.5625 0.15625,1.65625 0,0.296875 -0.515625,0.328125 -0.71875,0.328125 C 4.59375,-0.3125 4.5,-0.3125 4.5,-0.109375 4.5,0 4.609375,0 4.640625,0 5.046875,0 5.46875,-0.03125 5.875,-0.03125 6.125,-0.03125 6.765625,0 7.015625,0 7.0625,0 7.1875,0 7.1875,-0.203125 7.1875,-0.3125 7.09375,-0.3125 6.953125,-0.3125 6.34375,-0.3125 6.34375,-0.375 6.3125,-0.671875 l -0.609375,-6.21875 c -0.015625,-0.203125 -0.015625,-0.25 -0.1875,-0.25 -0.15625,0 -0.203125,0.078125 -0.265625,0.171875 z M 2.984375,-2.609375 4.9375,-5.90625 5.265625,-2.609375 Z m 0,0"
               id="id-a83812cd-43e6-461e-9aff-67fb671dbd7b" />
          </g>
        </g>
        <g
           style="fill:#000000;fill-opacity:1"
           id="id-604c3575-e678-46dc-9437-28e3a09e6e61">
          <g
             transform="translate(158.952,134.765)"
             id="g1236">
            <path
               style="stroke:none;stroke-width:0"
               d="m 6.5625,-5.9375 c 0.171875,0 0.359375,0 0.359375,-0.203125 0,-0.203125 -0.1875,-0.203125 -0.359375,-0.203125 H 3.890625 c -1.71875,0 -3.0625,1.3125 -3.0625,2.890625 0,1.59375 1.375,2.890625 3.0625,2.890625 H 6.5625 c 0.171875,0 0.359375,0 0.359375,-0.203125 0,-0.203125 -0.1875,-0.203125 -0.359375,-0.203125 H 3.90625 c -1.578125,0 -2.6875,-1.171875 -2.6875,-2.484375 0,-1.359375 1.140625,-2.484375 2.6875,-2.484375 z M 1.375,0.96875 c -0.171875,0 -0.34375,0 -0.34375,0.203125 0,0.1875 0.171875,0.1875 0.34375,0.1875 h 5.1875 c 0.171875,0 0.359375,0 0.359375,-0.1875 0,-0.203125 -0.1875,-0.203125 -0.359375,-0.203125 z m 0,0"
               id="id-14cbc15e-1e41-433d-943f-6a2bad11bfab" />
          </g>
        </g>
        <g
           style="fill:#000000;fill-opacity:1"
           id="id-613edab9-607a-446a-9afd-d05735b7f6cf">
          <g
             transform="translate(169.468,134.765)"
             id="g1240">
            <path
               style="stroke:none;stroke-width:0"
               d="M 1.59375,-0.78125 C 1.5,-0.390625 1.46875,-0.3125 0.6875,-0.3125 c -0.171875,0 -0.265625,0 -0.265625,0.203125 C 0.421875,0 0.515625,0 0.6875,0 H 4.25 C 5.828125,0 7,-1.171875 7,-2.15625 7,-2.875 6.421875,-3.453125 5.453125,-3.5625 6.484375,-3.75 7.53125,-4.484375 7.53125,-5.4375 c 0,-0.734375 -0.65625,-1.375 -1.84375,-1.375 H 2.328125 c -0.1875,0 -0.28125,0 -0.28125,0.203125 0,0.109375 0.09375,0.109375 0.28125,0.109375 0.015625,0 0.203125,0 0.375,0.015625 0.171875,0.03125 0.265625,0.03125 0.265625,0.171875 0,0.03125 -0.015625,0.0625 -0.03125,0.1875 z m 1.5,-2.875 0.625,-2.46875 C 3.8125,-6.46875 3.828125,-6.5 4.25,-6.5 h 1.296875 c 0.875,0 1.078125,0.59375 1.078125,1.03125 0,0.875 -0.859375,1.8125 -2.0625,1.8125 z m -0.4375,3.34375 c -0.140625,0 -0.15625,0 -0.21875,0 -0.109375,-0.015625 -0.140625,-0.03125 -0.140625,-0.109375 0,-0.03125 0,-0.046875 0.0625,-0.21875 l 0.6875,-2.78125 h 1.875 c 0.953125,0 1.15625,0.734375 1.15625,1.15625 C 6.078125,-1.28125 5.1875,-0.3125 4,-0.3125 Z m 0,0"
               id="id-7ff007dc-3c3a-44cb-9af9-5696d6012b39" />
          </g>
        </g>
      </g>
    </g>
  </g>
</svg>
